%TF.GenerationSoftware,KiCad,Pcbnew,9.0.7*%
%TF.CreationDate,2026-03-04T02:39:06+00:00*%
%TF.ProjectId,main-PCB,6d61696e-2d50-4434-922e-6b696361645f,rev?*%
%TF.SameCoordinates,Original*%
%TF.FileFunction,Paste,Top*%
%TF.FilePolarity,Positive*%
%FSLAX46Y46*%
G04 Gerber Fmt 4.6, Leading zero omitted, Abs format (unit mm)*
G04 Created by KiCad (PCBNEW 9.0.7) date 2026-03-04 02:39:06*
%MOMM*%
%LPD*%
G01*
G04 APERTURE LIST*
G04 Aperture macros list*
%AMRoundRect*
0 Rectangle with rounded corners*
0 $1 Rounding radius*
0 $2 $3 $4 $5 $6 $7 $8 $9 X,Y pos of 4 corners*
0 Add a 4 corners polygon primitive as box body*
4,1,4,$2,$3,$4,$5,$6,$7,$8,$9,$2,$3,0*
0 Add four circle primitives for the rounded corners*
1,1,$1+$1,$2,$3*
1,1,$1+$1,$4,$5*
1,1,$1+$1,$6,$7*
1,1,$1+$1,$8,$9*
0 Add four rect primitives between the rounded corners*
20,1,$1+$1,$2,$3,$4,$5,0*
20,1,$1+$1,$4,$5,$6,$7,0*
20,1,$1+$1,$6,$7,$8,$9,0*
20,1,$1+$1,$8,$9,$2,$3,0*%
%AMRotRect*
0 Rectangle, with rotation*
0 The origin of the aperture is its center*
0 $1 length*
0 $2 width*
0 $3 Rotation angle, in degrees counterclockwise*
0 Add horizontal line*
21,1,$1,$2,0,0,$3*%
G04 Aperture macros list end*
%ADD10RoundRect,0.232500X0.000000X0.328805X-0.328805X0.000000X0.000000X-0.328805X0.328805X0.000000X0*%
%ADD11RoundRect,0.062500X0.220971X0.309359X-0.309359X-0.220971X-0.220971X-0.309359X0.309359X0.220971X0*%
%ADD12RoundRect,0.062500X-0.220971X0.309359X-0.309359X0.220971X0.220971X-0.309359X0.309359X-0.220971X0*%
%ADD13RoundRect,0.079500X0.127279X0.014849X0.014849X0.127279X-0.127279X-0.014849X-0.014849X-0.127279X0*%
%ADD14RoundRect,0.079500X-0.127279X-0.014849X-0.014849X-0.127279X0.127279X0.014849X0.014849X0.127279X0*%
%ADD15RoundRect,0.140000X0.170000X-0.140000X0.170000X0.140000X-0.170000X0.140000X-0.170000X-0.140000X0*%
%ADD16RoundRect,0.079500X0.014849X-0.127279X0.127279X-0.014849X-0.014849X0.127279X-0.127279X0.014849X0*%
%ADD17RoundRect,0.147500X-0.017678X0.226274X-0.226274X0.017678X0.017678X-0.226274X0.226274X-0.017678X0*%
%ADD18RoundRect,0.079500X-0.100500X0.079500X-0.100500X-0.079500X0.100500X-0.079500X0.100500X0.079500X0*%
%ADD19RotRect,0.250000X0.400000X135.000000*%
%ADD20RotRect,0.700000X0.400000X135.000000*%
%ADD21RoundRect,0.147500X-0.226274X-0.017678X-0.017678X-0.226274X0.226274X0.017678X0.017678X0.226274X0*%
%ADD22RoundRect,0.087500X0.114905X0.238649X-0.238649X-0.114905X-0.114905X-0.238649X0.238649X0.114905X0*%
%ADD23R,0.350000X0.375000*%
%ADD24R,0.375000X0.350000*%
%ADD25RoundRect,0.140000X-0.219203X-0.021213X-0.021213X-0.219203X0.219203X0.021213X0.021213X0.219203X0*%
%ADD26RoundRect,0.140000X0.219203X0.021213X0.021213X0.219203X-0.219203X-0.021213X-0.021213X-0.219203X0*%
%ADD27RoundRect,0.079500X0.079500X0.100500X-0.079500X0.100500X-0.079500X-0.100500X0.079500X-0.100500X0*%
G04 APERTURE END LIST*
D10*
%TO.C,U3*%
X151626346Y-90000000D03*
X150813173Y-89186827D03*
X150000000Y-88373654D03*
X150813173Y-90813173D03*
X150000000Y-90000000D03*
X149186827Y-89186827D03*
X150000000Y-91626346D03*
X149186827Y-90813173D03*
X148373654Y-90000000D03*
D11*
X152961010Y-89513864D03*
X152607456Y-89160311D03*
X152253903Y-88806757D03*
X151900349Y-88453204D03*
X151546796Y-88099651D03*
X151193243Y-87746097D03*
X150839689Y-87392544D03*
X150486136Y-87038990D03*
D12*
X149513864Y-87038990D03*
X149160311Y-87392544D03*
X148806757Y-87746097D03*
X148453204Y-88099651D03*
X148099651Y-88453204D03*
X147746097Y-88806757D03*
X147392544Y-89160311D03*
X147038990Y-89513864D03*
D11*
X147038990Y-90486136D03*
X147392544Y-90839689D03*
X147746097Y-91193243D03*
X148099651Y-91546796D03*
X148453204Y-91900349D03*
X148806757Y-92253903D03*
X149160311Y-92607456D03*
X149513864Y-92961010D03*
D12*
X150486136Y-92961010D03*
X150839689Y-92607456D03*
X151193243Y-92253903D03*
X151546796Y-91900349D03*
X151900349Y-91546796D03*
X152253903Y-91193243D03*
X152607456Y-90839689D03*
X152961010Y-90486136D03*
%TD*%
D13*
%TO.C,R4*%
X157643952Y-89643952D03*
X157156048Y-89156048D03*
%TD*%
D14*
%TO.C,C4*%
X153756048Y-88756048D03*
X154243952Y-89243952D03*
%TD*%
D15*
%TO.C,C3*%
X152500000Y-96650000D03*
X152500000Y-95690000D03*
%TD*%
D16*
%TO.C,R2*%
X153156048Y-84143952D03*
X153643952Y-83656048D03*
%TD*%
%TO.C,R1*%
X142356048Y-89643952D03*
X142843952Y-89156048D03*
%TD*%
D17*
%TO.C,D1*%
X144342947Y-87657053D03*
X143657053Y-88342947D03*
%TD*%
D18*
%TO.C,C1*%
X151600000Y-96625000D03*
X151600000Y-97315000D03*
%TD*%
D19*
%TO.C,Q1*%
X147106586Y-85211612D03*
X146788388Y-84893414D03*
D20*
X146452513Y-85547487D03*
%TD*%
D21*
%TO.C,D2*%
X155657053Y-87657053D03*
X156342947Y-88342947D03*
%TD*%
D13*
%TO.C,C5*%
X146243952Y-91243952D03*
X145756048Y-90756048D03*
%TD*%
D22*
%TO.C,Q4*%
X155757367Y-84749740D03*
X155403814Y-84396186D03*
X155050260Y-84042633D03*
X154042633Y-85050260D03*
X154396186Y-85403814D03*
X154749740Y-85757367D03*
%TD*%
D16*
%TO.C,R3*%
X148056048Y-86243952D03*
X148543952Y-85756048D03*
%TD*%
D23*
%TO.C,U2*%
X150750000Y-95150000D03*
X150250000Y-95150000D03*
X149750000Y-95150000D03*
X149250000Y-95150000D03*
D24*
X149250000Y-95650000D03*
X149250000Y-96150000D03*
D23*
X149250000Y-96650000D03*
X149750000Y-96650000D03*
X150250000Y-96650000D03*
X150750000Y-96650000D03*
D24*
X150750000Y-96150000D03*
X150750000Y-95650000D03*
%TD*%
D25*
%TO.C,C6*%
X154360589Y-88160589D03*
X155039411Y-88839411D03*
%TD*%
D26*
%TO.C,C8*%
X152939411Y-86739411D03*
X152260589Y-86060589D03*
%TD*%
D27*
%TO.C,C2*%
X150275000Y-97500000D03*
X149585000Y-97500000D03*
%TD*%
D13*
%TO.C,C7*%
X152343952Y-87343952D03*
X151856048Y-86856048D03*
%TD*%
M02*
