%TF.GenerationSoftware,KiCad,Pcbnew,10.0.0*%
%TF.CreationDate,2026-04-10T22:18:25+01:00*%
%TF.ProjectId,main-PCB,6d61696e-2d50-4434-922e-6b696361645f,rev?*%
%TF.SameCoordinates,Original*%
%TF.FileFunction,Soldermask,Top*%
%TF.FilePolarity,Negative*%
%FSLAX46Y46*%
G04 Gerber Fmt 4.6, Leading zero omitted, Abs format (unit mm)*
G04 Created by KiCad (PCBNEW 10.0.0) date 2026-04-10 22:18:25*
%MOMM*%
%LPD*%
G01*
G04 APERTURE LIST*
G04 Aperture macros list*
%AMRoundRect*
0 Rectangle with rounded corners*
0 $1 Rounding radius*
0 $2 $3 $4 $5 $6 $7 $8 $9 X,Y pos of 4 corners*
0 Add a 4 corners polygon primitive as box body*
4,1,4,$2,$3,$4,$5,$6,$7,$8,$9,$2,$3,0*
0 Add four circle primitives for the rounded corners*
1,1,$1+$1,$2,$3*
1,1,$1+$1,$4,$5*
1,1,$1+$1,$6,$7*
1,1,$1+$1,$8,$9*
0 Add four rect primitives between the rounded corners*
20,1,$1+$1,$2,$3,$4,$5,0*
20,1,$1+$1,$4,$5,$6,$7,0*
20,1,$1+$1,$6,$7,$8,$9,0*
20,1,$1+$1,$8,$9,$2,$3,0*%
%AMRotRect*
0 Rectangle, with rotation*
0 The origin of the aperture is its center*
0 $1 length*
0 $2 width*
0 $3 Rotation angle, in degrees counterclockwise*
0 Add horizontal line*
21,1,$1,$2,0,0,$3*%
G04 Aperture macros list end*
%ADD10RoundRect,0.135000X0.226274X0.035355X0.035355X0.226274X-0.226274X-0.035355X-0.035355X-0.226274X0*%
%ADD11RoundRect,0.140000X-0.219203X-0.021213X-0.021213X-0.219203X0.219203X0.021213X0.021213X0.219203X0*%
%ADD12RoundRect,0.140000X0.219203X0.021213X0.021213X0.219203X-0.219203X-0.021213X-0.021213X-0.219203X0*%
%ADD13RoundRect,0.135000X0.035355X-0.226274X0.226274X-0.035355X-0.035355X0.226274X-0.226274X0.035355X0*%
%ADD14RoundRect,0.147500X-0.017678X0.226274X-0.226274X0.017678X0.017678X-0.226274X0.226274X-0.017678X0*%
%ADD15RoundRect,0.140000X0.170000X-0.140000X0.170000X0.140000X-0.170000X0.140000X-0.170000X-0.140000X0*%
%ADD16RotRect,0.250000X0.400000X135.000000*%
%ADD17RotRect,0.700000X0.400000X135.000000*%
%ADD18C,1.000000*%
%ADD19RoundRect,0.147500X-0.226274X-0.017678X-0.017678X-0.226274X0.226274X0.017678X0.017678X0.226274X0*%
%ADD20RoundRect,0.087500X0.114905X0.238649X-0.238649X-0.114905X-0.114905X-0.238649X0.238649X0.114905X0*%
%ADD21RoundRect,0.062500X0.220971X0.309359X-0.309359X-0.220971X-0.220971X-0.309359X0.309359X0.220971X0*%
%ADD22RoundRect,0.062500X-0.220971X0.309359X-0.309359X0.220971X0.220971X-0.309359X0.309359X-0.220971X0*%
%ADD23RotRect,3.450000X3.450000X225.000000*%
%ADD24R,0.350000X0.375000*%
%ADD25R,0.375000X0.350000*%
%ADD26C,0.500000*%
%ADD27RoundRect,0.140000X-0.021213X0.219203X-0.219203X0.021213X0.021213X-0.219203X0.219203X-0.021213X0*%
%ADD28RoundRect,0.140000X0.140000X0.170000X-0.140000X0.170000X-0.140000X-0.170000X0.140000X-0.170000X0*%
G04 APERTURE END LIST*
D10*
%TO.C,R4*%
X157760624Y-89760624D03*
X157039376Y-89039376D03*
%TD*%
D11*
%TO.C,C6*%
X153800589Y-88670589D03*
X154479411Y-89349411D03*
%TD*%
D12*
%TO.C,C1*%
X153639411Y-95239411D03*
X152960589Y-94560589D03*
%TD*%
D13*
%TO.C,R1*%
X153179376Y-84140624D03*
X153900624Y-83419376D03*
%TD*%
%TO.C,R3*%
X142239376Y-89760624D03*
X142960624Y-89039376D03*
%TD*%
D14*
%TO.C,D1*%
X144342947Y-87657053D03*
X143657053Y-88342947D03*
%TD*%
D15*
%TO.C,C3*%
X152000000Y-96250000D03*
X152000000Y-95290000D03*
%TD*%
D16*
%TO.C,Q2*%
X147106586Y-85211612D03*
X146788388Y-84893414D03*
D17*
X146452513Y-85547487D03*
%TD*%
D18*
%TO.C,TP6*%
X145000000Y-94000000D03*
%TD*%
%TO.C,TP2*%
X157000000Y-92000000D03*
%TD*%
D19*
%TO.C,D2*%
X155657053Y-87657053D03*
X156342947Y-88342947D03*
%TD*%
D12*
%TO.C,C7*%
X146169411Y-91379411D03*
X145490589Y-90700589D03*
%TD*%
D20*
%TO.C,Q1*%
X155757367Y-84749740D03*
X155403814Y-84396186D03*
X155050260Y-84042633D03*
X154042633Y-85050260D03*
X154396186Y-85403814D03*
X154749740Y-85757367D03*
%TD*%
D18*
%TO.C,TP7*%
X155000000Y-94000000D03*
%TD*%
D13*
%TO.C,R2*%
X148139376Y-86240624D03*
X148860624Y-85519376D03*
%TD*%
D21*
%TO.C,U2*%
X152961010Y-89513864D03*
X152607456Y-89160311D03*
X152253903Y-88806757D03*
X151900349Y-88453204D03*
X151546796Y-88099651D03*
X151193243Y-87746097D03*
X150839689Y-87392544D03*
X150486136Y-87038990D03*
D22*
X149513864Y-87038990D03*
X149160311Y-87392544D03*
X148806757Y-87746097D03*
X148453204Y-88099651D03*
X148099651Y-88453204D03*
X147746097Y-88806757D03*
X147392544Y-89160311D03*
X147038990Y-89513864D03*
D21*
X147038990Y-90486136D03*
X147392544Y-90839689D03*
X147746097Y-91193243D03*
X148099651Y-91546796D03*
X148453204Y-91900349D03*
X148806757Y-92253903D03*
X149160311Y-92607456D03*
X149513864Y-92961010D03*
D22*
X150486136Y-92961010D03*
X150839689Y-92607456D03*
X151193243Y-92253903D03*
X151546796Y-91900349D03*
X151900349Y-91546796D03*
X152253903Y-91193243D03*
X152607456Y-90839689D03*
X152961010Y-90486136D03*
D23*
X150000000Y-90000000D03*
%TD*%
D24*
%TO.C,U1*%
X150750000Y-94750000D03*
X150250000Y-94750000D03*
X149750000Y-94750000D03*
X149250000Y-94750000D03*
D25*
X149250000Y-95250000D03*
X149250000Y-95750000D03*
D24*
X149250000Y-96250000D03*
X149750000Y-96250000D03*
X150250000Y-96250000D03*
X150750000Y-96250000D03*
D25*
X150750000Y-95750000D03*
X150750000Y-95250000D03*
%TD*%
D11*
%TO.C,C4*%
X154470589Y-88000589D03*
X155149411Y-88679411D03*
%TD*%
D26*
%TO.C,TP4*%
X155700000Y-90400000D03*
%TD*%
D12*
%TO.C,C9*%
X153049411Y-86589411D03*
X152370589Y-85910589D03*
%TD*%
D27*
%TO.C,C5*%
X155039411Y-91060589D03*
X154360589Y-91739411D03*
%TD*%
D18*
%TO.C,TP5*%
X143000000Y-92000000D03*
%TD*%
D28*
%TO.C,C2*%
X150250000Y-97300000D03*
X149290000Y-97300000D03*
%TD*%
D12*
%TO.C,C8*%
X152379411Y-87259411D03*
X151700589Y-86580589D03*
%TD*%
M02*
