M48
; DRILL file {KiCad 9.0.7} date 2026-03-04T02:39:21+0000
; FORMAT={-:-/ absolute / metric / decimal}
; #@! TF.CreationDate,2026-03-04T02:39:21+00:00
; #@! TF.GenerationSoftware,Kicad,Pcbnew,9.0.7
; #@! TF.FileFunction,Plated,1,4,PTH
FMAT,2
METRIC
; #@! TA.AperFunction,Plated,PTH,ViaDrill
T1C0.300
; #@! TA.AperFunction,Plated,PTH,ViaDrill
T2C0.400
%
G90
G05
T1
X144.8Y-93.2
X146.7Y-94.3
X148.6Y-93.2
X150.0Y-93.4
X150.174Y-86.726
X150.5Y-86.1
X151.5Y-86.5
X151.9Y-93.4
X152.4Y-93.9
T2
X141.0Y-87.0
X141.8Y-89.0
X142.5Y-91.3
X143.8Y-87.1
X145.0Y-83.0
X145.2Y-90.2
X145.8Y-91.7
X146.3Y-84.4
X146.4Y-88.9
X147.0Y-86.1
X147.1Y-92.5
X147.3Y-84.382
X147.3Y-87.0
X148.2Y-95.8
X148.2Y-96.65
X148.8Y-97.5
X149.2Y-85.7
X150.0Y-94.2
X150.25Y-98.2
X151.4Y-98.0
X151.6Y-85.7
X152.5Y-94.9
X153.0Y-93.3
X153.4Y-87.2
X153.4Y-96.2
X153.6Y-91.1
X153.9Y-87.7
X154.0Y-94.0
X154.2Y-83.1
X154.8Y-89.8
X155.1Y-87.1
X155.3Y-92.3
X155.6Y-83.5
X155.6Y-89.4
X155.7Y-86.3
X157.3Y-91.3
X158.2Y-89.1
X159.0Y-87.0
M30
