%TF.GenerationSoftware,KiCad,Pcbnew,9.0.7*%
%TF.CreationDate,2026-03-04T02:39:05+00:00*%
%TF.ProjectId,main-PCB,6d61696e-2d50-4434-922e-6b696361645f,rev?*%
%TF.SameCoordinates,Original*%
%TF.FileFunction,Copper,L4,Bot*%
%TF.FilePolarity,Positive*%
%FSLAX46Y46*%
G04 Gerber Fmt 4.6, Leading zero omitted, Abs format (unit mm)*
G04 Created by KiCad (PCBNEW 9.0.7) date 2026-03-04 02:39:05*
%MOMM*%
%LPD*%
G01*
G04 APERTURE LIST*
%TA.AperFunction,SMDPad,CuDef*%
%ADD10C,2.400000*%
%TD*%
%TA.AperFunction,ViaPad*%
%ADD11C,0.600000*%
%TD*%
%TA.AperFunction,ViaPad*%
%ADD12C,0.450000*%
%TD*%
%TA.AperFunction,Conductor*%
%ADD13C,0.350000*%
%TD*%
%TA.AperFunction,Conductor*%
%ADD14C,0.500000*%
%TD*%
%TA.AperFunction,Conductor*%
%ADD15C,0.120000*%
%TD*%
G04 APERTURE END LIST*
D10*
%TO.P,TP5,1,1*%
%TO.N,GND*%
X150000000Y-91000000D03*
%TD*%
%TO.P,TP54,1,1*%
%TO.N,/LED_K*%
X143000000Y-85000000D03*
%TD*%
%TO.P,TP44,1,1*%
%TO.N,Net-(Q4-D-Pad1)*%
X157000000Y-85000000D03*
%TD*%
D11*
%TO.N,VCC*%
X150250000Y-98200000D03*
X158200000Y-89100000D03*
X141800000Y-89000000D03*
%TO.N,GND*%
X142500000Y-91300000D03*
X157300000Y-91300000D03*
X147100000Y-92500000D03*
%TO.N,Net-(Q4-D-Pad1)*%
X155700000Y-86300000D03*
%TO.N,GND*%
X155600000Y-83500000D03*
%TO.N,/LED_K*%
X147000000Y-86100000D03*
X155100000Y-87100000D03*
%TO.N,GND*%
X145000000Y-83000000D03*
X159000000Y-87000000D03*
X141000000Y-87000000D03*
X147300000Y-87000000D03*
X154200000Y-83100000D03*
X153000000Y-93300000D03*
X150000000Y-94200000D03*
X148200000Y-95800000D03*
X146300000Y-84400000D03*
X151400000Y-98000000D03*
D12*
%TO.N,/INT1*%
X151900000Y-93400000D03*
%TO.N,/INT2*%
X152400000Y-93900000D03*
%TO.N,GND*%
X151500000Y-86500000D03*
%TO.N,/INT1*%
X150500000Y-86100000D03*
%TO.N,/INT2*%
X150173573Y-86726427D03*
D11*
%TO.N,/LED_K*%
X143800000Y-87100000D03*
%TO.N,GND*%
X154800000Y-89800000D03*
X154000000Y-94000000D03*
X145200000Y-90200000D03*
X148800000Y-97500000D03*
X153600000Y-91100000D03*
X146400000Y-88900000D03*
X147300000Y-84381802D03*
X149200000Y-85700000D03*
X151600000Y-85700000D03*
X152500000Y-94900000D03*
X155600000Y-89400000D03*
X148200000Y-96650000D03*
%TO.N,VCC*%
X153400000Y-87200000D03*
X145800000Y-91700000D03*
X153900000Y-87700000D03*
X153400000Y-96200000D03*
X155300000Y-92300000D03*
D12*
%TO.N,/SWDIO*%
X148600000Y-93200000D03*
X144800000Y-93200000D03*
%TO.N,/SWCLK*%
X146700000Y-94300000D03*
X150000000Y-93400000D03*
%TD*%
D13*
%TO.N,Net-(Q4-D-Pad1)*%
X155700000Y-86300000D02*
X157000000Y-85000000D01*
D14*
%TO.N,/LED_K*%
X155100000Y-87100000D02*
X152900000Y-84900000D01*
X152900000Y-84900000D02*
X148200000Y-84900000D01*
X148200000Y-84900000D02*
X147000000Y-86100000D01*
D15*
%TO.N,/INT1*%
X149500000Y-87000000D02*
X151900000Y-89400000D01*
X149800000Y-86100000D02*
X149700000Y-86200000D01*
X151900000Y-89400000D02*
X151900000Y-93400000D01*
X150500000Y-86100000D02*
X149800000Y-86100000D01*
X149500000Y-86400000D02*
X149500000Y-87000000D01*
X149700000Y-86200000D02*
X149500000Y-86400000D01*
%TO.N,/INT2*%
X152400000Y-88952854D02*
X152400000Y-93900000D01*
X150173573Y-86726427D02*
X152400000Y-88952854D01*
D14*
%TO.N,/LED_K*%
X143800000Y-87100000D02*
X143000000Y-86300000D01*
X143000000Y-86300000D02*
X143000000Y-85000000D01*
D15*
%TO.N,/SWDIO*%
X144800000Y-93200000D02*
X148600000Y-93200000D01*
%TO.N,/SWCLK*%
X146700000Y-94300000D02*
X149100000Y-94300000D01*
X149100000Y-94300000D02*
X150000000Y-93400000D01*
%TD*%
%TA.AperFunction,Conductor*%
%TO.N,GND*%
G36*
X145367935Y-81974094D02*
G01*
X145371544Y-81974226D01*
X145551051Y-81984064D01*
X145554566Y-81984321D01*
X145731982Y-82000565D01*
X145735505Y-82000954D01*
X145910761Y-82023480D01*
X145914261Y-82023995D01*
X146087310Y-82052680D01*
X146090839Y-82053330D01*
X146261714Y-82088068D01*
X146265115Y-82088824D01*
X146433717Y-82129490D01*
X146437152Y-82130384D01*
X146474495Y-82140821D01*
X146603470Y-82176869D01*
X146606766Y-82177853D01*
X146770796Y-82230060D01*
X146774058Y-82231162D01*
X146892059Y-82273359D01*
X146935658Y-82288950D01*
X146938892Y-82290171D01*
X146984223Y-82308190D01*
X147098074Y-82353446D01*
X147101158Y-82354734D01*
X147246488Y-82418405D01*
X147257921Y-82423414D01*
X147260994Y-82424824D01*
X147415175Y-82498748D01*
X147418139Y-82500230D01*
X147569839Y-82579369D01*
X147572652Y-82580897D01*
X147721726Y-82665097D01*
X147724463Y-82666704D01*
X147852824Y-82744878D01*
X147868771Y-82754590D01*
X147872782Y-82757167D01*
X148159201Y-82951210D01*
X148164231Y-82954855D01*
X148437144Y-83166014D01*
X148441790Y-83169842D01*
X148702726Y-83398610D01*
X148707011Y-83402599D01*
X148853430Y-83547275D01*
X148955390Y-83648022D01*
X148959357Y-83652176D01*
X149194664Y-83913343D01*
X149198295Y-83917610D01*
X149394467Y-84161815D01*
X149396766Y-84164791D01*
X149404170Y-84174761D01*
X149405453Y-84178419D01*
X149413887Y-84187846D01*
X149416583Y-84191476D01*
X149424970Y-84216399D01*
X149435593Y-84240462D01*
X149434606Y-84245033D01*
X149436098Y-84249466D01*
X149428231Y-84274563D01*
X149422683Y-84300270D01*
X149419197Y-84303388D01*
X149417799Y-84307851D01*
X149396683Y-84323532D01*
X149377084Y-84341068D01*
X149371478Y-84342250D01*
X149368678Y-84344330D01*
X149361249Y-84344407D01*
X149337103Y-84349500D01*
X148127525Y-84349500D01*
X147987515Y-84387016D01*
X147923443Y-84424008D01*
X147861982Y-84459492D01*
X146804049Y-85517423D01*
X146771936Y-85538881D01*
X146768222Y-85540419D01*
X146631284Y-85619480D01*
X146519480Y-85731284D01*
X146440423Y-85868216D01*
X146399500Y-86020943D01*
X146399500Y-86179057D01*
X146440423Y-86331784D01*
X146519480Y-86468716D01*
X146631284Y-86580520D01*
X146768216Y-86659577D01*
X146920943Y-86700500D01*
X146920945Y-86700500D01*
X147079055Y-86700500D01*
X147079057Y-86700500D01*
X147231784Y-86659577D01*
X147368716Y-86580520D01*
X147480520Y-86468716D01*
X147559577Y-86331784D01*
X147559578Y-86331779D01*
X147561115Y-86328070D01*
X147582578Y-86295946D01*
X148399030Y-85479496D01*
X148453546Y-85451719D01*
X148469033Y-85450500D01*
X150204494Y-85450500D01*
X150205033Y-85450675D01*
X150205575Y-85450506D01*
X150234039Y-85460099D01*
X150262685Y-85469407D01*
X150263019Y-85469867D01*
X150263556Y-85470048D01*
X150280928Y-85494516D01*
X150298649Y-85518907D01*
X150298649Y-85519476D01*
X150298977Y-85519938D01*
X150298649Y-85549978D01*
X150298649Y-85580093D01*
X150298315Y-85580552D01*
X150298309Y-85581119D01*
X150294712Y-85585510D01*
X150262685Y-85629593D01*
X150261806Y-85630224D01*
X150258022Y-85632910D01*
X150177335Y-85679495D01*
X150140433Y-85716396D01*
X150133634Y-85721224D01*
X150112002Y-85727992D01*
X150091808Y-85738281D01*
X150076322Y-85739500D01*
X149847461Y-85739500D01*
X149752539Y-85739500D01*
X149696422Y-85754536D01*
X149660847Y-85764068D01*
X149578652Y-85811524D01*
X149578647Y-85811528D01*
X149478647Y-85911527D01*
X149478648Y-85911528D01*
X149278648Y-86111528D01*
X149278647Y-86111527D01*
X149211528Y-86178647D01*
X149211524Y-86178652D01*
X149164068Y-86260847D01*
X149158040Y-86283344D01*
X149139500Y-86352539D01*
X149139500Y-86952539D01*
X149139500Y-87047461D01*
X149154658Y-87104031D01*
X149164068Y-87139152D01*
X149211524Y-87221347D01*
X149211526Y-87221349D01*
X149211528Y-87221352D01*
X151510505Y-89520329D01*
X151538281Y-89574844D01*
X151539500Y-89590331D01*
X151539500Y-90305040D01*
X151520593Y-90363231D01*
X151471093Y-90399195D01*
X151409907Y-90399195D01*
X151360407Y-90363231D01*
X151352290Y-90349985D01*
X151282915Y-90213829D01*
X151282913Y-90213825D01*
X151163148Y-90048983D01*
X150212132Y-90999999D01*
X151163147Y-91951014D01*
X151282916Y-91786168D01*
X151352290Y-91650014D01*
X151395555Y-91606749D01*
X151455987Y-91597178D01*
X151510503Y-91624955D01*
X151538281Y-91679472D01*
X151539500Y-91694959D01*
X151539500Y-92976322D01*
X151520593Y-93034513D01*
X151510505Y-93046325D01*
X151479495Y-93077334D01*
X151412176Y-93193935D01*
X151410312Y-93197164D01*
X151374500Y-93330817D01*
X151374500Y-93469183D01*
X151410312Y-93602836D01*
X151479495Y-93722665D01*
X151577335Y-93820505D01*
X151697164Y-93889688D01*
X151810059Y-93919938D01*
X151861372Y-93953261D01*
X151880062Y-93989941D01*
X151910312Y-94102836D01*
X151979495Y-94222665D01*
X152077335Y-94320505D01*
X152197164Y-94389688D01*
X152330817Y-94425500D01*
X152330819Y-94425500D01*
X152469181Y-94425500D01*
X152469183Y-94425500D01*
X152602836Y-94389688D01*
X152722665Y-94320505D01*
X152820505Y-94222665D01*
X152889688Y-94102836D01*
X152925500Y-93969183D01*
X152925500Y-93830817D01*
X152889688Y-93697164D01*
X152820505Y-93577335D01*
X152789495Y-93546325D01*
X152761719Y-93491808D01*
X152760500Y-93476322D01*
X152760500Y-92220943D01*
X154699500Y-92220943D01*
X154699500Y-92379057D01*
X154740423Y-92531784D01*
X154819480Y-92668716D01*
X154931284Y-92780520D01*
X155068216Y-92859577D01*
X155220943Y-92900500D01*
X155220945Y-92900500D01*
X155379055Y-92900500D01*
X155379057Y-92900500D01*
X155531784Y-92859577D01*
X155668716Y-92780520D01*
X155780520Y-92668716D01*
X155859577Y-92531784D01*
X155900500Y-92379057D01*
X155900500Y-92220943D01*
X155859577Y-92068216D01*
X155780520Y-91931284D01*
X155668716Y-91819480D01*
X155531784Y-91740423D01*
X155379057Y-91699500D01*
X155220943Y-91699500D01*
X155068216Y-91740423D01*
X154931284Y-91819480D01*
X154819480Y-91931284D01*
X154740423Y-92068216D01*
X154699500Y-92220943D01*
X152760500Y-92220943D01*
X152760500Y-89020943D01*
X157599500Y-89020943D01*
X157599500Y-89179057D01*
X157640423Y-89331784D01*
X157719480Y-89468716D01*
X157831284Y-89580520D01*
X157968216Y-89659577D01*
X158120943Y-89700500D01*
X158120945Y-89700500D01*
X158279055Y-89700500D01*
X158279057Y-89700500D01*
X158431784Y-89659577D01*
X158568716Y-89580520D01*
X158680520Y-89468716D01*
X158759577Y-89331784D01*
X158800500Y-89179057D01*
X158800500Y-89020943D01*
X158759577Y-88868216D01*
X158680520Y-88731284D01*
X158568716Y-88619480D01*
X158431784Y-88540423D01*
X158279057Y-88499500D01*
X158120943Y-88499500D01*
X157968216Y-88540423D01*
X157831284Y-88619480D01*
X157719480Y-88731284D01*
X157640423Y-88868216D01*
X157599500Y-89020943D01*
X152760500Y-89020943D01*
X152760500Y-88905394D01*
X152755347Y-88886163D01*
X152735933Y-88813706D01*
X152735931Y-88813703D01*
X152735931Y-88813701D01*
X152688475Y-88731506D01*
X152688471Y-88731501D01*
X152621352Y-88664381D01*
X152621352Y-88664382D01*
X150728069Y-86771099D01*
X150724534Y-86764162D01*
X150718220Y-86759614D01*
X150711046Y-86737689D01*
X150700292Y-86716582D01*
X150699074Y-86701501D01*
X150699073Y-86701257D01*
X150699073Y-86657244D01*
X150698889Y-86656560D01*
X150698861Y-86649546D01*
X150706367Y-86626115D01*
X150710846Y-86601921D01*
X150715723Y-86596912D01*
X150717529Y-86591278D01*
X150730393Y-86581850D01*
X150748358Y-86563405D01*
X150822665Y-86520505D01*
X150920505Y-86422665D01*
X150989688Y-86302836D01*
X151025500Y-86169183D01*
X151025500Y-86030817D01*
X150989688Y-85897164D01*
X150920505Y-85777335D01*
X150822665Y-85679495D01*
X150746004Y-85635235D01*
X150705065Y-85589767D01*
X150698669Y-85528917D01*
X150729262Y-85475929D01*
X150785157Y-85451042D01*
X150795506Y-85450500D01*
X152630967Y-85450500D01*
X152689158Y-85469407D01*
X152700971Y-85479496D01*
X153684868Y-86463393D01*
X153712645Y-86517910D01*
X153703074Y-86578342D01*
X153659809Y-86621607D01*
X153599377Y-86631178D01*
X153589247Y-86629025D01*
X153479057Y-86599500D01*
X153320943Y-86599500D01*
X153168216Y-86640423D01*
X153031284Y-86719480D01*
X152919480Y-86831284D01*
X152840423Y-86968216D01*
X152799500Y-87120943D01*
X152799500Y-87279057D01*
X152840423Y-87431784D01*
X152919480Y-87568716D01*
X153031284Y-87680520D01*
X153168216Y-87759577D01*
X153248821Y-87781174D01*
X153300134Y-87814498D01*
X153318823Y-87851177D01*
X153340421Y-87931780D01*
X153340421Y-87931781D01*
X153340423Y-87931784D01*
X153419480Y-88068716D01*
X153531284Y-88180520D01*
X153668216Y-88259577D01*
X153820943Y-88300500D01*
X153820945Y-88300500D01*
X153979055Y-88300500D01*
X153979057Y-88300500D01*
X154131784Y-88259577D01*
X154268716Y-88180520D01*
X154380520Y-88068716D01*
X154459577Y-87931784D01*
X154500500Y-87779057D01*
X154500500Y-87620943D01*
X154496858Y-87607350D01*
X154500059Y-87546250D01*
X154538564Y-87498699D01*
X154597664Y-87482863D01*
X154654786Y-87504789D01*
X154662477Y-87511713D01*
X154731284Y-87580520D01*
X154868216Y-87659577D01*
X155020943Y-87700500D01*
X155020945Y-87700500D01*
X155179055Y-87700500D01*
X155179057Y-87700500D01*
X155331784Y-87659577D01*
X155468716Y-87580520D01*
X155580520Y-87468716D01*
X155659577Y-87331784D01*
X155700500Y-87179057D01*
X155700500Y-87020943D01*
X155700500Y-87020942D01*
X155699653Y-87014509D01*
X155701712Y-87014237D01*
X155704425Y-86962528D01*
X155742933Y-86914980D01*
X155773227Y-86903814D01*
X155772789Y-86902179D01*
X155779055Y-86900500D01*
X155779057Y-86900500D01*
X155931784Y-86859577D01*
X156068716Y-86780520D01*
X156180520Y-86668716D01*
X156259577Y-86531784D01*
X156280981Y-86451900D01*
X156314304Y-86400589D01*
X156371425Y-86378662D01*
X156421552Y-86389316D01*
X156424008Y-86390568D01*
X156648632Y-86463553D01*
X156648633Y-86463553D01*
X156648636Y-86463554D01*
X156881905Y-86500500D01*
X156881908Y-86500500D01*
X157118095Y-86500500D01*
X157351363Y-86463554D01*
X157351364Y-86463553D01*
X157351368Y-86463553D01*
X157575992Y-86390568D01*
X157786433Y-86283343D01*
X157977510Y-86144517D01*
X158144517Y-85977510D01*
X158283343Y-85786433D01*
X158390568Y-85575992D01*
X158463553Y-85351368D01*
X158464017Y-85348438D01*
X158500500Y-85118095D01*
X158500500Y-84881904D01*
X158463554Y-84648636D01*
X158451474Y-84611458D01*
X158390568Y-84424008D01*
X158283343Y-84213567D01*
X158144517Y-84022490D01*
X157977510Y-83855483D01*
X157786433Y-83716657D01*
X157786432Y-83716656D01*
X157786430Y-83716655D01*
X157575992Y-83609432D01*
X157351363Y-83536445D01*
X157118095Y-83499500D01*
X157118092Y-83499500D01*
X156881908Y-83499500D01*
X156881905Y-83499500D01*
X156648636Y-83536445D01*
X156424007Y-83609432D01*
X156213569Y-83716655D01*
X156022491Y-83855482D01*
X155855482Y-84022491D01*
X155716655Y-84213569D01*
X155609432Y-84424007D01*
X155536445Y-84648636D01*
X155499500Y-84881904D01*
X155499500Y-85118095D01*
X155536445Y-85351363D01*
X155606592Y-85567251D01*
X155609432Y-85575992D01*
X155610683Y-85578447D01*
X155610828Y-85579361D01*
X155610916Y-85579574D01*
X155610865Y-85579595D01*
X155620255Y-85638878D01*
X155592479Y-85693395D01*
X155548098Y-85719018D01*
X155514609Y-85727992D01*
X155468215Y-85740423D01*
X155331284Y-85819480D01*
X155219480Y-85931284D01*
X155140421Y-86068218D01*
X155140421Y-86068219D01*
X155122740Y-86134205D01*
X155089416Y-86185519D01*
X155032294Y-86207445D01*
X154973194Y-86191609D01*
X154957110Y-86178585D01*
X154121879Y-85343354D01*
X153238015Y-84459490D01*
X153112485Y-84387016D01*
X153112484Y-84387015D01*
X153112481Y-84387014D01*
X153062726Y-84373682D01*
X153062726Y-84373683D01*
X152972475Y-84349500D01*
X152972474Y-84349500D01*
X150662924Y-84349500D01*
X150647534Y-84344499D01*
X150631357Y-84344332D01*
X150619171Y-84335284D01*
X150604733Y-84330593D01*
X150595221Y-84317501D01*
X150582232Y-84307857D01*
X150577691Y-84293373D01*
X150568769Y-84281093D01*
X150568769Y-84264912D01*
X150563929Y-84249474D01*
X150568769Y-84237000D01*
X150568769Y-84219907D01*
X150583439Y-84191482D01*
X150586130Y-84187856D01*
X150594555Y-84178441D01*
X150595835Y-84174786D01*
X150603229Y-84164829D01*
X150603703Y-84164491D01*
X150605533Y-84161847D01*
X150612571Y-84153086D01*
X150801738Y-83917600D01*
X150805326Y-83913383D01*
X151040690Y-83652153D01*
X151044636Y-83648023D01*
X151126028Y-83567600D01*
X151293016Y-83402599D01*
X151297284Y-83398625D01*
X151558253Y-83169827D01*
X151562874Y-83166021D01*
X151835793Y-82954857D01*
X151840839Y-82951203D01*
X152125191Y-82758559D01*
X152130607Y-82755140D01*
X152425928Y-82581871D01*
X152431707Y-82578734D01*
X152737528Y-82425703D01*
X152743657Y-82422893D01*
X153059559Y-82290957D01*
X153065982Y-82288535D01*
X153391570Y-82178555D01*
X153398278Y-82176553D01*
X153733160Y-82089411D01*
X153740099Y-82087871D01*
X154083939Y-82024464D01*
X154091067Y-82023416D01*
X154443631Y-81984655D01*
X154450842Y-81984129D01*
X154813684Y-81970917D01*
X154819648Y-81970880D01*
X155075493Y-81976995D01*
X155080233Y-81977223D01*
X155333520Y-81995501D01*
X155338236Y-81995957D01*
X155586966Y-82026068D01*
X155591699Y-82026758D01*
X155835558Y-82068404D01*
X155840291Y-82069332D01*
X156079059Y-82122230D01*
X156083752Y-82123391D01*
X156205117Y-82156598D01*
X156317203Y-82187266D01*
X156321864Y-82188665D01*
X156549758Y-82263235D01*
X156554353Y-82264865D01*
X156776441Y-82349855D01*
X156780956Y-82351712D01*
X156996986Y-82446843D01*
X157001410Y-82448923D01*
X157211206Y-82553962D01*
X157215523Y-82556258D01*
X157418749Y-82670892D01*
X157422948Y-82673400D01*
X157552449Y-82755132D01*
X157615946Y-82795207D01*
X157619426Y-82797403D01*
X157623480Y-82800103D01*
X157671651Y-82833944D01*
X157812921Y-82933190D01*
X157816853Y-82936100D01*
X157999028Y-83078024D01*
X158002812Y-83081126D01*
X158177431Y-83231600D01*
X158181044Y-83234871D01*
X158272337Y-83321760D01*
X158347895Y-83393674D01*
X158351354Y-83397133D01*
X158510147Y-83563973D01*
X158513431Y-83567600D01*
X158663910Y-83742226D01*
X158667011Y-83746010D01*
X158808907Y-83928148D01*
X158811818Y-83932080D01*
X158942779Y-84118494D01*
X158944911Y-84121528D01*
X158947623Y-84125600D01*
X159071618Y-84322065D01*
X159074126Y-84326264D01*
X159188778Y-84529523D01*
X159191075Y-84533841D01*
X159296097Y-84743605D01*
X159298176Y-84748027D01*
X159393316Y-84964073D01*
X159395173Y-84968589D01*
X159480164Y-85190681D01*
X159481794Y-85195276D01*
X159556363Y-85423164D01*
X159557762Y-85427826D01*
X159621627Y-85661249D01*
X159622793Y-85665960D01*
X159675692Y-85904722D01*
X159676623Y-85909471D01*
X159718265Y-86153308D01*
X159718960Y-86158076D01*
X159749064Y-86406740D01*
X159749525Y-86411512D01*
X159767802Y-86664785D01*
X159768031Y-86669545D01*
X159774148Y-86925411D01*
X159774112Y-86931346D01*
X159738323Y-87923416D01*
X159737917Y-87929486D01*
X159693736Y-88381098D01*
X159693190Y-88385604D01*
X159630969Y-88816629D01*
X159630150Y-88821455D01*
X159550175Y-89231076D01*
X159549045Y-89236154D01*
X159451283Y-89626548D01*
X159449817Y-89631786D01*
X159334185Y-90005172D01*
X159332383Y-90010457D01*
X159198720Y-90369116D01*
X159196608Y-90374327D01*
X159044673Y-90720544D01*
X159042301Y-90725561D01*
X158871767Y-91061617D01*
X158869213Y-91066329D01*
X158869213Y-91066332D01*
X158869212Y-91066333D01*
X158679708Y-91394426D01*
X158677056Y-91398756D01*
X158469974Y-91718252D01*
X158466035Y-91723890D01*
X157986307Y-92362122D01*
X157981486Y-92368046D01*
X157422315Y-93003368D01*
X157418397Y-93007566D01*
X156775580Y-93657697D01*
X156772744Y-93660454D01*
X156045650Y-94339311D01*
X156043432Y-94341320D01*
X154328619Y-95847981D01*
X154328388Y-95848183D01*
X154123071Y-96027450D01*
X154066801Y-96051480D01*
X154007154Y-96037847D01*
X153966913Y-95991757D01*
X153962335Y-95978511D01*
X153959577Y-95968216D01*
X153880520Y-95831284D01*
X153768716Y-95719480D01*
X153631784Y-95640423D01*
X153479057Y-95599500D01*
X153320943Y-95599500D01*
X153168216Y-95640423D01*
X153031284Y-95719480D01*
X152919480Y-95831284D01*
X152840423Y-95968216D01*
X152799500Y-96120943D01*
X152799500Y-96279057D01*
X152840423Y-96431784D01*
X152919480Y-96568716D01*
X153031284Y-96680520D01*
X153118326Y-96730773D01*
X153159267Y-96776241D01*
X153165663Y-96837092D01*
X153135070Y-96890080D01*
X153133939Y-96891083D01*
X152308720Y-97611600D01*
X152300624Y-97618668D01*
X152299079Y-97619217D01*
X152270661Y-97644830D01*
X152270092Y-97645327D01*
X152238199Y-97673173D01*
X152233067Y-97678714D01*
X151147805Y-98656906D01*
X151139769Y-98664148D01*
X151138130Y-98664762D01*
X151110277Y-98690729D01*
X151109610Y-98691331D01*
X151109565Y-98691374D01*
X151078511Y-98719365D01*
X151073165Y-98725331D01*
X150067525Y-99662941D01*
X150012069Y-99688794D01*
X149952009Y-99677114D01*
X149932501Y-99662941D01*
X149206862Y-98986389D01*
X148918956Y-98717959D01*
X148918203Y-98716378D01*
X148889852Y-98690824D01*
X148861899Y-98664762D01*
X148861898Y-98664761D01*
X148858635Y-98661719D01*
X148852216Y-98656901D01*
X148331981Y-98187991D01*
X148257594Y-98120943D01*
X149649500Y-98120943D01*
X149649500Y-98279057D01*
X149690423Y-98431784D01*
X149769480Y-98568716D01*
X149881284Y-98680520D01*
X150018216Y-98759577D01*
X150170943Y-98800500D01*
X150170945Y-98800500D01*
X150329055Y-98800500D01*
X150329057Y-98800500D01*
X150481784Y-98759577D01*
X150618716Y-98680520D01*
X150730520Y-98568716D01*
X150809577Y-98431784D01*
X150850500Y-98279057D01*
X150850500Y-98120943D01*
X150809577Y-97968216D01*
X150730520Y-97831284D01*
X150618716Y-97719480D01*
X150481784Y-97640423D01*
X150329057Y-97599500D01*
X150170943Y-97599500D01*
X150018216Y-97640423D01*
X149881284Y-97719480D01*
X149769480Y-97831284D01*
X149690423Y-97968216D01*
X149649500Y-98120943D01*
X148257594Y-98120943D01*
X147766964Y-97678718D01*
X147758977Y-97671519D01*
X147758249Y-97670049D01*
X147729422Y-97644879D01*
X147728821Y-97644338D01*
X147728820Y-97644337D01*
X147697419Y-97616034D01*
X147691308Y-97611600D01*
X145671463Y-95848029D01*
X145671232Y-95847827D01*
X145388598Y-95599500D01*
X143956583Y-94341309D01*
X143954377Y-94339310D01*
X143908738Y-94296698D01*
X143908729Y-94296691D01*
X143838174Y-94230817D01*
X146174500Y-94230817D01*
X146174500Y-94369183D01*
X146210312Y-94502836D01*
X146279495Y-94622665D01*
X146377335Y-94720505D01*
X146497164Y-94789688D01*
X146630817Y-94825500D01*
X146630819Y-94825500D01*
X146769181Y-94825500D01*
X146769183Y-94825500D01*
X146902836Y-94789688D01*
X147022665Y-94720505D01*
X147053675Y-94689495D01*
X147108192Y-94661719D01*
X147123678Y-94660500D01*
X149147459Y-94660500D01*
X149147461Y-94660500D01*
X149239148Y-94635933D01*
X149239150Y-94635931D01*
X149239152Y-94635931D01*
X149321347Y-94588475D01*
X149321347Y-94588474D01*
X149321352Y-94588472D01*
X149955328Y-93954496D01*
X150009845Y-93926719D01*
X150025332Y-93925500D01*
X150069181Y-93925500D01*
X150069183Y-93925500D01*
X150202836Y-93889688D01*
X150322665Y-93820505D01*
X150420505Y-93722665D01*
X150489688Y-93602836D01*
X150525500Y-93469183D01*
X150525500Y-93330817D01*
X150489688Y-93197164D01*
X150420505Y-93077335D01*
X150322665Y-92979495D01*
X150202836Y-92910312D01*
X150069183Y-92874500D01*
X149930817Y-92874500D01*
X149797164Y-92910312D01*
X149677335Y-92979495D01*
X149579495Y-93077335D01*
X149510312Y-93197164D01*
X149480938Y-93306792D01*
X149474500Y-93330818D01*
X149474500Y-93374668D01*
X149455593Y-93432859D01*
X149445504Y-93444672D01*
X148979672Y-93910504D01*
X148925155Y-93938281D01*
X148909668Y-93939500D01*
X147123678Y-93939500D01*
X147065487Y-93920593D01*
X147053675Y-93910505D01*
X147022665Y-93879495D01*
X146902836Y-93810312D01*
X146769183Y-93774500D01*
X146630817Y-93774500D01*
X146497164Y-93810312D01*
X146377335Y-93879495D01*
X146279495Y-93977335D01*
X146210312Y-94097164D01*
X146174500Y-94230817D01*
X143838174Y-94230817D01*
X143227283Y-93660454D01*
X143224447Y-93657697D01*
X142765907Y-93193940D01*
X142765906Y-93193939D01*
X142703494Y-93130817D01*
X144274500Y-93130817D01*
X144274500Y-93269183D01*
X144310312Y-93402836D01*
X144379495Y-93522665D01*
X144477335Y-93620505D01*
X144597164Y-93689688D01*
X144730817Y-93725500D01*
X144730819Y-93725500D01*
X144869181Y-93725500D01*
X144869183Y-93725500D01*
X145002836Y-93689688D01*
X145122665Y-93620505D01*
X145153675Y-93589495D01*
X145208192Y-93561719D01*
X145223678Y-93560500D01*
X148176322Y-93560500D01*
X148234513Y-93579407D01*
X148246325Y-93589495D01*
X148277335Y-93620505D01*
X148397164Y-93689688D01*
X148530817Y-93725500D01*
X148530819Y-93725500D01*
X148669181Y-93725500D01*
X148669183Y-93725500D01*
X148802836Y-93689688D01*
X148922665Y-93620505D01*
X149020505Y-93522665D01*
X149089688Y-93402836D01*
X149125500Y-93269183D01*
X149125500Y-93130817D01*
X149089688Y-92997164D01*
X149020505Y-92877335D01*
X148922665Y-92779495D01*
X148802836Y-92710312D01*
X148669183Y-92674500D01*
X148530817Y-92674500D01*
X148397164Y-92710312D01*
X148277334Y-92779495D01*
X148246325Y-92810505D01*
X148191808Y-92838281D01*
X148176322Y-92839500D01*
X145223678Y-92839500D01*
X145165487Y-92820593D01*
X145153675Y-92810505D01*
X145122665Y-92779495D01*
X145002836Y-92710312D01*
X144869183Y-92674500D01*
X144730817Y-92674500D01*
X144597164Y-92710312D01*
X144477335Y-92779495D01*
X144379495Y-92877335D01*
X144310312Y-92997164D01*
X144274500Y-93130817D01*
X142703494Y-93130817D01*
X142579838Y-93005754D01*
X142577051Y-93002816D01*
X142288328Y-92685568D01*
X142286119Y-92683057D01*
X142130496Y-92500000D01*
X142016881Y-92366355D01*
X142014491Y-92363433D01*
X141765703Y-92046782D01*
X141763130Y-92043356D01*
X141578483Y-91786168D01*
X141534500Y-91724906D01*
X141531853Y-91721028D01*
X141530054Y-91718252D01*
X141466983Y-91620943D01*
X145199500Y-91620943D01*
X145199500Y-91779057D01*
X145240423Y-91931784D01*
X145319480Y-92068716D01*
X145431284Y-92180520D01*
X145568216Y-92259577D01*
X145720943Y-92300500D01*
X145720945Y-92300500D01*
X145879055Y-92300500D01*
X145879057Y-92300500D01*
X146031784Y-92259577D01*
X146168716Y-92180520D01*
X146186088Y-92163148D01*
X149048983Y-92163148D01*
X149213825Y-92282913D01*
X149213829Y-92282915D01*
X149424203Y-92390105D01*
X149424206Y-92390107D01*
X149648743Y-92463064D01*
X149648747Y-92463065D01*
X149881944Y-92500000D01*
X150118056Y-92500000D01*
X150351252Y-92463065D01*
X150351256Y-92463064D01*
X150575793Y-92390107D01*
X150575796Y-92390105D01*
X150786168Y-92282916D01*
X150951014Y-92163147D01*
X149999999Y-91212132D01*
X149048983Y-92163148D01*
X146186088Y-92163148D01*
X146280520Y-92068716D01*
X146359577Y-91931784D01*
X146400500Y-91779057D01*
X146400500Y-91620943D01*
X146359577Y-91468216D01*
X146280520Y-91331284D01*
X146168716Y-91219480D01*
X146031784Y-91140423D01*
X145879057Y-91099500D01*
X145720943Y-91099500D01*
X145568216Y-91140423D01*
X145431284Y-91219480D01*
X145319480Y-91331284D01*
X145240423Y-91468216D01*
X145199500Y-91620943D01*
X141466983Y-91620943D01*
X141355006Y-91448180D01*
X141322969Y-91398752D01*
X141320325Y-91394435D01*
X141130798Y-91066300D01*
X141128261Y-91061617D01*
X141037084Y-90881943D01*
X148500000Y-90881943D01*
X148500000Y-91118056D01*
X148536934Y-91351252D01*
X148536935Y-91351256D01*
X148609892Y-91575793D01*
X148609894Y-91575796D01*
X148717084Y-91786170D01*
X148717086Y-91786174D01*
X148836850Y-91951015D01*
X149787866Y-90999999D01*
X148836850Y-90048983D01*
X148717084Y-90213830D01*
X148609894Y-90424203D01*
X148609892Y-90424206D01*
X148536935Y-90648743D01*
X148536934Y-90648747D01*
X148500000Y-90881943D01*
X141037084Y-90881943D01*
X140957726Y-90725561D01*
X140955373Y-90720585D01*
X140803404Y-90374295D01*
X140801311Y-90369129D01*
X140667643Y-90010457D01*
X140665843Y-90005178D01*
X140634469Y-89903869D01*
X140634469Y-89903868D01*
X140613715Y-89836850D01*
X149048983Y-89836850D01*
X149999999Y-90787866D01*
X150951015Y-89836850D01*
X150786174Y-89717086D01*
X150786170Y-89717084D01*
X150575796Y-89609894D01*
X150575793Y-89609892D01*
X150351256Y-89536935D01*
X150351252Y-89536934D01*
X150118056Y-89500000D01*
X149881944Y-89500000D01*
X149648747Y-89536934D01*
X149648743Y-89536935D01*
X149424206Y-89609892D01*
X149424203Y-89609894D01*
X149213830Y-89717084D01*
X149048983Y-89836850D01*
X140613715Y-89836850D01*
X140550209Y-89631784D01*
X140548743Y-89626547D01*
X140544573Y-89609894D01*
X140450974Y-89236119D01*
X140449855Y-89231091D01*
X140389301Y-88920943D01*
X141199500Y-88920943D01*
X141199500Y-89079057D01*
X141240423Y-89231784D01*
X141319480Y-89368716D01*
X141431284Y-89480520D01*
X141568216Y-89559577D01*
X141720943Y-89600500D01*
X141720945Y-89600500D01*
X141879055Y-89600500D01*
X141879057Y-89600500D01*
X142031784Y-89559577D01*
X142168716Y-89480520D01*
X142280520Y-89368716D01*
X142359577Y-89231784D01*
X142400500Y-89079057D01*
X142400500Y-88920943D01*
X142359577Y-88768216D01*
X142280520Y-88631284D01*
X142168716Y-88519480D01*
X142031784Y-88440423D01*
X141879057Y-88399500D01*
X141720943Y-88399500D01*
X141568216Y-88440423D01*
X141431284Y-88519480D01*
X141319480Y-88631284D01*
X141240423Y-88768216D01*
X141199500Y-88920943D01*
X140389301Y-88920943D01*
X140369873Y-88821437D01*
X140369057Y-88816625D01*
X140306837Y-88385603D01*
X140306291Y-88381098D01*
X140294403Y-88259577D01*
X140261822Y-87926545D01*
X140261510Y-87922465D01*
X140234819Y-87442425D01*
X140234682Y-87438679D01*
X140232807Y-87331777D01*
X140225800Y-86932242D01*
X140225812Y-86928236D01*
X140231996Y-86669531D01*
X140232225Y-86664785D01*
X140234806Y-86629024D01*
X140250502Y-86411499D01*
X140250957Y-86406791D01*
X140281071Y-86158047D01*
X140281757Y-86153337D01*
X140323405Y-85909460D01*
X140324334Y-85904728D01*
X140377233Y-85665958D01*
X140378390Y-85661283D01*
X140442269Y-85427815D01*
X140443663Y-85423169D01*
X140518240Y-85195257D01*
X140519864Y-85190681D01*
X140604862Y-84968567D01*
X140606698Y-84964103D01*
X140642895Y-84881904D01*
X141499500Y-84881904D01*
X141499500Y-85118095D01*
X141536445Y-85351363D01*
X141609432Y-85575992D01*
X141693213Y-85740423D01*
X141716657Y-85786433D01*
X141855483Y-85977510D01*
X142022490Y-86144517D01*
X142213567Y-86283343D01*
X142419873Y-86388461D01*
X142463137Y-86431725D01*
X142470553Y-86451044D01*
X142487016Y-86512485D01*
X142559490Y-86638015D01*
X142889691Y-86968216D01*
X143217421Y-87295946D01*
X143238878Y-87328057D01*
X143240419Y-87331777D01*
X143240422Y-87331783D01*
X143240423Y-87331784D01*
X143319480Y-87468716D01*
X143431284Y-87580520D01*
X143568216Y-87659577D01*
X143720943Y-87700500D01*
X143720945Y-87700500D01*
X143879055Y-87700500D01*
X143879057Y-87700500D01*
X144031784Y-87659577D01*
X144168716Y-87580520D01*
X144280520Y-87468716D01*
X144359577Y-87331784D01*
X144400500Y-87179057D01*
X144400500Y-87020943D01*
X144359577Y-86868216D01*
X144280520Y-86731284D01*
X144168716Y-86619480D01*
X144031784Y-86540423D01*
X144031783Y-86540422D01*
X144031777Y-86540419D01*
X144028057Y-86538878D01*
X143995946Y-86517421D01*
X143854168Y-86375643D01*
X143826391Y-86321126D01*
X143835962Y-86260694D01*
X143865979Y-86225548D01*
X143977510Y-86144517D01*
X144144517Y-85977510D01*
X144283343Y-85786433D01*
X144390568Y-85575992D01*
X144463553Y-85351368D01*
X144464017Y-85348438D01*
X144500500Y-85118095D01*
X144500500Y-84881904D01*
X144463554Y-84648636D01*
X144451474Y-84611458D01*
X144390568Y-84424008D01*
X144283343Y-84213567D01*
X144144517Y-84022490D01*
X143977510Y-83855483D01*
X143786433Y-83716657D01*
X143786432Y-83716656D01*
X143786430Y-83716655D01*
X143575992Y-83609432D01*
X143351363Y-83536445D01*
X143118095Y-83499500D01*
X143118092Y-83499500D01*
X142881908Y-83499500D01*
X142881905Y-83499500D01*
X142648636Y-83536445D01*
X142424007Y-83609432D01*
X142213569Y-83716655D01*
X142022491Y-83855482D01*
X141855482Y-84022491D01*
X141716655Y-84213569D01*
X141609432Y-84424007D01*
X141536445Y-84648636D01*
X141499500Y-84881904D01*
X140642895Y-84881904D01*
X140701858Y-84748006D01*
X140703932Y-84743598D01*
X140772648Y-84606351D01*
X140808961Y-84533821D01*
X140811248Y-84529523D01*
X140925918Y-84326234D01*
X140928399Y-84322079D01*
X141052415Y-84125580D01*
X141055090Y-84121565D01*
X141188221Y-83932061D01*
X141191119Y-83928148D01*
X141333036Y-83745984D01*
X141336090Y-83742256D01*
X141486627Y-83567562D01*
X141489850Y-83564004D01*
X141648684Y-83397120D01*
X141652134Y-83393671D01*
X141818996Y-83234857D01*
X141822577Y-83231615D01*
X141997248Y-83081097D01*
X142000999Y-83078024D01*
X142183173Y-82936100D01*
X142187063Y-82933220D01*
X142376554Y-82800097D01*
X142380579Y-82797415D01*
X142577084Y-82673396D01*
X142581276Y-82670894D01*
X142590171Y-82665877D01*
X142784520Y-82556249D01*
X142788836Y-82553954D01*
X142966729Y-82464888D01*
X142998615Y-82448923D01*
X143002992Y-82446865D01*
X143219105Y-82351697D01*
X143223569Y-82349861D01*
X143445700Y-82264855D01*
X143450269Y-82263235D01*
X143678165Y-82188663D01*
X143682811Y-82187269D01*
X143916279Y-82123390D01*
X143920954Y-82122233D01*
X144159744Y-82069329D01*
X144164461Y-82068404D01*
X144408338Y-82026756D01*
X144413048Y-82026070D01*
X144661775Y-81995958D01*
X144666479Y-81995504D01*
X144919799Y-81977223D01*
X144924533Y-81976995D01*
X145183139Y-81970813D01*
X145187222Y-81970802D01*
X145367935Y-81974094D01*
G37*
%TD.AperFunction*%
%TD*%
M02*
