%TF.GenerationSoftware,KiCad,Pcbnew,10.0.0*%
%TF.CreationDate,2026-04-10T22:18:04+01:00*%
%TF.ProjectId,main-PCB,6d61696e-2d50-4434-922e-6b696361645f,rev?*%
%TF.SameCoordinates,Original*%
%TF.FileFunction,Copper,L2,Inr*%
%TF.FilePolarity,Positive*%
%FSLAX46Y46*%
G04 Gerber Fmt 4.6, Leading zero omitted, Abs format (unit mm)*
G04 Created by KiCad (PCBNEW 10.0.0) date 2026-04-10 22:18:04*
%MOMM*%
%LPD*%
G01*
G04 APERTURE LIST*
%TA.AperFunction,ViaPad*%
%ADD10C,0.600000*%
%TD*%
%TA.AperFunction,ViaPad*%
%ADD11C,0.450000*%
%TD*%
G04 APERTURE END LIST*
D10*
%TO.N,VCC*%
X154020000Y-87540000D03*
X151000000Y-97300000D03*
X145660000Y-91890000D03*
X157200000Y-90300000D03*
X153505000Y-87045000D03*
X154200000Y-94700000D03*
X141570000Y-89090000D03*
%TO.N,GND*%
X155040000Y-89900000D03*
X153900000Y-92200000D03*
X155000000Y-93000000D03*
X155600000Y-83500000D03*
X147100000Y-92500000D03*
X148300000Y-96400000D03*
X145000000Y-90210000D03*
D11*
X151260000Y-86140000D03*
D10*
X145000000Y-83000000D03*
X143800000Y-93500000D03*
X146300000Y-84400000D03*
X153600000Y-91100000D03*
X146400000Y-88900000D03*
X147300000Y-84381802D03*
X149750000Y-85610000D03*
X141000000Y-87000000D03*
X151900000Y-85450000D03*
X154450000Y-82860000D03*
X150000000Y-98500000D03*
X152000000Y-94600000D03*
X159000000Y-87000000D03*
X155680000Y-89220000D03*
X148600000Y-97300000D03*
X144100000Y-92100000D03*
D11*
X150000000Y-94100000D03*
D10*
X147300000Y-87000000D03*
X153500000Y-94000000D03*
X145900000Y-94700000D03*
X148300000Y-95400000D03*
%TO.N,/LED_K*%
X147000000Y-86100000D03*
X155100000Y-87100000D03*
X143800000Y-87100000D03*
D11*
%TO.N,/SWCLK*%
X145900000Y-94000000D03*
X150000000Y-93400000D03*
D10*
%TO.N,Net-(Q1-D-Pad1)*%
X155700000Y-86300000D03*
D11*
%TO.N,Net-(U2-PF2)*%
X152900000Y-88100000D03*
X154578822Y-90600000D03*
%TO.N,/INT1*%
X150500000Y-86100000D03*
X151300000Y-95010000D03*
%TO.N,/INT2*%
X150173573Y-86726427D03*
X151300000Y-95650000D03*
%TO.N,/SWDIO*%
X148600000Y-93200000D03*
X143600000Y-92600000D03*
%TD*%
%TA.AperFunction,Conductor*%
%TO.N,GND*%
G36*
X145367935Y-81974094D02*
G01*
X145371544Y-81974226D01*
X145551051Y-81984064D01*
X145554566Y-81984321D01*
X145731982Y-82000565D01*
X145735505Y-82000954D01*
X145910761Y-82023480D01*
X145914261Y-82023995D01*
X146087310Y-82052680D01*
X146090839Y-82053330D01*
X146261714Y-82088068D01*
X146265115Y-82088824D01*
X146433717Y-82129490D01*
X146437152Y-82130384D01*
X146474495Y-82140821D01*
X146603470Y-82176869D01*
X146606766Y-82177853D01*
X146770796Y-82230060D01*
X146774058Y-82231162D01*
X146892059Y-82273359D01*
X146935658Y-82288950D01*
X146938892Y-82290171D01*
X146984223Y-82308190D01*
X147098074Y-82353446D01*
X147101158Y-82354734D01*
X147246488Y-82418405D01*
X147257921Y-82423414D01*
X147260994Y-82424824D01*
X147415175Y-82498748D01*
X147418139Y-82500230D01*
X147569839Y-82579369D01*
X147572652Y-82580897D01*
X147721726Y-82665097D01*
X147724463Y-82666704D01*
X147852824Y-82744878D01*
X147868771Y-82754590D01*
X147872782Y-82757167D01*
X148159201Y-82951210D01*
X148164231Y-82954855D01*
X148437144Y-83166014D01*
X148441790Y-83169842D01*
X148702726Y-83398610D01*
X148707011Y-83402599D01*
X148826976Y-83521136D01*
X148955390Y-83648022D01*
X148959357Y-83652176D01*
X149194657Y-83913335D01*
X149198288Y-83917601D01*
X149403627Y-84173216D01*
X149405447Y-84178409D01*
X149428483Y-84204158D01*
X149450153Y-84231134D01*
X149450155Y-84231135D01*
X149454654Y-84234907D01*
X149464811Y-84244739D01*
X149485668Y-84268035D01*
X149485671Y-84268037D01*
X149485674Y-84268040D01*
X149615527Y-84362865D01*
X149615529Y-84362866D01*
X149615533Y-84362869D01*
X149651092Y-84378770D01*
X149762326Y-84428512D01*
X149762327Y-84428512D01*
X149762329Y-84428513D01*
X149919593Y-84462076D01*
X150080398Y-84462080D01*
X150237664Y-84428525D01*
X150384463Y-84362888D01*
X150514333Y-84268060D01*
X150545006Y-84233802D01*
X150549877Y-84231133D01*
X150571544Y-84204160D01*
X150594558Y-84178437D01*
X150594561Y-84178427D01*
X150597469Y-84173505D01*
X150605529Y-84161852D01*
X150801738Y-83917600D01*
X150805326Y-83913383D01*
X151040690Y-83652153D01*
X151044636Y-83648023D01*
X151126028Y-83567600D01*
X151293016Y-83402599D01*
X151297284Y-83398625D01*
X151558253Y-83169827D01*
X151562874Y-83166021D01*
X151835793Y-82954857D01*
X151840839Y-82951203D01*
X152125191Y-82758559D01*
X152130607Y-82755140D01*
X152425928Y-82581871D01*
X152431707Y-82578734D01*
X152737528Y-82425703D01*
X152743657Y-82422893D01*
X153059559Y-82290957D01*
X153065982Y-82288535D01*
X153391570Y-82178555D01*
X153398278Y-82176553D01*
X153733160Y-82089411D01*
X153740099Y-82087871D01*
X154083939Y-82024464D01*
X154091067Y-82023416D01*
X154443631Y-81984655D01*
X154450842Y-81984129D01*
X154813684Y-81970917D01*
X154819648Y-81970880D01*
X155075493Y-81976995D01*
X155080233Y-81977223D01*
X155333520Y-81995501D01*
X155338236Y-81995957D01*
X155586966Y-82026068D01*
X155591699Y-82026758D01*
X155835558Y-82068404D01*
X155840291Y-82069332D01*
X156079059Y-82122230D01*
X156083752Y-82123391D01*
X156205117Y-82156598D01*
X156317203Y-82187266D01*
X156321864Y-82188665D01*
X156549758Y-82263235D01*
X156554353Y-82264865D01*
X156776441Y-82349855D01*
X156780956Y-82351712D01*
X156996986Y-82446843D01*
X157001410Y-82448923D01*
X157211206Y-82553962D01*
X157215523Y-82556258D01*
X157418749Y-82670892D01*
X157422948Y-82673400D01*
X157552449Y-82755132D01*
X157615946Y-82795207D01*
X157619426Y-82797403D01*
X157623480Y-82800103D01*
X157671651Y-82833944D01*
X157812921Y-82933190D01*
X157816853Y-82936100D01*
X157999028Y-83078024D01*
X158002812Y-83081126D01*
X158177431Y-83231600D01*
X158181044Y-83234871D01*
X158272337Y-83321760D01*
X158347895Y-83393674D01*
X158351354Y-83397133D01*
X158510147Y-83563973D01*
X158513431Y-83567600D01*
X158663910Y-83742226D01*
X158667011Y-83746010D01*
X158808907Y-83928148D01*
X158811818Y-83932080D01*
X158942779Y-84118494D01*
X158944911Y-84121528D01*
X158947623Y-84125600D01*
X159071618Y-84322065D01*
X159074126Y-84326264D01*
X159188778Y-84529523D01*
X159191075Y-84533841D01*
X159296097Y-84743605D01*
X159298176Y-84748027D01*
X159393316Y-84964073D01*
X159395173Y-84968589D01*
X159480164Y-85190681D01*
X159481794Y-85195276D01*
X159556363Y-85423164D01*
X159557762Y-85427826D01*
X159621627Y-85661249D01*
X159622793Y-85665960D01*
X159675692Y-85904722D01*
X159676623Y-85909471D01*
X159718265Y-86153308D01*
X159718960Y-86158076D01*
X159749064Y-86406740D01*
X159749525Y-86411512D01*
X159767802Y-86664785D01*
X159768031Y-86669545D01*
X159774148Y-86925411D01*
X159774112Y-86931346D01*
X159738323Y-87923416D01*
X159737917Y-87929486D01*
X159693736Y-88381098D01*
X159693190Y-88385604D01*
X159630969Y-88816629D01*
X159630150Y-88821455D01*
X159550175Y-89231076D01*
X159549045Y-89236154D01*
X159451283Y-89626548D01*
X159449817Y-89631786D01*
X159334185Y-90005172D01*
X159332383Y-90010457D01*
X159198720Y-90369116D01*
X159196608Y-90374327D01*
X159044673Y-90720544D01*
X159042301Y-90725561D01*
X158871767Y-91061617D01*
X158869213Y-91066329D01*
X158869213Y-91066332D01*
X158869212Y-91066333D01*
X158679708Y-91394426D01*
X158677056Y-91398756D01*
X158469974Y-91718252D01*
X158466035Y-91723890D01*
X157986307Y-92362122D01*
X157981486Y-92368046D01*
X157422324Y-93003358D01*
X157418410Y-93007553D01*
X157403250Y-93022887D01*
X157403247Y-93022890D01*
X157386580Y-93039747D01*
X157352177Y-93074541D01*
X157351593Y-93075261D01*
X157338318Y-93088737D01*
X157338313Y-93088744D01*
X157266231Y-93205881D01*
X157222502Y-93336292D01*
X157222502Y-93336295D01*
X157209397Y-93473215D01*
X157220606Y-93557191D01*
X157227595Y-93609553D01*
X157276150Y-93738242D01*
X157331099Y-93820505D01*
X157352550Y-93852620D01*
X157366319Y-93865593D01*
X157366930Y-93866291D01*
X157373527Y-93872484D01*
X157373528Y-93872485D01*
X157430005Y-93925500D01*
X157538430Y-94027279D01*
X157549435Y-94037609D01*
X157549436Y-94037611D01*
X157604661Y-94089450D01*
X157604765Y-94089530D01*
X157614800Y-94098944D01*
X157614800Y-94098945D01*
X157636990Y-94112361D01*
X157723101Y-94164425D01*
X157842671Y-94205893D01*
X157968259Y-94221526D01*
X158094346Y-94210637D01*
X158215394Y-94173706D01*
X158326086Y-94112354D01*
X158335684Y-94104004D01*
X158335793Y-94103929D01*
X158343745Y-94097009D01*
X158343746Y-94097009D01*
X159017977Y-93510312D01*
X159443872Y-93139710D01*
X159454414Y-93130536D01*
X159461906Y-93124016D01*
X159477210Y-93113071D01*
X159517905Y-93089471D01*
X159553313Y-93077147D01*
X159590318Y-93071767D01*
X159627779Y-93073499D01*
X159635609Y-93075389D01*
X159664122Y-93082270D01*
X159698250Y-93097812D01*
X159728722Y-93119471D01*
X159754621Y-93146595D01*
X159774849Y-93178034D01*
X159788799Y-93212846D01*
X159797707Y-93259018D01*
X159799500Y-93277772D01*
X159799500Y-99740500D01*
X159780593Y-99798691D01*
X159731093Y-99834655D01*
X159700500Y-99839500D01*
X151584555Y-99839500D01*
X151572151Y-99838720D01*
X151566930Y-99838060D01*
X151541128Y-99834802D01*
X151517098Y-99828633D01*
X151493865Y-99819437D01*
X151472122Y-99807488D01*
X151446820Y-99789110D01*
X151437256Y-99781201D01*
X151130174Y-99492944D01*
X151130170Y-99492934D01*
X151101099Y-99465651D01*
X151100746Y-99465320D01*
X151053900Y-99421275D01*
X151053897Y-99421273D01*
X151053895Y-99421271D01*
X150942721Y-99354806D01*
X150942716Y-99354804D01*
X150942714Y-99354803D01*
X150819912Y-99313565D01*
X150776988Y-99308862D01*
X150691143Y-99299457D01*
X150691140Y-99299456D01*
X150562326Y-99313128D01*
X150562318Y-99313130D01*
X150439386Y-99353948D01*
X150439380Y-99353950D01*
X150327977Y-99420040D01*
X150327968Y-99420047D01*
X150280791Y-99464103D01*
X150280729Y-99464161D01*
X150279903Y-99464931D01*
X150279901Y-99464933D01*
X150245802Y-99496718D01*
X150245765Y-99496758D01*
X150067524Y-99662942D01*
X150012069Y-99688795D01*
X149952008Y-99677115D01*
X149932501Y-99662942D01*
X149755053Y-99497500D01*
X149748570Y-99491456D01*
X149748568Y-99491452D01*
X149719456Y-99464313D01*
X149719414Y-99464237D01*
X149719397Y-99464257D01*
X149673369Y-99421273D01*
X149672057Y-99420048D01*
X149562089Y-99354806D01*
X149560648Y-99353951D01*
X149560647Y-99353950D01*
X149560646Y-99353950D01*
X149437703Y-99313126D01*
X149416961Y-99310924D01*
X149308884Y-99299453D01*
X149308881Y-99299454D01*
X149180106Y-99313563D01*
X149057310Y-99354801D01*
X148946121Y-99421280D01*
X148899530Y-99465087D01*
X148899479Y-99465135D01*
X148893243Y-99470990D01*
X148893232Y-99471000D01*
X148863470Y-99498933D01*
X148863453Y-99498953D01*
X148566038Y-99778138D01*
X148566024Y-99778151D01*
X148562765Y-99781209D01*
X148553199Y-99789118D01*
X148527901Y-99807491D01*
X148506161Y-99819439D01*
X148482918Y-99828639D01*
X148458892Y-99834807D01*
X148440395Y-99837143D01*
X148427868Y-99838726D01*
X148415465Y-99839507D01*
X140299523Y-99839507D01*
X140241332Y-99820600D01*
X140205368Y-99771100D01*
X140200523Y-99740507D01*
X140200523Y-97220943D01*
X150399500Y-97220943D01*
X150399500Y-97379057D01*
X150440423Y-97531784D01*
X150519480Y-97668716D01*
X150631284Y-97780520D01*
X150768216Y-97859577D01*
X150920943Y-97900500D01*
X150920945Y-97900500D01*
X151079055Y-97900500D01*
X151079057Y-97900500D01*
X151231784Y-97859577D01*
X151368716Y-97780520D01*
X151480520Y-97668716D01*
X151559577Y-97531784D01*
X151600500Y-97379057D01*
X151600500Y-97220943D01*
X151559577Y-97068216D01*
X151480520Y-96931284D01*
X151368716Y-96819480D01*
X151231784Y-96740423D01*
X151079057Y-96699500D01*
X150920943Y-96699500D01*
X150768216Y-96740423D01*
X150631284Y-96819480D01*
X150519480Y-96931284D01*
X150440423Y-97068216D01*
X150399500Y-97220943D01*
X140200523Y-97220943D01*
X140200523Y-94940817D01*
X150774500Y-94940817D01*
X150774500Y-95079183D01*
X150798374Y-95168285D01*
X150810312Y-95212837D01*
X150849377Y-95280501D01*
X150862098Y-95340350D01*
X150849377Y-95379499D01*
X150810312Y-95447162D01*
X150786437Y-95536266D01*
X150774500Y-95580817D01*
X150774500Y-95719183D01*
X150810312Y-95852836D01*
X150879495Y-95972665D01*
X150977335Y-96070505D01*
X151097164Y-96139688D01*
X151230817Y-96175500D01*
X151230819Y-96175500D01*
X151369181Y-96175500D01*
X151369183Y-96175500D01*
X151502836Y-96139688D01*
X151622665Y-96070505D01*
X151720505Y-95972665D01*
X151789688Y-95852836D01*
X151825500Y-95719183D01*
X151825500Y-95580817D01*
X151789688Y-95447164D01*
X151750621Y-95379499D01*
X151737900Y-95319653D01*
X151750621Y-95280501D01*
X151789688Y-95212836D01*
X151825500Y-95079183D01*
X151825500Y-94940817D01*
X151789688Y-94807164D01*
X151720505Y-94687335D01*
X151654113Y-94620943D01*
X153599500Y-94620943D01*
X153599500Y-94779057D01*
X153640423Y-94931784D01*
X153719480Y-95068716D01*
X153831284Y-95180520D01*
X153968216Y-95259577D01*
X154120943Y-95300500D01*
X154120945Y-95300500D01*
X154279055Y-95300500D01*
X154279057Y-95300500D01*
X154431784Y-95259577D01*
X154568716Y-95180520D01*
X154680520Y-95068716D01*
X154759577Y-94931784D01*
X154800500Y-94779057D01*
X154800500Y-94620943D01*
X154759577Y-94468216D01*
X154680520Y-94331284D01*
X154568716Y-94219480D01*
X154431784Y-94140423D01*
X154279057Y-94099500D01*
X154120943Y-94099500D01*
X153968216Y-94140423D01*
X153831284Y-94219480D01*
X153719480Y-94331284D01*
X153640423Y-94468216D01*
X153599500Y-94620943D01*
X151654113Y-94620943D01*
X151622665Y-94589495D01*
X151502836Y-94520312D01*
X151369183Y-94484500D01*
X151230817Y-94484500D01*
X151097164Y-94520312D01*
X150977335Y-94589495D01*
X150879495Y-94687335D01*
X150810312Y-94807164D01*
X150774500Y-94940817D01*
X140200523Y-94940817D01*
X140200523Y-93277779D01*
X140202315Y-93259027D01*
X140211222Y-93212855D01*
X140225171Y-93178045D01*
X140245403Y-93146599D01*
X140271297Y-93119480D01*
X140301773Y-93097818D01*
X140335900Y-93082277D01*
X140344112Y-93080295D01*
X140372243Y-93073506D01*
X140409704Y-93071774D01*
X140446704Y-93077153D01*
X140482122Y-93089481D01*
X140522798Y-93113069D01*
X140538122Y-93124028D01*
X141664034Y-94103766D01*
X141664140Y-94103840D01*
X141673937Y-94112361D01*
X141724567Y-94140423D01*
X141784614Y-94173705D01*
X141784629Y-94173713D01*
X141905677Y-94210644D01*
X142031764Y-94221533D01*
X142157352Y-94205900D01*
X142276922Y-94164432D01*
X142385222Y-94098952D01*
X142395026Y-94089753D01*
X142395132Y-94089673D01*
X142460456Y-94028353D01*
X142564362Y-93930817D01*
X145374500Y-93930817D01*
X145374500Y-94069183D01*
X145410312Y-94202836D01*
X145479495Y-94322665D01*
X145577335Y-94420505D01*
X145697164Y-94489688D01*
X145830817Y-94525500D01*
X145830819Y-94525500D01*
X145969181Y-94525500D01*
X145969183Y-94525500D01*
X146102836Y-94489688D01*
X146222665Y-94420505D01*
X146320505Y-94322665D01*
X146389688Y-94202836D01*
X146425500Y-94069183D01*
X146425500Y-93930817D01*
X146389688Y-93797164D01*
X146320505Y-93677335D01*
X146222665Y-93579495D01*
X146102836Y-93510312D01*
X145969183Y-93474500D01*
X145830817Y-93474500D01*
X145697164Y-93510312D01*
X145577335Y-93579495D01*
X145479495Y-93677335D01*
X145410312Y-93797164D01*
X145374500Y-93930817D01*
X142564362Y-93930817D01*
X142626501Y-93872487D01*
X142626501Y-93872485D01*
X142633225Y-93866174D01*
X142633831Y-93865478D01*
X142647478Y-93852622D01*
X142723877Y-93738247D01*
X142772433Y-93609558D01*
X142790630Y-93473223D01*
X142777527Y-93336304D01*
X142775687Y-93330817D01*
X142733804Y-93205900D01*
X142733803Y-93205897D01*
X142726546Y-93194103D01*
X142687604Y-93130817D01*
X148074500Y-93130817D01*
X148074500Y-93269183D01*
X148110312Y-93402836D01*
X148179495Y-93522665D01*
X148277335Y-93620505D01*
X148397164Y-93689688D01*
X148530817Y-93725500D01*
X148530819Y-93725500D01*
X148669181Y-93725500D01*
X148669183Y-93725500D01*
X148802836Y-93689688D01*
X148922665Y-93620505D01*
X149020505Y-93522665D01*
X149089688Y-93402836D01*
X149108985Y-93330817D01*
X149474500Y-93330817D01*
X149474500Y-93469183D01*
X149510312Y-93602836D01*
X149579495Y-93722665D01*
X149677335Y-93820505D01*
X149797164Y-93889688D01*
X149930817Y-93925500D01*
X149930819Y-93925500D01*
X150069181Y-93925500D01*
X150069183Y-93925500D01*
X150202836Y-93889688D01*
X150322665Y-93820505D01*
X150420505Y-93722665D01*
X150489688Y-93602836D01*
X150525500Y-93469183D01*
X150525500Y-93330817D01*
X150489688Y-93197164D01*
X150420505Y-93077335D01*
X150322665Y-92979495D01*
X150202836Y-92910312D01*
X150069183Y-92874500D01*
X149930817Y-92874500D01*
X149797164Y-92910312D01*
X149677335Y-92979495D01*
X149579495Y-93077335D01*
X149510312Y-93197164D01*
X149474500Y-93330817D01*
X149108985Y-93330817D01*
X149125500Y-93269183D01*
X149125500Y-93130817D01*
X149089688Y-92997164D01*
X149020505Y-92877335D01*
X148922665Y-92779495D01*
X148802836Y-92710312D01*
X148669183Y-92674500D01*
X148530817Y-92674500D01*
X148397164Y-92710312D01*
X148277335Y-92779495D01*
X148179495Y-92877335D01*
X148110312Y-92997164D01*
X148074500Y-93130817D01*
X142687604Y-93130817D01*
X142661719Y-93088751D01*
X142653001Y-93079901D01*
X142648557Y-93075389D01*
X142648132Y-93074959D01*
X142641570Y-93068297D01*
X142641498Y-93068120D01*
X142580227Y-93006148D01*
X142579801Y-93005716D01*
X142579798Y-93005710D01*
X142577049Y-93002813D01*
X142288328Y-92685569D01*
X142286119Y-92683057D01*
X142210720Y-92594366D01*
X142156695Y-92530817D01*
X143074500Y-92530817D01*
X143074500Y-92669183D01*
X143110312Y-92802836D01*
X143179495Y-92922665D01*
X143277335Y-93020505D01*
X143397164Y-93089688D01*
X143530817Y-93125500D01*
X143530819Y-93125500D01*
X143669181Y-93125500D01*
X143669183Y-93125500D01*
X143802836Y-93089688D01*
X143922665Y-93020505D01*
X144020505Y-92922665D01*
X144089688Y-92802836D01*
X144125500Y-92669183D01*
X144125500Y-92530817D01*
X144089688Y-92397164D01*
X144020505Y-92277335D01*
X143922665Y-92179495D01*
X143802836Y-92110312D01*
X143669183Y-92074500D01*
X143530817Y-92074500D01*
X143397164Y-92110312D01*
X143277335Y-92179495D01*
X143179495Y-92277335D01*
X143110312Y-92397164D01*
X143074500Y-92530817D01*
X142156695Y-92530817D01*
X142016881Y-92366355D01*
X142014491Y-92363433D01*
X141824630Y-92121783D01*
X141765703Y-92046782D01*
X141763130Y-92043356D01*
X141672888Y-91917662D01*
X141596270Y-91810943D01*
X145059500Y-91810943D01*
X145059500Y-91969057D01*
X145100423Y-92121784D01*
X145179480Y-92258716D01*
X145291284Y-92370520D01*
X145428216Y-92449577D01*
X145580943Y-92490500D01*
X145580945Y-92490500D01*
X145739055Y-92490500D01*
X145739057Y-92490500D01*
X145891784Y-92449577D01*
X146028716Y-92370520D01*
X146140520Y-92258716D01*
X146219577Y-92121784D01*
X146260500Y-91969057D01*
X146260500Y-91810943D01*
X146219577Y-91658216D01*
X146140520Y-91521284D01*
X146028716Y-91409480D01*
X145891784Y-91330423D01*
X145739057Y-91289500D01*
X145580943Y-91289500D01*
X145428216Y-91330423D01*
X145291284Y-91409480D01*
X145179480Y-91521284D01*
X145100423Y-91658216D01*
X145059500Y-91810943D01*
X141596270Y-91810943D01*
X141534500Y-91724906D01*
X141531853Y-91721028D01*
X141491141Y-91658216D01*
X141329922Y-91409480D01*
X141322969Y-91398752D01*
X141320325Y-91394435D01*
X141130798Y-91066300D01*
X141128261Y-91061617D01*
X140957726Y-90725561D01*
X140955365Y-90720567D01*
X140932814Y-90669181D01*
X140872093Y-90530817D01*
X154053322Y-90530817D01*
X154053322Y-90669183D01*
X154089134Y-90802836D01*
X154158317Y-90922665D01*
X154256157Y-91020505D01*
X154375986Y-91089688D01*
X154509639Y-91125500D01*
X154509641Y-91125500D01*
X154648003Y-91125500D01*
X154648005Y-91125500D01*
X154781658Y-91089688D01*
X154901487Y-91020505D01*
X154999327Y-90922665D01*
X155068510Y-90802836D01*
X155104322Y-90669183D01*
X155104322Y-90530817D01*
X155068510Y-90397164D01*
X154999327Y-90277335D01*
X154942935Y-90220943D01*
X156599500Y-90220943D01*
X156599500Y-90379057D01*
X156640423Y-90531784D01*
X156719480Y-90668716D01*
X156831284Y-90780520D01*
X156968216Y-90859577D01*
X157120943Y-90900500D01*
X157120945Y-90900500D01*
X157279055Y-90900500D01*
X157279057Y-90900500D01*
X157431784Y-90859577D01*
X157568716Y-90780520D01*
X157680520Y-90668716D01*
X157759577Y-90531784D01*
X157800500Y-90379057D01*
X157800500Y-90220943D01*
X157759577Y-90068216D01*
X157680520Y-89931284D01*
X157568716Y-89819480D01*
X157431784Y-89740423D01*
X157279057Y-89699500D01*
X157120943Y-89699500D01*
X156968216Y-89740423D01*
X156831284Y-89819480D01*
X156719480Y-89931284D01*
X156640423Y-90068216D01*
X156599500Y-90220943D01*
X154942935Y-90220943D01*
X154901487Y-90179495D01*
X154781658Y-90110312D01*
X154648005Y-90074500D01*
X154509639Y-90074500D01*
X154375986Y-90110312D01*
X154256157Y-90179495D01*
X154158317Y-90277335D01*
X154089134Y-90397164D01*
X154053322Y-90530817D01*
X140872093Y-90530817D01*
X140803404Y-90374295D01*
X140801311Y-90369129D01*
X140667643Y-90010457D01*
X140665843Y-90005178D01*
X140550209Y-89631785D01*
X140548743Y-89626547D01*
X140534713Y-89570519D01*
X140450974Y-89236119D01*
X140449855Y-89231091D01*
X140406873Y-89010943D01*
X140969500Y-89010943D01*
X140969500Y-89169057D01*
X141010423Y-89321784D01*
X141089480Y-89458716D01*
X141201284Y-89570520D01*
X141338216Y-89649577D01*
X141490943Y-89690500D01*
X141490945Y-89690500D01*
X141649055Y-89690500D01*
X141649057Y-89690500D01*
X141801784Y-89649577D01*
X141938716Y-89570520D01*
X142050520Y-89458716D01*
X142129577Y-89321784D01*
X142170500Y-89169057D01*
X142170500Y-89010943D01*
X142129577Y-88858216D01*
X142050520Y-88721284D01*
X141938716Y-88609480D01*
X141801784Y-88530423D01*
X141649057Y-88489500D01*
X141490943Y-88489500D01*
X141338216Y-88530423D01*
X141201284Y-88609480D01*
X141089480Y-88721284D01*
X141010423Y-88858216D01*
X140969500Y-89010943D01*
X140406873Y-89010943D01*
X140369873Y-88821437D01*
X140369057Y-88816625D01*
X140336297Y-88589687D01*
X140306836Y-88385598D01*
X140306291Y-88381098D01*
X140298635Y-88302836D01*
X140272023Y-88030817D01*
X152374500Y-88030817D01*
X152374500Y-88169183D01*
X152410312Y-88302836D01*
X152479495Y-88422665D01*
X152577335Y-88520505D01*
X152697164Y-88589688D01*
X152830817Y-88625500D01*
X152830819Y-88625500D01*
X152969181Y-88625500D01*
X152969183Y-88625500D01*
X153102836Y-88589688D01*
X153222665Y-88520505D01*
X153320505Y-88422665D01*
X153389688Y-88302836D01*
X153425500Y-88169183D01*
X153425500Y-88033743D01*
X153444407Y-87975552D01*
X153493907Y-87939588D01*
X153555093Y-87939588D01*
X153594501Y-87963737D01*
X153651284Y-88020520D01*
X153788216Y-88099577D01*
X153940943Y-88140500D01*
X153940945Y-88140500D01*
X154099055Y-88140500D01*
X154099057Y-88140500D01*
X154251784Y-88099577D01*
X154388716Y-88020520D01*
X154500520Y-87908716D01*
X154579577Y-87771784D01*
X154610892Y-87654910D01*
X154644215Y-87603599D01*
X154701336Y-87581672D01*
X154756014Y-87594798D01*
X154868216Y-87659577D01*
X155020943Y-87700500D01*
X155020945Y-87700500D01*
X155179055Y-87700500D01*
X155179057Y-87700500D01*
X155331784Y-87659577D01*
X155468716Y-87580520D01*
X155580520Y-87468716D01*
X155659577Y-87331784D01*
X155700500Y-87179057D01*
X155700500Y-87020943D01*
X155700500Y-87020942D01*
X155699653Y-87014509D01*
X155701712Y-87014237D01*
X155704425Y-86962528D01*
X155742933Y-86914980D01*
X155773227Y-86903814D01*
X155772789Y-86902179D01*
X155779055Y-86900500D01*
X155779057Y-86900500D01*
X155931784Y-86859577D01*
X156068716Y-86780520D01*
X156180520Y-86668716D01*
X156259577Y-86531784D01*
X156300500Y-86379057D01*
X156300500Y-86220943D01*
X156259577Y-86068216D01*
X156180520Y-85931284D01*
X156068716Y-85819480D01*
X155931784Y-85740423D01*
X155779057Y-85699500D01*
X155620943Y-85699500D01*
X155468216Y-85740423D01*
X155331284Y-85819480D01*
X155219480Y-85931284D01*
X155140423Y-86068216D01*
X155117623Y-86153309D01*
X155099500Y-86220944D01*
X155099500Y-86379057D01*
X155100347Y-86385491D01*
X155098290Y-86385761D01*
X155095567Y-86437489D01*
X155057050Y-86485029D01*
X155026775Y-86496196D01*
X155027211Y-86497821D01*
X155020945Y-86499500D01*
X155020943Y-86499500D01*
X154868216Y-86540423D01*
X154731284Y-86619480D01*
X154619480Y-86731284D01*
X154540423Y-86868216D01*
X154513024Y-86970473D01*
X154509108Y-86985086D01*
X154475784Y-87036401D01*
X154418662Y-87058327D01*
X154363982Y-87045200D01*
X154251784Y-86980423D01*
X154153575Y-86954108D01*
X154102260Y-86920783D01*
X154083572Y-86884106D01*
X154064577Y-86813216D01*
X153985520Y-86676284D01*
X153873716Y-86564480D01*
X153736784Y-86485423D01*
X153584057Y-86444500D01*
X153425943Y-86444500D01*
X153273216Y-86485423D01*
X153136284Y-86564480D01*
X153024480Y-86676284D01*
X152945423Y-86813216D01*
X152904500Y-86965943D01*
X152904500Y-87124057D01*
X152945423Y-87276784D01*
X152977177Y-87331784D01*
X153024482Y-87413719D01*
X153025645Y-87415234D01*
X153026101Y-87416522D01*
X153027725Y-87419335D01*
X153027203Y-87419635D01*
X153046068Y-87472911D01*
X153028689Y-87531576D01*
X152980147Y-87568822D01*
X152947102Y-87574500D01*
X152830817Y-87574500D01*
X152697164Y-87610312D01*
X152577335Y-87679495D01*
X152479495Y-87777335D01*
X152410312Y-87897164D01*
X152374500Y-88030817D01*
X140272023Y-88030817D01*
X140261822Y-87926545D01*
X140261510Y-87922465D01*
X140234819Y-87442425D01*
X140234682Y-87438679D01*
X140234340Y-87419181D01*
X140227356Y-87020943D01*
X143199500Y-87020943D01*
X143199500Y-87179057D01*
X143240423Y-87331784D01*
X143319480Y-87468716D01*
X143431284Y-87580520D01*
X143568216Y-87659577D01*
X143720943Y-87700500D01*
X143720945Y-87700500D01*
X143879055Y-87700500D01*
X143879057Y-87700500D01*
X144031784Y-87659577D01*
X144168716Y-87580520D01*
X144280520Y-87468716D01*
X144359577Y-87331784D01*
X144400500Y-87179057D01*
X144400500Y-87020943D01*
X144359577Y-86868216D01*
X144280520Y-86731284D01*
X144168716Y-86619480D01*
X144031784Y-86540423D01*
X143879057Y-86499500D01*
X143720943Y-86499500D01*
X143568216Y-86540423D01*
X143431284Y-86619480D01*
X143319480Y-86731284D01*
X143240423Y-86868216D01*
X143199500Y-87020943D01*
X140227356Y-87020943D01*
X140225800Y-86932242D01*
X140225812Y-86928236D01*
X140231996Y-86669531D01*
X140232225Y-86664785D01*
X140232769Y-86657244D01*
X140250502Y-86411499D01*
X140250957Y-86406791D01*
X140281071Y-86158047D01*
X140281758Y-86153331D01*
X140304367Y-86020943D01*
X146399500Y-86020943D01*
X146399500Y-86179057D01*
X146440423Y-86331784D01*
X146519480Y-86468716D01*
X146631284Y-86580520D01*
X146768216Y-86659577D01*
X146920943Y-86700500D01*
X146920945Y-86700500D01*
X147079055Y-86700500D01*
X147079057Y-86700500D01*
X147231784Y-86659577D01*
X147235825Y-86657244D01*
X149648073Y-86657244D01*
X149648073Y-86795610D01*
X149683885Y-86929263D01*
X149753068Y-87049092D01*
X149850908Y-87146932D01*
X149970737Y-87216115D01*
X150104390Y-87251927D01*
X150104392Y-87251927D01*
X150242754Y-87251927D01*
X150242756Y-87251927D01*
X150376409Y-87216115D01*
X150496238Y-87146932D01*
X150594078Y-87049092D01*
X150663261Y-86929263D01*
X150699073Y-86795610D01*
X150699073Y-86657244D01*
X150699073Y-86650755D01*
X150701807Y-86650755D01*
X150710846Y-86601921D01*
X150748358Y-86563405D01*
X150822665Y-86520505D01*
X150920505Y-86422665D01*
X150989688Y-86302836D01*
X151025500Y-86169183D01*
X151025500Y-86030817D01*
X150989688Y-85897164D01*
X150920505Y-85777335D01*
X150822665Y-85679495D01*
X150702836Y-85610312D01*
X150569183Y-85574500D01*
X150430817Y-85574500D01*
X150297164Y-85610312D01*
X150177335Y-85679495D01*
X150079495Y-85777335D01*
X150010312Y-85897164D01*
X149977146Y-86020944D01*
X149974500Y-86030818D01*
X149974500Y-86175672D01*
X149971775Y-86175672D01*
X149962701Y-86224551D01*
X149925212Y-86263022D01*
X149850910Y-86305920D01*
X149850908Y-86305922D01*
X149753068Y-86403762D01*
X149683885Y-86523591D01*
X149648073Y-86657244D01*
X147235825Y-86657244D01*
X147368716Y-86580520D01*
X147480520Y-86468716D01*
X147559577Y-86331784D01*
X147600500Y-86179057D01*
X147600500Y-86020943D01*
X147559577Y-85868216D01*
X147480520Y-85731284D01*
X147368716Y-85619480D01*
X147231784Y-85540423D01*
X147079057Y-85499500D01*
X146920943Y-85499500D01*
X146768216Y-85540423D01*
X146631284Y-85619480D01*
X146519480Y-85731284D01*
X146440423Y-85868216D01*
X146399500Y-86020943D01*
X140304367Y-86020943D01*
X140323405Y-85909460D01*
X140324334Y-85904728D01*
X140377233Y-85665958D01*
X140378390Y-85661283D01*
X140442269Y-85427815D01*
X140443663Y-85423169D01*
X140518240Y-85195257D01*
X140519864Y-85190681D01*
X140604862Y-84968567D01*
X140606698Y-84964103D01*
X140701858Y-84748006D01*
X140703932Y-84743598D01*
X140772648Y-84606351D01*
X140808961Y-84533821D01*
X140811248Y-84529523D01*
X140925918Y-84326234D01*
X140928399Y-84322079D01*
X141052415Y-84125580D01*
X141055090Y-84121565D01*
X141188221Y-83932061D01*
X141191119Y-83928148D01*
X141333036Y-83745984D01*
X141336090Y-83742256D01*
X141486627Y-83567562D01*
X141489850Y-83564004D01*
X141648684Y-83397120D01*
X141652134Y-83393671D01*
X141818996Y-83234857D01*
X141822577Y-83231615D01*
X141997248Y-83081097D01*
X142000999Y-83078024D01*
X142183173Y-82936100D01*
X142187063Y-82933220D01*
X142376554Y-82800097D01*
X142380579Y-82797415D01*
X142577084Y-82673396D01*
X142581276Y-82670894D01*
X142590171Y-82665877D01*
X142784520Y-82556249D01*
X142788836Y-82553954D01*
X142966729Y-82464888D01*
X142998615Y-82448923D01*
X143002992Y-82446865D01*
X143219105Y-82351697D01*
X143223569Y-82349861D01*
X143445700Y-82264855D01*
X143450269Y-82263235D01*
X143678165Y-82188663D01*
X143682811Y-82187269D01*
X143916279Y-82123390D01*
X143920954Y-82122233D01*
X144159744Y-82069329D01*
X144164461Y-82068404D01*
X144408338Y-82026756D01*
X144413048Y-82026070D01*
X144661775Y-81995958D01*
X144666479Y-81995504D01*
X144919799Y-81977223D01*
X144924533Y-81976995D01*
X145183139Y-81970813D01*
X145187222Y-81970802D01*
X145367935Y-81974094D01*
G37*
%TD.AperFunction*%
%TD*%
M02*
