%TF.GenerationSoftware,KiCad,Pcbnew,9.0.7*%
%TF.CreationDate,2026-03-04T02:39:04+00:00*%
%TF.ProjectId,main-PCB,6d61696e-2d50-4434-922e-6b696361645f,rev?*%
%TF.SameCoordinates,Original*%
%TF.FileFunction,Copper,L1,Top*%
%TF.FilePolarity,Positive*%
%FSLAX46Y46*%
G04 Gerber Fmt 4.6, Leading zero omitted, Abs format (unit mm)*
G04 Created by KiCad (PCBNEW 9.0.7) date 2026-03-04 02:39:04*
%MOMM*%
%LPD*%
G01*
G04 APERTURE LIST*
G04 Aperture macros list*
%AMRoundRect*
0 Rectangle with rounded corners*
0 $1 Rounding radius*
0 $2 $3 $4 $5 $6 $7 $8 $9 X,Y pos of 4 corners*
0 Add a 4 corners polygon primitive as box body*
4,1,4,$2,$3,$4,$5,$6,$7,$8,$9,$2,$3,0*
0 Add four circle primitives for the rounded corners*
1,1,$1+$1,$2,$3*
1,1,$1+$1,$4,$5*
1,1,$1+$1,$6,$7*
1,1,$1+$1,$8,$9*
0 Add four rect primitives between the rounded corners*
20,1,$1+$1,$2,$3,$4,$5,0*
20,1,$1+$1,$4,$5,$6,$7,0*
20,1,$1+$1,$6,$7,$8,$9,0*
20,1,$1+$1,$8,$9,$2,$3,0*%
%AMRotRect*
0 Rectangle, with rotation*
0 The origin of the aperture is its center*
0 $1 length*
0 $2 width*
0 $3 Rotation angle, in degrees counterclockwise*
0 Add horizontal line*
21,1,$1,$2,0,0,$3*%
G04 Aperture macros list end*
%TA.AperFunction,SMDPad,CuDef*%
%ADD10RoundRect,0.062500X0.220971X0.309359X-0.309359X-0.220971X-0.220971X-0.309359X0.309359X0.220971X0*%
%TD*%
%TA.AperFunction,SMDPad,CuDef*%
%ADD11RoundRect,0.062500X-0.220971X0.309359X-0.309359X0.220971X0.220971X-0.309359X0.309359X-0.220971X0*%
%TD*%
%TA.AperFunction,HeatsinkPad*%
%ADD12RotRect,3.450000X3.450000X225.000000*%
%TD*%
%TA.AperFunction,SMDPad,CuDef*%
%ADD13RoundRect,0.100000X0.162635X-0.021213X-0.021213X0.162635X-0.162635X0.021213X0.021213X-0.162635X0*%
%TD*%
%TA.AperFunction,SMDPad,CuDef*%
%ADD14RoundRect,0.100000X-0.162635X0.021213X0.021213X-0.162635X0.162635X-0.021213X-0.021213X0.162635X0*%
%TD*%
%TA.AperFunction,SMDPad,CuDef*%
%ADD15RoundRect,0.140000X0.170000X-0.140000X0.170000X0.140000X-0.170000X0.140000X-0.170000X-0.140000X0*%
%TD*%
%TA.AperFunction,SMDPad,CuDef*%
%ADD16RoundRect,0.100000X-0.021213X-0.162635X0.162635X0.021213X0.021213X0.162635X-0.162635X-0.021213X0*%
%TD*%
%TA.AperFunction,SMDPad,CuDef*%
%ADD17RoundRect,0.147500X-0.017678X0.226274X-0.226274X0.017678X0.017678X-0.226274X0.226274X-0.017678X0*%
%TD*%
%TA.AperFunction,SMDPad,CuDef*%
%ADD18RoundRect,0.100000X-0.100000X0.130000X-0.100000X-0.130000X0.100000X-0.130000X0.100000X0.130000X0*%
%TD*%
%TA.AperFunction,SMDPad,CuDef*%
%ADD19RotRect,0.250000X0.400000X135.000000*%
%TD*%
%TA.AperFunction,SMDPad,CuDef*%
%ADD20RotRect,0.700000X0.400000X135.000000*%
%TD*%
%TA.AperFunction,SMDPad,CuDef*%
%ADD21C,1.000000*%
%TD*%
%TA.AperFunction,SMDPad,CuDef*%
%ADD22RoundRect,0.147500X-0.226274X-0.017678X-0.017678X-0.226274X0.226274X0.017678X0.017678X0.226274X0*%
%TD*%
%TA.AperFunction,SMDPad,CuDef*%
%ADD23RoundRect,0.087500X0.114905X0.238649X-0.238649X-0.114905X-0.114905X-0.238649X0.238649X0.114905X0*%
%TD*%
%TA.AperFunction,SMDPad,CuDef*%
%ADD24R,0.350000X0.375000*%
%TD*%
%TA.AperFunction,SMDPad,CuDef*%
%ADD25R,0.375000X0.350000*%
%TD*%
%TA.AperFunction,SMDPad,CuDef*%
%ADD26RoundRect,0.140000X-0.219203X-0.021213X-0.021213X-0.219203X0.219203X0.021213X0.021213X0.219203X0*%
%TD*%
%TA.AperFunction,SMDPad,CuDef*%
%ADD27RoundRect,0.140000X0.219203X0.021213X0.021213X0.219203X-0.219203X-0.021213X-0.021213X-0.219203X0*%
%TD*%
%TA.AperFunction,SMDPad,CuDef*%
%ADD28RoundRect,0.100000X0.130000X0.100000X-0.130000X0.100000X-0.130000X-0.100000X0.130000X-0.100000X0*%
%TD*%
%TA.AperFunction,ViaPad*%
%ADD29C,0.600000*%
%TD*%
%TA.AperFunction,ViaPad*%
%ADD30C,0.450000*%
%TD*%
%TA.AperFunction,Conductor*%
%ADD31C,0.400000*%
%TD*%
%TA.AperFunction,Conductor*%
%ADD32C,0.250000*%
%TD*%
%TA.AperFunction,Conductor*%
%ADD33C,0.350000*%
%TD*%
%TA.AperFunction,Conductor*%
%ADD34C,0.120000*%
%TD*%
%TA.AperFunction,Conductor*%
%ADD35C,0.500000*%
%TD*%
%TA.AperFunction,Conductor*%
%ADD36C,0.375000*%
%TD*%
G04 APERTURE END LIST*
D10*
%TO.P,U3,1,VDD*%
%TO.N,VCC*%
X152961010Y-89513864D03*
%TO.P,U3,2,PC14*%
%TO.N,unconnected-(U3-PC14-Pad2)*%
X152607456Y-89160311D03*
%TO.P,U3,3,PC15*%
%TO.N,unconnected-(U3-PC15-Pad3)*%
X152253903Y-88806757D03*
%TO.P,U3,4,PF2*%
%TO.N,unconnected-(U3-PF2-Pad4)*%
X151900349Y-88453204D03*
%TO.P,U3,5,VDDA*%
%TO.N,VCC*%
X151546796Y-88099651D03*
%TO.P,U3,6,PA0*%
%TO.N,unconnected-(U3-PA0-Pad6)*%
X151193243Y-87746097D03*
%TO.P,U3,7,PA1*%
%TO.N,/INT1*%
X150839689Y-87392544D03*
%TO.P,U3,8,PA2*%
%TO.N,/INT2*%
X150486136Y-87038990D03*
D11*
%TO.P,U3,9,PA3*%
%TO.N,/LED*%
X149513864Y-87038990D03*
%TO.P,U3,10,PA4*%
%TO.N,unconnected-(U3-PA4-Pad10)*%
X149160311Y-87392544D03*
%TO.P,U3,11,PA5*%
%TO.N,unconnected-(U3-PA5-Pad11)*%
X148806757Y-87746097D03*
%TO.P,U3,12,PA6*%
%TO.N,unconnected-(U3-PA6-Pad12)*%
X148453204Y-88099651D03*
%TO.P,U3,13,PA7*%
%TO.N,/MOSI*%
X148099651Y-88453204D03*
%TO.P,U3,14,PB0*%
%TO.N,unconnected-(U3-PB0-Pad14)*%
X147746097Y-88806757D03*
%TO.P,U3,15,PB1*%
%TO.N,unconnected-(U3-PB1-Pad15)*%
X147392544Y-89160311D03*
%TO.P,U3,16,VSS*%
%TO.N,GND*%
X147038990Y-89513864D03*
D10*
%TO.P,U3,17,VDD*%
%TO.N,VCC*%
X147038990Y-90486136D03*
%TO.P,U3,18,PA8*%
%TO.N,unconnected-(U3-PA8-Pad18)*%
X147392544Y-90839689D03*
%TO.P,U3,19,PA9*%
%TO.N,unconnected-(U3-PA9-Pad19)*%
X147746097Y-91193243D03*
%TO.P,U3,20,PA10*%
%TO.N,unconnected-(U3-PA10-Pad20)*%
X148099651Y-91546796D03*
%TO.P,U3,21,PA11*%
%TO.N,/MISO*%
X148453204Y-91900349D03*
%TO.P,U3,22,PA12*%
%TO.N,unconnected-(U3-PA12-Pad22)*%
X148806757Y-92253903D03*
%TO.P,U3,23,PA13*%
%TO.N,/SWDIO*%
X149160311Y-92607456D03*
%TO.P,U3,24,PA14*%
%TO.N,/SWCLK*%
X149513864Y-92961010D03*
D11*
%TO.P,U3,25,PA15*%
%TO.N,/CS*%
X150486136Y-92961010D03*
%TO.P,U3,26,PB3*%
%TO.N,/SCLK*%
X150839689Y-92607456D03*
%TO.P,U3,27,PB4*%
%TO.N,unconnected-(U3-PB4-Pad27)*%
X151193243Y-92253903D03*
%TO.P,U3,28,PB5*%
%TO.N,unconnected-(U3-PB5-Pad28)*%
X151546796Y-91900349D03*
%TO.P,U3,29,PB6*%
%TO.N,unconnected-(U3-PB6-Pad29)*%
X151900349Y-91546796D03*
%TO.P,U3,30,PB7*%
%TO.N,unconnected-(U3-PB7-Pad30)*%
X152253903Y-91193243D03*
%TO.P,U3,31,PF3*%
%TO.N,unconnected-(U3-PF3-Pad31)*%
X152607456Y-90839689D03*
%TO.P,U3,32,VSS*%
%TO.N,GND*%
X152961010Y-90486136D03*
D12*
%TO.P,U3,33,VSS*%
X150000000Y-90000000D03*
%TD*%
D13*
%TO.P,R4,1*%
%TO.N,VCC*%
X157626274Y-89626274D03*
%TO.P,R4,2*%
%TO.N,Net-(D2-A)*%
X157173726Y-89173726D03*
%TD*%
D14*
%TO.P,C4,1*%
%TO.N,VCC*%
X153773726Y-88773726D03*
%TO.P,C4,2*%
%TO.N,GND*%
X154226274Y-89226274D03*
%TD*%
D15*
%TO.P,C3,1*%
%TO.N,VCC*%
X152500000Y-96650000D03*
%TO.P,C3,2*%
%TO.N,GND*%
X152500000Y-95690000D03*
%TD*%
D16*
%TO.P,R2,1*%
%TO.N,VCC*%
X153173726Y-84126274D03*
%TO.P,R2,2*%
%TO.N,GND*%
X153626274Y-83673726D03*
%TD*%
%TO.P,R1,1*%
%TO.N,VCC*%
X142373726Y-89626274D03*
%TO.P,R1,2*%
%TO.N,Net-(D1-A)*%
X142826274Y-89173726D03*
%TD*%
D17*
%TO.P,D1,1,K*%
%TO.N,/LED_K*%
X144342947Y-87657053D03*
%TO.P,D1,2,A*%
%TO.N,Net-(D1-A)*%
X143657053Y-88342947D03*
%TD*%
D18*
%TO.P,C1,1*%
%TO.N,VCC*%
X151600000Y-96650000D03*
%TO.P,C1,2*%
%TO.N,GND*%
X151600000Y-97290000D03*
%TD*%
D19*
%TO.P,Q1,1,G*%
%TO.N,/LED*%
X147106586Y-85211612D03*
%TO.P,Q1,2,S*%
%TO.N,GND*%
X146788388Y-84893414D03*
D20*
%TO.P,Q1,3,D*%
%TO.N,/LED_K*%
X146452513Y-85547487D03*
%TD*%
D21*
%TO.P,TP2,1,1*%
%TO.N,/SWCLK*%
X146000000Y-95000000D03*
%TD*%
D22*
%TO.P,D2,1,K*%
%TO.N,/LED_K*%
X155657053Y-87657053D03*
%TO.P,D2,2,A*%
%TO.N,Net-(D2-A)*%
X156342947Y-88342947D03*
%TD*%
D13*
%TO.P,C5,1*%
%TO.N,VCC*%
X146226274Y-91226274D03*
%TO.P,C5,2*%
%TO.N,GND*%
X145773726Y-90773726D03*
%TD*%
D23*
%TO.P,Q4,1,D*%
%TO.N,Net-(Q4-D-Pad1)*%
X155757367Y-84749740D03*
%TO.P,Q4,2,D*%
X155403814Y-84396186D03*
%TO.P,Q4,3,G*%
%TO.N,GND*%
X155050260Y-84042633D03*
%TO.P,Q4,4,S*%
%TO.N,VCC*%
X154042633Y-85050260D03*
%TO.P,Q4,5,D*%
%TO.N,Net-(Q4-D-Pad1)*%
X154396186Y-85403814D03*
%TO.P,Q4,6,D*%
X154749740Y-85757367D03*
%TD*%
D21*
%TO.P,TP4,1,1*%
%TO.N,GND*%
X154000000Y-95000000D03*
%TD*%
%TO.P,TP3,1,1*%
%TO.N,VCC*%
X156000000Y-93000000D03*
%TD*%
D16*
%TO.P,R3,1*%
%TO.N,/LED*%
X148073726Y-86226274D03*
%TO.P,R3,2*%
%TO.N,GND*%
X148526274Y-85773726D03*
%TD*%
D24*
%TO.P,U2,1,SCL/SPC*%
%TO.N,/SCLK*%
X150750000Y-95150000D03*
%TO.P,U2,2,CS*%
%TO.N,/CS*%
X150250000Y-95150000D03*
%TO.P,U2,3,SDO/SA0*%
%TO.N,/MISO*%
X149750000Y-95150000D03*
%TO.P,U2,4,SDA/SDI/SDO*%
%TO.N,/MOSI*%
X149250000Y-95150000D03*
D25*
%TO.P,U2,5,NC*%
%TO.N,unconnected-(U2-NC-Pad5)*%
X149250000Y-95650000D03*
%TO.P,U2,6,GND*%
%TO.N,GND*%
X149250000Y-96150000D03*
D24*
%TO.P,U2,7,RES*%
X149250000Y-96650000D03*
%TO.P,U2,8,GND*%
X149750000Y-96650000D03*
%TO.P,U2,9,VDD*%
%TO.N,VCC*%
X150250000Y-96650000D03*
%TO.P,U2,10,VDD_IO*%
X150750000Y-96650000D03*
D25*
%TO.P,U2,11,INT2*%
%TO.N,/INT2*%
X150750000Y-96150000D03*
%TO.P,U2,12,INT1*%
%TO.N,/INT1*%
X150750000Y-95650000D03*
%TD*%
D26*
%TO.P,C6,1*%
%TO.N,VCC*%
X154360589Y-88160589D03*
%TO.P,C6,2*%
%TO.N,GND*%
X155039411Y-88839411D03*
%TD*%
D27*
%TO.P,C8,1*%
%TO.N,VCC*%
X152939411Y-86739411D03*
%TO.P,C8,2*%
%TO.N,GND*%
X152260589Y-86060589D03*
%TD*%
D21*
%TO.P,TP1,1,1*%
%TO.N,/SWDIO*%
X144000000Y-93000000D03*
%TD*%
D28*
%TO.P,C2,1*%
%TO.N,VCC*%
X150250000Y-97500000D03*
%TO.P,C2,2*%
%TO.N,GND*%
X149610000Y-97500000D03*
%TD*%
D13*
%TO.P,C7,1*%
%TO.N,VCC*%
X152326274Y-87326274D03*
%TO.P,C7,2*%
%TO.N,GND*%
X151873726Y-86873726D03*
%TD*%
D29*
%TO.N,VCC*%
X150250000Y-98200000D03*
X158200000Y-89100000D03*
X141800000Y-89000000D03*
%TO.N,GND*%
X142500000Y-91300000D03*
X157300000Y-91300000D03*
X147100000Y-92500000D03*
%TO.N,Net-(Q4-D-Pad1)*%
X155700000Y-86300000D03*
%TO.N,GND*%
X155600000Y-83500000D03*
%TO.N,/LED_K*%
X147000000Y-86100000D03*
X155100000Y-87100000D03*
%TO.N,GND*%
X145000000Y-83000000D03*
X159000000Y-87000000D03*
X141000000Y-87000000D03*
X147300000Y-87000000D03*
X154200000Y-83100000D03*
X153000000Y-93300000D03*
X150000000Y-94200000D03*
X148200000Y-95800000D03*
X146300000Y-84400000D03*
X151400000Y-98000000D03*
D30*
%TO.N,/INT1*%
X151900000Y-93400000D03*
%TO.N,/INT2*%
X152400000Y-93900000D03*
%TO.N,GND*%
X151500000Y-86500000D03*
%TO.N,/INT1*%
X150500000Y-86100000D03*
%TO.N,/INT2*%
X150173573Y-86726427D03*
D29*
%TO.N,/LED_K*%
X143800000Y-87100000D03*
%TO.N,GND*%
X154800000Y-89800000D03*
X154000000Y-94000000D03*
X145200000Y-90200000D03*
X148800000Y-97500000D03*
X153600000Y-91100000D03*
X146400000Y-88900000D03*
X147300000Y-84381802D03*
X149200000Y-85700000D03*
X151600000Y-85700000D03*
X152500000Y-94900000D03*
X155600000Y-89400000D03*
X148200000Y-96650000D03*
%TO.N,VCC*%
X153400000Y-87200000D03*
X145800000Y-91700000D03*
X153900000Y-87700000D03*
X153400000Y-96200000D03*
X155300000Y-92300000D03*
D30*
%TO.N,/SWDIO*%
X148600000Y-93200000D03*
X144800000Y-93200000D03*
%TO.N,/SWCLK*%
X146700000Y-94300000D03*
X150000000Y-93400000D03*
%TD*%
D31*
%TO.N,VCC*%
X146226274Y-91226274D02*
X145800000Y-91652548D01*
X145800000Y-91652548D02*
X145800000Y-91700000D01*
D32*
X147038990Y-90486136D02*
X146298852Y-91226274D01*
X146298852Y-91226274D02*
X146226274Y-91226274D01*
D31*
%TO.N,GND*%
X145773726Y-90773726D02*
X145200000Y-90200000D01*
D32*
%TO.N,VCC*%
X151546796Y-88099651D02*
X152320173Y-87326274D01*
X152320173Y-87326274D02*
X152326274Y-87326274D01*
X151546796Y-88099651D02*
X151552897Y-88099651D01*
D31*
%TO.N,GND*%
X151400000Y-98000000D02*
X151600000Y-97800000D01*
X151600000Y-97800000D02*
X151600000Y-97290000D01*
%TO.N,VCC*%
X150250000Y-97500000D02*
X150250000Y-98200000D01*
X158152548Y-89100000D02*
X158200000Y-89100000D01*
X157626274Y-89626274D02*
X158152548Y-89100000D01*
X153773726Y-88773726D02*
X153773726Y-88747452D01*
X153773726Y-88747452D02*
X154360589Y-88160589D01*
X152326274Y-87326274D02*
X152352548Y-87326274D01*
X152352548Y-87326274D02*
X152939411Y-86739411D01*
X141800000Y-89052548D02*
X141800000Y-89000000D01*
X142373726Y-89626274D02*
X141800000Y-89052548D01*
D33*
%TO.N,Net-(Q4-D-Pad1)*%
X155403814Y-84396186D02*
X155757367Y-84749739D01*
X155757367Y-84749739D02*
X155757367Y-84749740D01*
X154396186Y-85403814D02*
X154749739Y-85757367D01*
X154749739Y-85757367D02*
X154749740Y-85757367D01*
%TO.N,GND*%
X155057367Y-84042633D02*
X155057367Y-84035526D01*
X155057367Y-84035526D02*
X155592893Y-83500000D01*
X155592893Y-83500000D02*
X155600000Y-83500000D01*
%TO.N,Net-(Q4-D-Pad1)*%
X155403814Y-84396186D02*
X154396186Y-85403814D01*
X155757367Y-84749740D02*
X154749740Y-85757367D01*
X155292373Y-86300000D02*
X155700000Y-86300000D01*
X154749740Y-85757367D02*
X155292373Y-86300000D01*
D31*
%TO.N,GND*%
X153626274Y-83673726D02*
X154200000Y-83100000D01*
D34*
%TO.N,VCC*%
X153173726Y-84126274D02*
X154042633Y-84995181D01*
X154042633Y-84995181D02*
X154042633Y-85050260D01*
D33*
X154042633Y-85050260D02*
X153300000Y-85792893D01*
X153300000Y-85792893D02*
X153300000Y-86378822D01*
X153300000Y-86378822D02*
X152939411Y-86739411D01*
D31*
%TO.N,GND*%
X151600000Y-85700000D02*
X151900000Y-85700000D01*
X151900000Y-85700000D02*
X152260589Y-86060589D01*
X149200000Y-85700000D02*
X148600000Y-85700000D01*
X148600000Y-85700000D02*
X148526274Y-85773726D01*
D34*
%TO.N,/LED*%
X149513864Y-87038990D02*
X148974874Y-86500000D01*
X148974874Y-86500000D02*
X148347452Y-86500000D01*
X148347452Y-86500000D02*
X148073726Y-86226274D01*
X148073726Y-86226274D02*
X148073726Y-86173726D01*
X148073726Y-86173726D02*
X147111612Y-85211612D01*
X147111612Y-85211612D02*
X147106586Y-85211612D01*
D35*
%TO.N,/LED_K*%
X147000000Y-86100000D02*
X147000000Y-86094974D01*
X147000000Y-86094974D02*
X146452513Y-85547487D01*
X155657053Y-87657053D02*
X155100000Y-87100000D01*
D31*
%TO.N,GND*%
X151873726Y-86873726D02*
X151500000Y-86500000D01*
D34*
%TO.N,/INT1*%
X150750000Y-95650000D02*
X151350000Y-95650000D01*
X151350000Y-95650000D02*
X151600000Y-95400000D01*
X151600000Y-95400000D02*
X151600000Y-93700000D01*
X151600000Y-93700000D02*
X151900000Y-93400000D01*
%TO.N,/INT2*%
X150750000Y-96150000D02*
X151450000Y-96150000D01*
X151450000Y-96150000D02*
X151900000Y-95700000D01*
X151900000Y-95700000D02*
X151900000Y-94400000D01*
X151900000Y-94400000D02*
X152400000Y-93900000D01*
X150173573Y-86726427D02*
X150486136Y-87038990D01*
%TO.N,/INT1*%
X150500000Y-86100000D02*
X151200000Y-86800000D01*
X151200000Y-87032233D02*
X150839689Y-87392544D01*
X151200000Y-86800000D02*
X151200000Y-87032233D01*
D35*
%TO.N,/LED_K*%
X144342947Y-87642947D02*
X143800000Y-87100000D01*
X144342947Y-87657053D02*
X144342947Y-87642947D01*
D32*
%TO.N,GND*%
X147525126Y-90000000D02*
X150000000Y-90000000D01*
X147300000Y-84381802D02*
X146788388Y-84893414D01*
X153574874Y-91100000D02*
X153600000Y-91100000D01*
D31*
X152500000Y-95690000D02*
X152500000Y-94900000D01*
D32*
X147038990Y-89513864D02*
X146425126Y-88900000D01*
X152961010Y-90486136D02*
X153574874Y-91100000D01*
D31*
X154226274Y-89226274D02*
X154800000Y-89800000D01*
X149610000Y-97500000D02*
X148800000Y-97500000D01*
D32*
X147038990Y-89513864D02*
X147525126Y-90000000D01*
X152474874Y-90000000D02*
X150000000Y-90000000D01*
D31*
X155039411Y-88839411D02*
X155600000Y-89400000D01*
D32*
X152961010Y-90486136D02*
X152474874Y-90000000D01*
X154000000Y-95000000D02*
X154000000Y-94000000D01*
X146425126Y-88900000D02*
X146400000Y-88900000D01*
D36*
%TO.N,VCC*%
X150250000Y-96650000D02*
X150250000Y-97500000D01*
D35*
X152500000Y-96650000D02*
X152950000Y-96650000D01*
D34*
X153173726Y-84126274D02*
X153182771Y-84126274D01*
D36*
X150750000Y-96650000D02*
X151600000Y-96650000D01*
D35*
X154360589Y-88160589D02*
X153900000Y-87700000D01*
D31*
X151600000Y-96650000D02*
X152500000Y-96650000D01*
D32*
X153701148Y-88773726D02*
X153773726Y-88773726D01*
D35*
X152939411Y-86739411D02*
X153400000Y-87200000D01*
X152950000Y-96650000D02*
X153400000Y-96200000D01*
X153400000Y-87200000D02*
X153900000Y-87700000D01*
X156000000Y-93000000D02*
X155300000Y-92300000D01*
D32*
X152961010Y-89513864D02*
X153701148Y-88773726D01*
D34*
%TO.N,/MOSI*%
X148700000Y-95100000D02*
X146000000Y-92400000D01*
X146400000Y-87900000D02*
X147546447Y-87900000D01*
X144600000Y-89700000D02*
X146400000Y-87900000D01*
X148750000Y-95150000D02*
X148700000Y-95100000D01*
X149250000Y-95150000D02*
X148750000Y-95150000D01*
X146000000Y-92400000D02*
X145400000Y-92400000D01*
X145400000Y-92400000D02*
X144600000Y-91600000D01*
X144600000Y-91600000D02*
X144600000Y-89700000D01*
X147546447Y-87900000D02*
X148099651Y-88453204D01*
%TO.N,/SCLK*%
X150750000Y-94750000D02*
X151300000Y-94200000D01*
X151300000Y-94200000D02*
X151300000Y-93067767D01*
X150750000Y-95150000D02*
X150750000Y-94750000D01*
X151300000Y-93067767D02*
X150839689Y-92607456D01*
%TO.N,/MISO*%
X147900000Y-93500000D02*
X147900000Y-92453553D01*
X149750000Y-95150000D02*
X149750000Y-94750000D01*
X148900000Y-93900000D02*
X148300000Y-93900000D01*
X147900000Y-92453553D02*
X148453204Y-91900349D01*
X148300000Y-93900000D02*
X147900000Y-93500000D01*
X149750000Y-94750000D02*
X148900000Y-93900000D01*
%TO.N,/CS*%
X150250000Y-95150000D02*
X150250000Y-94750000D01*
X150250000Y-94750000D02*
X150900000Y-94100000D01*
X150900000Y-94100000D02*
X150900000Y-93374874D01*
X150900000Y-93374874D02*
X150486136Y-92961010D01*
D35*
%TO.N,/LED_K*%
X144342947Y-87657053D02*
X146452513Y-85547487D01*
D34*
%TO.N,/SWDIO*%
X144200000Y-93200000D02*
X144000000Y-93000000D01*
X148650000Y-93117767D02*
X149160311Y-92607456D01*
X148650000Y-93150000D02*
X148650000Y-93117767D01*
X148600000Y-93200000D02*
X148650000Y-93150000D01*
X144800000Y-93200000D02*
X144200000Y-93200000D01*
%TO.N,/SWCLK*%
X146700000Y-94300000D02*
X146000000Y-95000000D01*
X150000000Y-93400000D02*
X149947146Y-93347146D01*
X149900000Y-93347146D02*
X149513864Y-92961010D01*
X149947146Y-93347146D02*
X149900000Y-93347146D01*
D31*
%TO.N,Net-(D1-A)*%
X142826274Y-89173726D02*
X143657053Y-88342947D01*
D35*
%TO.N,Net-(D2-A)*%
X157173726Y-89173726D02*
X156342947Y-88342947D01*
%TD*%
%TA.AperFunction,Conductor*%
%TO.N,GND*%
G36*
X147394504Y-94304328D02*
G01*
X148461528Y-95371352D01*
X148461527Y-95371352D01*
X148528647Y-95438471D01*
X148528652Y-95438475D01*
X148610848Y-95485931D01*
X148610849Y-95485931D01*
X148610852Y-95485933D01*
X148688624Y-95506771D01*
X148739937Y-95540093D01*
X148761864Y-95597214D01*
X148762000Y-95602397D01*
X148762000Y-95869859D01*
X148762001Y-95869866D01*
X148764427Y-95890785D01*
X148764427Y-95913595D01*
X148762500Y-95930208D01*
X148762500Y-95999999D01*
X148762501Y-96000000D01*
X148771521Y-96000000D01*
X148826316Y-96016547D01*
X148834544Y-96022015D01*
X148889735Y-96077206D01*
X148972744Y-96113858D01*
X148979800Y-96118547D01*
X148993794Y-96136207D01*
X149010589Y-96151236D01*
X149012417Y-96159709D01*
X149017800Y-96166502D01*
X149018741Y-96189016D01*
X149023494Y-96211045D01*
X149019993Y-96218973D01*
X149020355Y-96227634D01*
X149007881Y-96246403D01*
X148998780Y-96267017D01*
X148991287Y-96271373D01*
X148986490Y-96278593D01*
X148965367Y-96286445D01*
X148945887Y-96297773D01*
X148930477Y-96299416D01*
X148929139Y-96299914D01*
X148928219Y-96299657D01*
X148925005Y-96300000D01*
X148762502Y-96300000D01*
X148762501Y-96300001D01*
X148762501Y-96369791D01*
X148765409Y-96394874D01*
X148766564Y-96397488D01*
X148775000Y-96437477D01*
X148775000Y-96499999D01*
X148775001Y-96500000D01*
X149099999Y-96500000D01*
X149100000Y-96499999D01*
X149100000Y-96300001D01*
X149094502Y-96294503D01*
X149083977Y-96273847D01*
X149070351Y-96255092D01*
X149070351Y-96247102D01*
X149066725Y-96239986D01*
X149070351Y-96217091D01*
X149070351Y-96193906D01*
X149075046Y-96187443D01*
X149076296Y-96179554D01*
X149092687Y-96163162D01*
X149106315Y-96144406D01*
X149113912Y-96141937D01*
X149119561Y-96136289D01*
X149164503Y-96125499D01*
X149335494Y-96125499D01*
X149393685Y-96144406D01*
X149429649Y-96193906D01*
X149429649Y-96255092D01*
X149405498Y-96294503D01*
X149400000Y-96300001D01*
X149400000Y-96499999D01*
X149400001Y-96500000D01*
X149606411Y-96500000D01*
X149614090Y-96496086D01*
X149632969Y-96482438D01*
X149640840Y-96482456D01*
X149647853Y-96478883D01*
X149670861Y-96482526D01*
X149694155Y-96482581D01*
X149700511Y-96487221D01*
X149708285Y-96488453D01*
X149724759Y-96504926D01*
X149743570Y-96518661D01*
X149745287Y-96525453D01*
X149751551Y-96531717D01*
X149762342Y-96576895D01*
X149762324Y-96584544D01*
X149762000Y-96585754D01*
X149762000Y-96723224D01*
X149752552Y-96752069D01*
X149743093Y-96781184D01*
X149742993Y-96781256D01*
X149742956Y-96781371D01*
X149718358Y-96799155D01*
X149693593Y-96817148D01*
X149693471Y-96817148D01*
X149693373Y-96817219D01*
X149662994Y-96817148D01*
X149632407Y-96817148D01*
X149632289Y-96817076D01*
X149632187Y-96817076D01*
X149631651Y-96816685D01*
X149604424Y-96800000D01*
X148775002Y-96800000D01*
X148775001Y-96800001D01*
X148775001Y-96882291D01*
X148777909Y-96907374D01*
X148823213Y-97009977D01*
X148902522Y-97089286D01*
X149005125Y-97134589D01*
X149015856Y-97135834D01*
X149071481Y-97161320D01*
X149101502Y-97214634D01*
X149095445Y-97266853D01*
X149097244Y-97267438D01*
X149094835Y-97274852D01*
X149082933Y-97350000D01*
X149459999Y-97350000D01*
X149460000Y-97349999D01*
X149460000Y-96994000D01*
X149478907Y-96935809D01*
X149528407Y-96899845D01*
X149538517Y-96897142D01*
X149642517Y-96875149D01*
X149645152Y-96875428D01*
X149647513Y-96874226D01*
X149675344Y-96878633D01*
X149703361Y-96881608D01*
X149705327Y-96883382D01*
X149707945Y-96883797D01*
X149727870Y-96903722D01*
X149748788Y-96922596D01*
X149749336Y-96925188D01*
X149751210Y-96927062D01*
X149762000Y-96972007D01*
X149762000Y-97196669D01*
X149751210Y-97241613D01*
X149734354Y-97274695D01*
X149719501Y-97368476D01*
X149719500Y-97368481D01*
X149719500Y-97451485D01*
X149719501Y-97500000D01*
X149719501Y-97631523D01*
X149734352Y-97725299D01*
X149734352Y-97725301D01*
X149738709Y-97733850D01*
X149749500Y-97778797D01*
X149749500Y-97839363D01*
X149736237Y-97888862D01*
X149690423Y-97968214D01*
X149663141Y-98070034D01*
X149649500Y-98120943D01*
X149649500Y-98279057D01*
X149690423Y-98431784D01*
X149769480Y-98568716D01*
X149881284Y-98680520D01*
X150018216Y-98759577D01*
X150170943Y-98800500D01*
X150170945Y-98800500D01*
X150329055Y-98800500D01*
X150329057Y-98800500D01*
X150481784Y-98759577D01*
X150618716Y-98680520D01*
X150730520Y-98568716D01*
X150809577Y-98431784D01*
X150850500Y-98279057D01*
X150850500Y-98120943D01*
X150809577Y-97968216D01*
X150809576Y-97968214D01*
X150763763Y-97888862D01*
X150750500Y-97839363D01*
X150750500Y-97778797D01*
X150761291Y-97733850D01*
X150765646Y-97725304D01*
X150780500Y-97631519D01*
X150780499Y-97440001D01*
X151100001Y-97440001D01*
X151100001Y-97451485D01*
X151114833Y-97545141D01*
X151114836Y-97545151D01*
X151172358Y-97658043D01*
X151261955Y-97747640D01*
X151374854Y-97805165D01*
X151374857Y-97805166D01*
X151449999Y-97817066D01*
X151450000Y-97817065D01*
X151450000Y-97440001D01*
X151449999Y-97440000D01*
X151100002Y-97440000D01*
X151100001Y-97440001D01*
X150780499Y-97440001D01*
X150780499Y-97368482D01*
X150780498Y-97368478D01*
X150780498Y-97368476D01*
X150765647Y-97274698D01*
X150763340Y-97267599D01*
X150763335Y-97206414D01*
X150799296Y-97156911D01*
X150857485Y-97138000D01*
X151056993Y-97138000D01*
X151063148Y-97140000D01*
X151300595Y-97140000D01*
X151345540Y-97150791D01*
X151374692Y-97165644D01*
X151374696Y-97165646D01*
X151468481Y-97180500D01*
X151731518Y-97180499D01*
X151731521Y-97180499D01*
X151731522Y-97180498D01*
X151765489Y-97175118D01*
X151825300Y-97165647D01*
X151825301Y-97165646D01*
X151825304Y-97165646D01*
X151831370Y-97162555D01*
X151833856Y-97161289D01*
X151878798Y-97150500D01*
X152044076Y-97150500D01*
X152102267Y-97169407D01*
X152102865Y-97169846D01*
X152121839Y-97183850D01*
X152121845Y-97183853D01*
X152186321Y-97206414D01*
X152247181Y-97227710D01*
X152274619Y-97230282D01*
X152276923Y-97230499D01*
X152276928Y-97230500D01*
X152481290Y-97230500D01*
X152539481Y-97249407D01*
X152575445Y-97298907D01*
X152575445Y-97360093D01*
X152546403Y-97404074D01*
X152308720Y-97611600D01*
X152300624Y-97618668D01*
X152299079Y-97619217D01*
X152270661Y-97644830D01*
X152270092Y-97645327D01*
X152238203Y-97673169D01*
X152233071Y-97678711D01*
X152231042Y-97680540D01*
X152175160Y-97705458D01*
X152115305Y-97692771D01*
X152074338Y-97647324D01*
X152067908Y-97586478D01*
X152076548Y-97562057D01*
X152085164Y-97545147D01*
X152100000Y-97451484D01*
X152100000Y-97440001D01*
X152099999Y-97440000D01*
X151750001Y-97440000D01*
X151750000Y-97440001D01*
X151750000Y-97817066D01*
X151820041Y-97805974D01*
X151880472Y-97815546D01*
X151923736Y-97858811D01*
X151933307Y-97919244D01*
X151905528Y-97973760D01*
X151901808Y-97977292D01*
X151147805Y-98656906D01*
X151139769Y-98664148D01*
X151138130Y-98664762D01*
X151110277Y-98690729D01*
X151109610Y-98691331D01*
X151109565Y-98691374D01*
X151078511Y-98719365D01*
X151073165Y-98725331D01*
X150067525Y-99662941D01*
X150012069Y-99688794D01*
X149952009Y-99677114D01*
X149932501Y-99662941D01*
X149206862Y-98986389D01*
X148918956Y-98717959D01*
X148918203Y-98716378D01*
X148889852Y-98690824D01*
X148861899Y-98664762D01*
X148861898Y-98664761D01*
X148858635Y-98661719D01*
X148852216Y-98656901D01*
X147783859Y-97693946D01*
X147766965Y-97678719D01*
X147761843Y-97673186D01*
X147735287Y-97650000D01*
X149082934Y-97650000D01*
X149094833Y-97725142D01*
X149094834Y-97725145D01*
X149152359Y-97838044D01*
X149241956Y-97927641D01*
X149354848Y-97985163D01*
X149354852Y-97985164D01*
X149448509Y-97999998D01*
X149448522Y-97999999D01*
X149460000Y-97999998D01*
X149460000Y-97650001D01*
X149459999Y-97650000D01*
X149082934Y-97650000D01*
X147735287Y-97650000D01*
X147729991Y-97645376D01*
X147728820Y-97644337D01*
X147697419Y-97616034D01*
X147691308Y-97611600D01*
X145806835Y-95966225D01*
X145775437Y-95913711D01*
X145780903Y-95852770D01*
X145821144Y-95806680D01*
X145880791Y-95793047D01*
X145891263Y-95794554D01*
X145921147Y-95800498D01*
X145921152Y-95800498D01*
X145921158Y-95800500D01*
X145921159Y-95800500D01*
X146078841Y-95800500D01*
X146078842Y-95800500D01*
X146233497Y-95769737D01*
X146379179Y-95709394D01*
X146510289Y-95621789D01*
X146621789Y-95510289D01*
X146709394Y-95379179D01*
X146769737Y-95233497D01*
X146800500Y-95078842D01*
X146800500Y-94921158D01*
X146798940Y-94913315D01*
X146806131Y-94852554D01*
X146847664Y-94807624D01*
X146870411Y-94798375D01*
X146902836Y-94789688D01*
X147022665Y-94720505D01*
X147120505Y-94622665D01*
X147189688Y-94502836D01*
X147225500Y-94369183D01*
X147225500Y-94369180D01*
X147226347Y-94362749D01*
X147229143Y-94363117D01*
X147244407Y-94316141D01*
X147293907Y-94280177D01*
X147355093Y-94280177D01*
X147394504Y-94304328D01*
G37*
%TD.AperFunction*%
%TA.AperFunction,Conductor*%
G36*
X145367935Y-81974094D02*
G01*
X145371544Y-81974226D01*
X145551051Y-81984064D01*
X145554566Y-81984321D01*
X145731982Y-82000565D01*
X145735505Y-82000954D01*
X145910761Y-82023480D01*
X145914261Y-82023995D01*
X146087310Y-82052680D01*
X146090839Y-82053330D01*
X146261714Y-82088068D01*
X146265115Y-82088824D01*
X146433717Y-82129490D01*
X146437152Y-82130384D01*
X146474495Y-82140821D01*
X146603470Y-82176869D01*
X146606766Y-82177853D01*
X146770796Y-82230060D01*
X146774058Y-82231162D01*
X146892059Y-82273359D01*
X146935658Y-82288950D01*
X146938892Y-82290171D01*
X146984223Y-82308190D01*
X147098074Y-82353446D01*
X147101158Y-82354734D01*
X147246488Y-82418405D01*
X147257921Y-82423414D01*
X147260994Y-82424824D01*
X147415175Y-82498748D01*
X147418139Y-82500230D01*
X147569839Y-82579369D01*
X147572652Y-82580897D01*
X147721726Y-82665097D01*
X147724463Y-82666704D01*
X147852824Y-82744878D01*
X147868771Y-82754590D01*
X147872782Y-82757167D01*
X148159201Y-82951210D01*
X148164231Y-82954855D01*
X148437144Y-83166014D01*
X148441790Y-83169842D01*
X148702726Y-83398610D01*
X148707011Y-83402599D01*
X148826976Y-83521136D01*
X148955390Y-83648022D01*
X148959357Y-83652176D01*
X149194664Y-83913343D01*
X149198295Y-83917610D01*
X149394466Y-84161814D01*
X149394467Y-84161814D01*
X149403630Y-84173221D01*
X149405453Y-84178419D01*
X149428493Y-84204171D01*
X149430144Y-84206226D01*
X149450152Y-84231133D01*
X149454561Y-84234829D01*
X149464705Y-84244646D01*
X149485664Y-84268054D01*
X149485667Y-84268056D01*
X149485668Y-84268057D01*
X149515159Y-84289591D01*
X149615532Y-84362881D01*
X149651068Y-84378770D01*
X149762326Y-84428517D01*
X149762327Y-84428517D01*
X149762329Y-84428518D01*
X149919593Y-84462077D01*
X150080396Y-84462078D01*
X150237660Y-84428522D01*
X150384458Y-84362886D01*
X150514328Y-84268061D01*
X150545001Y-84233804D01*
X150549877Y-84231133D01*
X150571546Y-84204158D01*
X150594555Y-84178441D01*
X150594556Y-84178436D01*
X150597466Y-84173510D01*
X150605533Y-84161847D01*
X150606156Y-84161072D01*
X150801738Y-83917600D01*
X150805326Y-83913383D01*
X151040690Y-83652153D01*
X151044636Y-83648023D01*
X151044637Y-83648022D01*
X151293016Y-83402599D01*
X151297284Y-83398625D01*
X151507750Y-83214105D01*
X153378786Y-83214105D01*
X153626274Y-83461593D01*
X153892898Y-83194968D01*
X153892898Y-83194967D01*
X153831349Y-83150247D01*
X153710839Y-83111091D01*
X153584135Y-83111091D01*
X153463628Y-83150245D01*
X153386902Y-83205990D01*
X153386897Y-83205995D01*
X153378786Y-83214105D01*
X151507750Y-83214105D01*
X151558235Y-83169844D01*
X151562874Y-83166021D01*
X151835793Y-82954857D01*
X151840839Y-82951203D01*
X152125191Y-82758559D01*
X152130607Y-82755140D01*
X152425928Y-82581871D01*
X152431707Y-82578734D01*
X152737528Y-82425703D01*
X152743657Y-82422893D01*
X153059559Y-82290957D01*
X153065982Y-82288535D01*
X153391570Y-82178555D01*
X153398278Y-82176553D01*
X153733160Y-82089411D01*
X153740099Y-82087871D01*
X154083939Y-82024464D01*
X154091067Y-82023416D01*
X154443631Y-81984655D01*
X154450842Y-81984129D01*
X154813684Y-81970917D01*
X154819648Y-81970880D01*
X155075493Y-81976995D01*
X155080233Y-81977223D01*
X155333520Y-81995501D01*
X155338236Y-81995957D01*
X155586966Y-82026068D01*
X155591699Y-82026758D01*
X155835558Y-82068404D01*
X155840291Y-82069332D01*
X156079059Y-82122230D01*
X156083752Y-82123391D01*
X156205117Y-82156598D01*
X156317203Y-82187266D01*
X156321864Y-82188665D01*
X156549758Y-82263235D01*
X156554353Y-82264865D01*
X156776441Y-82349855D01*
X156780956Y-82351712D01*
X156996986Y-82446843D01*
X157001410Y-82448923D01*
X157211206Y-82553962D01*
X157215523Y-82556258D01*
X157418749Y-82670892D01*
X157422948Y-82673400D01*
X157552449Y-82755132D01*
X157615946Y-82795207D01*
X157619426Y-82797403D01*
X157623480Y-82800103D01*
X157671651Y-82833944D01*
X157812921Y-82933190D01*
X157816853Y-82936100D01*
X157999028Y-83078024D01*
X158002812Y-83081126D01*
X158177431Y-83231600D01*
X158181044Y-83234871D01*
X158272337Y-83321760D01*
X158347895Y-83393674D01*
X158351354Y-83397133D01*
X158510147Y-83563973D01*
X158513431Y-83567600D01*
X158663910Y-83742226D01*
X158667011Y-83746010D01*
X158808907Y-83928148D01*
X158811818Y-83932080D01*
X158833820Y-83963398D01*
X158942779Y-84118494D01*
X158944911Y-84121528D01*
X158947623Y-84125600D01*
X159071618Y-84322065D01*
X159074126Y-84326264D01*
X159188778Y-84529523D01*
X159191075Y-84533841D01*
X159296097Y-84743605D01*
X159298176Y-84748027D01*
X159393316Y-84964073D01*
X159395173Y-84968589D01*
X159480164Y-85190681D01*
X159481794Y-85195276D01*
X159556363Y-85423164D01*
X159557762Y-85427826D01*
X159621627Y-85661249D01*
X159622793Y-85665960D01*
X159675692Y-85904722D01*
X159676623Y-85909471D01*
X159718265Y-86153308D01*
X159718960Y-86158076D01*
X159749064Y-86406740D01*
X159749525Y-86411512D01*
X159767802Y-86664785D01*
X159768031Y-86669545D01*
X159774148Y-86925411D01*
X159774112Y-86931346D01*
X159738323Y-87923416D01*
X159737917Y-87929486D01*
X159693736Y-88381098D01*
X159693190Y-88385604D01*
X159630969Y-88816629D01*
X159630150Y-88821455D01*
X159550175Y-89231076D01*
X159549045Y-89236154D01*
X159451283Y-89626548D01*
X159449817Y-89631786D01*
X159334185Y-90005172D01*
X159332383Y-90010457D01*
X159198720Y-90369116D01*
X159196608Y-90374327D01*
X159044673Y-90720544D01*
X159042301Y-90725561D01*
X158871767Y-91061617D01*
X158869213Y-91066329D01*
X158869213Y-91066332D01*
X158869212Y-91066333D01*
X158679708Y-91394426D01*
X158677056Y-91398756D01*
X158469974Y-91718252D01*
X158466035Y-91723890D01*
X157986307Y-92362122D01*
X157981486Y-92368046D01*
X157422315Y-93003368D01*
X157418397Y-93007566D01*
X156775580Y-93657697D01*
X156772744Y-93660454D01*
X156045650Y-94339311D01*
X156043432Y-94341320D01*
X154328619Y-95847981D01*
X154328388Y-95848183D01*
X154123071Y-96027450D01*
X154066801Y-96051480D01*
X154007154Y-96037847D01*
X153966913Y-95991757D01*
X153962335Y-95978511D01*
X153959577Y-95968216D01*
X153880520Y-95831284D01*
X153768716Y-95719480D01*
X153631784Y-95640423D01*
X153479057Y-95599500D01*
X153320943Y-95599500D01*
X153234620Y-95622629D01*
X153173520Y-95619427D01*
X153125971Y-95580922D01*
X153109999Y-95527003D01*
X153109999Y-95496996D01*
X153107213Y-95467278D01*
X153107212Y-95467273D01*
X153063405Y-95342079D01*
X152984641Y-95235360D01*
X152984639Y-95235358D01*
X152877920Y-95156594D01*
X152752727Y-95112787D01*
X152723000Y-95110000D01*
X152650001Y-95110000D01*
X152650000Y-95110001D01*
X152650000Y-95591000D01*
X152645155Y-95605911D01*
X152645155Y-95621593D01*
X152635938Y-95634278D01*
X152631093Y-95649191D01*
X152618407Y-95658407D01*
X152609191Y-95671093D01*
X152594278Y-95675938D01*
X152581593Y-95685155D01*
X152551000Y-95690000D01*
X152449000Y-95690000D01*
X152390809Y-95671093D01*
X152354845Y-95621593D01*
X152350000Y-95591000D01*
X152350000Y-95109999D01*
X152345426Y-95105426D01*
X152301309Y-95091092D01*
X152265345Y-95041592D01*
X152260500Y-95010999D01*
X152260500Y-94590332D01*
X152262968Y-94582734D01*
X152261719Y-94574845D01*
X152272243Y-94554189D01*
X152279407Y-94532141D01*
X152289496Y-94520328D01*
X152355328Y-94454496D01*
X152409845Y-94426719D01*
X152425332Y-94425500D01*
X152469181Y-94425500D01*
X152469183Y-94425500D01*
X152602836Y-94389688D01*
X152722665Y-94320505D01*
X152820505Y-94222665D01*
X152889688Y-94102836D01*
X152925500Y-93969183D01*
X152925500Y-93830817D01*
X152889688Y-93697164D01*
X152820505Y-93577335D01*
X152722665Y-93479495D01*
X152602836Y-93410312D01*
X152489941Y-93380062D01*
X152438626Y-93346737D01*
X152419938Y-93310060D01*
X152389688Y-93197164D01*
X152320505Y-93077335D01*
X152222665Y-92979495D01*
X152102836Y-92910312D01*
X151969183Y-92874500D01*
X151855342Y-92874500D01*
X151797151Y-92855593D01*
X151761187Y-92806093D01*
X151761187Y-92744907D01*
X151769900Y-92725493D01*
X151776332Y-92714502D01*
X151783640Y-92707195D01*
X151826265Y-92650032D01*
X151843571Y-92599618D01*
X151848558Y-92591099D01*
X151864396Y-92577006D01*
X151877140Y-92560063D01*
X151891884Y-92552550D01*
X151894270Y-92550428D01*
X151896480Y-92550208D01*
X151901856Y-92547470D01*
X151912618Y-92543775D01*
X151942925Y-92533371D01*
X152000088Y-92490747D01*
X152137193Y-92353641D01*
X152179818Y-92296478D01*
X152193917Y-92255406D01*
X152219837Y-92220943D01*
X154699500Y-92220943D01*
X154699500Y-92379057D01*
X154740423Y-92531784D01*
X154819480Y-92668716D01*
X154931284Y-92780520D01*
X155068216Y-92859577D01*
X155068218Y-92859577D01*
X155068221Y-92859579D01*
X155071938Y-92861119D01*
X155104053Y-92882578D01*
X155140420Y-92918945D01*
X155170503Y-92949027D01*
X155198281Y-93003543D01*
X155199500Y-93019031D01*
X155199500Y-93078844D01*
X155230263Y-93233496D01*
X155230263Y-93233498D01*
X155290603Y-93379174D01*
X155290609Y-93379185D01*
X155311408Y-93410312D01*
X155378211Y-93510289D01*
X155489711Y-93621789D01*
X155550021Y-93662087D01*
X155620814Y-93709390D01*
X155620825Y-93709396D01*
X155674638Y-93731685D01*
X155766503Y-93769737D01*
X155921158Y-93800500D01*
X155921159Y-93800500D01*
X156078841Y-93800500D01*
X156078842Y-93800500D01*
X156233497Y-93769737D01*
X156379179Y-93709394D01*
X156510289Y-93621789D01*
X156621789Y-93510289D01*
X156709394Y-93379179D01*
X156769737Y-93233497D01*
X156800500Y-93078842D01*
X156800500Y-92921158D01*
X156769737Y-92766503D01*
X156733747Y-92679614D01*
X156709396Y-92620825D01*
X156709390Y-92620814D01*
X156660382Y-92547470D01*
X156621789Y-92489711D01*
X156510289Y-92378211D01*
X156435122Y-92327986D01*
X156379185Y-92290609D01*
X156379174Y-92290603D01*
X156233497Y-92230263D01*
X156078844Y-92199500D01*
X156078842Y-92199500D01*
X156019033Y-92199500D01*
X156011435Y-92197031D01*
X156003546Y-92198281D01*
X155982890Y-92187756D01*
X155960842Y-92180593D01*
X155949029Y-92170504D01*
X155882577Y-92104052D01*
X155861117Y-92071935D01*
X155859579Y-92068225D01*
X155859577Y-92068216D01*
X155780520Y-91931284D01*
X155668716Y-91819480D01*
X155531784Y-91740423D01*
X155379057Y-91699500D01*
X155220943Y-91699500D01*
X155068216Y-91740423D01*
X154931284Y-91819480D01*
X154819480Y-91931284D01*
X154740423Y-92068216D01*
X154699500Y-92220943D01*
X152219837Y-92220943D01*
X152230692Y-92206510D01*
X152238483Y-92201569D01*
X152246581Y-92196947D01*
X152296478Y-92179818D01*
X152353641Y-92137194D01*
X152490746Y-92000088D01*
X152533371Y-91942925D01*
X152547470Y-91901853D01*
X152584245Y-91852957D01*
X152608955Y-91840366D01*
X152650032Y-91826265D01*
X152707195Y-91783641D01*
X152844300Y-91646535D01*
X152886925Y-91589372D01*
X152901024Y-91548301D01*
X152937800Y-91499403D01*
X152962516Y-91486810D01*
X152983308Y-91479672D01*
X153003585Y-91472711D01*
X153060748Y-91430087D01*
X153197853Y-91292981D01*
X153240478Y-91235818D01*
X153254783Y-91194148D01*
X153291559Y-91145251D01*
X153316275Y-91132657D01*
X153356897Y-91118712D01*
X153391217Y-91093121D01*
X153286406Y-90988310D01*
X153262777Y-90950456D01*
X153240478Y-90885502D01*
X153240476Y-90885499D01*
X153197856Y-90828341D01*
X152978334Y-90608818D01*
X152971216Y-90594848D01*
X152960128Y-90583760D01*
X152957675Y-90568272D01*
X152950557Y-90554302D01*
X152953009Y-90538815D01*
X152950557Y-90523328D01*
X152957675Y-90509357D01*
X152960128Y-90493870D01*
X152963753Y-90488879D01*
X152961009Y-90486135D01*
X153137785Y-90486135D01*
X153567993Y-90916343D01*
X153567994Y-90916342D01*
X153593584Y-90882026D01*
X153632869Y-90767596D01*
X153632869Y-90646617D01*
X153593583Y-90532186D01*
X153593584Y-90532186D01*
X153551025Y-90475110D01*
X153551014Y-90475098D01*
X153349918Y-90274004D01*
X153137785Y-90486135D01*
X152961009Y-90486135D01*
X152942625Y-90467752D01*
X152914847Y-90413235D01*
X152924418Y-90352803D01*
X152942624Y-90327743D01*
X153173141Y-90097226D01*
X153146271Y-90070357D01*
X153118493Y-90015841D01*
X153128064Y-89955409D01*
X153146263Y-89930358D01*
X153257162Y-89819460D01*
X153390731Y-89685891D01*
X153978787Y-89685891D01*
X153986908Y-89694012D01*
X154063624Y-89749752D01*
X154184135Y-89788909D01*
X154310839Y-89788909D01*
X154431347Y-89749753D01*
X154492899Y-89705032D01*
X154226273Y-89438406D01*
X153978787Y-89685891D01*
X153390731Y-89685891D01*
X153614837Y-89461784D01*
X153669350Y-89434009D01*
X153729782Y-89443580D01*
X153755124Y-89463553D01*
X153755786Y-89462892D01*
X153766654Y-89473760D01*
X153908496Y-89331918D01*
X153947905Y-89307769D01*
X153979029Y-89297657D01*
X154055848Y-89241844D01*
X154078842Y-89218849D01*
X154133354Y-89191071D01*
X154133579Y-89191036D01*
X154317073Y-89162399D01*
X154347277Y-89167252D01*
X154377283Y-89172005D01*
X154377406Y-89172094D01*
X154377484Y-89172107D01*
X154377642Y-89172266D01*
X154402342Y-89190211D01*
X154705030Y-89492898D01*
X154708515Y-89488102D01*
X154758015Y-89452139D01*
X154819201Y-89452140D01*
X154831562Y-89457098D01*
X154887044Y-89483817D01*
X155018195Y-89503584D01*
X155018201Y-89503584D01*
X155149351Y-89483817D01*
X155268858Y-89426265D01*
X155291848Y-89407217D01*
X155343466Y-89355598D01*
X155003349Y-89015481D01*
X154996229Y-89001508D01*
X154985144Y-88990423D01*
X154982691Y-88974936D01*
X154975572Y-88960964D01*
X154978024Y-88945476D01*
X154975572Y-88929991D01*
X154982689Y-88916020D01*
X154985143Y-88900532D01*
X155003349Y-88875474D01*
X155075473Y-88803349D01*
X155129989Y-88775571D01*
X155190421Y-88785142D01*
X155215481Y-88803348D01*
X155555598Y-89143465D01*
X155607226Y-89091836D01*
X155626263Y-89068861D01*
X155683817Y-88949351D01*
X155704690Y-88810863D01*
X155706499Y-88811135D01*
X155722491Y-88761919D01*
X155771991Y-88725955D01*
X155833177Y-88725955D01*
X155872584Y-88750104D01*
X155977232Y-88854750D01*
X156046646Y-88924164D01*
X156047817Y-88925134D01*
X156070051Y-88943557D01*
X156070052Y-88943557D01*
X156070054Y-88943559D01*
X156082082Y-88949351D01*
X156191728Y-89002153D01*
X156197071Y-89002958D01*
X156251795Y-89030325D01*
X156252324Y-89030849D01*
X156835711Y-89614236D01*
X156961241Y-89686710D01*
X157027420Y-89704442D01*
X157078732Y-89737765D01*
X157095949Y-89769474D01*
X157102340Y-89789144D01*
X157102343Y-89789150D01*
X157158155Y-89865969D01*
X157225772Y-89933587D01*
X157225773Y-89933587D01*
X157225774Y-89933588D01*
X157225773Y-89933588D01*
X157318960Y-90026774D01*
X157386579Y-90094392D01*
X157463396Y-90150204D01*
X157463397Y-90150204D01*
X157463398Y-90150205D01*
X157584054Y-90189408D01*
X157584056Y-90189408D01*
X157710918Y-90189408D01*
X157710920Y-90189408D01*
X157831577Y-90150205D01*
X157908396Y-90094392D01*
X158094391Y-89908396D01*
X158150205Y-89831577D01*
X158153169Y-89822452D01*
X158177320Y-89783041D01*
X158234080Y-89726280D01*
X158278459Y-89700659D01*
X158279052Y-89700500D01*
X158279057Y-89700500D01*
X158431784Y-89659577D01*
X158568716Y-89580520D01*
X158680520Y-89468716D01*
X158759577Y-89331784D01*
X158800500Y-89179057D01*
X158800500Y-89020943D01*
X158759577Y-88868216D01*
X158680520Y-88731284D01*
X158568716Y-88619480D01*
X158431784Y-88540423D01*
X158279057Y-88499500D01*
X158120943Y-88499500D01*
X157968216Y-88540423D01*
X157831284Y-88619480D01*
X157719480Y-88731284D01*
X157707244Y-88752478D01*
X157661773Y-88793418D01*
X157600923Y-88799812D01*
X157551506Y-88772981D01*
X157030849Y-88252324D01*
X157003072Y-88197807D01*
X157002958Y-88197071D01*
X157002153Y-88191729D01*
X157002153Y-88191728D01*
X156943557Y-88070051D01*
X156924163Y-88046643D01*
X156860455Y-87982935D01*
X156639255Y-87761736D01*
X156639251Y-87761732D01*
X156615844Y-87742338D01*
X156615839Y-87742334D01*
X156494165Y-87683740D01*
X156494162Y-87683739D01*
X156411811Y-87671327D01*
X156357088Y-87643958D01*
X156328903Y-87589651D01*
X156328672Y-87588188D01*
X156316260Y-87505836D01*
X156316259Y-87505834D01*
X156298384Y-87468716D01*
X156257663Y-87384157D01*
X156238269Y-87360749D01*
X156170325Y-87292805D01*
X155953361Y-87075842D01*
X155953357Y-87075838D01*
X155929950Y-87056444D01*
X155929949Y-87056443D01*
X155908341Y-87046037D01*
X155864117Y-87003755D01*
X155853191Y-86943553D01*
X155879738Y-86888427D01*
X155925671Y-86861214D01*
X155931784Y-86859577D01*
X156068716Y-86780520D01*
X156180520Y-86668716D01*
X156259577Y-86531784D01*
X156300500Y-86379057D01*
X156300500Y-86220943D01*
X156259577Y-86068216D01*
X156180520Y-85931284D01*
X156068716Y-85819480D01*
X155931784Y-85740423D01*
X155779057Y-85699500D01*
X155719074Y-85699500D01*
X155660883Y-85680593D01*
X155624919Y-85631093D01*
X155624919Y-85569907D01*
X155649070Y-85530496D01*
X155767169Y-85412397D01*
X156137862Y-85041704D01*
X156137864Y-85041700D01*
X156291962Y-84887602D01*
X156346035Y-84813179D01*
X156384015Y-84696288D01*
X156384015Y-84573382D01*
X156346035Y-84456492D01*
X156291963Y-84382068D01*
X156125039Y-84215145D01*
X156125037Y-84215143D01*
X156050617Y-84161073D01*
X156043670Y-84157533D01*
X156044842Y-84155232D01*
X156005209Y-84126434D01*
X155996617Y-84109570D01*
X155996017Y-84109877D01*
X155992481Y-84102937D01*
X155988095Y-84096900D01*
X155938410Y-84028514D01*
X155771486Y-83861591D01*
X155771485Y-83861590D01*
X155771484Y-83861589D01*
X155697064Y-83807519D01*
X155690117Y-83803979D01*
X155691201Y-83801850D01*
X155651072Y-83772697D01*
X155642677Y-83756217D01*
X155642014Y-83756555D01*
X155638477Y-83749613D01*
X155603522Y-83701502D01*
X155603521Y-83701501D01*
X155564483Y-83740541D01*
X155517000Y-83766942D01*
X155505887Y-83769538D01*
X155457266Y-83769538D01*
X155340375Y-83807518D01*
X155338986Y-83808526D01*
X155328780Y-83810911D01*
X155302272Y-83808661D01*
X155275665Y-83808661D01*
X155272146Y-83806104D01*
X155267813Y-83805737D01*
X155247687Y-83788333D01*
X155226166Y-83772697D01*
X155224822Y-83768561D01*
X155221532Y-83765716D01*
X155215479Y-83739808D01*
X155207259Y-83714506D01*
X155208603Y-83710369D01*
X155207614Y-83706135D01*
X155217945Y-83681618D01*
X155226167Y-83656315D01*
X155230984Y-83650674D01*
X155231374Y-83649751D01*
X155232199Y-83649251D01*
X155236256Y-83644503D01*
X155391389Y-83489369D01*
X155343278Y-83454415D01*
X155226542Y-83416484D01*
X155103787Y-83416484D01*
X154987057Y-83454413D01*
X154987053Y-83454415D01*
X154912720Y-83508421D01*
X154912719Y-83508422D01*
X154820450Y-83600690D01*
X155050261Y-83830501D01*
X155058033Y-83830501D01*
X155080080Y-83837664D01*
X155102978Y-83841291D01*
X155108626Y-83846939D01*
X155116224Y-83849408D01*
X155129851Y-83868164D01*
X155146243Y-83884556D01*
X155147492Y-83892445D01*
X155152188Y-83898908D01*
X155152188Y-83922093D01*
X155155814Y-83944988D01*
X155152188Y-83952104D01*
X155152188Y-83960094D01*
X155128037Y-83999505D01*
X155113905Y-84013637D01*
X155059388Y-84041414D01*
X155050802Y-84042089D01*
X155014197Y-84078695D01*
X154959680Y-84106472D01*
X154899248Y-84096900D01*
X154874191Y-84078695D01*
X154608318Y-83812823D01*
X154608317Y-83812823D01*
X154516049Y-83905092D01*
X154516048Y-83905093D01*
X154462042Y-83979426D01*
X154462040Y-83979430D01*
X154424111Y-84096160D01*
X154424111Y-84218909D01*
X154462643Y-84337498D01*
X154462643Y-84398683D01*
X154426679Y-84448184D01*
X154368488Y-84467091D01*
X154337896Y-84462246D01*
X154234099Y-84428521D01*
X154218991Y-84423612D01*
X154096085Y-84423612D01*
X154066834Y-84433116D01*
X154043650Y-84433115D01*
X154020757Y-84436741D01*
X154013638Y-84433114D01*
X154005648Y-84433114D01*
X153966240Y-84408964D01*
X153850937Y-84293661D01*
X153823160Y-84239144D01*
X153832731Y-84178712D01*
X153862759Y-84143558D01*
X153865648Y-84141459D01*
X153873761Y-84133345D01*
X153873761Y-84133344D01*
X153731919Y-83991502D01*
X153707768Y-83952091D01*
X153700620Y-83930091D01*
X153697657Y-83920971D01*
X153641844Y-83844152D01*
X153641841Y-83844149D01*
X153641839Y-83844146D01*
X153579842Y-83782150D01*
X153471416Y-83673725D01*
X153838406Y-83673725D01*
X154085892Y-83921211D01*
X154094009Y-83913096D01*
X154149753Y-83836374D01*
X154188909Y-83715864D01*
X154188909Y-83589161D01*
X154149752Y-83468650D01*
X154105032Y-83407099D01*
X154105031Y-83407099D01*
X153838406Y-83673725D01*
X153471416Y-83673725D01*
X153455848Y-83658157D01*
X153379029Y-83602343D01*
X153379027Y-83602342D01*
X153347904Y-83592229D01*
X153308496Y-83568079D01*
X153166654Y-83426238D01*
X153158546Y-83434348D01*
X153158536Y-83434359D01*
X153102796Y-83511075D01*
X153102794Y-83511077D01*
X153096080Y-83531742D01*
X153060115Y-83581241D01*
X153032521Y-83595301D01*
X153010853Y-83602341D01*
X153010849Y-83602343D01*
X152934030Y-83658155D01*
X152705607Y-83886579D01*
X152649795Y-83963396D01*
X152632805Y-84015689D01*
X152610592Y-84084054D01*
X152610592Y-84210920D01*
X152621588Y-84244763D01*
X152649795Y-84331578D01*
X152705606Y-84408394D01*
X152705607Y-84408395D01*
X152705608Y-84408396D01*
X152891604Y-84594391D01*
X152968423Y-84650205D01*
X153089080Y-84689408D01*
X153089082Y-84689408D01*
X153186028Y-84689408D01*
X153244219Y-84708315D01*
X153256032Y-84718404D01*
X153409027Y-84871399D01*
X153436804Y-84925916D01*
X153427233Y-84986348D01*
X153409027Y-85011406D01*
X153008036Y-85412397D01*
X153008036Y-85412398D01*
X153008035Y-85412397D01*
X152919507Y-85500926D01*
X152919505Y-85500928D01*
X152919505Y-85500929D01*
X152856905Y-85609357D01*
X152856904Y-85609359D01*
X152856903Y-85609360D01*
X152839229Y-85675322D01*
X152813607Y-85719701D01*
X152436659Y-86096650D01*
X152382142Y-86124428D01*
X152321710Y-86114857D01*
X152296652Y-86096651D01*
X152260589Y-86060589D01*
X152224526Y-86096651D01*
X152170009Y-86124428D01*
X152109577Y-86114856D01*
X152084520Y-86096651D01*
X151744401Y-85756533D01*
X151744400Y-85756533D01*
X151692782Y-85808153D01*
X151692775Y-85808161D01*
X151673736Y-85831138D01*
X151616182Y-85950648D01*
X151596416Y-86081798D01*
X151596416Y-86081805D01*
X151616182Y-86212955D01*
X151642900Y-86268434D01*
X151651113Y-86329066D01*
X151622120Y-86382945D01*
X151611895Y-86391481D01*
X151607099Y-86394965D01*
X151607099Y-86394966D01*
X151909788Y-86697655D01*
X151937565Y-86752172D01*
X151927994Y-86812604D01*
X151909788Y-86837662D01*
X151837664Y-86909787D01*
X151823693Y-86916905D01*
X151812605Y-86927994D01*
X151797117Y-86930446D01*
X151783148Y-86937565D01*
X151767660Y-86935112D01*
X151752173Y-86937565D01*
X151738201Y-86930446D01*
X151722716Y-86927994D01*
X151697656Y-86909788D01*
X151586610Y-86798742D01*
X151560987Y-86754360D01*
X151560500Y-86752542D01*
X151560500Y-86752539D01*
X151535933Y-86660852D01*
X151535197Y-86659577D01*
X151488475Y-86578652D01*
X151488471Y-86578647D01*
X151421352Y-86511527D01*
X151421352Y-86511528D01*
X151054496Y-86144672D01*
X151026719Y-86090155D01*
X151025500Y-86074668D01*
X151025500Y-86030818D01*
X151025500Y-86030817D01*
X150989688Y-85897164D01*
X150920505Y-85777335D01*
X150822665Y-85679495D01*
X150702836Y-85610312D01*
X150569183Y-85574500D01*
X150430817Y-85574500D01*
X150297164Y-85610312D01*
X150177335Y-85679495D01*
X150079495Y-85777335D01*
X150010312Y-85897164D01*
X149990082Y-85972666D01*
X149974500Y-86030818D01*
X149974500Y-86175672D01*
X149971775Y-86175672D01*
X149962701Y-86224551D01*
X149925212Y-86263022D01*
X149850910Y-86305920D01*
X149753068Y-86403762D01*
X149717767Y-86464904D01*
X149672296Y-86505844D01*
X149611446Y-86512238D01*
X149562027Y-86485406D01*
X149525211Y-86448590D01*
X149468056Y-86405971D01*
X149468047Y-86405966D01*
X149371872Y-86372948D01*
X149334016Y-86349317D01*
X149196226Y-86211528D01*
X149196221Y-86211524D01*
X149114025Y-86164068D01*
X149114026Y-86164068D01*
X149073868Y-86153308D01*
X149060890Y-86149830D01*
X149009576Y-86116507D01*
X148987650Y-86059385D01*
X149003486Y-86000285D01*
X149006423Y-85996011D01*
X149049752Y-85936375D01*
X149088909Y-85815864D01*
X149088909Y-85689161D01*
X149049752Y-85568650D01*
X149032134Y-85544401D01*
X151956534Y-85544401D01*
X152260589Y-85848456D01*
X152585857Y-85523188D01*
X152585857Y-85523187D01*
X152555450Y-85492782D01*
X152555442Y-85492775D01*
X152532465Y-85473736D01*
X152412955Y-85416182D01*
X152281805Y-85396416D01*
X152281799Y-85396416D01*
X152150648Y-85416182D01*
X152031141Y-85473734D01*
X152008156Y-85492778D01*
X151956534Y-85544401D01*
X149032134Y-85544401D01*
X149005032Y-85507099D01*
X149005031Y-85507099D01*
X148702344Y-85809787D01*
X148647827Y-85837565D01*
X148617074Y-85837600D01*
X148433579Y-85808963D01*
X148419493Y-85801826D01*
X148403899Y-85799356D01*
X148379193Y-85781406D01*
X148379000Y-85781309D01*
X148378965Y-85781241D01*
X148378845Y-85781153D01*
X148355848Y-85758157D01*
X148279029Y-85702343D01*
X148279027Y-85702342D01*
X148247904Y-85692229D01*
X148208496Y-85668079D01*
X148066655Y-85526238D01*
X148062118Y-85526239D01*
X148057394Y-85528646D01*
X148046304Y-85539737D01*
X148030818Y-85542189D01*
X148016852Y-85549307D01*
X148001362Y-85546854D01*
X147985872Y-85549308D01*
X147971902Y-85542190D01*
X147956419Y-85539739D01*
X147931355Y-85521531D01*
X147723929Y-85314105D01*
X148278786Y-85314105D01*
X148526274Y-85561593D01*
X148792898Y-85294968D01*
X148792898Y-85294967D01*
X148731349Y-85250247D01*
X148610839Y-85211091D01*
X148484135Y-85211091D01*
X148363628Y-85250245D01*
X148286902Y-85305990D01*
X148286897Y-85305995D01*
X148278786Y-85314105D01*
X147723929Y-85314105D01*
X147665892Y-85256068D01*
X147638115Y-85201551D01*
X147636896Y-85186064D01*
X147636896Y-85102407D01*
X147636895Y-85102404D01*
X147634648Y-85096605D01*
X147596311Y-84997646D01*
X147580606Y-84977818D01*
X147580601Y-84977813D01*
X147580598Y-84977809D01*
X147340385Y-84737599D01*
X147340380Y-84737594D01*
X147336776Y-84734739D01*
X147320554Y-84721888D01*
X147316067Y-84719321D01*
X147279306Y-84682557D01*
X147277680Y-84679715D01*
X147262005Y-84659925D01*
X147230328Y-84628248D01*
X147206275Y-84652304D01*
X147151944Y-84680053D01*
X147144155Y-84681302D01*
X147103446Y-84681302D01*
X147074694Y-84692440D01*
X147064359Y-84694098D01*
X147043965Y-84690908D01*
X147023355Y-84692052D01*
X147014417Y-84686286D01*
X147003909Y-84684643D01*
X146989284Y-84670074D01*
X146971939Y-84658886D01*
X146968097Y-84648969D01*
X146960561Y-84641462D01*
X146957292Y-84621078D01*
X146949836Y-84601832D01*
X146952557Y-84591550D01*
X146950873Y-84581048D01*
X146960208Y-84562638D01*
X146965490Y-84542683D01*
X146978503Y-84526561D01*
X146978546Y-84526478D01*
X146978588Y-84526456D01*
X146978680Y-84526343D01*
X147053551Y-84451472D01*
X147021873Y-84419794D01*
X147021868Y-84419790D01*
X147002086Y-84404121D01*
X146897502Y-84363604D01*
X146785342Y-84363604D01*
X146785336Y-84363605D01*
X146680757Y-84404120D01*
X146660963Y-84419798D01*
X146576257Y-84504505D01*
X146806773Y-84735021D01*
X146813892Y-84748994D01*
X146824979Y-84760081D01*
X146827431Y-84775566D01*
X146834550Y-84789538D01*
X146832097Y-84805025D01*
X146834550Y-84820513D01*
X146827431Y-84834483D01*
X146824979Y-84849970D01*
X146806772Y-84875030D01*
X146770002Y-84911799D01*
X146715485Y-84939575D01*
X146655053Y-84930003D01*
X146629996Y-84911798D01*
X146399479Y-84681282D01*
X146399478Y-84681282D01*
X146314778Y-84765982D01*
X146299093Y-84785785D01*
X146283487Y-84826065D01*
X146244834Y-84873495D01*
X146226941Y-84882612D01*
X146185517Y-84898661D01*
X146185512Y-84898664D01*
X146165680Y-84914372D01*
X145819401Y-85260654D01*
X145819389Y-85260668D01*
X145803690Y-85280485D01*
X145803687Y-85280491D01*
X145763105Y-85385243D01*
X145763104Y-85385249D01*
X145763104Y-85417362D01*
X145744197Y-85475553D01*
X145734108Y-85487366D01*
X144448494Y-86772979D01*
X144393977Y-86800756D01*
X144333545Y-86791185D01*
X144292754Y-86752475D01*
X144280520Y-86731284D01*
X144168716Y-86619480D01*
X144031784Y-86540423D01*
X143879057Y-86499500D01*
X143720943Y-86499500D01*
X143568216Y-86540423D01*
X143431284Y-86619480D01*
X143319480Y-86731284D01*
X143240423Y-86868216D01*
X143199500Y-87020943D01*
X143199500Y-87179057D01*
X143240423Y-87331784D01*
X143319480Y-87468716D01*
X143426526Y-87575762D01*
X143454302Y-87630277D01*
X143444731Y-87690709D01*
X143401466Y-87733974D01*
X143399476Y-87734959D01*
X143384161Y-87742334D01*
X143384158Y-87742336D01*
X143360745Y-87761734D01*
X143075842Y-88046638D01*
X143075838Y-88046642D01*
X143056444Y-88070049D01*
X143056440Y-88070054D01*
X142997848Y-88191724D01*
X142997847Y-88191728D01*
X142984491Y-88280335D01*
X142957121Y-88335058D01*
X142956601Y-88335582D01*
X142510979Y-88781205D01*
X142456462Y-88808983D01*
X142396030Y-88799412D01*
X142355239Y-88760703D01*
X142280520Y-88631284D01*
X142168716Y-88519480D01*
X142031784Y-88440423D01*
X141879057Y-88399500D01*
X141720943Y-88399500D01*
X141568216Y-88440423D01*
X141431284Y-88519480D01*
X141319480Y-88631284D01*
X141240423Y-88768216D01*
X141199500Y-88920943D01*
X141199500Y-89079057D01*
X141240423Y-89231784D01*
X141319480Y-89368716D01*
X141431284Y-89480520D01*
X141568216Y-89559577D01*
X141584937Y-89564057D01*
X141629317Y-89589679D01*
X141822679Y-89783041D01*
X141846829Y-89822452D01*
X141849792Y-89831571D01*
X141849796Y-89831579D01*
X141905606Y-89908394D01*
X141905607Y-89908395D01*
X141905608Y-89908396D01*
X142091604Y-90094391D01*
X142168423Y-90150205D01*
X142289080Y-90189408D01*
X142289082Y-90189408D01*
X142415944Y-90189408D01*
X142415946Y-90189408D01*
X142536602Y-90150205D01*
X142613422Y-90094392D01*
X142692723Y-90015091D01*
X142719343Y-89988472D01*
X142788150Y-89919664D01*
X142788153Y-89919659D01*
X142812074Y-89895739D01*
X142841843Y-89865970D01*
X142897657Y-89789150D01*
X142904506Y-89768067D01*
X142940470Y-89718569D01*
X142968066Y-89704507D01*
X142989150Y-89697657D01*
X143065970Y-89641844D01*
X143136891Y-89570923D01*
X143166187Y-89541628D01*
X143664415Y-89043398D01*
X143718932Y-89015620D01*
X143719343Y-89015556D01*
X143808272Y-89002153D01*
X143929949Y-88943557D01*
X143953357Y-88924163D01*
X144238267Y-88639251D01*
X144257663Y-88615843D01*
X144316259Y-88494166D01*
X144316646Y-88491604D01*
X144328672Y-88411812D01*
X144356040Y-88357089D01*
X144410347Y-88328904D01*
X144411812Y-88328672D01*
X144494162Y-88316260D01*
X144494164Y-88316259D01*
X144494166Y-88316259D01*
X144615843Y-88257663D01*
X144639251Y-88238269D01*
X144924161Y-87953357D01*
X144943557Y-87929949D01*
X145002153Y-87808272D01*
X145002958Y-87802928D01*
X145030323Y-87748204D01*
X145030717Y-87747806D01*
X146351506Y-86427017D01*
X146406021Y-86399242D01*
X146466453Y-86408813D01*
X146507244Y-86447523D01*
X146519480Y-86468716D01*
X146631284Y-86580520D01*
X146768216Y-86659577D01*
X146920943Y-86700500D01*
X146920945Y-86700500D01*
X147079055Y-86700500D01*
X147079057Y-86700500D01*
X147231784Y-86659577D01*
X147368716Y-86580520D01*
X147454310Y-86494925D01*
X147508824Y-86467149D01*
X147569257Y-86476720D01*
X147602980Y-86505524D01*
X147603081Y-86505438D01*
X147603625Y-86506075D01*
X147604407Y-86506743D01*
X147605608Y-86508396D01*
X147791604Y-86694391D01*
X147868423Y-86750205D01*
X147989080Y-86789408D01*
X147989082Y-86789408D01*
X148101194Y-86789408D01*
X148150694Y-86802671D01*
X148208304Y-86835933D01*
X148299991Y-86860500D01*
X148394913Y-86860500D01*
X148435291Y-86860500D01*
X148436109Y-86860765D01*
X148436931Y-86860514D01*
X148465107Y-86870187D01*
X148493482Y-86879407D01*
X148493987Y-86880103D01*
X148494800Y-86880382D01*
X148511896Y-86904752D01*
X148529446Y-86928907D01*
X148529446Y-86929768D01*
X148529939Y-86930471D01*
X148529446Y-86960244D01*
X148529446Y-86990093D01*
X148528926Y-86991648D01*
X148527289Y-86996414D01*
X148527289Y-86996415D01*
X148524769Y-87003755D01*
X148513188Y-87037487D01*
X148476409Y-87086384D01*
X148451700Y-87098974D01*
X148410631Y-87113073D01*
X148410623Y-87113077D01*
X148353469Y-87155694D01*
X148353457Y-87155705D01*
X148216359Y-87292805D01*
X148216356Y-87292808D01*
X148173738Y-87349962D01*
X148173733Y-87349971D01*
X148159634Y-87391040D01*
X148122856Y-87439938D01*
X148098146Y-87452528D01*
X148057079Y-87466627D01*
X148057070Y-87466631D01*
X147999916Y-87509248D01*
X147999911Y-87509253D01*
X147902656Y-87606509D01*
X147848139Y-87634286D01*
X147787707Y-87624715D01*
X147772382Y-87615045D01*
X147767794Y-87611524D01*
X147685598Y-87564068D01*
X147685600Y-87564068D01*
X147630587Y-87549328D01*
X147593908Y-87539500D01*
X146447461Y-87539500D01*
X146352539Y-87539500D01*
X146315860Y-87549328D01*
X146260847Y-87564068D01*
X146178652Y-87611524D01*
X144378648Y-89411528D01*
X144378647Y-89411527D01*
X144311528Y-89478647D01*
X144311524Y-89478652D01*
X144264068Y-89560847D01*
X144258797Y-89580519D01*
X144239500Y-89652539D01*
X144239500Y-91552539D01*
X144239500Y-91647461D01*
X144252075Y-91694392D01*
X144264068Y-91739152D01*
X144311524Y-91821347D01*
X144311526Y-91821349D01*
X144311528Y-91821352D01*
X145011578Y-92521402D01*
X145039354Y-92575917D01*
X145029783Y-92636349D01*
X144986518Y-92679614D01*
X144930716Y-92689807D01*
X144923225Y-92688980D01*
X144869183Y-92674500D01*
X144791978Y-92674500D01*
X144786567Y-92673903D01*
X144763405Y-92663446D01*
X144739233Y-92655593D01*
X144734841Y-92650552D01*
X144730801Y-92648728D01*
X144726147Y-92640571D01*
X144712330Y-92624709D01*
X144712097Y-92624866D01*
X144710880Y-92623045D01*
X144710111Y-92622162D01*
X144709394Y-92620822D01*
X144709394Y-92620821D01*
X144621789Y-92489711D01*
X144510289Y-92378211D01*
X144435122Y-92327986D01*
X144379185Y-92290609D01*
X144379174Y-92290603D01*
X144233497Y-92230263D01*
X144078844Y-92199500D01*
X144078842Y-92199500D01*
X143921158Y-92199500D01*
X143921155Y-92199500D01*
X143766503Y-92230263D01*
X143766501Y-92230263D01*
X143620825Y-92290603D01*
X143620814Y-92290609D01*
X143489711Y-92378211D01*
X143489707Y-92378214D01*
X143378214Y-92489707D01*
X143378211Y-92489711D01*
X143290609Y-92620814D01*
X143290603Y-92620825D01*
X143230263Y-92766501D01*
X143230263Y-92766503D01*
X143199500Y-92921155D01*
X143199500Y-93078844D01*
X143230263Y-93233496D01*
X143230263Y-93233498D01*
X143290603Y-93379174D01*
X143290609Y-93379185D01*
X143311408Y-93410312D01*
X143378211Y-93510289D01*
X143489711Y-93621789D01*
X143550021Y-93662087D01*
X143620814Y-93709390D01*
X143620825Y-93709396D01*
X143674638Y-93731685D01*
X143766503Y-93769737D01*
X143921158Y-93800500D01*
X143921159Y-93800500D01*
X144078841Y-93800500D01*
X144078842Y-93800500D01*
X144233497Y-93769737D01*
X144379179Y-93709394D01*
X144444857Y-93665508D01*
X144503743Y-93648899D01*
X144549356Y-93662086D01*
X144597164Y-93689688D01*
X144730817Y-93725500D01*
X144730819Y-93725500D01*
X144869181Y-93725500D01*
X144869183Y-93725500D01*
X145002836Y-93689688D01*
X145122665Y-93620505D01*
X145220505Y-93522665D01*
X145289688Y-93402836D01*
X145325500Y-93269183D01*
X145325500Y-93130817D01*
X145289688Y-92997164D01*
X145236043Y-92904249D01*
X145223322Y-92844402D01*
X145248208Y-92788506D01*
X145301196Y-92757913D01*
X145347403Y-92759123D01*
X145352539Y-92760500D01*
X145447461Y-92760500D01*
X145809668Y-92760500D01*
X145867859Y-92779407D01*
X145879672Y-92789496D01*
X146695672Y-93605496D01*
X146723449Y-93660013D01*
X146713878Y-93720445D01*
X146670613Y-93763710D01*
X146637004Y-93771778D01*
X146637251Y-93773653D01*
X146630819Y-93774499D01*
X146497164Y-93810312D01*
X146377335Y-93879495D01*
X146279495Y-93977335D01*
X146210310Y-94097167D01*
X146201624Y-94129585D01*
X146168300Y-94180899D01*
X146111178Y-94202825D01*
X146086689Y-94201060D01*
X146078846Y-94199500D01*
X146078842Y-94199500D01*
X145921158Y-94199500D01*
X145921155Y-94199500D01*
X145766503Y-94230263D01*
X145766501Y-94230263D01*
X145620825Y-94290603D01*
X145620814Y-94290609D01*
X145489711Y-94378211D01*
X145489707Y-94378214D01*
X145378214Y-94489707D01*
X145378211Y-94489711D01*
X145290609Y-94620814D01*
X145290603Y-94620825D01*
X145230263Y-94766501D01*
X145230263Y-94766503D01*
X145199500Y-94921155D01*
X145199500Y-95078844D01*
X145227967Y-95221957D01*
X145220775Y-95282718D01*
X145179242Y-95327648D01*
X145119233Y-95339585D01*
X145065525Y-95315643D01*
X144381061Y-94714262D01*
X143956583Y-94341309D01*
X143954377Y-94339311D01*
X143916908Y-94304328D01*
X143227283Y-93660454D01*
X143224471Y-93657722D01*
X142579838Y-93005754D01*
X142577051Y-93002816D01*
X142288328Y-92685568D01*
X142286119Y-92683057D01*
X142204296Y-92586810D01*
X142016881Y-92366355D01*
X142014491Y-92363433D01*
X141805428Y-92097343D01*
X141765703Y-92046782D01*
X141763130Y-92043356D01*
X141626434Y-91852957D01*
X141534500Y-91724906D01*
X141531853Y-91721028D01*
X141511532Y-91689676D01*
X141330044Y-91409668D01*
X141322969Y-91398752D01*
X141320325Y-91394435D01*
X141130798Y-91066300D01*
X141128261Y-91061617D01*
X140957726Y-90725561D01*
X140955373Y-90720585D01*
X140803404Y-90374295D01*
X140801311Y-90369129D01*
X140667643Y-90010457D01*
X140665843Y-90005178D01*
X140550209Y-89631785D01*
X140548743Y-89626547D01*
X140545660Y-89614235D01*
X140450974Y-89236119D01*
X140449855Y-89231091D01*
X140369873Y-88821437D01*
X140369057Y-88816625D01*
X140368264Y-88811135D01*
X140306836Y-88385598D01*
X140306291Y-88381098D01*
X140261822Y-87926545D01*
X140261510Y-87922465D01*
X140234819Y-87442425D01*
X140234682Y-87438679D01*
X140225800Y-86932242D01*
X140225812Y-86928236D01*
X140231996Y-86669531D01*
X140232225Y-86664785D01*
X140233440Y-86647950D01*
X140250502Y-86411499D01*
X140250957Y-86406791D01*
X140281071Y-86158047D01*
X140281757Y-86153337D01*
X140323405Y-85909460D01*
X140324334Y-85904728D01*
X140377233Y-85665958D01*
X140378390Y-85661283D01*
X140442269Y-85427815D01*
X140443663Y-85423169D01*
X140518240Y-85195257D01*
X140519864Y-85190681D01*
X140604862Y-84968567D01*
X140606698Y-84964103D01*
X140701858Y-84748006D01*
X140703932Y-84743598D01*
X140706936Y-84737599D01*
X140808961Y-84533821D01*
X140811248Y-84529523D01*
X140925918Y-84326234D01*
X140928399Y-84322079D01*
X141052415Y-84125580D01*
X141055090Y-84121565D01*
X141188221Y-83932061D01*
X141191119Y-83928148D01*
X141333036Y-83745984D01*
X141336090Y-83742256D01*
X141486627Y-83567562D01*
X141489850Y-83564004D01*
X141648684Y-83397120D01*
X141652134Y-83393671D01*
X141818996Y-83234857D01*
X141822577Y-83231615D01*
X141997248Y-83081097D01*
X142000999Y-83078024D01*
X142183173Y-82936100D01*
X142187063Y-82933220D01*
X142376554Y-82800097D01*
X142380579Y-82797415D01*
X142577084Y-82673396D01*
X142581276Y-82670894D01*
X142590171Y-82665877D01*
X142784520Y-82556249D01*
X142788836Y-82553954D01*
X142966729Y-82464888D01*
X142998615Y-82448923D01*
X143002992Y-82446865D01*
X143219105Y-82351697D01*
X143223569Y-82349861D01*
X143445700Y-82264855D01*
X143450269Y-82263235D01*
X143678165Y-82188663D01*
X143682811Y-82187269D01*
X143916279Y-82123390D01*
X143920954Y-82122233D01*
X144159744Y-82069329D01*
X144164461Y-82068404D01*
X144408338Y-82026756D01*
X144413048Y-82026070D01*
X144661775Y-81995958D01*
X144666479Y-81995504D01*
X144919799Y-81977223D01*
X144924533Y-81976995D01*
X145183139Y-81970813D01*
X145187222Y-81970802D01*
X145367935Y-81974094D01*
G37*
%TD.AperFunction*%
%TA.AperFunction,Conductor*%
G36*
X149458269Y-93609252D02*
G01*
X149483139Y-93608841D01*
X149488212Y-93612400D01*
X149494376Y-93613048D01*
X149512864Y-93629694D01*
X149533228Y-93643981D01*
X149539838Y-93653977D01*
X149579495Y-93722665D01*
X149677335Y-93820505D01*
X149797164Y-93889688D01*
X149930817Y-93925500D01*
X149930819Y-93925500D01*
X150069181Y-93925500D01*
X150069183Y-93925500D01*
X150202836Y-93889688D01*
X150322665Y-93820505D01*
X150370498Y-93772671D01*
X150391151Y-93762148D01*
X150409907Y-93748522D01*
X150417896Y-93748522D01*
X150425013Y-93744896D01*
X150447908Y-93748522D01*
X150471093Y-93748522D01*
X150477555Y-93753217D01*
X150485445Y-93754467D01*
X150501836Y-93770858D01*
X150520593Y-93784486D01*
X150523061Y-93792083D01*
X150528710Y-93797732D01*
X150539500Y-93842677D01*
X150539500Y-93909668D01*
X150520593Y-93967859D01*
X150510503Y-93979672D01*
X150070002Y-94420172D01*
X150015486Y-94447949D01*
X149955054Y-94438378D01*
X149929998Y-94420174D01*
X149309073Y-93799249D01*
X149281298Y-93744735D01*
X149290869Y-93684303D01*
X149334134Y-93641038D01*
X149346932Y-93635613D01*
X149390941Y-93620504D01*
X149421963Y-93609853D01*
X149428157Y-93609751D01*
X149433526Y-93606652D01*
X149458269Y-93609252D01*
G37*
%TD.AperFunction*%
%TA.AperFunction,Conductor*%
G36*
X146846300Y-91375518D02*
G01*
X146856351Y-91373926D01*
X146875144Y-91383501D01*
X146895465Y-91389125D01*
X146903803Y-91394637D01*
X146939252Y-91430086D01*
X146996415Y-91472711D01*
X147049416Y-91490906D01*
X147059937Y-91497862D01*
X147098051Y-91545726D01*
X147098962Y-91548263D01*
X147110434Y-91581678D01*
X147113076Y-91589375D01*
X147155694Y-91646530D01*
X147155705Y-91646542D01*
X147292805Y-91783640D01*
X147292808Y-91783643D01*
X147321623Y-91805129D01*
X147349968Y-91826265D01*
X147391040Y-91840365D01*
X147439937Y-91877142D01*
X147452528Y-91901853D01*
X147466627Y-91942921D01*
X147466631Y-91942929D01*
X147509248Y-92000083D01*
X147509259Y-92000095D01*
X147606508Y-92097343D01*
X147634286Y-92151859D01*
X147624715Y-92212292D01*
X147615048Y-92227614D01*
X147611523Y-92232206D01*
X147564068Y-92314400D01*
X147550982Y-92363238D01*
X147540207Y-92403456D01*
X147539500Y-92406093D01*
X147539500Y-93190668D01*
X147520593Y-93248859D01*
X147471093Y-93284823D01*
X147409907Y-93284823D01*
X147370496Y-93260672D01*
X146296907Y-92187083D01*
X146269130Y-92132566D01*
X146278701Y-92072134D01*
X146281152Y-92067621D01*
X146359577Y-91931784D01*
X146393514Y-91805126D01*
X146426837Y-91753815D01*
X146430950Y-91750659D01*
X146431573Y-91750206D01*
X146431577Y-91750205D01*
X146508396Y-91694392D01*
X146694391Y-91508396D01*
X146750205Y-91431577D01*
X146750205Y-91431574D01*
X146752656Y-91426766D01*
X146767566Y-91411854D01*
X146779197Y-91394262D01*
X146788725Y-91390693D01*
X146795919Y-91383500D01*
X146816749Y-91380199D01*
X146836497Y-91372805D01*
X146846300Y-91375518D01*
G37*
%TD.AperFunction*%
%TA.AperFunction,Conductor*%
G36*
X150021806Y-87636567D02*
G01*
X150045613Y-87640523D01*
X150052739Y-87644222D01*
X150090007Y-87672012D01*
X150138029Y-87688498D01*
X150144544Y-87691880D01*
X150187479Y-87735471D01*
X150192563Y-87747592D01*
X150198291Y-87764275D01*
X150206668Y-87788676D01*
X150249286Y-87845831D01*
X150249297Y-87845843D01*
X150386397Y-87982941D01*
X150386400Y-87982944D01*
X150442288Y-88024617D01*
X150443560Y-88025566D01*
X150484632Y-88039666D01*
X150533529Y-88076443D01*
X150546120Y-88101154D01*
X150560219Y-88142222D01*
X150560223Y-88142230D01*
X150602840Y-88199384D01*
X150602851Y-88199396D01*
X150739951Y-88336494D01*
X150739954Y-88336497D01*
X150767570Y-88357089D01*
X150797114Y-88379119D01*
X150838183Y-88393218D01*
X150887081Y-88429994D01*
X150899672Y-88454703D01*
X150905220Y-88470863D01*
X150913775Y-88495783D01*
X150956393Y-88552938D01*
X150956404Y-88552950D01*
X151093504Y-88690048D01*
X151093507Y-88690051D01*
X151116263Y-88707019D01*
X151150667Y-88732673D01*
X151191736Y-88746772D01*
X151240634Y-88783548D01*
X151253225Y-88808258D01*
X151266477Y-88846856D01*
X151267327Y-88849332D01*
X151267329Y-88849337D01*
X151309946Y-88906491D01*
X151309957Y-88906503D01*
X151447057Y-89043601D01*
X151447060Y-89043604D01*
X151480932Y-89068861D01*
X151504220Y-89086226D01*
X151545292Y-89100326D01*
X151594189Y-89137103D01*
X151606780Y-89161814D01*
X151620879Y-89202882D01*
X151620883Y-89202890D01*
X151663500Y-89260044D01*
X151663511Y-89260056D01*
X151800611Y-89397154D01*
X151800614Y-89397157D01*
X151839651Y-89426265D01*
X151857774Y-89439779D01*
X151898843Y-89453878D01*
X151947741Y-89490654D01*
X151960332Y-89515363D01*
X151963607Y-89524901D01*
X151974435Y-89556443D01*
X152017053Y-89613598D01*
X152017064Y-89613610D01*
X152154164Y-89750708D01*
X152154167Y-89750711D01*
X152197522Y-89783039D01*
X152211327Y-89793333D01*
X152252399Y-89807433D01*
X152301296Y-89844210D01*
X152308084Y-89855389D01*
X152311490Y-89861939D01*
X152327988Y-89909993D01*
X152356066Y-89947649D01*
X152359755Y-89954741D01*
X152363540Y-89977419D01*
X152370915Y-89999192D01*
X152368481Y-90007011D01*
X152369830Y-90015091D01*
X152359563Y-90035663D01*
X152352731Y-90057613D01*
X152351287Y-90059600D01*
X152328435Y-90090245D01*
X152314488Y-90130871D01*
X152277710Y-90179770D01*
X152252999Y-90192360D01*
X152211330Y-90206665D01*
X152211322Y-90206669D01*
X152154168Y-90249286D01*
X152154156Y-90249297D01*
X152017058Y-90386397D01*
X152017055Y-90386400D01*
X151974437Y-90443554D01*
X151974432Y-90443563D01*
X151960333Y-90484632D01*
X151923555Y-90533530D01*
X151898845Y-90546120D01*
X151857778Y-90560219D01*
X151857769Y-90560223D01*
X151800615Y-90602840D01*
X151800603Y-90602851D01*
X151663507Y-90739949D01*
X151620879Y-90797116D01*
X151606780Y-90838185D01*
X151570002Y-90887083D01*
X151545292Y-90899673D01*
X151504223Y-90913772D01*
X151504215Y-90913776D01*
X151447061Y-90956393D01*
X151447049Y-90956404D01*
X151309953Y-91093502D01*
X151267325Y-91150669D01*
X151253226Y-91191738D01*
X151216448Y-91240636D01*
X151191738Y-91253226D01*
X151150671Y-91267325D01*
X151150662Y-91267329D01*
X151093508Y-91309946D01*
X151093496Y-91309957D01*
X150956398Y-91447057D01*
X150956395Y-91447060D01*
X150913777Y-91504214D01*
X150913772Y-91504223D01*
X150899673Y-91545292D01*
X150862895Y-91594190D01*
X150838185Y-91606780D01*
X150797118Y-91620879D01*
X150797109Y-91620883D01*
X150739955Y-91663500D01*
X150739943Y-91663511D01*
X150602847Y-91800609D01*
X150560219Y-91857776D01*
X150546120Y-91898845D01*
X150509342Y-91947743D01*
X150484632Y-91960333D01*
X150443563Y-91974432D01*
X150443555Y-91974436D01*
X150386401Y-92017053D01*
X150386389Y-92017064D01*
X150249291Y-92154164D01*
X150249288Y-92154167D01*
X150206670Y-92211321D01*
X150206665Y-92211330D01*
X150192566Y-92252399D01*
X150155788Y-92301297D01*
X150144544Y-92308118D01*
X150138021Y-92311504D01*
X150090007Y-92327988D01*
X150052747Y-92355770D01*
X150045612Y-92359475D01*
X150022966Y-92363238D01*
X150001224Y-92370601D01*
X149993370Y-92368156D01*
X149985254Y-92369505D01*
X149964722Y-92359238D01*
X149942804Y-92352416D01*
X149940820Y-92350974D01*
X149909997Y-92327990D01*
X149909989Y-92327986D01*
X149868921Y-92313887D01*
X149820023Y-92277109D01*
X149807432Y-92252396D01*
X149793333Y-92211327D01*
X149750713Y-92154168D01*
X149750702Y-92154156D01*
X149613602Y-92017058D01*
X149613599Y-92017055D01*
X149556445Y-91974437D01*
X149556442Y-91974435D01*
X149556440Y-91974434D01*
X149556436Y-91974432D01*
X149556435Y-91974432D01*
X149515366Y-91960332D01*
X149466468Y-91923554D01*
X149453879Y-91898845D01*
X149439779Y-91857774D01*
X149439777Y-91857771D01*
X149439777Y-91857770D01*
X149397159Y-91800615D01*
X149397148Y-91800603D01*
X149260048Y-91663505D01*
X149260045Y-91663502D01*
X149202891Y-91620884D01*
X149202882Y-91620879D01*
X149161814Y-91606780D01*
X149112916Y-91570002D01*
X149100325Y-91545289D01*
X149086226Y-91504220D01*
X149043606Y-91447061D01*
X149043595Y-91447049D01*
X148906495Y-91309951D01*
X148906492Y-91309948D01*
X148849338Y-91267330D01*
X148849335Y-91267328D01*
X148849333Y-91267327D01*
X148808260Y-91253226D01*
X148759363Y-91216449D01*
X148746773Y-91191738D01*
X148732673Y-91150667D01*
X148732671Y-91150665D01*
X148732671Y-91150663D01*
X148690053Y-91093508D01*
X148690042Y-91093496D01*
X148552942Y-90956398D01*
X148552939Y-90956395D01*
X148495785Y-90913777D01*
X148495782Y-90913775D01*
X148495780Y-90913774D01*
X148495776Y-90913772D01*
X148495775Y-90913772D01*
X148454706Y-90899672D01*
X148405808Y-90862894D01*
X148393219Y-90838185D01*
X148379119Y-90797114D01*
X148379117Y-90797111D01*
X148379117Y-90797110D01*
X148336499Y-90739955D01*
X148336488Y-90739943D01*
X148199388Y-90602845D01*
X148199385Y-90602842D01*
X148142231Y-90560224D01*
X148142222Y-90560219D01*
X148101154Y-90546120D01*
X148052256Y-90509342D01*
X148039665Y-90484629D01*
X148025566Y-90443560D01*
X147982946Y-90386401D01*
X147982935Y-90386389D01*
X147845835Y-90249291D01*
X147845832Y-90249288D01*
X147788678Y-90206670D01*
X147788675Y-90206668D01*
X147788673Y-90206667D01*
X147788669Y-90206665D01*
X147788668Y-90206665D01*
X147747599Y-90192565D01*
X147698701Y-90155787D01*
X147691914Y-90144609D01*
X147688509Y-90138063D01*
X147672012Y-90090007D01*
X147643931Y-90052348D01*
X147640244Y-90045258D01*
X147636458Y-90022580D01*
X147629084Y-90000807D01*
X147631517Y-89992987D01*
X147630169Y-89984908D01*
X147640435Y-89964335D01*
X147647268Y-89942386D01*
X147648713Y-89940397D01*
X147671566Y-89909751D01*
X147685510Y-89869131D01*
X147722286Y-89820232D01*
X147746997Y-89807640D01*
X147788673Y-89793333D01*
X147845836Y-89750709D01*
X147982941Y-89613603D01*
X148025566Y-89556440D01*
X148039665Y-89515369D01*
X148076441Y-89466471D01*
X148101157Y-89453878D01*
X148124984Y-89445698D01*
X148142226Y-89439779D01*
X148199389Y-89397155D01*
X148336494Y-89260049D01*
X148379119Y-89202886D01*
X148393218Y-89161814D01*
X148429993Y-89112918D01*
X148454703Y-89100327D01*
X148495780Y-89086226D01*
X148552943Y-89043602D01*
X148690048Y-88906496D01*
X148732673Y-88849333D01*
X148746772Y-88808261D01*
X148783547Y-88759365D01*
X148808258Y-88746773D01*
X148849333Y-88732673D01*
X148883740Y-88707017D01*
X148906491Y-88690053D01*
X148906492Y-88690051D01*
X148906496Y-88690049D01*
X149043601Y-88552943D01*
X149086226Y-88495780D01*
X149100325Y-88454709D01*
X149137101Y-88405811D01*
X149161817Y-88393218D01*
X149172579Y-88389523D01*
X149202886Y-88379119D01*
X149260049Y-88336495D01*
X149397154Y-88199389D01*
X149439779Y-88142226D01*
X149453878Y-88101154D01*
X149490653Y-88052258D01*
X149515363Y-88039667D01*
X149556440Y-88025566D01*
X149613603Y-87982942D01*
X149750708Y-87845836D01*
X149793333Y-87788673D01*
X149807432Y-87747602D01*
X149844208Y-87698704D01*
X149868924Y-87686111D01*
X149909990Y-87672013D01*
X149909989Y-87672013D01*
X149909993Y-87672012D01*
X149940822Y-87649023D01*
X149963672Y-87641284D01*
X149985255Y-87630493D01*
X149992150Y-87631638D01*
X149998770Y-87629397D01*
X150021806Y-87636567D01*
G37*
%TD.AperFunction*%
%TA.AperFunction,Conductor*%
G36*
X147086308Y-88279407D02*
G01*
X147122272Y-88328907D01*
X147122272Y-88390093D01*
X147115669Y-88405713D01*
X147113074Y-88410627D01*
X147098974Y-88451700D01*
X147062196Y-88500598D01*
X147037486Y-88513188D01*
X146996419Y-88527287D01*
X146996410Y-88527291D01*
X146939256Y-88569908D01*
X146939244Y-88569919D01*
X146802148Y-88707017D01*
X146759521Y-88764183D01*
X146745215Y-88805853D01*
X146708436Y-88854750D01*
X146683728Y-88867340D01*
X146643101Y-88881288D01*
X146608781Y-88906878D01*
X146713592Y-89011689D01*
X146737223Y-89049546D01*
X146759521Y-89114497D01*
X146759523Y-89114501D01*
X146802143Y-89171658D01*
X147021666Y-89391182D01*
X147028783Y-89405151D01*
X147039872Y-89416240D01*
X147042324Y-89431727D01*
X147049443Y-89445698D01*
X147046990Y-89461185D01*
X147049443Y-89476672D01*
X147042324Y-89490642D01*
X147039872Y-89506130D01*
X147036246Y-89511120D01*
X147057373Y-89532246D01*
X147085151Y-89586763D01*
X147075580Y-89647195D01*
X147057374Y-89672254D01*
X146826858Y-89902771D01*
X146826858Y-89902772D01*
X146853727Y-89929641D01*
X146860845Y-89943612D01*
X146871933Y-89954699D01*
X146874385Y-89970185D01*
X146881505Y-89984157D01*
X146879052Y-89999644D01*
X146881505Y-90015131D01*
X146874386Y-90029101D01*
X146871934Y-90044589D01*
X146853728Y-90069648D01*
X146777728Y-90145649D01*
X146777728Y-90145650D01*
X146777727Y-90145651D01*
X146777726Y-90145651D01*
X146385164Y-90538212D01*
X146330648Y-90565989D01*
X146270216Y-90556418D01*
X146244878Y-90536443D01*
X146244214Y-90537108D01*
X146233344Y-90526238D01*
X146091501Y-90668080D01*
X146052093Y-90692230D01*
X146020970Y-90702342D01*
X146020969Y-90702343D01*
X145944157Y-90758151D01*
X145944152Y-90758155D01*
X145944152Y-90758156D01*
X145851154Y-90851155D01*
X145851153Y-90851154D01*
X145758157Y-90944151D01*
X145702344Y-91020968D01*
X145702343Y-91020971D01*
X145699377Y-91030098D01*
X145675228Y-91069504D01*
X145636277Y-91108455D01*
X145591897Y-91134077D01*
X145568219Y-91140421D01*
X145568218Y-91140421D01*
X145475157Y-91194150D01*
X145431284Y-91219480D01*
X145319480Y-91331284D01*
X145240423Y-91468216D01*
X145230778Y-91504214D01*
X145229356Y-91509520D01*
X145223593Y-91518392D01*
X145221939Y-91528842D01*
X145207304Y-91543476D01*
X145196032Y-91560835D01*
X145186154Y-91564626D01*
X145178674Y-91572107D01*
X145158231Y-91575344D01*
X145138910Y-91582761D01*
X145128691Y-91580023D01*
X145118242Y-91581678D01*
X145099799Y-91572281D01*
X145079810Y-91566925D01*
X145063725Y-91553901D01*
X144989496Y-91479672D01*
X144961719Y-91425155D01*
X144960500Y-91409668D01*
X144960500Y-90689161D01*
X145211091Y-90689161D01*
X145211091Y-90815864D01*
X145250245Y-90936371D01*
X145305987Y-91013093D01*
X145314106Y-91021212D01*
X145561593Y-90773726D01*
X145294967Y-90507100D01*
X145250246Y-90568652D01*
X145211091Y-90689161D01*
X144960500Y-90689161D01*
X144960500Y-90294966D01*
X145507099Y-90294966D01*
X145773726Y-90561593D01*
X146021211Y-90314107D01*
X146013091Y-90305987D01*
X145936375Y-90250247D01*
X145815865Y-90211091D01*
X145689161Y-90211091D01*
X145568650Y-90250247D01*
X145507099Y-90294966D01*
X144960500Y-90294966D01*
X144960500Y-89890332D01*
X144979407Y-89832141D01*
X144989496Y-89820328D01*
X145577421Y-89232403D01*
X146367131Y-89232403D01*
X146367131Y-89353382D01*
X146406416Y-89467813D01*
X146406415Y-89467813D01*
X146448974Y-89524889D01*
X146448985Y-89524901D01*
X146650080Y-89725995D01*
X146862212Y-89513862D01*
X146432005Y-89083656D01*
X146406415Y-89117974D01*
X146367131Y-89232403D01*
X145577421Y-89232403D01*
X146520328Y-88289496D01*
X146574845Y-88261719D01*
X146590332Y-88260500D01*
X147028117Y-88260500D01*
X147086308Y-88279407D01*
G37*
%TD.AperFunction*%
%TD*%
M02*
