%TF.GenerationSoftware,KiCad,Pcbnew,10.0.0*%
%TF.CreationDate,2026-04-10T22:18:07+01:00*%
%TF.ProjectId,main-PCB,6d61696e-2d50-4434-922e-6b696361645f,rev?*%
%TF.SameCoordinates,Original*%
%TF.FileFunction,Copper,L3,Inr*%
%TF.FilePolarity,Positive*%
%FSLAX46Y46*%
G04 Gerber Fmt 4.6, Leading zero omitted, Abs format (unit mm)*
G04 Created by KiCad (PCBNEW 10.0.0) date 2026-04-10 22:18:07*
%MOMM*%
%LPD*%
G01*
G04 APERTURE LIST*
%TA.AperFunction,ViaPad*%
%ADD10C,0.600000*%
%TD*%
%TA.AperFunction,ViaPad*%
%ADD11C,0.450000*%
%TD*%
G04 APERTURE END LIST*
D10*
%TO.N,VCC*%
X154020000Y-87540000D03*
X151000000Y-97300000D03*
X145660000Y-91890000D03*
X157200000Y-90300000D03*
X153505000Y-87045000D03*
X154200000Y-94700000D03*
X141570000Y-89090000D03*
%TO.N,GND*%
X155040000Y-89900000D03*
X153900000Y-92200000D03*
X155000000Y-93000000D03*
X155600000Y-83500000D03*
X147100000Y-92500000D03*
X148300000Y-96400000D03*
X145000000Y-90210000D03*
D11*
X151260000Y-86140000D03*
D10*
X145000000Y-83000000D03*
X143800000Y-93500000D03*
X146300000Y-84400000D03*
X153600000Y-91100000D03*
X146400000Y-88900000D03*
X147300000Y-84381802D03*
X149750000Y-85610000D03*
X141000000Y-87000000D03*
X151900000Y-85450000D03*
X154450000Y-82860000D03*
X150000000Y-98500000D03*
X152000000Y-94600000D03*
X159000000Y-87000000D03*
X155680000Y-89220000D03*
X148600000Y-97300000D03*
X144100000Y-92100000D03*
D11*
X150000000Y-94100000D03*
D10*
X147300000Y-87000000D03*
X153500000Y-94000000D03*
X145900000Y-94700000D03*
X148300000Y-95400000D03*
%TO.N,/LED_K*%
X147000000Y-86100000D03*
X155100000Y-87100000D03*
X143800000Y-87100000D03*
D11*
%TO.N,/SWCLK*%
X145900000Y-94000000D03*
X150000000Y-93400000D03*
D10*
%TO.N,Net-(Q1-D-Pad1)*%
X155700000Y-86300000D03*
D11*
%TO.N,Net-(U2-PF2)*%
X152900000Y-88100000D03*
X154578822Y-90600000D03*
%TO.N,/INT1*%
X150500000Y-86100000D03*
X151300000Y-95010000D03*
%TO.N,/INT2*%
X150173573Y-86726427D03*
X151300000Y-95650000D03*
%TO.N,/SWDIO*%
X148600000Y-93200000D03*
X143600000Y-92600000D03*
%TD*%
%TA.AperFunction,Conductor*%
%TO.N,VCC*%
G36*
X145367935Y-81974094D02*
G01*
X145371544Y-81974226D01*
X145551051Y-81984064D01*
X145554566Y-81984321D01*
X145731982Y-82000565D01*
X145735505Y-82000954D01*
X145910761Y-82023480D01*
X145914261Y-82023995D01*
X146087310Y-82052680D01*
X146090839Y-82053330D01*
X146261714Y-82088068D01*
X146265115Y-82088824D01*
X146433717Y-82129490D01*
X146437152Y-82130384D01*
X146474495Y-82140821D01*
X146603470Y-82176869D01*
X146606766Y-82177853D01*
X146770796Y-82230060D01*
X146774058Y-82231162D01*
X146892059Y-82273359D01*
X146935658Y-82288950D01*
X146938892Y-82290171D01*
X146984223Y-82308190D01*
X147098074Y-82353446D01*
X147101158Y-82354734D01*
X147246488Y-82418405D01*
X147257921Y-82423414D01*
X147260994Y-82424824D01*
X147415175Y-82498748D01*
X147418139Y-82500230D01*
X147569839Y-82579369D01*
X147572652Y-82580897D01*
X147721726Y-82665097D01*
X147724463Y-82666704D01*
X147852824Y-82744878D01*
X147868771Y-82754590D01*
X147872782Y-82757167D01*
X148159201Y-82951210D01*
X148164231Y-82954855D01*
X148437144Y-83166014D01*
X148441790Y-83169842D01*
X148702726Y-83398610D01*
X148707011Y-83402599D01*
X148826976Y-83521136D01*
X148955390Y-83648022D01*
X148959357Y-83652176D01*
X149194657Y-83913335D01*
X149198288Y-83917601D01*
X149403627Y-84173216D01*
X149405447Y-84178409D01*
X149428483Y-84204158D01*
X149450153Y-84231134D01*
X149450155Y-84231135D01*
X149454654Y-84234907D01*
X149464811Y-84244739D01*
X149485668Y-84268035D01*
X149485671Y-84268037D01*
X149485674Y-84268040D01*
X149615527Y-84362865D01*
X149615529Y-84362866D01*
X149615533Y-84362869D01*
X149651092Y-84378770D01*
X149762326Y-84428512D01*
X149762327Y-84428512D01*
X149762329Y-84428513D01*
X149919593Y-84462076D01*
X150080398Y-84462080D01*
X150237664Y-84428525D01*
X150384463Y-84362888D01*
X150514333Y-84268060D01*
X150545006Y-84233802D01*
X150549877Y-84231133D01*
X150571544Y-84204160D01*
X150594558Y-84178437D01*
X150594561Y-84178427D01*
X150597469Y-84173505D01*
X150605529Y-84161852D01*
X150801738Y-83917600D01*
X150805326Y-83913383D01*
X151040690Y-83652153D01*
X151044636Y-83648023D01*
X151062610Y-83630263D01*
X151293016Y-83402599D01*
X151297284Y-83398625D01*
X151558253Y-83169827D01*
X151562874Y-83166021D01*
X151835793Y-82954857D01*
X151840839Y-82951203D01*
X152125191Y-82758559D01*
X152130607Y-82755140D01*
X152425928Y-82581871D01*
X152431707Y-82578734D01*
X152737528Y-82425703D01*
X152743657Y-82422893D01*
X153059559Y-82290957D01*
X153065982Y-82288535D01*
X153391570Y-82178555D01*
X153398278Y-82176553D01*
X153733160Y-82089411D01*
X153740093Y-82087872D01*
X153856392Y-82066426D01*
X153917045Y-82074466D01*
X153961389Y-82116624D01*
X153972485Y-82176794D01*
X153946095Y-82231996D01*
X153943130Y-82234752D01*
X153943150Y-82234772D01*
X153828214Y-82349707D01*
X153828211Y-82349711D01*
X153740609Y-82480814D01*
X153740603Y-82480825D01*
X153680263Y-82626501D01*
X153680263Y-82626503D01*
X153649500Y-82781155D01*
X153649500Y-82938844D01*
X153680263Y-83093496D01*
X153680263Y-83093498D01*
X153740603Y-83239174D01*
X153740609Y-83239185D01*
X153778881Y-83296462D01*
X153828211Y-83370289D01*
X153939711Y-83481789D01*
X153982369Y-83510292D01*
X154070814Y-83569390D01*
X154070825Y-83569396D01*
X154099975Y-83581470D01*
X154216503Y-83629737D01*
X154371158Y-83660500D01*
X154371159Y-83660500D01*
X154528841Y-83660500D01*
X154528842Y-83660500D01*
X154683497Y-83629737D01*
X154688566Y-83627636D01*
X154749562Y-83622832D01*
X154801734Y-83654797D01*
X154823555Y-83699781D01*
X154830261Y-83733491D01*
X154830263Y-83733498D01*
X154890603Y-83879174D01*
X154890609Y-83879185D01*
X154932396Y-83941722D01*
X154978211Y-84010289D01*
X155089711Y-84121789D01*
X155156627Y-84166501D01*
X155220814Y-84209390D01*
X155220825Y-84209396D01*
X155273304Y-84231133D01*
X155366503Y-84269737D01*
X155521158Y-84300500D01*
X155521159Y-84300500D01*
X155678841Y-84300500D01*
X155678842Y-84300500D01*
X155833497Y-84269737D01*
X155979179Y-84209394D01*
X156110289Y-84121789D01*
X156221789Y-84010289D01*
X156309394Y-83879179D01*
X156369737Y-83733497D01*
X156400500Y-83578842D01*
X156400500Y-83421158D01*
X156369737Y-83266503D01*
X156349622Y-83217942D01*
X156309396Y-83120825D01*
X156309390Y-83120814D01*
X156274017Y-83067876D01*
X156221789Y-82989711D01*
X156110289Y-82878211D01*
X156058059Y-82843312D01*
X155979185Y-82790609D01*
X155979174Y-82790603D01*
X155833497Y-82730263D01*
X155678844Y-82699500D01*
X155678842Y-82699500D01*
X155521158Y-82699500D01*
X155521155Y-82699500D01*
X155366505Y-82730262D01*
X155366503Y-82730263D01*
X155361420Y-82732368D01*
X155300425Y-82737166D01*
X155248257Y-82705194D01*
X155226442Y-82660215D01*
X155219737Y-82626503D01*
X155190641Y-82556258D01*
X155159396Y-82480825D01*
X155159390Y-82480814D01*
X155103658Y-82397407D01*
X155071789Y-82349711D01*
X154960289Y-82238211D01*
X154960288Y-82238210D01*
X154834085Y-82153883D01*
X154796206Y-82105833D01*
X154793804Y-82044695D01*
X154827797Y-81993821D01*
X154885201Y-81972644D01*
X154891441Y-81972596D01*
X155075493Y-81976995D01*
X155080233Y-81977223D01*
X155333520Y-81995501D01*
X155338236Y-81995957D01*
X155586966Y-82026068D01*
X155591699Y-82026758D01*
X155835558Y-82068404D01*
X155840291Y-82069332D01*
X156079059Y-82122230D01*
X156083752Y-82123391D01*
X156183217Y-82150606D01*
X156317203Y-82187266D01*
X156321864Y-82188665D01*
X156549758Y-82263235D01*
X156554353Y-82264865D01*
X156776441Y-82349855D01*
X156780956Y-82351712D01*
X156996986Y-82446843D01*
X157001410Y-82448923D01*
X157211206Y-82553962D01*
X157215523Y-82556258D01*
X157340051Y-82626501D01*
X157418749Y-82670892D01*
X157422948Y-82673400D01*
X157552449Y-82755132D01*
X157615946Y-82795207D01*
X157619426Y-82797403D01*
X157623480Y-82800103D01*
X157673561Y-82835286D01*
X157812921Y-82933190D01*
X157816853Y-82936100D01*
X157999028Y-83078024D01*
X158002812Y-83081126D01*
X158177431Y-83231600D01*
X158181044Y-83234871D01*
X158272337Y-83321760D01*
X158347895Y-83393674D01*
X158351354Y-83397133D01*
X158510147Y-83563973D01*
X158513431Y-83567600D01*
X158663910Y-83742226D01*
X158667011Y-83746010D01*
X158808907Y-83928148D01*
X158811818Y-83932080D01*
X158942779Y-84118494D01*
X158944911Y-84121528D01*
X158947623Y-84125600D01*
X159071618Y-84322065D01*
X159074126Y-84326264D01*
X159188778Y-84529523D01*
X159191075Y-84533841D01*
X159296097Y-84743605D01*
X159298176Y-84748027D01*
X159393316Y-84964073D01*
X159395173Y-84968589D01*
X159480164Y-85190681D01*
X159481794Y-85195276D01*
X159556363Y-85423164D01*
X159557762Y-85427826D01*
X159621627Y-85661249D01*
X159622793Y-85665960D01*
X159675692Y-85904722D01*
X159676623Y-85909471D01*
X159718265Y-86153308D01*
X159718960Y-86158076D01*
X159743562Y-86361296D01*
X159731786Y-86421337D01*
X159686967Y-86462989D01*
X159626225Y-86470343D01*
X159575276Y-86443198D01*
X159510292Y-86378214D01*
X159510289Y-86378211D01*
X159446582Y-86335643D01*
X159379185Y-86290609D01*
X159379174Y-86290603D01*
X159233497Y-86230263D01*
X159078844Y-86199500D01*
X159078842Y-86199500D01*
X158921158Y-86199500D01*
X158921155Y-86199500D01*
X158766503Y-86230263D01*
X158766501Y-86230263D01*
X158620825Y-86290603D01*
X158620814Y-86290609D01*
X158489711Y-86378211D01*
X158489707Y-86378214D01*
X158378214Y-86489707D01*
X158378211Y-86489711D01*
X158290609Y-86620814D01*
X158290603Y-86620825D01*
X158230263Y-86766501D01*
X158230263Y-86766503D01*
X158199500Y-86921155D01*
X158199500Y-87078844D01*
X158230263Y-87233496D01*
X158230263Y-87233498D01*
X158290603Y-87379174D01*
X158290609Y-87379185D01*
X158320585Y-87424046D01*
X158378211Y-87510289D01*
X158489711Y-87621789D01*
X158567876Y-87674017D01*
X158620814Y-87709390D01*
X158620825Y-87709396D01*
X158650743Y-87721788D01*
X158766503Y-87769737D01*
X158921158Y-87800500D01*
X158921159Y-87800500D01*
X159078841Y-87800500D01*
X159078842Y-87800500D01*
X159233497Y-87769737D01*
X159379179Y-87709394D01*
X159510289Y-87621789D01*
X159580129Y-87551949D01*
X159634645Y-87524171D01*
X159695077Y-87533742D01*
X159738342Y-87577006D01*
X159749069Y-87625521D01*
X159738323Y-87923416D01*
X159737917Y-87929486D01*
X159693736Y-88381098D01*
X159693190Y-88385604D01*
X159630969Y-88816629D01*
X159630150Y-88821455D01*
X159550175Y-89231076D01*
X159549045Y-89236154D01*
X159451283Y-89626548D01*
X159449817Y-89631786D01*
X159334185Y-90005172D01*
X159332383Y-90010457D01*
X159198720Y-90369116D01*
X159196608Y-90374327D01*
X159044673Y-90720544D01*
X159042301Y-90725561D01*
X158871767Y-91061617D01*
X158869213Y-91066329D01*
X158869213Y-91066332D01*
X158869212Y-91066333D01*
X158679708Y-91394426D01*
X158677056Y-91398756D01*
X158469974Y-91718252D01*
X158466035Y-91723890D01*
X157986307Y-92362122D01*
X157981486Y-92368046D01*
X157422324Y-93003358D01*
X157418409Y-93007553D01*
X157400880Y-93025283D01*
X157400876Y-93025286D01*
X157400877Y-93025287D01*
X157352177Y-93074541D01*
X157351593Y-93075261D01*
X157338318Y-93088737D01*
X157338313Y-93088744D01*
X157266231Y-93205881D01*
X157222502Y-93336292D01*
X157209565Y-93471455D01*
X157209397Y-93473215D01*
X157218798Y-93543648D01*
X157227595Y-93609553D01*
X157276150Y-93738242D01*
X157346077Y-93842929D01*
X157352550Y-93852620D01*
X157366319Y-93865593D01*
X157366930Y-93866291D01*
X157373527Y-93872484D01*
X157373528Y-93872485D01*
X157539574Y-94028353D01*
X157539575Y-94028354D01*
X157547647Y-94035931D01*
X157547648Y-94035931D01*
X157547648Y-94035932D01*
X157604661Y-94089450D01*
X157604765Y-94089530D01*
X157614800Y-94098944D01*
X157614800Y-94098945D01*
X157697604Y-94149009D01*
X157723101Y-94164425D01*
X157842671Y-94205893D01*
X157968259Y-94221526D01*
X158094346Y-94210637D01*
X158215394Y-94173706D01*
X158326086Y-94112354D01*
X158335684Y-94104004D01*
X158335793Y-94103929D01*
X158343745Y-94097009D01*
X158343746Y-94097009D01*
X159018004Y-93510288D01*
X159443872Y-93139710D01*
X159448707Y-93135501D01*
X159461906Y-93124016D01*
X159477210Y-93113071D01*
X159517905Y-93089471D01*
X159553313Y-93077147D01*
X159590318Y-93071767D01*
X159627779Y-93073499D01*
X159642890Y-93077146D01*
X159664122Y-93082270D01*
X159698250Y-93097812D01*
X159728722Y-93119471D01*
X159754621Y-93146595D01*
X159774849Y-93178034D01*
X159788799Y-93212846D01*
X159797707Y-93259018D01*
X159799500Y-93277772D01*
X159799500Y-99740500D01*
X159780593Y-99798691D01*
X159731093Y-99834655D01*
X159700500Y-99839500D01*
X151584555Y-99839500D01*
X151572151Y-99838720D01*
X151566930Y-99838060D01*
X151541128Y-99834802D01*
X151517098Y-99828633D01*
X151493865Y-99819437D01*
X151472122Y-99807488D01*
X151446820Y-99789110D01*
X151437256Y-99781201D01*
X151130174Y-99492944D01*
X151130170Y-99492934D01*
X151101099Y-99465651D01*
X151100746Y-99465320D01*
X151053900Y-99421275D01*
X151053897Y-99421273D01*
X151053895Y-99421271D01*
X150942721Y-99354806D01*
X150942716Y-99354804D01*
X150942714Y-99354803D01*
X150819912Y-99313565D01*
X150776988Y-99308862D01*
X150691143Y-99299457D01*
X150691139Y-99299456D01*
X150576679Y-99311605D01*
X150562323Y-99313129D01*
X150562322Y-99313129D01*
X150559451Y-99313434D01*
X150499590Y-99300774D01*
X150458602Y-99255346D01*
X150452144Y-99194503D01*
X150482683Y-99141483D01*
X150493996Y-99132675D01*
X150510289Y-99121789D01*
X150621789Y-99010289D01*
X150709394Y-98879179D01*
X150769737Y-98733497D01*
X150800500Y-98578842D01*
X150800500Y-98421158D01*
X150769737Y-98266503D01*
X150709394Y-98120821D01*
X150709393Y-98120819D01*
X150709390Y-98120814D01*
X150674017Y-98067876D01*
X150621789Y-97989711D01*
X150510289Y-97878211D01*
X150458059Y-97843312D01*
X150379185Y-97790609D01*
X150379174Y-97790603D01*
X150233497Y-97730263D01*
X150078844Y-97699500D01*
X150078842Y-97699500D01*
X149921158Y-97699500D01*
X149921155Y-97699500D01*
X149766503Y-97730263D01*
X149766501Y-97730263D01*
X149620825Y-97790603D01*
X149620814Y-97790609D01*
X149489711Y-97878211D01*
X149489707Y-97878214D01*
X149378214Y-97989707D01*
X149378211Y-97989711D01*
X149290609Y-98120814D01*
X149290603Y-98120825D01*
X149230263Y-98266501D01*
X149230263Y-98266503D01*
X149199500Y-98421155D01*
X149199500Y-98578844D01*
X149230263Y-98733496D01*
X149230263Y-98733498D01*
X149290603Y-98879174D01*
X149290609Y-98879185D01*
X149343312Y-98958059D01*
X149378211Y-99010289D01*
X149489711Y-99121789D01*
X149489714Y-99121791D01*
X149505989Y-99132666D01*
X149543868Y-99180716D01*
X149546269Y-99241855D01*
X149512275Y-99292728D01*
X149454871Y-99313904D01*
X149440537Y-99313427D01*
X149437703Y-99313126D01*
X149418675Y-99311106D01*
X149308884Y-99299453D01*
X149308881Y-99299454D01*
X149180106Y-99313563D01*
X149057310Y-99354801D01*
X148946121Y-99421280D01*
X148899530Y-99465087D01*
X148899479Y-99465135D01*
X148893243Y-99470990D01*
X148893232Y-99471000D01*
X148863470Y-99498933D01*
X148863453Y-99498953D01*
X148566038Y-99778138D01*
X148566024Y-99778151D01*
X148562765Y-99781209D01*
X148553199Y-99789118D01*
X148527901Y-99807491D01*
X148506161Y-99819439D01*
X148482918Y-99828639D01*
X148458892Y-99834807D01*
X148440395Y-99837143D01*
X148427868Y-99838726D01*
X148415465Y-99839507D01*
X140299523Y-99839507D01*
X140241332Y-99820600D01*
X140205368Y-99771100D01*
X140200523Y-99740507D01*
X140200523Y-94621155D01*
X145099500Y-94621155D01*
X145099500Y-94778844D01*
X145130263Y-94933496D01*
X145130263Y-94933498D01*
X145190603Y-95079174D01*
X145190609Y-95079185D01*
X145243312Y-95158059D01*
X145278211Y-95210289D01*
X145389711Y-95321789D01*
X145461469Y-95369736D01*
X145520814Y-95409390D01*
X145520825Y-95409396D01*
X145574638Y-95431685D01*
X145666503Y-95469737D01*
X145821158Y-95500500D01*
X145821159Y-95500500D01*
X145978841Y-95500500D01*
X145978842Y-95500500D01*
X146133497Y-95469737D01*
X146279179Y-95409394D01*
X146410289Y-95321789D01*
X146410923Y-95321155D01*
X147499500Y-95321155D01*
X147499500Y-95478844D01*
X147530263Y-95633496D01*
X147530263Y-95633498D01*
X147590605Y-95779178D01*
X147634585Y-95844998D01*
X147651194Y-95903886D01*
X147634585Y-95955002D01*
X147590605Y-96020821D01*
X147530263Y-96166501D01*
X147530263Y-96166503D01*
X147499500Y-96321155D01*
X147499500Y-96478844D01*
X147530263Y-96633496D01*
X147530263Y-96633498D01*
X147590603Y-96779174D01*
X147590609Y-96779185D01*
X147643312Y-96858059D01*
X147678211Y-96910289D01*
X147678214Y-96910292D01*
X147793150Y-97025228D01*
X147791426Y-97026951D01*
X147819342Y-97070589D01*
X147820641Y-97114872D01*
X147799500Y-97221154D01*
X147799500Y-97378844D01*
X147830263Y-97533496D01*
X147830263Y-97533498D01*
X147890603Y-97679174D01*
X147890609Y-97679185D01*
X147924739Y-97730263D01*
X147978211Y-97810289D01*
X148089711Y-97921789D01*
X148167876Y-97974017D01*
X148220814Y-98009390D01*
X148220825Y-98009396D01*
X148274638Y-98031685D01*
X148366503Y-98069737D01*
X148521158Y-98100500D01*
X148521159Y-98100500D01*
X148678841Y-98100500D01*
X148678842Y-98100500D01*
X148833497Y-98069737D01*
X148979179Y-98009394D01*
X149110289Y-97921789D01*
X149221789Y-97810289D01*
X149309394Y-97679179D01*
X149369737Y-97533497D01*
X149400500Y-97378842D01*
X149400500Y-97221158D01*
X149369737Y-97066503D01*
X149309394Y-96920821D01*
X149309393Y-96920819D01*
X149309390Y-96920814D01*
X149274017Y-96867876D01*
X149221789Y-96789711D01*
X149221784Y-96789706D01*
X149221781Y-96789702D01*
X149106851Y-96674773D01*
X149108570Y-96673053D01*
X149080650Y-96629385D01*
X149079358Y-96585128D01*
X149100500Y-96478842D01*
X149100500Y-96321158D01*
X149069737Y-96166503D01*
X149009394Y-96020821D01*
X148965413Y-95955000D01*
X148948805Y-95896114D01*
X148965413Y-95844999D01*
X149009394Y-95779179D01*
X149069737Y-95633497D01*
X149100500Y-95478842D01*
X149100500Y-95321158D01*
X149069737Y-95166503D01*
X149033569Y-95079185D01*
X149009396Y-95020825D01*
X149009390Y-95020814D01*
X148974017Y-94967876D01*
X148921789Y-94889711D01*
X148810289Y-94778211D01*
X148722319Y-94719431D01*
X148679185Y-94690609D01*
X148679174Y-94690603D01*
X148533497Y-94630263D01*
X148378844Y-94599500D01*
X148378842Y-94599500D01*
X148221158Y-94599500D01*
X148221155Y-94599500D01*
X148066503Y-94630263D01*
X148066501Y-94630263D01*
X147920825Y-94690603D01*
X147920814Y-94690609D01*
X147789711Y-94778211D01*
X147789707Y-94778214D01*
X147678214Y-94889707D01*
X147678211Y-94889711D01*
X147590609Y-95020814D01*
X147590603Y-95020825D01*
X147530263Y-95166501D01*
X147530263Y-95166503D01*
X147499500Y-95321155D01*
X146410923Y-95321155D01*
X146521789Y-95210289D01*
X146609394Y-95079179D01*
X146669737Y-94933497D01*
X146700500Y-94778842D01*
X146700500Y-94621158D01*
X146669737Y-94466503D01*
X146609394Y-94320821D01*
X146603601Y-94312151D01*
X146586992Y-94253263D01*
X146594453Y-94219260D01*
X146597619Y-94211620D01*
X146625500Y-94071455D01*
X146625500Y-93928545D01*
X146597619Y-93788380D01*
X146548616Y-93670076D01*
X146542931Y-93656351D01*
X146542925Y-93656340D01*
X146491143Y-93578844D01*
X146463532Y-93537521D01*
X146362479Y-93436468D01*
X146315143Y-93404839D01*
X146243659Y-93357074D01*
X146243648Y-93357068D01*
X146111620Y-93302381D01*
X145971457Y-93274500D01*
X145971455Y-93274500D01*
X145828545Y-93274500D01*
X145828542Y-93274500D01*
X145688380Y-93302381D01*
X145688378Y-93302381D01*
X145556351Y-93357068D01*
X145556340Y-93357074D01*
X145437521Y-93436468D01*
X145437517Y-93436471D01*
X145336471Y-93537517D01*
X145336468Y-93537521D01*
X145257074Y-93656340D01*
X145257068Y-93656351D01*
X145202381Y-93788378D01*
X145202381Y-93788380D01*
X145174500Y-93928542D01*
X145174500Y-94071457D01*
X145202380Y-94211618D01*
X145205548Y-94219265D01*
X145210347Y-94280262D01*
X145196403Y-94312143D01*
X145190607Y-94320817D01*
X145190605Y-94320821D01*
X145130263Y-94466501D01*
X145130263Y-94466503D01*
X145099500Y-94621155D01*
X140200523Y-94621155D01*
X140200523Y-93277779D01*
X140202315Y-93259027D01*
X140211222Y-93212855D01*
X140225171Y-93178045D01*
X140245403Y-93146599D01*
X140271297Y-93119480D01*
X140301773Y-93097818D01*
X140335900Y-93082277D01*
X140344112Y-93080295D01*
X140372243Y-93073506D01*
X140409704Y-93071774D01*
X140446704Y-93077153D01*
X140482122Y-93089481D01*
X140522798Y-93113069D01*
X140538122Y-93124028D01*
X141664034Y-94103766D01*
X141664140Y-94103840D01*
X141673937Y-94112361D01*
X141762955Y-94161700D01*
X141784614Y-94173705D01*
X141784629Y-94173713D01*
X141905677Y-94210644D01*
X142031764Y-94221533D01*
X142157352Y-94205900D01*
X142276922Y-94164432D01*
X142385222Y-94098952D01*
X142395026Y-94089753D01*
X142395132Y-94089673D01*
X142406670Y-94078842D01*
X142626501Y-93872487D01*
X142626501Y-93872485D01*
X142633225Y-93866174D01*
X142633831Y-93865478D01*
X142647478Y-93852622D01*
X142723877Y-93738247D01*
X142772433Y-93609558D01*
X142790630Y-93473223D01*
X142777527Y-93336304D01*
X142774925Y-93328545D01*
X142733804Y-93205900D01*
X142733803Y-93205897D01*
X142726546Y-93194103D01*
X142661719Y-93088751D01*
X142653001Y-93079901D01*
X142648557Y-93075389D01*
X142648132Y-93074959D01*
X142641570Y-93068297D01*
X142641498Y-93068120D01*
X142580227Y-93006148D01*
X142579801Y-93005716D01*
X142579798Y-93005710D01*
X142577049Y-93002813D01*
X142288328Y-92685569D01*
X142286119Y-92683057D01*
X142246512Y-92636468D01*
X142154761Y-92528542D01*
X142874500Y-92528542D01*
X142874500Y-92671457D01*
X142890180Y-92750282D01*
X142901938Y-92809395D01*
X142902381Y-92811619D01*
X142902381Y-92811621D01*
X142957068Y-92943648D01*
X142957074Y-92943659D01*
X142998536Y-93005710D01*
X143036468Y-93062479D01*
X143036471Y-93062482D01*
X143045062Y-93071073D01*
X143072839Y-93125590D01*
X143066523Y-93178961D01*
X143030262Y-93266504D01*
X142999500Y-93421155D01*
X142999500Y-93578844D01*
X143030263Y-93733496D01*
X143030263Y-93733498D01*
X143090603Y-93879174D01*
X143090609Y-93879185D01*
X143123589Y-93928542D01*
X143178211Y-94010289D01*
X143289711Y-94121789D01*
X143353517Y-94164423D01*
X143420814Y-94209390D01*
X143420825Y-94209396D01*
X143448418Y-94220825D01*
X143566503Y-94269737D01*
X143721158Y-94300500D01*
X143721159Y-94300500D01*
X143878841Y-94300500D01*
X143878842Y-94300500D01*
X144033497Y-94269737D01*
X144179179Y-94209394D01*
X144310289Y-94121789D01*
X144421789Y-94010289D01*
X144509394Y-93879179D01*
X144569737Y-93733497D01*
X144600500Y-93578842D01*
X144600500Y-93421158D01*
X144569737Y-93266503D01*
X144541984Y-93199500D01*
X144509396Y-93120825D01*
X144509390Y-93120814D01*
X144474017Y-93067876D01*
X144421789Y-92989711D01*
X144415862Y-92983784D01*
X144388085Y-92929267D01*
X144397656Y-92868835D01*
X144440921Y-92825570D01*
X144447967Y-92822321D01*
X144479179Y-92809394D01*
X144610289Y-92721789D01*
X144721789Y-92610289D01*
X144809394Y-92479179D01*
X144833428Y-92421155D01*
X146299500Y-92421155D01*
X146299500Y-92578844D01*
X146310963Y-92636471D01*
X146325646Y-92710288D01*
X146330263Y-92733496D01*
X146330263Y-92733498D01*
X146390603Y-92879174D01*
X146390609Y-92879185D01*
X146430805Y-92939341D01*
X146478211Y-93010289D01*
X146589711Y-93121789D01*
X146667876Y-93174017D01*
X146720814Y-93209390D01*
X146720825Y-93209396D01*
X146771204Y-93230263D01*
X146866503Y-93269737D01*
X147021158Y-93300500D01*
X147021159Y-93300500D01*
X147178841Y-93300500D01*
X147178842Y-93300500D01*
X147333497Y-93269737D01*
X147479179Y-93209394D01*
X147610289Y-93121789D01*
X147711009Y-93021069D01*
X147765526Y-92993291D01*
X147825958Y-93002862D01*
X147869222Y-93046127D01*
X147878794Y-93106559D01*
X147878111Y-93110382D01*
X147874501Y-93128532D01*
X147874500Y-93128546D01*
X147874500Y-93271457D01*
X147902381Y-93411619D01*
X147902381Y-93411621D01*
X147957068Y-93543648D01*
X147957074Y-93543659D01*
X147999671Y-93607409D01*
X148036468Y-93662479D01*
X148137521Y-93763532D01*
X148196034Y-93802629D01*
X148256340Y-93842925D01*
X148256351Y-93842931D01*
X148305121Y-93863132D01*
X148388380Y-93897619D01*
X148528545Y-93925500D01*
X148528546Y-93925500D01*
X148671454Y-93925500D01*
X148671455Y-93925500D01*
X148811620Y-93897619D01*
X148943653Y-93842929D01*
X149062479Y-93763532D01*
X149163532Y-93662479D01*
X149163538Y-93662468D01*
X149165013Y-93660673D01*
X149165916Y-93660094D01*
X149166971Y-93659040D01*
X149167202Y-93659271D01*
X149216539Y-93627677D01*
X149277619Y-93631269D01*
X149324923Y-93670076D01*
X149333016Y-93685580D01*
X149344007Y-93712115D01*
X149348808Y-93773112D01*
X149344007Y-93787885D01*
X149302381Y-93888378D01*
X149302381Y-93888380D01*
X149274500Y-94028542D01*
X149274500Y-94171457D01*
X149302381Y-94311619D01*
X149302381Y-94311621D01*
X149357068Y-94443648D01*
X149357074Y-94443659D01*
X149401595Y-94510288D01*
X149436468Y-94562479D01*
X149537521Y-94663532D01*
X149578045Y-94690609D01*
X149656340Y-94742925D01*
X149656351Y-94742931D01*
X149705121Y-94763132D01*
X149788380Y-94797619D01*
X149928545Y-94825500D01*
X149928546Y-94825500D01*
X150071454Y-94825500D01*
X150071455Y-94825500D01*
X150211620Y-94797619D01*
X150343653Y-94742929D01*
X150461794Y-94663989D01*
X150520680Y-94647381D01*
X150578083Y-94668558D01*
X150612077Y-94719431D01*
X150609675Y-94780570D01*
X150608259Y-94784188D01*
X150602381Y-94798378D01*
X150602381Y-94798380D01*
X150574500Y-94938542D01*
X150574500Y-95081457D01*
X150602380Y-95221616D01*
X150602381Y-95221620D01*
X150612600Y-95246290D01*
X150631581Y-95292115D01*
X150636380Y-95353112D01*
X150631582Y-95367881D01*
X150602381Y-95438380D01*
X150602380Y-95438383D01*
X150574500Y-95578542D01*
X150574500Y-95721457D01*
X150602381Y-95861619D01*
X150602381Y-95861621D01*
X150657068Y-95993648D01*
X150657074Y-95993659D01*
X150675225Y-96020823D01*
X150736468Y-96112479D01*
X150837521Y-96213532D01*
X150908362Y-96260866D01*
X150956340Y-96292925D01*
X150956351Y-96292931D01*
X151005121Y-96313132D01*
X151088380Y-96347619D01*
X151228545Y-96375500D01*
X151228546Y-96375500D01*
X151371454Y-96375500D01*
X151371455Y-96375500D01*
X151511620Y-96347619D01*
X151643653Y-96292929D01*
X151762479Y-96213532D01*
X151863532Y-96112479D01*
X151942929Y-95993653D01*
X151997619Y-95861620D01*
X152025500Y-95721455D01*
X152025500Y-95578545D01*
X152012777Y-95514582D01*
X152019967Y-95453821D01*
X152061499Y-95408891D01*
X152090559Y-95398169D01*
X152233497Y-95369737D01*
X152379179Y-95309394D01*
X152510289Y-95221789D01*
X152621789Y-95110289D01*
X152709394Y-94979179D01*
X152769737Y-94833497D01*
X152800500Y-94678842D01*
X152800500Y-94671586D01*
X152819407Y-94613395D01*
X152868907Y-94577431D01*
X152930093Y-94577431D01*
X152969504Y-94601582D01*
X152989711Y-94621789D01*
X153052184Y-94663532D01*
X153120814Y-94709390D01*
X153120825Y-94709396D01*
X153174638Y-94731685D01*
X153266503Y-94769737D01*
X153421158Y-94800500D01*
X153421159Y-94800500D01*
X153578841Y-94800500D01*
X153578842Y-94800500D01*
X153733497Y-94769737D01*
X153879179Y-94709394D01*
X154010289Y-94621789D01*
X154121789Y-94510289D01*
X154209394Y-94379179D01*
X154269737Y-94233497D01*
X154300500Y-94078842D01*
X154300500Y-93921158D01*
X154269737Y-93766503D01*
X154229796Y-93670076D01*
X154209396Y-93620825D01*
X154209390Y-93620814D01*
X154157832Y-93543653D01*
X154121789Y-93489711D01*
X154010289Y-93378211D01*
X153947571Y-93336304D01*
X153879185Y-93290609D01*
X153879174Y-93290603D01*
X153733497Y-93230263D01*
X153578844Y-93199500D01*
X153578842Y-93199500D01*
X153421158Y-93199500D01*
X153421155Y-93199500D01*
X153266503Y-93230263D01*
X153266501Y-93230263D01*
X153120825Y-93290603D01*
X153120814Y-93290609D01*
X152989711Y-93378211D01*
X152989707Y-93378214D01*
X152878214Y-93489707D01*
X152878211Y-93489711D01*
X152790609Y-93620814D01*
X152790603Y-93620825D01*
X152730263Y-93766501D01*
X152730263Y-93766503D01*
X152699500Y-93921155D01*
X152699500Y-93928414D01*
X152680593Y-93986605D01*
X152631093Y-94022569D01*
X152569907Y-94022569D01*
X152530496Y-93998418D01*
X152510292Y-93978214D01*
X152510289Y-93978211D01*
X152458059Y-93943312D01*
X152379185Y-93890609D01*
X152379174Y-93890603D01*
X152233497Y-93830263D01*
X152078844Y-93799500D01*
X152078842Y-93799500D01*
X151921158Y-93799500D01*
X151921155Y-93799500D01*
X151766503Y-93830263D01*
X151766501Y-93830263D01*
X151620825Y-93890603D01*
X151620814Y-93890609D01*
X151489711Y-93978211D01*
X151489707Y-93978214D01*
X151378214Y-94089707D01*
X151378211Y-94089711D01*
X151290604Y-94220822D01*
X151290603Y-94220825D01*
X151287681Y-94227880D01*
X151247942Y-94274404D01*
X151215534Y-94287088D01*
X151088378Y-94312381D01*
X150956351Y-94367068D01*
X150956339Y-94367074D01*
X150838207Y-94446009D01*
X150779318Y-94462618D01*
X150721915Y-94441440D01*
X150687922Y-94390567D01*
X150690324Y-94329429D01*
X150691725Y-94325847D01*
X150697619Y-94311620D01*
X150725500Y-94171455D01*
X150725500Y-94028545D01*
X150697619Y-93888380D01*
X150655991Y-93787883D01*
X150651191Y-93726889D01*
X150655988Y-93712124D01*
X150697619Y-93611620D01*
X150725500Y-93471455D01*
X150725500Y-93328545D01*
X150697619Y-93188380D01*
X150672835Y-93128546D01*
X150642931Y-93056351D01*
X150642925Y-93056340D01*
X150605613Y-93000500D01*
X150563532Y-92937521D01*
X150462479Y-92836468D01*
X150415143Y-92804839D01*
X150343659Y-92757074D01*
X150343648Y-92757068D01*
X150211620Y-92702381D01*
X150071457Y-92674500D01*
X150071455Y-92674500D01*
X149928545Y-92674500D01*
X149928542Y-92674500D01*
X149788380Y-92702381D01*
X149788378Y-92702381D01*
X149656351Y-92757068D01*
X149656340Y-92757074D01*
X149537521Y-92836468D01*
X149537517Y-92836471D01*
X149436460Y-92937528D01*
X149434973Y-92939341D01*
X149434069Y-92939919D01*
X149433029Y-92940960D01*
X149432800Y-92940731D01*
X149383441Y-92972327D01*
X149322362Y-92968723D01*
X149275066Y-92929906D01*
X149266983Y-92914419D01*
X149264902Y-92909396D01*
X149252384Y-92879174D01*
X149242931Y-92856351D01*
X149242925Y-92856340D01*
X149185182Y-92769923D01*
X149163532Y-92737521D01*
X149062479Y-92636468D01*
X148994906Y-92591317D01*
X148943659Y-92557074D01*
X148943648Y-92557068D01*
X148811620Y-92502381D01*
X148671457Y-92474500D01*
X148671455Y-92474500D01*
X148528545Y-92474500D01*
X148528542Y-92474500D01*
X148388380Y-92502381D01*
X148388378Y-92502381D01*
X148256351Y-92557068D01*
X148256340Y-92557074D01*
X148137521Y-92636468D01*
X148137511Y-92636476D01*
X148058109Y-92715878D01*
X148003592Y-92743655D01*
X147943160Y-92734083D01*
X147899896Y-92690819D01*
X147890325Y-92630386D01*
X147891008Y-92626559D01*
X147892149Y-92620825D01*
X147900500Y-92578842D01*
X147900500Y-92421158D01*
X147869737Y-92266503D01*
X147833426Y-92178840D01*
X147809396Y-92120825D01*
X147809390Y-92120814D01*
X147774017Y-92067876D01*
X147721789Y-91989711D01*
X147610289Y-91878211D01*
X147558059Y-91843312D01*
X147479185Y-91790609D01*
X147479174Y-91790603D01*
X147333497Y-91730263D01*
X147178844Y-91699500D01*
X147178842Y-91699500D01*
X147021158Y-91699500D01*
X147021155Y-91699500D01*
X146866503Y-91730263D01*
X146866501Y-91730263D01*
X146720825Y-91790603D01*
X146720814Y-91790609D01*
X146589711Y-91878211D01*
X146589707Y-91878214D01*
X146478214Y-91989707D01*
X146478211Y-91989711D01*
X146390609Y-92120814D01*
X146390603Y-92120825D01*
X146330263Y-92266501D01*
X146330263Y-92266503D01*
X146299500Y-92421155D01*
X144833428Y-92421155D01*
X144869737Y-92333497D01*
X144900500Y-92178842D01*
X144900500Y-92021158D01*
X144869737Y-91866503D01*
X144838300Y-91790606D01*
X144809396Y-91720825D01*
X144809390Y-91720814D01*
X144774017Y-91667876D01*
X144721789Y-91589711D01*
X144610289Y-91478211D01*
X144536459Y-91428879D01*
X144479185Y-91390609D01*
X144479174Y-91390603D01*
X144333497Y-91330263D01*
X144178844Y-91299500D01*
X144178842Y-91299500D01*
X144021158Y-91299500D01*
X144021155Y-91299500D01*
X143866503Y-91330263D01*
X143866501Y-91330263D01*
X143720825Y-91390603D01*
X143720814Y-91390609D01*
X143589711Y-91478211D01*
X143589707Y-91478214D01*
X143478214Y-91589707D01*
X143478211Y-91589711D01*
X143390609Y-91720814D01*
X143390603Y-91720825D01*
X143330263Y-91866501D01*
X143330262Y-91866505D01*
X143327589Y-91879942D01*
X143297689Y-91933324D01*
X143268383Y-91952085D01*
X143256346Y-91957071D01*
X143137521Y-92036468D01*
X143137517Y-92036471D01*
X143036471Y-92137517D01*
X143036468Y-92137521D01*
X142957074Y-92256340D01*
X142957068Y-92256351D01*
X142902381Y-92388378D01*
X142902381Y-92388380D01*
X142874500Y-92528542D01*
X142154761Y-92528542D01*
X142016881Y-92366355D01*
X142014491Y-92363433D01*
X141765703Y-92046782D01*
X141763130Y-92043356D01*
X141636159Y-91866503D01*
X141534500Y-91724906D01*
X141531853Y-91721028D01*
X141531721Y-91720825D01*
X141342496Y-91428879D01*
X141322969Y-91398752D01*
X141320325Y-91394435D01*
X141130798Y-91066300D01*
X141128261Y-91061617D01*
X141107728Y-91021155D01*
X152799500Y-91021155D01*
X152799500Y-91178844D01*
X152812247Y-91242925D01*
X152826597Y-91315069D01*
X152830263Y-91333496D01*
X152830263Y-91333498D01*
X152890603Y-91479174D01*
X152890609Y-91479185D01*
X152905210Y-91501036D01*
X152978211Y-91610289D01*
X153089711Y-91721789D01*
X153133309Y-91750920D01*
X153171188Y-91798970D01*
X153173590Y-91860108D01*
X153169771Y-91871120D01*
X153130263Y-91966501D01*
X153130263Y-91966503D01*
X153099500Y-92121155D01*
X153099500Y-92278844D01*
X153130263Y-92433496D01*
X153130263Y-92433498D01*
X153190603Y-92579174D01*
X153190609Y-92579185D01*
X153234043Y-92644187D01*
X153278211Y-92710289D01*
X153389711Y-92821789D01*
X153441431Y-92856347D01*
X153520814Y-92909390D01*
X153520825Y-92909396D01*
X153549222Y-92921158D01*
X153666503Y-92969737D01*
X153821158Y-93000500D01*
X153821159Y-93000500D01*
X153978841Y-93000500D01*
X153978842Y-93000500D01*
X154081186Y-92980142D01*
X154141947Y-92987334D01*
X154186877Y-93028866D01*
X154198665Y-93074041D01*
X154199024Y-93074006D01*
X154199246Y-93076270D01*
X154199500Y-93077240D01*
X154199500Y-93078844D01*
X154230263Y-93233496D01*
X154230263Y-93233498D01*
X154290603Y-93379174D01*
X154290609Y-93379185D01*
X154327180Y-93433916D01*
X154378211Y-93510289D01*
X154489711Y-93621789D01*
X154561978Y-93670076D01*
X154620814Y-93709390D01*
X154620825Y-93709396D01*
X154663058Y-93726889D01*
X154766503Y-93769737D01*
X154921158Y-93800500D01*
X154921159Y-93800500D01*
X155078841Y-93800500D01*
X155078842Y-93800500D01*
X155233497Y-93769737D01*
X155379179Y-93709394D01*
X155510289Y-93621789D01*
X155621789Y-93510289D01*
X155709394Y-93379179D01*
X155769737Y-93233497D01*
X155800500Y-93078842D01*
X155800500Y-92921158D01*
X155769737Y-92766503D01*
X155735173Y-92683057D01*
X155709396Y-92620825D01*
X155709390Y-92620814D01*
X155674017Y-92567876D01*
X155621789Y-92489711D01*
X155510289Y-92378211D01*
X155458059Y-92343312D01*
X155379185Y-92290609D01*
X155379174Y-92290603D01*
X155233497Y-92230263D01*
X155078844Y-92199500D01*
X155078842Y-92199500D01*
X154921158Y-92199500D01*
X154921154Y-92199500D01*
X154818814Y-92219857D01*
X154758052Y-92212665D01*
X154713123Y-92171132D01*
X154701334Y-92125958D01*
X154700976Y-92125994D01*
X154700752Y-92123728D01*
X154700500Y-92122759D01*
X154700500Y-92121159D01*
X154700499Y-92121155D01*
X154669737Y-91966503D01*
X154633166Y-91878211D01*
X154609396Y-91820825D01*
X154609390Y-91820814D01*
X154574017Y-91767876D01*
X154521789Y-91689711D01*
X154410289Y-91578211D01*
X154366689Y-91549078D01*
X154328811Y-91501029D01*
X154326409Y-91439891D01*
X154330223Y-91428890D01*
X154352182Y-91375876D01*
X154391917Y-91329353D01*
X154451412Y-91315069D01*
X154462961Y-91316667D01*
X154507358Y-91325499D01*
X154507365Y-91325499D01*
X154507367Y-91325500D01*
X154507368Y-91325500D01*
X154650276Y-91325500D01*
X154650277Y-91325500D01*
X154790442Y-91297619D01*
X154922475Y-91242929D01*
X155041301Y-91163532D01*
X155142354Y-91062479D01*
X155221751Y-90943653D01*
X155276441Y-90811620D01*
X155297139Y-90707564D01*
X155327035Y-90654183D01*
X155356347Y-90635419D01*
X155419179Y-90609394D01*
X155550289Y-90521789D01*
X155661789Y-90410289D01*
X155749394Y-90279179D01*
X155809737Y-90133497D01*
X155822331Y-90070180D01*
X155852226Y-90016799D01*
X155900114Y-89992399D01*
X155913497Y-89989737D01*
X156059179Y-89929394D01*
X156190289Y-89841789D01*
X156301789Y-89730289D01*
X156389394Y-89599179D01*
X156449737Y-89453497D01*
X156480500Y-89298842D01*
X156480500Y-89141158D01*
X156449737Y-88986503D01*
X156408175Y-88886163D01*
X156389396Y-88840825D01*
X156389390Y-88840814D01*
X156354017Y-88787876D01*
X156301789Y-88709711D01*
X156190289Y-88598211D01*
X156136811Y-88562478D01*
X156059185Y-88510609D01*
X156059174Y-88510603D01*
X155913497Y-88450263D01*
X155758844Y-88419500D01*
X155758842Y-88419500D01*
X155601158Y-88419500D01*
X155601155Y-88419500D01*
X155446503Y-88450263D01*
X155446501Y-88450263D01*
X155300825Y-88510603D01*
X155300814Y-88510609D01*
X155169711Y-88598211D01*
X155169707Y-88598214D01*
X155058214Y-88709707D01*
X155058211Y-88709711D01*
X154970609Y-88840814D01*
X154970603Y-88840825D01*
X154910262Y-88986503D01*
X154910260Y-88986511D01*
X154897667Y-89049818D01*
X154867770Y-89103202D01*
X154819886Y-89127600D01*
X154806509Y-89130261D01*
X154806503Y-89130262D01*
X154660825Y-89190603D01*
X154660814Y-89190609D01*
X154529711Y-89278211D01*
X154529707Y-89278214D01*
X154418214Y-89389707D01*
X154418211Y-89389711D01*
X154330609Y-89520814D01*
X154330603Y-89520825D01*
X154270263Y-89666501D01*
X154270263Y-89666503D01*
X154239500Y-89821155D01*
X154239500Y-89901260D01*
X154220593Y-89959451D01*
X154195502Y-89983575D01*
X154116343Y-90036467D01*
X154015293Y-90137517D01*
X154015290Y-90137521D01*
X153935891Y-90256348D01*
X153930901Y-90268396D01*
X153891161Y-90314919D01*
X153831666Y-90329199D01*
X153820125Y-90327603D01*
X153678844Y-90299500D01*
X153678842Y-90299500D01*
X153521158Y-90299500D01*
X153521155Y-90299500D01*
X153366503Y-90330263D01*
X153366501Y-90330263D01*
X153220825Y-90390603D01*
X153220814Y-90390609D01*
X153089711Y-90478211D01*
X153089707Y-90478214D01*
X152978214Y-90589707D01*
X152978211Y-90589711D01*
X152890609Y-90720814D01*
X152890603Y-90720825D01*
X152830263Y-90866501D01*
X152830263Y-90866503D01*
X152799500Y-91021155D01*
X141107728Y-91021155D01*
X140957726Y-90725561D01*
X140955373Y-90720585D01*
X140803404Y-90374295D01*
X140801311Y-90369129D01*
X140712624Y-90131155D01*
X144199500Y-90131155D01*
X144199500Y-90288844D01*
X144215993Y-90371758D01*
X144223657Y-90410289D01*
X144230263Y-90443496D01*
X144230263Y-90443498D01*
X144290603Y-90589174D01*
X144290609Y-90589185D01*
X144334040Y-90654183D01*
X144378211Y-90720289D01*
X144489711Y-90831789D01*
X144567876Y-90884017D01*
X144620814Y-90919390D01*
X144620825Y-90919396D01*
X144636535Y-90925903D01*
X144766503Y-90979737D01*
X144921158Y-91010500D01*
X144921159Y-91010500D01*
X145078841Y-91010500D01*
X145078842Y-91010500D01*
X145233497Y-90979737D01*
X145363465Y-90925903D01*
X145366056Y-90924830D01*
X145379174Y-90919396D01*
X145379173Y-90919396D01*
X145379179Y-90919394D01*
X145510289Y-90831789D01*
X145621789Y-90720289D01*
X145709394Y-90589179D01*
X145769737Y-90443497D01*
X145800500Y-90288842D01*
X145800500Y-90131158D01*
X145769737Y-89976503D01*
X145713937Y-89841788D01*
X145709396Y-89830825D01*
X145709390Y-89830814D01*
X145669174Y-89770628D01*
X145621789Y-89699711D01*
X145510289Y-89588211D01*
X145410882Y-89521789D01*
X145379185Y-89500609D01*
X145379174Y-89500603D01*
X145233497Y-89440263D01*
X145078844Y-89409500D01*
X145078842Y-89409500D01*
X144921158Y-89409500D01*
X144921155Y-89409500D01*
X144766503Y-89440263D01*
X144766501Y-89440263D01*
X144620825Y-89500603D01*
X144620814Y-89500609D01*
X144489711Y-89588211D01*
X144489707Y-89588214D01*
X144378214Y-89699707D01*
X144378211Y-89699711D01*
X144290609Y-89830814D01*
X144290603Y-89830825D01*
X144230263Y-89976501D01*
X144230263Y-89976503D01*
X144199500Y-90131155D01*
X140712624Y-90131155D01*
X140667643Y-90010457D01*
X140665843Y-90005178D01*
X140550209Y-89631785D01*
X140548743Y-89626547D01*
X140541890Y-89599179D01*
X140450974Y-89236119D01*
X140449855Y-89231091D01*
X140369872Y-88821431D01*
X140369825Y-88821155D01*
X145599500Y-88821155D01*
X145599500Y-88821158D01*
X145599500Y-88978842D01*
X145629619Y-89130261D01*
X145630263Y-89133496D01*
X145630263Y-89133498D01*
X145690603Y-89279174D01*
X145690609Y-89279185D01*
X145718433Y-89320825D01*
X145778211Y-89410289D01*
X145889711Y-89521789D01*
X145967876Y-89574017D01*
X146020814Y-89609390D01*
X146020825Y-89609396D01*
X146062232Y-89626547D01*
X146166503Y-89669737D01*
X146321158Y-89700500D01*
X146321159Y-89700500D01*
X146478841Y-89700500D01*
X146478842Y-89700500D01*
X146633497Y-89669737D01*
X146779179Y-89609394D01*
X146910289Y-89521789D01*
X147021789Y-89410289D01*
X147109394Y-89279179D01*
X147169737Y-89133497D01*
X147200500Y-88978842D01*
X147200500Y-88821158D01*
X147169737Y-88666503D01*
X147141450Y-88598211D01*
X147109396Y-88520825D01*
X147109390Y-88520814D01*
X147073209Y-88466667D01*
X147021789Y-88389711D01*
X146910289Y-88278211D01*
X146858059Y-88243312D01*
X146779185Y-88190609D01*
X146779174Y-88190603D01*
X146633497Y-88130263D01*
X146585818Y-88120779D01*
X146478844Y-88099500D01*
X146478842Y-88099500D01*
X146321158Y-88099500D01*
X146321155Y-88099500D01*
X146166503Y-88130263D01*
X146166501Y-88130263D01*
X146020825Y-88190603D01*
X146020814Y-88190609D01*
X145889711Y-88278211D01*
X145889707Y-88278214D01*
X145778214Y-88389707D01*
X145778211Y-88389711D01*
X145690609Y-88520814D01*
X145690603Y-88520825D01*
X145630263Y-88666501D01*
X145630263Y-88666503D01*
X145599500Y-88821155D01*
X140369825Y-88821155D01*
X140369057Y-88816625D01*
X140366313Y-88797619D01*
X140306836Y-88385598D01*
X140306291Y-88381098D01*
X140296226Y-88278211D01*
X140271801Y-88028542D01*
X152174500Y-88028542D01*
X152174500Y-88171457D01*
X152202381Y-88311619D01*
X152202381Y-88311621D01*
X152257068Y-88443648D01*
X152257074Y-88443659D01*
X152301808Y-88510606D01*
X152336468Y-88562479D01*
X152437521Y-88663532D01*
X152506627Y-88709707D01*
X152556340Y-88742925D01*
X152556351Y-88742931D01*
X152605121Y-88763132D01*
X152688380Y-88797619D01*
X152828545Y-88825500D01*
X152828546Y-88825500D01*
X152971454Y-88825500D01*
X152971455Y-88825500D01*
X153111620Y-88797619D01*
X153243653Y-88742929D01*
X153362479Y-88663532D01*
X153463532Y-88562479D01*
X153542929Y-88443653D01*
X153597619Y-88311620D01*
X153625500Y-88171455D01*
X153625500Y-88028545D01*
X153597619Y-87888380D01*
X153561218Y-87800500D01*
X153542931Y-87756351D01*
X153542925Y-87756340D01*
X153510866Y-87708362D01*
X153463532Y-87637521D01*
X153362479Y-87536468D01*
X153300240Y-87494881D01*
X153243659Y-87457074D01*
X153243648Y-87457068D01*
X153111620Y-87402381D01*
X152971457Y-87374500D01*
X152971455Y-87374500D01*
X152828545Y-87374500D01*
X152828542Y-87374500D01*
X152688380Y-87402381D01*
X152688378Y-87402381D01*
X152556351Y-87457068D01*
X152556340Y-87457074D01*
X152437521Y-87536468D01*
X152437517Y-87536471D01*
X152336471Y-87637517D01*
X152336468Y-87637521D01*
X152257074Y-87756340D01*
X152257068Y-87756351D01*
X152202381Y-87888378D01*
X152202381Y-87888380D01*
X152174500Y-88028542D01*
X140271801Y-88028542D01*
X140261822Y-87926545D01*
X140261510Y-87922465D01*
X140244758Y-87621184D01*
X140260405Y-87562036D01*
X140307832Y-87523380D01*
X140368923Y-87519983D01*
X140413609Y-87545687D01*
X140489711Y-87621789D01*
X140567876Y-87674017D01*
X140620814Y-87709390D01*
X140620825Y-87709396D01*
X140650743Y-87721788D01*
X140766503Y-87769737D01*
X140921158Y-87800500D01*
X140921159Y-87800500D01*
X141078841Y-87800500D01*
X141078842Y-87800500D01*
X141233497Y-87769737D01*
X141379179Y-87709394D01*
X141510289Y-87621789D01*
X141621789Y-87510289D01*
X141709394Y-87379179D01*
X141769737Y-87233497D01*
X141800500Y-87078842D01*
X141800500Y-87021155D01*
X142999500Y-87021155D01*
X142999500Y-87178844D01*
X143010372Y-87233498D01*
X143021602Y-87289958D01*
X143030263Y-87333496D01*
X143030263Y-87333498D01*
X143090603Y-87479174D01*
X143090609Y-87479185D01*
X143127064Y-87533742D01*
X143178211Y-87610289D01*
X143289711Y-87721789D01*
X143341431Y-87756347D01*
X143420814Y-87809390D01*
X143420825Y-87809396D01*
X143474638Y-87831685D01*
X143566503Y-87869737D01*
X143721158Y-87900500D01*
X143721159Y-87900500D01*
X143878841Y-87900500D01*
X143878842Y-87900500D01*
X144033497Y-87869737D01*
X144179179Y-87809394D01*
X144310289Y-87721789D01*
X144421789Y-87610289D01*
X144509394Y-87479179D01*
X144569737Y-87333497D01*
X144600500Y-87178842D01*
X144600500Y-87021158D01*
X144569737Y-86866503D01*
X144541314Y-86797884D01*
X144509396Y-86720825D01*
X144509390Y-86720814D01*
X144460703Y-86647950D01*
X144421789Y-86589711D01*
X144310289Y-86478211D01*
X144257841Y-86443166D01*
X144179185Y-86390609D01*
X144179174Y-86390603D01*
X144033497Y-86330263D01*
X143878844Y-86299500D01*
X143878842Y-86299500D01*
X143721158Y-86299500D01*
X143721155Y-86299500D01*
X143566503Y-86330263D01*
X143566501Y-86330263D01*
X143420825Y-86390603D01*
X143420814Y-86390609D01*
X143289711Y-86478211D01*
X143289707Y-86478214D01*
X143178214Y-86589707D01*
X143178211Y-86589711D01*
X143090609Y-86720814D01*
X143090603Y-86720825D01*
X143030263Y-86866501D01*
X143030263Y-86866503D01*
X142999500Y-87021155D01*
X141800500Y-87021155D01*
X141800500Y-86921158D01*
X141769737Y-86766503D01*
X141733569Y-86679185D01*
X141709396Y-86620825D01*
X141709390Y-86620814D01*
X141674017Y-86567876D01*
X141621789Y-86489711D01*
X141510289Y-86378211D01*
X141446582Y-86335643D01*
X141379185Y-86290609D01*
X141379174Y-86290603D01*
X141233497Y-86230263D01*
X141078844Y-86199500D01*
X141078842Y-86199500D01*
X140921158Y-86199500D01*
X140921155Y-86199500D01*
X140766503Y-86230263D01*
X140766501Y-86230263D01*
X140620825Y-86290603D01*
X140620814Y-86290609D01*
X140489711Y-86378211D01*
X140489701Y-86378219D01*
X140424754Y-86443166D01*
X140370237Y-86470943D01*
X140309805Y-86461371D01*
X140266541Y-86418106D01*
X140256469Y-86361264D01*
X140281071Y-86158047D01*
X140281757Y-86153337D01*
X140323405Y-85909460D01*
X140324334Y-85904728D01*
X140377233Y-85665958D01*
X140378390Y-85661283D01*
X140442269Y-85427815D01*
X140443663Y-85423169D01*
X140518240Y-85195257D01*
X140519864Y-85190681D01*
X140604862Y-84968567D01*
X140606698Y-84964103D01*
X140701858Y-84748006D01*
X140703932Y-84743598D01*
X140705432Y-84740603D01*
X140808961Y-84533821D01*
X140811248Y-84529523D01*
X140925918Y-84326233D01*
X140928388Y-84322096D01*
X140928982Y-84321155D01*
X145499500Y-84321155D01*
X145499500Y-84478844D01*
X145530263Y-84633496D01*
X145530263Y-84633498D01*
X145590603Y-84779174D01*
X145590609Y-84779185D01*
X145613710Y-84813757D01*
X145678211Y-84910289D01*
X145789711Y-85021789D01*
X145867876Y-85074017D01*
X145920814Y-85109390D01*
X145920825Y-85109396D01*
X145974638Y-85131685D01*
X146066503Y-85169737D01*
X146221158Y-85200500D01*
X146221159Y-85200500D01*
X146378841Y-85200500D01*
X146378842Y-85200500D01*
X146533497Y-85169737D01*
X146679179Y-85109394D01*
X146758616Y-85056315D01*
X146817503Y-85039707D01*
X146861360Y-85051904D01*
X146865087Y-85053956D01*
X146920821Y-85091196D01*
X146968948Y-85111130D01*
X146973748Y-85113773D01*
X146991113Y-85132286D01*
X147010416Y-85148772D01*
X147011736Y-85154272D01*
X147015607Y-85158399D01*
X147018774Y-85183585D01*
X147024700Y-85208267D01*
X147022535Y-85213493D01*
X147023241Y-85219106D01*
X147010998Y-85241344D01*
X147001285Y-85264795D01*
X146996461Y-85267750D01*
X146993734Y-85272706D01*
X146970765Y-85283498D01*
X146949117Y-85296765D01*
X146940313Y-85297806D01*
X146938357Y-85298726D01*
X146935720Y-85298350D01*
X146926005Y-85299500D01*
X146921155Y-85299500D01*
X146766503Y-85330263D01*
X146766501Y-85330263D01*
X146620825Y-85390603D01*
X146620814Y-85390609D01*
X146489711Y-85478211D01*
X146489707Y-85478214D01*
X146378214Y-85589707D01*
X146378211Y-85589711D01*
X146290609Y-85720814D01*
X146290603Y-85720825D01*
X146230263Y-85866501D01*
X146230263Y-85866503D01*
X146199500Y-86021155D01*
X146199500Y-86178844D01*
X146230263Y-86333496D01*
X146230263Y-86333498D01*
X146290603Y-86479174D01*
X146290609Y-86479185D01*
X146326899Y-86533496D01*
X146378211Y-86610289D01*
X146378214Y-86610292D01*
X146493150Y-86725228D01*
X146491426Y-86726951D01*
X146519342Y-86770589D01*
X146520641Y-86814872D01*
X146499500Y-86921154D01*
X146499500Y-87078844D01*
X146530263Y-87233496D01*
X146530263Y-87233498D01*
X146590603Y-87379174D01*
X146590609Y-87379185D01*
X146620585Y-87424046D01*
X146678211Y-87510289D01*
X146789711Y-87621789D01*
X146867876Y-87674017D01*
X146920814Y-87709390D01*
X146920825Y-87709396D01*
X146950743Y-87721788D01*
X147066503Y-87769737D01*
X147221158Y-87800500D01*
X147221159Y-87800500D01*
X147378841Y-87800500D01*
X147378842Y-87800500D01*
X147533497Y-87769737D01*
X147679179Y-87709394D01*
X147810289Y-87621789D01*
X147921789Y-87510289D01*
X148009394Y-87379179D01*
X148069737Y-87233497D01*
X148100500Y-87078842D01*
X148100500Y-86921158D01*
X148069737Y-86766503D01*
X148033569Y-86679185D01*
X148009396Y-86620825D01*
X148009390Y-86620814D01*
X147974017Y-86567876D01*
X147921789Y-86489711D01*
X147921784Y-86489706D01*
X147921781Y-86489702D01*
X147806851Y-86374773D01*
X147808570Y-86373053D01*
X147780650Y-86329385D01*
X147779358Y-86285128D01*
X147786257Y-86250445D01*
X147800500Y-86178842D01*
X147800500Y-86021158D01*
X147769737Y-85866503D01*
X147709394Y-85720821D01*
X147709393Y-85720819D01*
X147709390Y-85720814D01*
X147629319Y-85600981D01*
X147621789Y-85589711D01*
X147563233Y-85531155D01*
X148949500Y-85531155D01*
X148949500Y-85688844D01*
X148980263Y-85843496D01*
X148980263Y-85843498D01*
X149040603Y-85989174D01*
X149040609Y-85989185D01*
X149061974Y-86021159D01*
X149128211Y-86120289D01*
X149239711Y-86231789D01*
X149317876Y-86284017D01*
X149370814Y-86319390D01*
X149370818Y-86319392D01*
X149370821Y-86319394D01*
X149438183Y-86347296D01*
X149484708Y-86387030D01*
X149498992Y-86446525D01*
X149491762Y-86476643D01*
X149475953Y-86514808D01*
X149448073Y-86654969D01*
X149448073Y-86797884D01*
X149461523Y-86865500D01*
X149474513Y-86930805D01*
X149475954Y-86938046D01*
X149475954Y-86938048D01*
X149530641Y-87070075D01*
X149530647Y-87070086D01*
X149578412Y-87141570D01*
X149610041Y-87188906D01*
X149711094Y-87289959D01*
X149776252Y-87333496D01*
X149829913Y-87369352D01*
X149829924Y-87369358D01*
X149853649Y-87379185D01*
X149961953Y-87424046D01*
X150102118Y-87451927D01*
X150102119Y-87451927D01*
X150245027Y-87451927D01*
X150245028Y-87451927D01*
X150385193Y-87424046D01*
X150517226Y-87369356D01*
X150636052Y-87289959D01*
X150737105Y-87188906D01*
X150816502Y-87070080D01*
X150836767Y-87021155D01*
X154299500Y-87021155D01*
X154299500Y-87178844D01*
X154310372Y-87233498D01*
X154321602Y-87289958D01*
X154330263Y-87333496D01*
X154330263Y-87333498D01*
X154390603Y-87479174D01*
X154390609Y-87479185D01*
X154427064Y-87533742D01*
X154478211Y-87610289D01*
X154589711Y-87721789D01*
X154641431Y-87756347D01*
X154720814Y-87809390D01*
X154720825Y-87809396D01*
X154774638Y-87831685D01*
X154866503Y-87869737D01*
X155021158Y-87900500D01*
X155021159Y-87900500D01*
X155178841Y-87900500D01*
X155178842Y-87900500D01*
X155333497Y-87869737D01*
X155479179Y-87809394D01*
X155610289Y-87721789D01*
X155721789Y-87610289D01*
X155809394Y-87479179D01*
X155869737Y-87333497D01*
X155900500Y-87178842D01*
X155900500Y-87149554D01*
X155919407Y-87091363D01*
X155961614Y-87058090D01*
X156079179Y-87009394D01*
X156210289Y-86921789D01*
X156321789Y-86810289D01*
X156409394Y-86679179D01*
X156469737Y-86533497D01*
X156500500Y-86378842D01*
X156500500Y-86221158D01*
X156500499Y-86221156D01*
X156500499Y-86221150D01*
X156480436Y-86120292D01*
X156469737Y-86066503D01*
X156437707Y-85989174D01*
X156409396Y-85920825D01*
X156409390Y-85920814D01*
X156357728Y-85843498D01*
X156321789Y-85789711D01*
X156210289Y-85678211D01*
X156158059Y-85643312D01*
X156079185Y-85590609D01*
X156079174Y-85590603D01*
X155933497Y-85530263D01*
X155778844Y-85499500D01*
X155778842Y-85499500D01*
X155621158Y-85499500D01*
X155621155Y-85499500D01*
X155466503Y-85530263D01*
X155466501Y-85530263D01*
X155320825Y-85590603D01*
X155320814Y-85590609D01*
X155189711Y-85678211D01*
X155189707Y-85678214D01*
X155078214Y-85789707D01*
X155078211Y-85789711D01*
X154990609Y-85920814D01*
X154990603Y-85920825D01*
X154930263Y-86066501D01*
X154930263Y-86066503D01*
X154899501Y-86221150D01*
X154899500Y-86221159D01*
X154899500Y-86250445D01*
X154880593Y-86308636D01*
X154838386Y-86341909D01*
X154720822Y-86390605D01*
X154720814Y-86390609D01*
X154589711Y-86478211D01*
X154589707Y-86478214D01*
X154478214Y-86589707D01*
X154478211Y-86589711D01*
X154390609Y-86720814D01*
X154390603Y-86720825D01*
X154330263Y-86866501D01*
X154330263Y-86866503D01*
X154299500Y-87021155D01*
X150836767Y-87021155D01*
X150871192Y-86938047D01*
X150880556Y-86890967D01*
X150881977Y-86886295D01*
X150896821Y-86865019D01*
X150909497Y-86842386D01*
X150914093Y-86840267D01*
X150916989Y-86836117D01*
X150941501Y-86827631D01*
X150965062Y-86816770D01*
X150970646Y-86817542D01*
X150974808Y-86816102D01*
X150979806Y-86816133D01*
X150997878Y-86816700D01*
X151048380Y-86837619D01*
X151188545Y-86865500D01*
X151331455Y-86865500D01*
X151471620Y-86837619D01*
X151603653Y-86782929D01*
X151722479Y-86703532D01*
X151823532Y-86602479D01*
X151902929Y-86483653D01*
X151957619Y-86351620D01*
X151964782Y-86315607D01*
X151994679Y-86262224D01*
X152042564Y-86237824D01*
X152133497Y-86219737D01*
X152279179Y-86159394D01*
X152410289Y-86071789D01*
X152521789Y-85960289D01*
X152609394Y-85829179D01*
X152669737Y-85683497D01*
X152700500Y-85528842D01*
X152700500Y-85371158D01*
X152669737Y-85216503D01*
X152641682Y-85148772D01*
X152609396Y-85070825D01*
X152609390Y-85070814D01*
X152564472Y-85003591D01*
X152521789Y-84939711D01*
X152410289Y-84828211D01*
X152339817Y-84781123D01*
X152279185Y-84740609D01*
X152279174Y-84740603D01*
X152133497Y-84680263D01*
X151978844Y-84649500D01*
X151978842Y-84649500D01*
X151821158Y-84649500D01*
X151821155Y-84649500D01*
X151666503Y-84680263D01*
X151666501Y-84680263D01*
X151520825Y-84740603D01*
X151520814Y-84740609D01*
X151389711Y-84828211D01*
X151389707Y-84828214D01*
X151278214Y-84939707D01*
X151278211Y-84939711D01*
X151190609Y-85070814D01*
X151190603Y-85070825D01*
X151130263Y-85216501D01*
X151130263Y-85216503D01*
X151098974Y-85373800D01*
X151069077Y-85427184D01*
X151039762Y-85445950D01*
X150957316Y-85480101D01*
X150896320Y-85484902D01*
X150864429Y-85470953D01*
X150843650Y-85457069D01*
X150711620Y-85402381D01*
X150566685Y-85373551D01*
X150567152Y-85371200D01*
X150519569Y-85350312D01*
X150493964Y-85314281D01*
X150459394Y-85230821D01*
X150439133Y-85200499D01*
X150371789Y-85099711D01*
X150260289Y-84988211D01*
X150187698Y-84939707D01*
X150129185Y-84900609D01*
X150129174Y-84900603D01*
X149983497Y-84840263D01*
X149828844Y-84809500D01*
X149828842Y-84809500D01*
X149671158Y-84809500D01*
X149671155Y-84809500D01*
X149516503Y-84840263D01*
X149516501Y-84840263D01*
X149370825Y-84900603D01*
X149370814Y-84900609D01*
X149239711Y-84988211D01*
X149239707Y-84988214D01*
X149128214Y-85099707D01*
X149128211Y-85099711D01*
X149040609Y-85230814D01*
X149040603Y-85230825D01*
X148980263Y-85376501D01*
X148980263Y-85376503D01*
X148949500Y-85531155D01*
X147563233Y-85531155D01*
X147510289Y-85478211D01*
X147434883Y-85427826D01*
X147379185Y-85390609D01*
X147379174Y-85390603D01*
X147336110Y-85372766D01*
X147289584Y-85333030D01*
X147275300Y-85273535D01*
X147298715Y-85217007D01*
X147350883Y-85185037D01*
X147373995Y-85182302D01*
X147378841Y-85182302D01*
X147378842Y-85182302D01*
X147533497Y-85151539D01*
X147679179Y-85091196D01*
X147810289Y-85003591D01*
X147921789Y-84892091D01*
X148009394Y-84760981D01*
X148069737Y-84615299D01*
X148100500Y-84460644D01*
X148100500Y-84302960D01*
X148069737Y-84148305D01*
X148027781Y-84047014D01*
X148009396Y-84002627D01*
X148009390Y-84002616D01*
X147964018Y-83934713D01*
X147921789Y-83871513D01*
X147810289Y-83760013D01*
X147748937Y-83719019D01*
X147679185Y-83672411D01*
X147679174Y-83672405D01*
X147533497Y-83612065D01*
X147378844Y-83581302D01*
X147378842Y-83581302D01*
X147221158Y-83581302D01*
X147221155Y-83581302D01*
X147066503Y-83612065D01*
X147066501Y-83612065D01*
X146920825Y-83672405D01*
X146920816Y-83672410D01*
X146841383Y-83725486D01*
X146782495Y-83742094D01*
X146731381Y-83725486D01*
X146679176Y-83690604D01*
X146533497Y-83630263D01*
X146378844Y-83599500D01*
X146378842Y-83599500D01*
X146221158Y-83599500D01*
X146221155Y-83599500D01*
X146066503Y-83630263D01*
X146066501Y-83630263D01*
X145920825Y-83690603D01*
X145920814Y-83690609D01*
X145789711Y-83778211D01*
X145789707Y-83778214D01*
X145678214Y-83889707D01*
X145678211Y-83889711D01*
X145590609Y-84020814D01*
X145590603Y-84020825D01*
X145530263Y-84166501D01*
X145530263Y-84166503D01*
X145499500Y-84321155D01*
X140928982Y-84321155D01*
X141052415Y-84125580D01*
X141055090Y-84121565D01*
X141188221Y-83932061D01*
X141191119Y-83928148D01*
X141333036Y-83745984D01*
X141336090Y-83742256D01*
X141486627Y-83567562D01*
X141489850Y-83564004D01*
X141648684Y-83397120D01*
X141652134Y-83393671D01*
X141818996Y-83234857D01*
X141822577Y-83231615D01*
X141997248Y-83081097D01*
X142000999Y-83078024D01*
X142183173Y-82936100D01*
X142187063Y-82933220D01*
X142204237Y-82921155D01*
X144199500Y-82921155D01*
X144199500Y-83078844D01*
X144217605Y-83169860D01*
X144229884Y-83231594D01*
X144230263Y-83233496D01*
X144230263Y-83233498D01*
X144290603Y-83379174D01*
X144290609Y-83379185D01*
X144318656Y-83421159D01*
X144378211Y-83510289D01*
X144489711Y-83621789D01*
X144539111Y-83654797D01*
X144620814Y-83709390D01*
X144620825Y-83709396D01*
X144655989Y-83723961D01*
X144766503Y-83769737D01*
X144921158Y-83800500D01*
X144921159Y-83800500D01*
X145078841Y-83800500D01*
X145078842Y-83800500D01*
X145233497Y-83769737D01*
X145379179Y-83709394D01*
X145510289Y-83621789D01*
X145621789Y-83510289D01*
X145709394Y-83379179D01*
X145769737Y-83233497D01*
X145800500Y-83078842D01*
X145800500Y-82921158D01*
X145769737Y-82766503D01*
X145731173Y-82673400D01*
X145709396Y-82620825D01*
X145709390Y-82620814D01*
X145666249Y-82556250D01*
X145621789Y-82489711D01*
X145510289Y-82378211D01*
X145423106Y-82319957D01*
X145379185Y-82290609D01*
X145379174Y-82290603D01*
X145233497Y-82230263D01*
X145078844Y-82199500D01*
X145078842Y-82199500D01*
X144921158Y-82199500D01*
X144921155Y-82199500D01*
X144766503Y-82230263D01*
X144766501Y-82230263D01*
X144620825Y-82290603D01*
X144620814Y-82290609D01*
X144489711Y-82378211D01*
X144489707Y-82378214D01*
X144378214Y-82489707D01*
X144378211Y-82489711D01*
X144290609Y-82620814D01*
X144290603Y-82620825D01*
X144230263Y-82766501D01*
X144230263Y-82766503D01*
X144199500Y-82921155D01*
X142204237Y-82921155D01*
X142356007Y-82814532D01*
X142376531Y-82800114D01*
X142380579Y-82797415D01*
X142577084Y-82673396D01*
X142581276Y-82670894D01*
X142590171Y-82665877D01*
X142784520Y-82556249D01*
X142788836Y-82553954D01*
X142899100Y-82498748D01*
X142998615Y-82448923D01*
X143002992Y-82446865D01*
X143219105Y-82351697D01*
X143223569Y-82349861D01*
X143445700Y-82264855D01*
X143450269Y-82263235D01*
X143678165Y-82188663D01*
X143682811Y-82187269D01*
X143916279Y-82123390D01*
X143920954Y-82122233D01*
X144159744Y-82069329D01*
X144164461Y-82068404D01*
X144408338Y-82026756D01*
X144413048Y-82026070D01*
X144661775Y-81995958D01*
X144666479Y-81995504D01*
X144919799Y-81977223D01*
X144924533Y-81976995D01*
X145183139Y-81970813D01*
X145187222Y-81970802D01*
X145367935Y-81974094D01*
G37*
%TD.AperFunction*%
%TD*%
M02*
