%TF.GenerationSoftware,KiCad,Pcbnew,10.0.0*%
%TF.CreationDate,2026-04-10T22:18:31+01:00*%
%TF.ProjectId,main-PCB,6d61696e-2d50-4434-922e-6b696361645f,rev?*%
%TF.SameCoordinates,Original*%
%TF.FileFunction,Profile,NP*%
%FSLAX46Y46*%
G04 Gerber Fmt 4.6, Leading zero omitted, Abs format (unit mm)*
G04 Created by KiCad (PCBNEW 10.0.0) date 2026-04-10 22:18:31*
%MOMM*%
%LPD*%
G01*
G04 APERTURE LIST*
%TA.AperFunction,Profile*%
%ADD10C,0.010000*%
%TD*%
G04 APERTURE END LIST*
D10*
X140000023Y-93268314D02*
X140000023Y-100040007D01*
X140000023Y-93268314D02*
G75*
G02*
X140662581Y-92966584I399977J14D01*
G01*
X140000023Y-100040007D02*
X148421696Y-100040007D01*
X140025223Y-86929597D02*
X140031726Y-86657568D01*
X140031726Y-86657568D02*
X140051045Y-86389853D01*
X140034313Y-87447870D02*
X140025223Y-86929597D01*
X140051045Y-86389853D02*
X140082898Y-86126735D01*
X140061668Y-87939848D02*
X140034313Y-87447870D01*
X140082898Y-86126735D02*
X140127000Y-85868499D01*
X140107413Y-88407453D02*
X140061668Y-87939848D01*
X140127000Y-85868499D02*
X140183068Y-85615427D01*
X140171674Y-88852606D02*
X140107413Y-88407453D01*
X140183068Y-85615427D02*
X140250820Y-85367803D01*
X140250820Y-85367803D02*
X140329971Y-85125910D01*
X140254578Y-89277227D02*
X140171674Y-88852606D01*
X140329971Y-85125910D02*
X140420238Y-84890031D01*
X140356249Y-89683237D02*
X140254578Y-89277227D01*
X140420238Y-84890031D02*
X140521337Y-84660451D01*
X140476815Y-90072557D02*
X140356249Y-89683237D01*
X140521337Y-84660451D02*
X140632986Y-84437452D01*
X140616401Y-90447108D02*
X140476815Y-90072557D01*
X140632986Y-84437452D02*
X140754901Y-84221319D01*
X140662599Y-92966563D02*
X141757807Y-93919583D01*
X140754901Y-84221319D02*
X140886798Y-84012333D01*
X140775134Y-90808811D02*
X140616401Y-90447108D01*
X140886798Y-84012333D02*
X141028394Y-83810779D01*
X140953138Y-91159587D02*
X140775134Y-90808811D01*
X141028394Y-83810779D02*
X141179406Y-83616941D01*
X141150540Y-91501357D02*
X140953138Y-91159587D01*
X141179406Y-83616941D02*
X141339550Y-83431100D01*
X141339550Y-83431100D02*
X141508543Y-83253542D01*
X141367467Y-91836041D02*
X141150540Y-91501357D01*
X141508543Y-83253542D02*
X141686101Y-83084549D01*
X141604043Y-92165561D02*
X141367467Y-91836041D01*
X141686101Y-83084549D02*
X141871942Y-82924405D01*
X141860395Y-92491837D02*
X141604043Y-92165561D01*
X141871942Y-82924405D02*
X142065780Y-82773393D01*
X142065780Y-82773393D02*
X142267334Y-82631797D01*
X142136649Y-92816791D02*
X141860395Y-92491837D01*
X142267334Y-82631797D02*
X142476320Y-82499900D01*
X142294146Y-93909472D02*
G75*
G02*
X141757822Y-93919565I-273746J291672D01*
G01*
X142432931Y-93142344D02*
X142136649Y-92816791D01*
X142460199Y-93753598D02*
X142294146Y-93909472D01*
X142470879Y-93180726D02*
X142432931Y-93142344D01*
X142470879Y-93180726D02*
G75*
G02*
X142460240Y-93753642I-284479J-281274D01*
G01*
X142476320Y-82499900D02*
X142692453Y-82377985D01*
X142692453Y-82377985D02*
X142915452Y-82266336D01*
X142915452Y-82266336D02*
X143145032Y-82165237D01*
X143145032Y-82165237D02*
X143380911Y-82074970D01*
X143380911Y-82074970D02*
X143622804Y-81995819D01*
X143622804Y-81995819D02*
X143870428Y-81928067D01*
X143870428Y-81928067D02*
X144123500Y-81871999D01*
X144123500Y-81871999D02*
X144381736Y-81827897D01*
X144381736Y-81827897D02*
X144644854Y-81796044D01*
X144644854Y-81796044D02*
X144912569Y-81776725D01*
X144912569Y-81776725D02*
X145184598Y-81770222D01*
X145184598Y-81770222D02*
X145377056Y-81773728D01*
X145377056Y-81773728D02*
X145567436Y-81784162D01*
X145567436Y-81784162D02*
X145755675Y-81801397D01*
X145755675Y-81801397D02*
X145941709Y-81825309D01*
X145941709Y-81825309D02*
X146125476Y-81855771D01*
X146125476Y-81855771D02*
X146306913Y-81892656D01*
X146306913Y-81892656D02*
X146485956Y-81935840D01*
X146485956Y-81935840D02*
X146662544Y-81985196D01*
X146662544Y-81985196D02*
X146836612Y-82040598D01*
X146836612Y-82040598D02*
X147008097Y-82101920D01*
X147008097Y-82101920D02*
X147176938Y-82169036D01*
X147176938Y-82169036D02*
X147343070Y-82241821D01*
X147343070Y-82241821D02*
X147506432Y-82320148D01*
X147506432Y-82320148D02*
X147666959Y-82403891D01*
X147666959Y-82403891D02*
X147824589Y-82492925D01*
X147824589Y-82492925D02*
X147979259Y-82587123D01*
X147979259Y-82587123D02*
X148279467Y-82790508D01*
X148279467Y-82790508D02*
X148567078Y-83013040D01*
X148567078Y-83013040D02*
X148841590Y-83253710D01*
X148695459Y-99931647D02*
G75*
G02*
X148421696Y-100040002I-273759J291647D01*
G01*
X148841590Y-83253710D02*
X149102498Y-83511511D01*
X149036146Y-99611844D02*
X148695459Y-99931647D01*
X149036146Y-99611844D02*
G75*
G02*
X149582671Y-99610925I273754J-291656D01*
G01*
X149102498Y-83511511D02*
X149349298Y-83785435D01*
X149349298Y-83785435D02*
X149581487Y-84074474D01*
X149863627Y-99872852D02*
X149582679Y-99610916D01*
X150136401Y-99872853D02*
G75*
G02*
X149863613Y-99872867I-136401J146253D01*
G01*
X150136401Y-99872853D02*
X150417344Y-99610915D01*
X150417344Y-99610915D02*
G75*
G02*
X150963865Y-99611858I272756J-292585D01*
G01*
X150418540Y-84074473D02*
G75*
G02*
X149581455Y-84074467I-418540J374473D01*
G01*
X150418542Y-84074474D02*
X150650730Y-83785435D01*
X150650730Y-83785435D02*
X150897531Y-83511511D01*
X150897531Y-83511511D02*
X151158438Y-83253710D01*
X150963881Y-99611841D02*
X151304564Y-99931640D01*
X151158438Y-83253710D02*
X151432950Y-83013040D01*
X151432950Y-83013040D02*
X151720562Y-82790508D01*
X151578327Y-100040000D02*
G75*
G02*
X151304551Y-99931653I-27J400000D01*
G01*
X151720562Y-82790508D02*
X152020769Y-82587123D01*
X152020769Y-82587123D02*
X152333070Y-82403891D01*
X152333070Y-82403891D02*
X152656958Y-82241821D01*
X152656958Y-82241821D02*
X152991931Y-82101920D01*
X152991931Y-82101920D02*
X153337485Y-81985196D01*
X153337485Y-81985196D02*
X153693116Y-81892656D01*
X153693116Y-81892656D02*
X154058319Y-81825309D01*
X154058319Y-81825309D02*
X154432592Y-81784162D01*
X154432592Y-81784162D02*
X154815431Y-81770222D01*
X154815431Y-81770222D02*
X155087460Y-81776725D01*
X155087460Y-81776725D02*
X155355175Y-81796044D01*
X155355175Y-81796044D02*
X155618292Y-81827897D01*
X155618292Y-81827897D02*
X155876529Y-81871999D01*
X155876529Y-81871999D02*
X156129601Y-81928067D01*
X156129601Y-81928067D02*
X156377225Y-81995819D01*
X156377225Y-81995819D02*
X156619118Y-82074970D01*
X156619118Y-82074970D02*
X156854996Y-82165237D01*
X156854996Y-82165237D02*
X157084576Y-82266336D01*
X157084576Y-82266336D02*
X157307575Y-82377985D01*
X157307575Y-82377985D02*
X157523709Y-82499900D01*
X157523709Y-82499900D02*
X157732695Y-82631797D01*
X157529154Y-93180718D02*
X157567097Y-93142344D01*
X157539830Y-93753596D02*
G75*
G02*
X157529199Y-93180763I273770J291596D01*
G01*
X157539830Y-93753596D02*
X157705877Y-93909465D01*
X157732695Y-82631797D02*
X157934248Y-82773393D01*
X157934248Y-82773393D02*
X158128087Y-82924405D01*
X158128087Y-82924405D02*
X158313927Y-83084549D01*
X158139633Y-92491837D02*
X157567097Y-93142344D01*
X158242216Y-93919576D02*
G75*
G02*
X157705840Y-93909504I-262616J301776D01*
G01*
X158313927Y-83084549D02*
X158491485Y-83253542D01*
X158491485Y-83253542D02*
X158660478Y-83431100D01*
X158632562Y-91836041D02*
X158139633Y-92491837D01*
X158660478Y-83431100D02*
X158820622Y-83616941D01*
X158820622Y-83616941D02*
X158971634Y-83810779D01*
X158849488Y-91501357D02*
X158632562Y-91836041D01*
X158971634Y-83810779D02*
X159113230Y-84012333D01*
X159046891Y-91159587D02*
X158849488Y-91501357D01*
X159113230Y-84012333D02*
X159245128Y-84221319D01*
X159224895Y-90808811D02*
X159046891Y-91159587D01*
X159245128Y-84221319D02*
X159367042Y-84437452D01*
X159337424Y-92966556D02*
X158242216Y-93919576D01*
X159337424Y-92966556D02*
G75*
G02*
X159999994Y-93268307I262576J-301744D01*
G01*
X159367042Y-84437452D02*
X159478691Y-84660451D01*
X159383627Y-90447108D02*
X159224895Y-90808811D01*
X159478691Y-84660451D02*
X159579791Y-84890031D01*
X159523213Y-90072557D02*
X159383627Y-90447108D01*
X159579791Y-84890031D02*
X159670058Y-85125910D01*
X159643779Y-89683237D02*
X159523213Y-90072557D01*
X159670058Y-85125910D02*
X159749209Y-85367803D01*
X159745451Y-89277227D02*
X159643779Y-89683237D01*
X159749209Y-85367803D02*
X159816960Y-85615427D01*
X159816960Y-85615427D02*
X159873029Y-85868499D01*
X159828355Y-88852606D02*
X159745451Y-89277227D01*
X159873029Y-85868499D02*
X159917131Y-86126735D01*
X159892616Y-88407453D02*
X159828355Y-88852606D01*
X159917131Y-86126735D02*
X159948984Y-86389853D01*
X159938361Y-87939848D02*
X159892616Y-88407453D01*
X159948984Y-86389853D02*
X159968303Y-86657568D01*
X159968303Y-86657568D02*
X159974806Y-86929597D01*
X159974806Y-86929597D02*
X159938361Y-87939848D01*
X160000000Y-93268307D02*
X160000000Y-100040000D01*
X160000000Y-100040000D02*
X151578327Y-100040000D01*
M02*
