M48
; DRILL file KiCad 10.0.0 date 2026-04-10T22:19:55
; FORMAT={-:-/ absolute / metric / decimal}
; #@! TF.CreationDate,2026-04-10T22:19:55+01:00
; #@! TF.GenerationSoftware,Kicad,Pcbnew,10.0.0
; #@! TF.FileFunction,Plated,1,4,PTH
FMAT,2
METRIC
; #@! TA.AperFunction,Plated,PTH,ViaDrill
T1C0.300
; #@! TA.AperFunction,Plated,PTH,ViaDrill
T2C0.400
%
G90
G05
T1
X143.6Y-92.6
X145.9Y-94.0
X148.6Y-93.2
X150.0Y-93.4
X150.0Y-94.1
X150.174Y-86.726
X150.5Y-86.1
X151.26Y-86.14
X151.3Y-95.01
X151.3Y-95.65
X152.9Y-88.1
X154.579Y-90.6
T2
X141.0Y-87.0
X141.57Y-89.09
X143.8Y-87.1
X143.8Y-93.5
X144.1Y-92.1
X145.0Y-83.0
X145.0Y-90.21
X145.66Y-91.89
X145.9Y-94.7
X146.3Y-84.4
X146.4Y-88.9
X147.0Y-86.1
X147.1Y-92.5
X147.3Y-84.382
X147.3Y-87.0
X148.3Y-95.4
X148.3Y-96.4
X148.6Y-97.3
X149.75Y-85.61
X150.0Y-98.5
X151.0Y-97.3
X151.9Y-85.45
X152.0Y-94.6
X153.5Y-94.0
X153.505Y-87.045
X153.6Y-91.1
X153.9Y-92.2
X154.02Y-87.54
X154.2Y-94.7
X154.45Y-82.86
X155.0Y-93.0
X155.04Y-89.9
X155.1Y-87.1
X155.6Y-83.5
X155.68Y-89.22
X155.7Y-86.3
X157.2Y-90.3
X159.0Y-87.0
M30
