%TF.GenerationSoftware,KiCad,Pcbnew,9.0.7*%
%TF.CreationDate,2026-03-04T02:39:06+00:00*%
%TF.ProjectId,main-PCB,6d61696e-2d50-4434-922e-6b696361645f,rev?*%
%TF.SameCoordinates,Original*%
%TF.FileFunction,Legend,Top*%
%TF.FilePolarity,Positive*%
%FSLAX46Y46*%
G04 Gerber Fmt 4.6, Leading zero omitted, Abs format (unit mm)*
G04 Created by KiCad (PCBNEW 9.0.7) date 2026-03-04 02:39:06*
%MOMM*%
%LPD*%
G01*
G04 APERTURE LIST*
%ADD10C,0.160000*%
%ADD11C,0.120000*%
%ADD12C,0.100000*%
%ADD13C,0.300000*%
G04 APERTURE END LIST*
D10*
X142159735Y-84803559D02*
X142395438Y-84567857D01*
X142866842Y-84837231D02*
X142530125Y-85173948D01*
X142530125Y-85173948D02*
X141823018Y-84466841D01*
X141823018Y-84466841D02*
X142159735Y-84130124D01*
X143169888Y-84534185D02*
X142462781Y-83827078D01*
X142462781Y-83827078D02*
X143573949Y-84130124D01*
X143573949Y-84130124D02*
X142866842Y-83423017D01*
X141395683Y-87170980D02*
X141463027Y-87103636D01*
X141463027Y-87103636D02*
X141564042Y-87069965D01*
X141564042Y-87069965D02*
X141631386Y-87069965D01*
X141631386Y-87069965D02*
X141732401Y-87103636D01*
X141732401Y-87103636D02*
X141900760Y-87204652D01*
X141900760Y-87204652D02*
X142069118Y-87373010D01*
X142069118Y-87373010D02*
X142170134Y-87541369D01*
X142170134Y-87541369D02*
X142203805Y-87642384D01*
X142203805Y-87642384D02*
X142203805Y-87709728D01*
X142203805Y-87709728D02*
X142170134Y-87810743D01*
X142170134Y-87810743D02*
X142102790Y-87878087D01*
X142102790Y-87878087D02*
X142001775Y-87911759D01*
X142001775Y-87911759D02*
X141934431Y-87911759D01*
X141934431Y-87911759D02*
X141833416Y-87878087D01*
X141833416Y-87878087D02*
X141665057Y-87777072D01*
X141665057Y-87777072D02*
X141496699Y-87608713D01*
X141496699Y-87608713D02*
X141395683Y-87440354D01*
X141395683Y-87440354D02*
X141362012Y-87339339D01*
X141362012Y-87339339D02*
X141362012Y-87271995D01*
X141362012Y-87271995D02*
X141395683Y-87170980D01*
X141867088Y-86699575D02*
X142304821Y-86261843D01*
X142304821Y-86261843D02*
X142338492Y-86766919D01*
X142338492Y-86766919D02*
X142439508Y-86665904D01*
X142439508Y-86665904D02*
X142540523Y-86632232D01*
X142540523Y-86632232D02*
X142607866Y-86632232D01*
X142607866Y-86632232D02*
X142708882Y-86665904D01*
X142708882Y-86665904D02*
X142877240Y-86834262D01*
X142877240Y-86834262D02*
X142910912Y-86935278D01*
X142910912Y-86935278D02*
X142910912Y-87002621D01*
X142910912Y-87002621D02*
X142877240Y-87103636D01*
X142877240Y-87103636D02*
X142675210Y-87305667D01*
X142675210Y-87305667D02*
X142574195Y-87339339D01*
X142574195Y-87339339D02*
X142506851Y-87339339D01*
X143079271Y-85420049D02*
X143382317Y-86935278D01*
X143382317Y-85319034D02*
X143382317Y-85251690D01*
X143382317Y-85251690D02*
X143415988Y-85150675D01*
X143415988Y-85150675D02*
X143584347Y-84982316D01*
X143584347Y-84982316D02*
X143685362Y-84948644D01*
X143685362Y-84948644D02*
X143752706Y-84948644D01*
X143752706Y-84948644D02*
X143853721Y-84982316D01*
X143853721Y-84982316D02*
X143921065Y-85049660D01*
X143921065Y-85049660D02*
X143988408Y-85184347D01*
X143988408Y-85184347D02*
X143988408Y-85992469D01*
X143988408Y-85992469D02*
X144426141Y-85554736D01*
X144156767Y-84409896D02*
X144224111Y-84342553D01*
X144224111Y-84342553D02*
X144325126Y-84308881D01*
X144325126Y-84308881D02*
X144392469Y-84308881D01*
X144392469Y-84308881D02*
X144493485Y-84342553D01*
X144493485Y-84342553D02*
X144661843Y-84443568D01*
X144661843Y-84443568D02*
X144830202Y-84611927D01*
X144830202Y-84611927D02*
X144931217Y-84780286D01*
X144931217Y-84780286D02*
X144964889Y-84881301D01*
X144964889Y-84881301D02*
X144964889Y-84948644D01*
X144964889Y-84948644D02*
X144931217Y-85049660D01*
X144931217Y-85049660D02*
X144863874Y-85117003D01*
X144863874Y-85117003D02*
X144762859Y-85150675D01*
X144762859Y-85150675D02*
X144695515Y-85150675D01*
X144695515Y-85150675D02*
X144594500Y-85117003D01*
X144594500Y-85117003D02*
X144426141Y-85015988D01*
X144426141Y-85015988D02*
X144257782Y-84847629D01*
X144257782Y-84847629D02*
X144156767Y-84679270D01*
X144156767Y-84679270D02*
X144123095Y-84578255D01*
X144123095Y-84578255D02*
X144123095Y-84510912D01*
X144123095Y-84510912D02*
X144156767Y-84409896D01*
X144729187Y-83972163D02*
X144729187Y-83904820D01*
X144729187Y-83904820D02*
X144762859Y-83803805D01*
X144762859Y-83803805D02*
X144931217Y-83635446D01*
X144931217Y-83635446D02*
X145032233Y-83601774D01*
X145032233Y-83601774D02*
X145099576Y-83601774D01*
X145099576Y-83601774D02*
X145200591Y-83635446D01*
X145200591Y-83635446D02*
X145267935Y-83702789D01*
X145267935Y-83702789D02*
X145335278Y-83837476D01*
X145335278Y-83837476D02*
X145335278Y-84645599D01*
X145335278Y-84645599D02*
X145773011Y-84207866D01*
X145671996Y-82894667D02*
X145537309Y-83029354D01*
X145537309Y-83029354D02*
X145503637Y-83130370D01*
X145503637Y-83130370D02*
X145503637Y-83197713D01*
X145503637Y-83197713D02*
X145537309Y-83366072D01*
X145537309Y-83366072D02*
X145638324Y-83534431D01*
X145638324Y-83534431D02*
X145907698Y-83803805D01*
X145907698Y-83803805D02*
X146008713Y-83837476D01*
X146008713Y-83837476D02*
X146076057Y-83837476D01*
X146076057Y-83837476D02*
X146177072Y-83803805D01*
X146177072Y-83803805D02*
X146311759Y-83669118D01*
X146311759Y-83669118D02*
X146345431Y-83568102D01*
X146345431Y-83568102D02*
X146345431Y-83500759D01*
X146345431Y-83500759D02*
X146311759Y-83399744D01*
X146311759Y-83399744D02*
X146143400Y-83231385D01*
X146143400Y-83231385D02*
X146042385Y-83197713D01*
X146042385Y-83197713D02*
X145975042Y-83197713D01*
X145975042Y-83197713D02*
X145874026Y-83231385D01*
X145874026Y-83231385D02*
X145739339Y-83366072D01*
X145739339Y-83366072D02*
X145705668Y-83467087D01*
X145705668Y-83467087D02*
X145705668Y-83534431D01*
X145705668Y-83534431D02*
X145739339Y-83635446D01*
X143954819Y-91597295D02*
X144661926Y-90890189D01*
X144661926Y-90890189D02*
X144830285Y-91058547D01*
X144830285Y-91058547D02*
X144897628Y-91193234D01*
X144897628Y-91193234D02*
X144897628Y-91327921D01*
X144897628Y-91327921D02*
X144863957Y-91428937D01*
X144863957Y-91428937D02*
X144762941Y-91597295D01*
X144762941Y-91597295D02*
X144661926Y-91698311D01*
X144661926Y-91698311D02*
X144493567Y-91799326D01*
X144493567Y-91799326D02*
X144392552Y-91832998D01*
X144392552Y-91832998D02*
X144257865Y-91832998D01*
X144257865Y-91832998D02*
X144123178Y-91765654D01*
X144123178Y-91765654D02*
X143954819Y-91597295D01*
X144661926Y-92304402D02*
X145369033Y-91597295D01*
X145840437Y-92068700D02*
X145975124Y-92203387D01*
X145975124Y-92203387D02*
X146008796Y-92304402D01*
X146008796Y-92304402D02*
X146008796Y-92439089D01*
X146008796Y-92439089D02*
X145907781Y-92607448D01*
X145907781Y-92607448D02*
X145672078Y-92843150D01*
X145672078Y-92843150D02*
X145503720Y-92944165D01*
X145503720Y-92944165D02*
X145369033Y-92944165D01*
X145369033Y-92944165D02*
X145268017Y-92910493D01*
X145268017Y-92910493D02*
X145133330Y-92775806D01*
X145133330Y-92775806D02*
X145099659Y-92674791D01*
X145099659Y-92674791D02*
X145099659Y-92540104D01*
X145099659Y-92540104D02*
X145200674Y-92371745D01*
X145200674Y-92371745D02*
X145436376Y-92136043D01*
X145436376Y-92136043D02*
X145604735Y-92035028D01*
X145604735Y-92035028D02*
X145739422Y-92035028D01*
X145739422Y-92035028D02*
X145840437Y-92068700D01*
X146325208Y-93832997D02*
X146257865Y-93832997D01*
X146257865Y-93832997D02*
X146123178Y-93765653D01*
X146123178Y-93765653D02*
X146055834Y-93698310D01*
X146055834Y-93698310D02*
X145988491Y-93563623D01*
X145988491Y-93563623D02*
X145988491Y-93428936D01*
X145988491Y-93428936D02*
X146022162Y-93327921D01*
X146022162Y-93327921D02*
X146123178Y-93159562D01*
X146123178Y-93159562D02*
X146224193Y-93058547D01*
X146224193Y-93058547D02*
X146392552Y-92957531D01*
X146392552Y-92957531D02*
X146493567Y-92923860D01*
X146493567Y-92923860D02*
X146628254Y-92923860D01*
X146628254Y-92923860D02*
X146762941Y-92991203D01*
X146762941Y-92991203D02*
X146830284Y-93058547D01*
X146830284Y-93058547D02*
X146897628Y-93193234D01*
X146897628Y-93193234D02*
X146897628Y-93260577D01*
X146897628Y-94540104D02*
X146560910Y-94203386D01*
X146560910Y-94203386D02*
X147268017Y-93496279D01*
X147133330Y-94775806D02*
X147840437Y-94068699D01*
X147537391Y-95179867D02*
X147638407Y-94472760D01*
X148244498Y-94472760D02*
X147436376Y-94472760D01*
X152109055Y-94186550D02*
X152008039Y-94220222D01*
X152008039Y-94220222D02*
X151907024Y-94321237D01*
X151907024Y-94321237D02*
X151839681Y-94455924D01*
X151839681Y-94455924D02*
X151839681Y-94590611D01*
X151839681Y-94590611D02*
X151873352Y-94691626D01*
X151873352Y-94691626D02*
X151974368Y-94859985D01*
X151974368Y-94859985D02*
X152075383Y-94961000D01*
X152075383Y-94961000D02*
X152243742Y-95062016D01*
X152243742Y-95062016D02*
X152344757Y-95095687D01*
X152344757Y-95095687D02*
X152479444Y-95095687D01*
X152479444Y-95095687D02*
X152614131Y-95028344D01*
X152614131Y-95028344D02*
X152681475Y-94961000D01*
X152681475Y-94961000D02*
X152748818Y-94826313D01*
X152748818Y-94826313D02*
X152748818Y-94758970D01*
X152748818Y-94758970D02*
X152513116Y-94523268D01*
X152513116Y-94523268D02*
X152378429Y-94657955D01*
X153119207Y-94523268D02*
X152412101Y-93816161D01*
X152412101Y-93816161D02*
X153523268Y-94119207D01*
X153523268Y-94119207D02*
X152816162Y-93412100D01*
X153859986Y-93782489D02*
X153152879Y-93075382D01*
X153152879Y-93075382D02*
X153321238Y-92907024D01*
X153321238Y-92907024D02*
X153455925Y-92839680D01*
X153455925Y-92839680D02*
X153590612Y-92839680D01*
X153590612Y-92839680D02*
X153691627Y-92873352D01*
X153691627Y-92873352D02*
X153859986Y-92974367D01*
X153859986Y-92974367D02*
X153961001Y-93075382D01*
X153961001Y-93075382D02*
X154062016Y-93243741D01*
X154062016Y-93243741D02*
X154095688Y-93344756D01*
X154095688Y-93344756D02*
X154095688Y-93479443D01*
X154095688Y-93479443D02*
X154028345Y-93614130D01*
X154028345Y-93614130D02*
X153859986Y-93782489D01*
X153838665Y-92389596D02*
X154276398Y-91951863D01*
X154276398Y-91951863D02*
X154310070Y-92456939D01*
X154310070Y-92456939D02*
X154411085Y-92355924D01*
X154411085Y-92355924D02*
X154512100Y-92322252D01*
X154512100Y-92322252D02*
X154579444Y-92322252D01*
X154579444Y-92322252D02*
X154680459Y-92355924D01*
X154680459Y-92355924D02*
X154848818Y-92524283D01*
X154848818Y-92524283D02*
X154882490Y-92625298D01*
X154882490Y-92625298D02*
X154882490Y-92692642D01*
X154882490Y-92692642D02*
X154848818Y-92793657D01*
X154848818Y-92793657D02*
X154646787Y-92995687D01*
X154646787Y-92995687D02*
X154545772Y-93029359D01*
X154545772Y-93029359D02*
X154478429Y-93029359D01*
X154478429Y-91749833D02*
X155421238Y-92221237D01*
X155421238Y-92221237D02*
X154949833Y-91278428D01*
X155118192Y-91110069D02*
X155555925Y-90672336D01*
X155555925Y-90672336D02*
X155589597Y-91177413D01*
X155589597Y-91177413D02*
X155690612Y-91076397D01*
X155690612Y-91076397D02*
X155791627Y-91042726D01*
X155791627Y-91042726D02*
X155858971Y-91042726D01*
X155858971Y-91042726D02*
X155959986Y-91076397D01*
X155959986Y-91076397D02*
X156128345Y-91244756D01*
X156128345Y-91244756D02*
X156162016Y-91345771D01*
X156162016Y-91345771D02*
X156162016Y-91413115D01*
X156162016Y-91413115D02*
X156128345Y-91514130D01*
X156128345Y-91514130D02*
X155926314Y-91716161D01*
X155926314Y-91716161D02*
X155825299Y-91749833D01*
X155825299Y-91749833D02*
X155757955Y-91749833D01*
D11*
%TO.C,U3*%
X146308903Y-90000000D02*
X146644778Y-89664124D01*
X146644778Y-90335876D02*
X146308903Y-90000000D01*
X149664124Y-86644778D02*
X150000000Y-86308903D01*
X150000000Y-86308903D02*
X150335876Y-86644778D01*
X150000000Y-93691097D02*
X149664124Y-93355222D01*
X150335876Y-93355222D02*
X150000000Y-93691097D01*
X153355222Y-89664124D02*
X153691097Y-90000000D01*
X153691097Y-90000000D02*
X153355222Y-90335876D01*
X153430478Y-88410019D02*
X153027427Y-88473659D01*
X153091066Y-88070608D01*
X153430478Y-88410019D01*
G36*
X153430478Y-88410019D02*
G01*
X153027427Y-88473659D01*
X153091066Y-88070608D01*
X153430478Y-88410019D01*
G37*
%TO.C,C3*%
X152140000Y-96277836D02*
X152140000Y-96062164D01*
X152860000Y-96277836D02*
X152860000Y-96062164D01*
D12*
%TO.C,D1*%
X144820746Y-87229254D02*
G75*
G02*
X144720746Y-87229254I-50000J0D01*
G01*
X144720746Y-87229254D02*
G75*
G02*
X144820746Y-87229254I50000J0D01*
G01*
D11*
%TO.C,Q1*%
X146622218Y-84515111D02*
X145915111Y-85222218D01*
X147484889Y-85377782D02*
X146777782Y-86084889D01*
X147803087Y-85356569D02*
X147605097Y-85158579D01*
X147803087Y-84960589D01*
X147803087Y-85356569D01*
G36*
X147803087Y-85356569D02*
G01*
X147605097Y-85158579D01*
X147803087Y-84960589D01*
X147803087Y-85356569D01*
G37*
%TO.C,TP2*%
X146700000Y-95000000D02*
G75*
G02*
X145300000Y-95000000I-700000J0D01*
G01*
X145300000Y-95000000D02*
G75*
G02*
X146700000Y-95000000I700000J0D01*
G01*
D12*
%TO.C,D2*%
X155279254Y-87229254D02*
G75*
G02*
X155179254Y-87229254I-50000J0D01*
G01*
X155179254Y-87229254D02*
G75*
G02*
X155279254Y-87229254I50000J0D01*
G01*
D11*
%TO.C,Q4*%
X153736809Y-84740901D02*
X154740901Y-83736809D01*
X155862067Y-85260223D02*
X155059099Y-86063191D01*
X156307142Y-85090919D02*
X156109153Y-85288909D01*
X156073797Y-85055563D01*
X156307142Y-85090919D01*
G36*
X156307142Y-85090919D02*
G01*
X156109153Y-85288909D01*
X156073797Y-85055563D01*
X156307142Y-85090919D01*
G37*
%TO.C,TP4*%
X154700000Y-95000000D02*
G75*
G02*
X153300000Y-95000000I-700000J0D01*
G01*
X153300000Y-95000000D02*
G75*
G02*
X154700000Y-95000000I700000J0D01*
G01*
%TO.C,TP3*%
X156700000Y-93000000D02*
G75*
G02*
X155300000Y-93000000I-700000J0D01*
G01*
X155300000Y-93000000D02*
G75*
G02*
X156700000Y-93000000I700000J0D01*
G01*
D13*
%TO.C,U2*%
X150850000Y-94400000D02*
G75*
G02*
X150650000Y-94400000I-100000J0D01*
G01*
X150650000Y-94400000D02*
G75*
G02*
X150850000Y-94400000I100000J0D01*
G01*
D11*
%TO.C,C6*%
X154369190Y-88678307D02*
X154521693Y-88830810D01*
X154878307Y-88169190D02*
X155030810Y-88321693D01*
%TO.C,C8*%
X152421693Y-86730810D02*
X152269190Y-86578307D01*
X152930810Y-86221693D02*
X152778307Y-86069190D01*
%TO.C,TP1*%
X144700000Y-93000000D02*
G75*
G02*
X143300000Y-93000000I-700000J0D01*
G01*
X143300000Y-93000000D02*
G75*
G02*
X144700000Y-93000000I700000J0D01*
G01*
%TD*%
M02*
