%TF.GenerationSoftware,KiCad,Pcbnew,10.0.0*%
%TF.CreationDate,2026-04-10T22:19:55+01:00*%
%TF.ProjectId,main-PCB,6d61696e-2d50-4434-922e-6b696361645f,rev?*%
%TF.SameCoordinates,Original*%
%TF.FileFunction,Drillmap*%
%TF.FilePolarity,Positive*%
%FSLAX45Y45*%
G04 Gerber Fmt 4.5, Leading zero omitted, Abs format (unit mm)*
G04 Created by KiCad (PCBNEW 10.0.0) date 2026-04-10 22:19:55*
%MOMM*%
%LPD*%
G01*
G04 APERTURE LIST*
%ADD10C,0.010000*%
%ADD11C,0.200000*%
%ADD12C,0.100000*%
G04 APERTURE END LIST*
D10*
X14000002Y-9326831D02*
X14000002Y-10004001D01*
X14000002Y-9326831D02*
G75*
G02*
X14066258Y-9296658I39998J1D01*
G01*
X14000002Y-10004001D02*
X14842170Y-10004001D01*
X14002522Y-8692960D02*
X14003173Y-8665757D01*
X14003173Y-8665757D02*
X14005104Y-8638985D01*
X14003431Y-8744787D02*
X14002522Y-8692960D01*
X14005104Y-8638985D02*
X14008290Y-8612674D01*
X14006167Y-8793985D02*
X14003431Y-8744787D01*
X14008290Y-8612674D02*
X14012700Y-8586850D01*
X14010741Y-8840745D02*
X14006167Y-8793985D01*
X14012700Y-8586850D02*
X14018307Y-8561543D01*
X14017167Y-8885261D02*
X14010741Y-8840745D01*
X14018307Y-8561543D02*
X14025082Y-8536780D01*
X14025082Y-8536780D02*
X14032997Y-8512591D01*
X14025458Y-8927723D02*
X14017167Y-8885261D01*
X14032997Y-8512591D02*
X14042024Y-8489003D01*
X14035625Y-8968324D02*
X14025458Y-8927723D01*
X14042024Y-8489003D02*
X14052134Y-8466045D01*
X14047681Y-9007256D02*
X14035625Y-8968324D01*
X14052134Y-8466045D02*
X14063299Y-8443745D01*
X14061640Y-9044711D02*
X14047681Y-9007256D01*
X14063299Y-8443745D02*
X14075490Y-8422132D01*
X14066260Y-9296656D02*
X14175781Y-9391958D01*
X14075490Y-8422132D02*
X14088680Y-8401233D01*
X14077513Y-9080881D02*
X14061640Y-9044711D01*
X14088680Y-8401233D02*
X14102839Y-8381078D01*
X14095314Y-9115959D02*
X14077513Y-9080881D01*
X14102839Y-8381078D02*
X14117941Y-8361694D01*
X14115054Y-9150136D02*
X14095314Y-9115959D01*
X14117941Y-8361694D02*
X14133955Y-8343110D01*
X14133955Y-8343110D02*
X14150854Y-8325354D01*
X14136747Y-9183604D02*
X14115054Y-9150136D01*
X14150854Y-8325354D02*
X14168610Y-8308455D01*
X14160404Y-9216556D02*
X14136747Y-9183604D01*
X14168610Y-8308455D02*
X14187194Y-8292440D01*
X14186039Y-9249184D02*
X14160404Y-9216556D01*
X14187194Y-8292440D02*
X14206578Y-8277339D01*
X14206578Y-8277339D02*
X14226733Y-8263180D01*
X14213665Y-9281679D02*
X14186039Y-9249184D01*
X14226733Y-8263180D02*
X14247632Y-8249990D01*
X14229415Y-9390947D02*
G75*
G02*
X14175782Y-9391957I-27375J29167D01*
G01*
X14243293Y-9314234D02*
X14213665Y-9281679D01*
X14246020Y-9375360D02*
X14229415Y-9390947D01*
X14247088Y-9318073D02*
X14243293Y-9314234D01*
X14247088Y-9318073D02*
G75*
G02*
X14246024Y-9375364I-28448J-28127D01*
G01*
X14247632Y-8249990D02*
X14269245Y-8237798D01*
X14269245Y-8237798D02*
X14291545Y-8226634D01*
X14291545Y-8226634D02*
X14314503Y-8216524D01*
X14314503Y-8216524D02*
X14338091Y-8207497D01*
X14338091Y-8207497D02*
X14362280Y-8199582D01*
X14362280Y-8199582D02*
X14387043Y-8192807D01*
X14387043Y-8192807D02*
X14412350Y-8187200D01*
X14412350Y-8187200D02*
X14438174Y-8182790D01*
X14438174Y-8182790D02*
X14464485Y-8179604D01*
X14464485Y-8179604D02*
X14491257Y-8177672D01*
X14491257Y-8177672D02*
X14518460Y-8177022D01*
X14518460Y-8177022D02*
X14537706Y-8177373D01*
X14537706Y-8177373D02*
X14556744Y-8178416D01*
X14556744Y-8178416D02*
X14575567Y-8180140D01*
X14575567Y-8180140D02*
X14594171Y-8182531D01*
X14594171Y-8182531D02*
X14612548Y-8185577D01*
X14612548Y-8185577D02*
X14630691Y-8189266D01*
X14630691Y-8189266D02*
X14648596Y-8193584D01*
X14648596Y-8193584D02*
X14666254Y-8198520D01*
X14666254Y-8198520D02*
X14683661Y-8204060D01*
X14683661Y-8204060D02*
X14700810Y-8210192D01*
X14700810Y-8210192D02*
X14717694Y-8216904D01*
X14717694Y-8216904D02*
X14734307Y-8224182D01*
X14734307Y-8224182D02*
X14750643Y-8232015D01*
X14750643Y-8232015D02*
X14766696Y-8240389D01*
X14766696Y-8240389D02*
X14782459Y-8249292D01*
X14782459Y-8249292D02*
X14797926Y-8258712D01*
X14797926Y-8258712D02*
X14827947Y-8279051D01*
X14827947Y-8279051D02*
X14856708Y-8301304D01*
X14856708Y-8301304D02*
X14884159Y-8325371D01*
X14869546Y-9993165D02*
G75*
G02*
X14842170Y-10004000I-27376J29165D01*
G01*
X14884159Y-8325371D02*
X14910250Y-8351151D01*
X14903615Y-9961184D02*
X14869546Y-9993165D01*
X14903615Y-9961184D02*
G75*
G02*
X14958267Y-9961093I27375J-29166D01*
G01*
X14910250Y-8351151D02*
X14934930Y-8378543D01*
X14934930Y-8378543D02*
X14958149Y-8407447D01*
X14986363Y-9987285D02*
X14958268Y-9961092D01*
X15013640Y-9987285D02*
G75*
G02*
X14986361Y-9987287I-13640J14625D01*
G01*
X15013640Y-9987285D02*
X15041734Y-9961092D01*
X15041734Y-9961092D02*
G75*
G02*
X15096386Y-9961186I27276J-29259D01*
G01*
X15041854Y-8407447D02*
G75*
G02*
X14958145Y-8407447I-41854J37447D01*
G01*
X15041854Y-8407447D02*
X15065073Y-8378543D01*
X15065073Y-8378543D02*
X15089753Y-8351151D01*
X15089753Y-8351151D02*
X15115844Y-8325371D01*
X15096388Y-9961184D02*
X15130456Y-9993164D01*
X15115844Y-8325371D02*
X15143295Y-8301304D01*
X15143295Y-8301304D02*
X15172056Y-8279051D01*
X15157833Y-10004000D02*
G75*
G02*
X15130455Y-9993165I-3J40000D01*
G01*
X15172056Y-8279051D02*
X15202077Y-8258712D01*
X15202077Y-8258712D02*
X15233307Y-8240389D01*
X15233307Y-8240389D02*
X15265696Y-8224182D01*
X15265696Y-8224182D02*
X15299193Y-8210192D01*
X15299193Y-8210192D02*
X15333748Y-8198520D01*
X15333748Y-8198520D02*
X15369312Y-8189266D01*
X15369312Y-8189266D02*
X15405832Y-8182531D01*
X15405832Y-8182531D02*
X15443259Y-8178416D01*
X15443259Y-8178416D02*
X15481543Y-8177022D01*
X15481543Y-8177022D02*
X15508746Y-8177672D01*
X15508746Y-8177672D02*
X15535517Y-8179604D01*
X15535517Y-8179604D02*
X15561829Y-8182790D01*
X15561829Y-8182790D02*
X15587653Y-8187200D01*
X15587653Y-8187200D02*
X15612960Y-8192807D01*
X15612960Y-8192807D02*
X15637722Y-8199582D01*
X15637722Y-8199582D02*
X15661912Y-8207497D01*
X15661912Y-8207497D02*
X15685500Y-8216524D01*
X15685500Y-8216524D02*
X15708458Y-8226634D01*
X15708458Y-8226634D02*
X15730757Y-8237798D01*
X15730757Y-8237798D02*
X15752371Y-8249990D01*
X15752371Y-8249990D02*
X15773269Y-8263180D01*
X15752915Y-9318072D02*
X15756710Y-9314234D01*
X15753983Y-9375360D02*
G75*
G02*
X15752920Y-9318076I27377J29160D01*
G01*
X15753983Y-9375360D02*
X15770588Y-9390947D01*
X15773269Y-8263180D02*
X15793425Y-8277339D01*
X15793425Y-8277339D02*
X15812809Y-8292440D01*
X15812809Y-8292440D02*
X15831393Y-8308455D01*
X15813963Y-9249184D02*
X15756710Y-9314234D01*
X15824222Y-9391958D02*
G75*
G02*
X15770584Y-9390950I-26262J30178D01*
G01*
X15831393Y-8308455D02*
X15849148Y-8325354D01*
X15849148Y-8325354D02*
X15866048Y-8343110D01*
X15863256Y-9183604D02*
X15813963Y-9249184D01*
X15866048Y-8343110D02*
X15882062Y-8361694D01*
X15882062Y-8361694D02*
X15897163Y-8381078D01*
X15884949Y-9150136D02*
X15863256Y-9183604D01*
X15897163Y-8381078D02*
X15911323Y-8401233D01*
X15904689Y-9115959D02*
X15884949Y-9150136D01*
X15911323Y-8401233D02*
X15924513Y-8422132D01*
X15922489Y-9080881D02*
X15904689Y-9115959D01*
X15924513Y-8422132D02*
X15936704Y-8443745D01*
X15933742Y-9296656D02*
X15824222Y-9391958D01*
X15933742Y-9296656D02*
G75*
G02*
X15999999Y-9326831I26258J-30174D01*
G01*
X15936704Y-8443745D02*
X15947869Y-8466045D01*
X15938363Y-9044711D02*
X15922489Y-9080881D01*
X15947869Y-8466045D02*
X15957979Y-8489003D01*
X15952321Y-9007256D02*
X15938363Y-9044711D01*
X15957979Y-8489003D02*
X15967006Y-8512591D01*
X15964378Y-8968324D02*
X15952321Y-9007256D01*
X15967006Y-8512591D02*
X15974921Y-8536780D01*
X15974545Y-8927723D02*
X15964378Y-8968324D01*
X15974921Y-8536780D02*
X15981696Y-8561543D01*
X15981696Y-8561543D02*
X15987303Y-8586850D01*
X15982835Y-8885261D02*
X15974545Y-8927723D01*
X15987303Y-8586850D02*
X15991713Y-8612674D01*
X15989262Y-8840745D02*
X15982835Y-8885261D01*
X15991713Y-8612674D02*
X15994898Y-8638985D01*
X15993836Y-8793985D02*
X15989262Y-8840745D01*
X15994898Y-8638985D02*
X15996830Y-8665757D01*
X15996830Y-8665757D02*
X15997481Y-8692960D01*
X15997481Y-8692960D02*
X15993836Y-8793985D01*
X16000000Y-9326831D02*
X16000000Y-10004000D01*
X16000000Y-10004000D02*
X15157833Y-10004000D01*
D11*
D12*
X14345000Y-9245000D02*
X14375000Y-9275000D01*
X14375000Y-9245000D02*
X14345000Y-9275000D01*
X14575000Y-9385000D02*
X14605000Y-9415000D01*
X14605000Y-9385000D02*
X14575000Y-9415000D01*
X14845000Y-9305000D02*
X14875000Y-9335000D01*
X14875000Y-9305000D02*
X14845000Y-9335000D01*
X14985000Y-9325000D02*
X15015000Y-9355000D01*
X15015000Y-9325000D02*
X14985000Y-9355000D01*
X14985000Y-9395000D02*
X15015000Y-9425000D01*
X15015000Y-9395000D02*
X14985000Y-9425000D01*
X15002357Y-8657643D02*
X15032357Y-8687643D01*
X15032357Y-8657643D02*
X15002357Y-8687643D01*
X15035000Y-8595000D02*
X15065000Y-8625000D01*
X15065000Y-8595000D02*
X15035000Y-8625000D01*
X15111000Y-8599000D02*
X15141000Y-8629000D01*
X15141000Y-8599000D02*
X15111000Y-8629000D01*
X15115000Y-9486000D02*
X15145000Y-9516000D01*
X15145000Y-9486000D02*
X15115000Y-9516000D01*
X15115000Y-9550000D02*
X15145000Y-9580000D01*
X15145000Y-9550000D02*
X15115000Y-9580000D01*
X15275000Y-8795000D02*
X15305000Y-8825000D01*
X15305000Y-8795000D02*
X15275000Y-8825000D01*
X15442882Y-9045000D02*
X15472882Y-9075000D01*
X15472882Y-9045000D02*
X15442882Y-9075000D01*
X14120000Y-8700000D02*
G75*
G02*
X14080000Y-8700000I-20000J0D01*
G01*
X14080000Y-8700000D02*
G75*
G02*
X14120000Y-8700000I20000J0D01*
G01*
X14177000Y-8909000D02*
G75*
G02*
X14137000Y-8909000I-20000J0D01*
G01*
X14137000Y-8909000D02*
G75*
G02*
X14177000Y-8909000I20000J0D01*
G01*
X14400000Y-8710000D02*
G75*
G02*
X14360000Y-8710000I-20000J0D01*
G01*
X14360000Y-8710000D02*
G75*
G02*
X14400000Y-8710000I20000J0D01*
G01*
X14400000Y-9350000D02*
G75*
G02*
X14360000Y-9350000I-20000J0D01*
G01*
X14360000Y-9350000D02*
G75*
G02*
X14400000Y-9350000I20000J0D01*
G01*
X14430000Y-9210000D02*
G75*
G02*
X14390000Y-9210000I-20000J0D01*
G01*
X14390000Y-9210000D02*
G75*
G02*
X14430000Y-9210000I20000J0D01*
G01*
X14520000Y-8300000D02*
G75*
G02*
X14480000Y-8300000I-20000J0D01*
G01*
X14480000Y-8300000D02*
G75*
G02*
X14520000Y-8300000I20000J0D01*
G01*
X14520000Y-9021000D02*
G75*
G02*
X14480000Y-9021000I-20000J0D01*
G01*
X14480000Y-9021000D02*
G75*
G02*
X14520000Y-9021000I20000J0D01*
G01*
X14586000Y-9189000D02*
G75*
G02*
X14546000Y-9189000I-20000J0D01*
G01*
X14546000Y-9189000D02*
G75*
G02*
X14586000Y-9189000I20000J0D01*
G01*
X14610000Y-9470000D02*
G75*
G02*
X14570000Y-9470000I-20000J0D01*
G01*
X14570000Y-9470000D02*
G75*
G02*
X14610000Y-9470000I20000J0D01*
G01*
X14650000Y-8440000D02*
G75*
G02*
X14610000Y-8440000I-20000J0D01*
G01*
X14610000Y-8440000D02*
G75*
G02*
X14650000Y-8440000I20000J0D01*
G01*
X14660000Y-8890000D02*
G75*
G02*
X14620000Y-8890000I-20000J0D01*
G01*
X14620000Y-8890000D02*
G75*
G02*
X14660000Y-8890000I20000J0D01*
G01*
X14720000Y-8610000D02*
G75*
G02*
X14680000Y-8610000I-20000J0D01*
G01*
X14680000Y-8610000D02*
G75*
G02*
X14720000Y-8610000I20000J0D01*
G01*
X14730000Y-9250000D02*
G75*
G02*
X14690000Y-9250000I-20000J0D01*
G01*
X14690000Y-9250000D02*
G75*
G02*
X14730000Y-9250000I20000J0D01*
G01*
X14750000Y-8438180D02*
G75*
G02*
X14710000Y-8438180I-20000J0D01*
G01*
X14710000Y-8438180D02*
G75*
G02*
X14750000Y-8438180I20000J0D01*
G01*
X14750000Y-8700000D02*
G75*
G02*
X14710000Y-8700000I-20000J0D01*
G01*
X14710000Y-8700000D02*
G75*
G02*
X14750000Y-8700000I20000J0D01*
G01*
X14850000Y-9540000D02*
G75*
G02*
X14810000Y-9540000I-20000J0D01*
G01*
X14810000Y-9540000D02*
G75*
G02*
X14850000Y-9540000I20000J0D01*
G01*
X14850000Y-9640000D02*
G75*
G02*
X14810000Y-9640000I-20000J0D01*
G01*
X14810000Y-9640000D02*
G75*
G02*
X14850000Y-9640000I20000J0D01*
G01*
X14880000Y-9730000D02*
G75*
G02*
X14840000Y-9730000I-20000J0D01*
G01*
X14840000Y-9730000D02*
G75*
G02*
X14880000Y-9730000I20000J0D01*
G01*
X14995000Y-8561000D02*
G75*
G02*
X14955000Y-8561000I-20000J0D01*
G01*
X14955000Y-8561000D02*
G75*
G02*
X14995000Y-8561000I20000J0D01*
G01*
X15020000Y-9850000D02*
G75*
G02*
X14980000Y-9850000I-20000J0D01*
G01*
X14980000Y-9850000D02*
G75*
G02*
X15020000Y-9850000I20000J0D01*
G01*
X15120000Y-9730000D02*
G75*
G02*
X15080000Y-9730000I-20000J0D01*
G01*
X15080000Y-9730000D02*
G75*
G02*
X15120000Y-9730000I20000J0D01*
G01*
X15210000Y-8545000D02*
G75*
G02*
X15170000Y-8545000I-20000J0D01*
G01*
X15170000Y-8545000D02*
G75*
G02*
X15210000Y-8545000I20000J0D01*
G01*
X15220000Y-9460000D02*
G75*
G02*
X15180000Y-9460000I-20000J0D01*
G01*
X15180000Y-9460000D02*
G75*
G02*
X15220000Y-9460000I20000J0D01*
G01*
X15370000Y-9400000D02*
G75*
G02*
X15330000Y-9400000I-20000J0D01*
G01*
X15330000Y-9400000D02*
G75*
G02*
X15370000Y-9400000I20000J0D01*
G01*
X15370500Y-8704500D02*
G75*
G02*
X15330500Y-8704500I-20000J0D01*
G01*
X15330500Y-8704500D02*
G75*
G02*
X15370500Y-8704500I20000J0D01*
G01*
X15380000Y-9110000D02*
G75*
G02*
X15340000Y-9110000I-20000J0D01*
G01*
X15340000Y-9110000D02*
G75*
G02*
X15380000Y-9110000I20000J0D01*
G01*
X15410000Y-9220000D02*
G75*
G02*
X15370000Y-9220000I-20000J0D01*
G01*
X15370000Y-9220000D02*
G75*
G02*
X15410000Y-9220000I20000J0D01*
G01*
X15422000Y-8754000D02*
G75*
G02*
X15382000Y-8754000I-20000J0D01*
G01*
X15382000Y-8754000D02*
G75*
G02*
X15422000Y-8754000I20000J0D01*
G01*
X15440000Y-9470000D02*
G75*
G02*
X15400000Y-9470000I-20000J0D01*
G01*
X15400000Y-9470000D02*
G75*
G02*
X15440000Y-9470000I20000J0D01*
G01*
X15465000Y-8286000D02*
G75*
G02*
X15425000Y-8286000I-20000J0D01*
G01*
X15425000Y-8286000D02*
G75*
G02*
X15465000Y-8286000I20000J0D01*
G01*
X15520000Y-9300000D02*
G75*
G02*
X15480000Y-9300000I-20000J0D01*
G01*
X15480000Y-9300000D02*
G75*
G02*
X15520000Y-9300000I20000J0D01*
G01*
X15524000Y-8990000D02*
G75*
G02*
X15484000Y-8990000I-20000J0D01*
G01*
X15484000Y-8990000D02*
G75*
G02*
X15524000Y-8990000I20000J0D01*
G01*
X15530000Y-8710000D02*
G75*
G02*
X15490000Y-8710000I-20000J0D01*
G01*
X15490000Y-8710000D02*
G75*
G02*
X15530000Y-8710000I20000J0D01*
G01*
X15580000Y-8350000D02*
G75*
G02*
X15540000Y-8350000I-20000J0D01*
G01*
X15540000Y-8350000D02*
G75*
G02*
X15580000Y-8350000I20000J0D01*
G01*
X15588000Y-8922000D02*
G75*
G02*
X15548000Y-8922000I-20000J0D01*
G01*
X15548000Y-8922000D02*
G75*
G02*
X15588000Y-8922000I20000J0D01*
G01*
X15590000Y-8630000D02*
G75*
G02*
X15550000Y-8630000I-20000J0D01*
G01*
X15550000Y-8630000D02*
G75*
G02*
X15590000Y-8630000I20000J0D01*
G01*
X15740000Y-9030000D02*
G75*
G02*
X15700000Y-9030000I-20000J0D01*
G01*
X15700000Y-9030000D02*
G75*
G02*
X15740000Y-9030000I20000J0D01*
G01*
X15920000Y-8700000D02*
G75*
G02*
X15880000Y-8700000I-20000J0D01*
G01*
X15880000Y-8700000D02*
G75*
G02*
X15920000Y-8700000I20000J0D01*
G01*
D11*
X14260279Y-10315985D02*
X14260279Y-10115985D01*
X14260279Y-10115985D02*
X14307898Y-10115985D01*
X14307898Y-10115985D02*
X14336470Y-10125508D01*
X14336470Y-10125508D02*
X14355517Y-10144556D01*
X14355517Y-10144556D02*
X14365041Y-10163604D01*
X14365041Y-10163604D02*
X14374565Y-10201699D01*
X14374565Y-10201699D02*
X14374565Y-10230270D01*
X14374565Y-10230270D02*
X14365041Y-10268365D01*
X14365041Y-10268365D02*
X14355517Y-10287413D01*
X14355517Y-10287413D02*
X14336470Y-10306461D01*
X14336470Y-10306461D02*
X14307898Y-10315985D01*
X14307898Y-10315985D02*
X14260279Y-10315985D01*
X14460279Y-10315985D02*
X14460279Y-10182651D01*
X14460279Y-10220746D02*
X14469803Y-10201699D01*
X14469803Y-10201699D02*
X14479327Y-10192175D01*
X14479327Y-10192175D02*
X14498374Y-10182651D01*
X14498374Y-10182651D02*
X14517422Y-10182651D01*
X14584089Y-10315985D02*
X14584089Y-10182651D01*
X14584089Y-10115985D02*
X14574565Y-10125508D01*
X14574565Y-10125508D02*
X14584089Y-10135032D01*
X14584089Y-10135032D02*
X14593612Y-10125508D01*
X14593612Y-10125508D02*
X14584089Y-10115985D01*
X14584089Y-10115985D02*
X14584089Y-10135032D01*
X14707898Y-10315985D02*
X14688850Y-10306461D01*
X14688850Y-10306461D02*
X14679327Y-10287413D01*
X14679327Y-10287413D02*
X14679327Y-10115985D01*
X14812660Y-10315985D02*
X14793612Y-10306461D01*
X14793612Y-10306461D02*
X14784089Y-10287413D01*
X14784089Y-10287413D02*
X14784089Y-10115985D01*
X15041231Y-10315985D02*
X15041231Y-10115985D01*
X15041231Y-10115985D02*
X15107898Y-10258842D01*
X15107898Y-10258842D02*
X15174565Y-10115985D01*
X15174565Y-10115985D02*
X15174565Y-10315985D01*
X15355517Y-10315985D02*
X15355517Y-10211223D01*
X15355517Y-10211223D02*
X15345993Y-10192175D01*
X15345993Y-10192175D02*
X15326946Y-10182651D01*
X15326946Y-10182651D02*
X15288850Y-10182651D01*
X15288850Y-10182651D02*
X15269803Y-10192175D01*
X15355517Y-10306461D02*
X15336470Y-10315985D01*
X15336470Y-10315985D02*
X15288850Y-10315985D01*
X15288850Y-10315985D02*
X15269803Y-10306461D01*
X15269803Y-10306461D02*
X15260279Y-10287413D01*
X15260279Y-10287413D02*
X15260279Y-10268365D01*
X15260279Y-10268365D02*
X15269803Y-10249318D01*
X15269803Y-10249318D02*
X15288850Y-10239794D01*
X15288850Y-10239794D02*
X15336470Y-10239794D01*
X15336470Y-10239794D02*
X15355517Y-10230270D01*
X15450755Y-10182651D02*
X15450755Y-10382651D01*
X15450755Y-10192175D02*
X15469803Y-10182651D01*
X15469803Y-10182651D02*
X15507898Y-10182651D01*
X15507898Y-10182651D02*
X15526946Y-10192175D01*
X15526946Y-10192175D02*
X15536470Y-10201699D01*
X15536470Y-10201699D02*
X15545993Y-10220746D01*
X15545993Y-10220746D02*
X15545993Y-10277889D01*
X15545993Y-10277889D02*
X15536470Y-10296937D01*
X15536470Y-10296937D02*
X15526946Y-10306461D01*
X15526946Y-10306461D02*
X15507898Y-10315985D01*
X15507898Y-10315985D02*
X15469803Y-10315985D01*
X15469803Y-10315985D02*
X15450755Y-10306461D01*
X15631708Y-10296937D02*
X15641231Y-10306461D01*
X15641231Y-10306461D02*
X15631708Y-10315985D01*
X15631708Y-10315985D02*
X15622184Y-10306461D01*
X15622184Y-10306461D02*
X15631708Y-10296937D01*
X15631708Y-10296937D02*
X15631708Y-10315985D01*
X15631708Y-10192175D02*
X15641231Y-10201699D01*
X15641231Y-10201699D02*
X15631708Y-10211223D01*
X15631708Y-10211223D02*
X15622184Y-10201699D01*
X15622184Y-10201699D02*
X15631708Y-10192175D01*
X15631708Y-10192175D02*
X15631708Y-10211223D01*
D12*
X13969502Y-10629501D02*
X13999502Y-10659501D01*
X13999502Y-10629501D02*
X13969502Y-10659501D01*
D11*
X14298374Y-10535985D02*
X14317422Y-10535985D01*
X14317422Y-10535985D02*
X14336470Y-10545508D01*
X14336470Y-10545508D02*
X14345993Y-10555032D01*
X14345993Y-10555032D02*
X14355517Y-10574080D01*
X14355517Y-10574080D02*
X14365041Y-10612175D01*
X14365041Y-10612175D02*
X14365041Y-10659794D01*
X14365041Y-10659794D02*
X14355517Y-10697889D01*
X14355517Y-10697889D02*
X14345993Y-10716937D01*
X14345993Y-10716937D02*
X14336470Y-10726461D01*
X14336470Y-10726461D02*
X14317422Y-10735985D01*
X14317422Y-10735985D02*
X14298374Y-10735985D01*
X14298374Y-10735985D02*
X14279327Y-10726461D01*
X14279327Y-10726461D02*
X14269803Y-10716937D01*
X14269803Y-10716937D02*
X14260279Y-10697889D01*
X14260279Y-10697889D02*
X14250755Y-10659794D01*
X14250755Y-10659794D02*
X14250755Y-10612175D01*
X14250755Y-10612175D02*
X14260279Y-10574080D01*
X14260279Y-10574080D02*
X14269803Y-10555032D01*
X14269803Y-10555032D02*
X14279327Y-10545508D01*
X14279327Y-10545508D02*
X14298374Y-10535985D01*
X14450755Y-10716937D02*
X14460279Y-10726461D01*
X14460279Y-10726461D02*
X14450755Y-10735985D01*
X14450755Y-10735985D02*
X14441231Y-10726461D01*
X14441231Y-10726461D02*
X14450755Y-10716937D01*
X14450755Y-10716937D02*
X14450755Y-10735985D01*
X14526946Y-10535985D02*
X14650755Y-10535985D01*
X14650755Y-10535985D02*
X14584089Y-10612175D01*
X14584089Y-10612175D02*
X14612660Y-10612175D01*
X14612660Y-10612175D02*
X14631708Y-10621699D01*
X14631708Y-10621699D02*
X14641231Y-10631223D01*
X14641231Y-10631223D02*
X14650755Y-10650270D01*
X14650755Y-10650270D02*
X14650755Y-10697889D01*
X14650755Y-10697889D02*
X14641231Y-10716937D01*
X14641231Y-10716937D02*
X14631708Y-10726461D01*
X14631708Y-10726461D02*
X14612660Y-10735985D01*
X14612660Y-10735985D02*
X14555517Y-10735985D01*
X14555517Y-10735985D02*
X14536470Y-10726461D01*
X14536470Y-10726461D02*
X14526946Y-10716937D01*
X14774565Y-10535985D02*
X14793612Y-10535985D01*
X14793612Y-10535985D02*
X14812660Y-10545508D01*
X14812660Y-10545508D02*
X14822184Y-10555032D01*
X14822184Y-10555032D02*
X14831708Y-10574080D01*
X14831708Y-10574080D02*
X14841231Y-10612175D01*
X14841231Y-10612175D02*
X14841231Y-10659794D01*
X14841231Y-10659794D02*
X14831708Y-10697889D01*
X14831708Y-10697889D02*
X14822184Y-10716937D01*
X14822184Y-10716937D02*
X14812660Y-10726461D01*
X14812660Y-10726461D02*
X14793612Y-10735985D01*
X14793612Y-10735985D02*
X14774565Y-10735985D01*
X14774565Y-10735985D02*
X14755517Y-10726461D01*
X14755517Y-10726461D02*
X14745993Y-10716937D01*
X14745993Y-10716937D02*
X14736470Y-10697889D01*
X14736470Y-10697889D02*
X14726946Y-10659794D01*
X14726946Y-10659794D02*
X14726946Y-10612175D01*
X14726946Y-10612175D02*
X14736470Y-10574080D01*
X14736470Y-10574080D02*
X14745993Y-10555032D01*
X14745993Y-10555032D02*
X14755517Y-10545508D01*
X14755517Y-10545508D02*
X14774565Y-10535985D01*
X14965041Y-10535985D02*
X14984089Y-10535985D01*
X14984089Y-10535985D02*
X15003136Y-10545508D01*
X15003136Y-10545508D02*
X15012660Y-10555032D01*
X15012660Y-10555032D02*
X15022184Y-10574080D01*
X15022184Y-10574080D02*
X15031708Y-10612175D01*
X15031708Y-10612175D02*
X15031708Y-10659794D01*
X15031708Y-10659794D02*
X15022184Y-10697889D01*
X15022184Y-10697889D02*
X15012660Y-10716937D01*
X15012660Y-10716937D02*
X15003136Y-10726461D01*
X15003136Y-10726461D02*
X14984089Y-10735985D01*
X14984089Y-10735985D02*
X14965041Y-10735985D01*
X14965041Y-10735985D02*
X14945993Y-10726461D01*
X14945993Y-10726461D02*
X14936470Y-10716937D01*
X14936470Y-10716937D02*
X14926946Y-10697889D01*
X14926946Y-10697889D02*
X14917422Y-10659794D01*
X14917422Y-10659794D02*
X14917422Y-10612175D01*
X14917422Y-10612175D02*
X14926946Y-10574080D01*
X14926946Y-10574080D02*
X14936470Y-10555032D01*
X14936470Y-10555032D02*
X14945993Y-10545508D01*
X14945993Y-10545508D02*
X14965041Y-10535985D01*
X15117422Y-10735985D02*
X15117422Y-10602651D01*
X15117422Y-10621699D02*
X15126946Y-10612175D01*
X15126946Y-10612175D02*
X15145993Y-10602651D01*
X15145993Y-10602651D02*
X15174565Y-10602651D01*
X15174565Y-10602651D02*
X15193612Y-10612175D01*
X15193612Y-10612175D02*
X15203136Y-10631223D01*
X15203136Y-10631223D02*
X15203136Y-10735985D01*
X15203136Y-10631223D02*
X15212660Y-10612175D01*
X15212660Y-10612175D02*
X15231708Y-10602651D01*
X15231708Y-10602651D02*
X15260279Y-10602651D01*
X15260279Y-10602651D02*
X15279327Y-10612175D01*
X15279327Y-10612175D02*
X15288851Y-10631223D01*
X15288851Y-10631223D02*
X15288851Y-10735985D01*
X15384089Y-10735985D02*
X15384089Y-10602651D01*
X15384089Y-10621699D02*
X15393612Y-10612175D01*
X15393612Y-10612175D02*
X15412660Y-10602651D01*
X15412660Y-10602651D02*
X15441232Y-10602651D01*
X15441232Y-10602651D02*
X15460279Y-10612175D01*
X15460279Y-10612175D02*
X15469803Y-10631223D01*
X15469803Y-10631223D02*
X15469803Y-10735985D01*
X15469803Y-10631223D02*
X15479327Y-10612175D01*
X15479327Y-10612175D02*
X15498374Y-10602651D01*
X15498374Y-10602651D02*
X15526946Y-10602651D01*
X15526946Y-10602651D02*
X15545993Y-10612175D01*
X15545993Y-10612175D02*
X15555517Y-10631223D01*
X15555517Y-10631223D02*
X15555517Y-10735985D01*
X15945993Y-10526461D02*
X15774565Y-10783604D01*
X16203136Y-10535985D02*
X16222184Y-10535985D01*
X16222184Y-10535985D02*
X16241232Y-10545508D01*
X16241232Y-10545508D02*
X16250755Y-10555032D01*
X16250755Y-10555032D02*
X16260279Y-10574080D01*
X16260279Y-10574080D02*
X16269803Y-10612175D01*
X16269803Y-10612175D02*
X16269803Y-10659794D01*
X16269803Y-10659794D02*
X16260279Y-10697889D01*
X16260279Y-10697889D02*
X16250755Y-10716937D01*
X16250755Y-10716937D02*
X16241232Y-10726461D01*
X16241232Y-10726461D02*
X16222184Y-10735985D01*
X16222184Y-10735985D02*
X16203136Y-10735985D01*
X16203136Y-10735985D02*
X16184089Y-10726461D01*
X16184089Y-10726461D02*
X16174565Y-10716937D01*
X16174565Y-10716937D02*
X16165041Y-10697889D01*
X16165041Y-10697889D02*
X16155517Y-10659794D01*
X16155517Y-10659794D02*
X16155517Y-10612175D01*
X16155517Y-10612175D02*
X16165041Y-10574080D01*
X16165041Y-10574080D02*
X16174565Y-10555032D01*
X16174565Y-10555032D02*
X16184089Y-10545508D01*
X16184089Y-10545508D02*
X16203136Y-10535985D01*
X16355517Y-10716937D02*
X16365041Y-10726461D01*
X16365041Y-10726461D02*
X16355517Y-10735985D01*
X16355517Y-10735985D02*
X16345994Y-10726461D01*
X16345994Y-10726461D02*
X16355517Y-10716937D01*
X16355517Y-10716937D02*
X16355517Y-10735985D01*
X16488851Y-10535985D02*
X16507898Y-10535985D01*
X16507898Y-10535985D02*
X16526946Y-10545508D01*
X16526946Y-10545508D02*
X16536470Y-10555032D01*
X16536470Y-10555032D02*
X16545994Y-10574080D01*
X16545994Y-10574080D02*
X16555517Y-10612175D01*
X16555517Y-10612175D02*
X16555517Y-10659794D01*
X16555517Y-10659794D02*
X16545994Y-10697889D01*
X16545994Y-10697889D02*
X16536470Y-10716937D01*
X16536470Y-10716937D02*
X16526946Y-10726461D01*
X16526946Y-10726461D02*
X16507898Y-10735985D01*
X16507898Y-10735985D02*
X16488851Y-10735985D01*
X16488851Y-10735985D02*
X16469803Y-10726461D01*
X16469803Y-10726461D02*
X16460279Y-10716937D01*
X16460279Y-10716937D02*
X16450755Y-10697889D01*
X16450755Y-10697889D02*
X16441232Y-10659794D01*
X16441232Y-10659794D02*
X16441232Y-10612175D01*
X16441232Y-10612175D02*
X16450755Y-10574080D01*
X16450755Y-10574080D02*
X16460279Y-10555032D01*
X16460279Y-10555032D02*
X16469803Y-10545508D01*
X16469803Y-10545508D02*
X16488851Y-10535985D01*
X16745994Y-10735985D02*
X16631708Y-10735985D01*
X16688851Y-10735985D02*
X16688851Y-10535985D01*
X16688851Y-10535985D02*
X16669803Y-10564556D01*
X16669803Y-10564556D02*
X16650755Y-10583604D01*
X16650755Y-10583604D02*
X16631708Y-10593127D01*
X16936470Y-10735985D02*
X16822184Y-10735985D01*
X16879327Y-10735985D02*
X16879327Y-10535985D01*
X16879327Y-10535985D02*
X16860279Y-10564556D01*
X16860279Y-10564556D02*
X16841232Y-10583604D01*
X16841232Y-10583604D02*
X16822184Y-10593127D01*
X17050756Y-10621699D02*
X17031708Y-10612175D01*
X17031708Y-10612175D02*
X17022184Y-10602651D01*
X17022184Y-10602651D02*
X17012660Y-10583604D01*
X17012660Y-10583604D02*
X17012660Y-10574080D01*
X17012660Y-10574080D02*
X17022184Y-10555032D01*
X17022184Y-10555032D02*
X17031708Y-10545508D01*
X17031708Y-10545508D02*
X17050756Y-10535985D01*
X17050756Y-10535985D02*
X17088851Y-10535985D01*
X17088851Y-10535985D02*
X17107898Y-10545508D01*
X17107898Y-10545508D02*
X17117422Y-10555032D01*
X17117422Y-10555032D02*
X17126946Y-10574080D01*
X17126946Y-10574080D02*
X17126946Y-10583604D01*
X17126946Y-10583604D02*
X17117422Y-10602651D01*
X17117422Y-10602651D02*
X17107898Y-10612175D01*
X17107898Y-10612175D02*
X17088851Y-10621699D01*
X17088851Y-10621699D02*
X17050756Y-10621699D01*
X17050756Y-10621699D02*
X17031708Y-10631223D01*
X17031708Y-10631223D02*
X17022184Y-10640746D01*
X17022184Y-10640746D02*
X17012660Y-10659794D01*
X17012660Y-10659794D02*
X17012660Y-10697889D01*
X17012660Y-10697889D02*
X17022184Y-10716937D01*
X17022184Y-10716937D02*
X17031708Y-10726461D01*
X17031708Y-10726461D02*
X17050756Y-10735985D01*
X17050756Y-10735985D02*
X17088851Y-10735985D01*
X17088851Y-10735985D02*
X17107898Y-10726461D01*
X17107898Y-10726461D02*
X17117422Y-10716937D01*
X17117422Y-10716937D02*
X17126946Y-10697889D01*
X17126946Y-10697889D02*
X17126946Y-10659794D01*
X17126946Y-10659794D02*
X17117422Y-10640746D01*
X17117422Y-10640746D02*
X17107898Y-10631223D01*
X17107898Y-10631223D02*
X17088851Y-10621699D01*
X17203137Y-10535985D02*
X17203137Y-10574080D01*
X17279327Y-10535985D02*
X17279327Y-10574080D01*
X17574565Y-10812175D02*
X17565041Y-10802651D01*
X17565041Y-10802651D02*
X17545994Y-10774080D01*
X17545994Y-10774080D02*
X17536470Y-10755032D01*
X17536470Y-10755032D02*
X17526946Y-10726461D01*
X17526946Y-10726461D02*
X17517422Y-10678842D01*
X17517422Y-10678842D02*
X17517422Y-10640746D01*
X17517422Y-10640746D02*
X17526946Y-10593127D01*
X17526946Y-10593127D02*
X17536470Y-10564556D01*
X17536470Y-10564556D02*
X17545994Y-10545508D01*
X17545994Y-10545508D02*
X17565041Y-10516937D01*
X17565041Y-10516937D02*
X17574565Y-10507413D01*
X17755518Y-10735985D02*
X17641232Y-10735985D01*
X17698375Y-10735985D02*
X17698375Y-10535985D01*
X17698375Y-10535985D02*
X17679327Y-10564556D01*
X17679327Y-10564556D02*
X17660279Y-10583604D01*
X17660279Y-10583604D02*
X17641232Y-10593127D01*
X17831708Y-10555032D02*
X17841232Y-10545508D01*
X17841232Y-10545508D02*
X17860279Y-10535985D01*
X17860279Y-10535985D02*
X17907899Y-10535985D01*
X17907899Y-10535985D02*
X17926946Y-10545508D01*
X17926946Y-10545508D02*
X17936470Y-10555032D01*
X17936470Y-10555032D02*
X17945994Y-10574080D01*
X17945994Y-10574080D02*
X17945994Y-10593127D01*
X17945994Y-10593127D02*
X17936470Y-10621699D01*
X17936470Y-10621699D02*
X17822184Y-10735985D01*
X17822184Y-10735985D02*
X17945994Y-10735985D01*
X18184089Y-10735985D02*
X18184089Y-10535985D01*
X18269803Y-10735985D02*
X18269803Y-10631223D01*
X18269803Y-10631223D02*
X18260280Y-10612175D01*
X18260280Y-10612175D02*
X18241232Y-10602651D01*
X18241232Y-10602651D02*
X18212660Y-10602651D01*
X18212660Y-10602651D02*
X18193613Y-10612175D01*
X18193613Y-10612175D02*
X18184089Y-10621699D01*
X18393613Y-10735985D02*
X18374565Y-10726461D01*
X18374565Y-10726461D02*
X18365041Y-10716937D01*
X18365041Y-10716937D02*
X18355518Y-10697889D01*
X18355518Y-10697889D02*
X18355518Y-10640746D01*
X18355518Y-10640746D02*
X18365041Y-10621699D01*
X18365041Y-10621699D02*
X18374565Y-10612175D01*
X18374565Y-10612175D02*
X18393613Y-10602651D01*
X18393613Y-10602651D02*
X18422184Y-10602651D01*
X18422184Y-10602651D02*
X18441232Y-10612175D01*
X18441232Y-10612175D02*
X18450756Y-10621699D01*
X18450756Y-10621699D02*
X18460280Y-10640746D01*
X18460280Y-10640746D02*
X18460280Y-10697889D01*
X18460280Y-10697889D02*
X18450756Y-10716937D01*
X18450756Y-10716937D02*
X18441232Y-10726461D01*
X18441232Y-10726461D02*
X18422184Y-10735985D01*
X18422184Y-10735985D02*
X18393613Y-10735985D01*
X18574565Y-10735985D02*
X18555518Y-10726461D01*
X18555518Y-10726461D02*
X18545994Y-10707413D01*
X18545994Y-10707413D02*
X18545994Y-10535985D01*
X18726946Y-10726461D02*
X18707899Y-10735985D01*
X18707899Y-10735985D02*
X18669803Y-10735985D01*
X18669803Y-10735985D02*
X18650756Y-10726461D01*
X18650756Y-10726461D02*
X18641232Y-10707413D01*
X18641232Y-10707413D02*
X18641232Y-10631223D01*
X18641232Y-10631223D02*
X18650756Y-10612175D01*
X18650756Y-10612175D02*
X18669803Y-10602651D01*
X18669803Y-10602651D02*
X18707899Y-10602651D01*
X18707899Y-10602651D02*
X18726946Y-10612175D01*
X18726946Y-10612175D02*
X18736470Y-10631223D01*
X18736470Y-10631223D02*
X18736470Y-10650270D01*
X18736470Y-10650270D02*
X18641232Y-10669318D01*
X18812661Y-10726461D02*
X18831708Y-10735985D01*
X18831708Y-10735985D02*
X18869803Y-10735985D01*
X18869803Y-10735985D02*
X18888851Y-10726461D01*
X18888851Y-10726461D02*
X18898375Y-10707413D01*
X18898375Y-10707413D02*
X18898375Y-10697889D01*
X18898375Y-10697889D02*
X18888851Y-10678842D01*
X18888851Y-10678842D02*
X18869803Y-10669318D01*
X18869803Y-10669318D02*
X18841232Y-10669318D01*
X18841232Y-10669318D02*
X18822184Y-10659794D01*
X18822184Y-10659794D02*
X18812661Y-10640746D01*
X18812661Y-10640746D02*
X18812661Y-10631223D01*
X18812661Y-10631223D02*
X18822184Y-10612175D01*
X18822184Y-10612175D02*
X18841232Y-10602651D01*
X18841232Y-10602651D02*
X18869803Y-10602651D01*
X18869803Y-10602651D02*
X18888851Y-10612175D01*
X18965042Y-10812175D02*
X18974565Y-10802651D01*
X18974565Y-10802651D02*
X18993613Y-10774080D01*
X18993613Y-10774080D02*
X19003137Y-10755032D01*
X19003137Y-10755032D02*
X19012661Y-10726461D01*
X19012661Y-10726461D02*
X19022184Y-10678842D01*
X19022184Y-10678842D02*
X19022184Y-10640746D01*
X19022184Y-10640746D02*
X19012661Y-10593127D01*
X19012661Y-10593127D02*
X19003137Y-10564556D01*
X19003137Y-10564556D02*
X18993613Y-10545508D01*
X18993613Y-10545508D02*
X18974565Y-10516937D01*
X18974565Y-10516937D02*
X18965042Y-10507413D01*
D12*
X13999502Y-10908501D02*
G75*
G02*
X13959502Y-10908501I-20000J0D01*
G01*
X13959502Y-10908501D02*
G75*
G02*
X13999502Y-10908501I20000J0D01*
G01*
D11*
X14298374Y-10799985D02*
X14317422Y-10799985D01*
X14317422Y-10799985D02*
X14336470Y-10809508D01*
X14336470Y-10809508D02*
X14345993Y-10819032D01*
X14345993Y-10819032D02*
X14355517Y-10838080D01*
X14355517Y-10838080D02*
X14365041Y-10876175D01*
X14365041Y-10876175D02*
X14365041Y-10923794D01*
X14365041Y-10923794D02*
X14355517Y-10961889D01*
X14355517Y-10961889D02*
X14345993Y-10980937D01*
X14345993Y-10980937D02*
X14336470Y-10990461D01*
X14336470Y-10990461D02*
X14317422Y-10999985D01*
X14317422Y-10999985D02*
X14298374Y-10999985D01*
X14298374Y-10999985D02*
X14279327Y-10990461D01*
X14279327Y-10990461D02*
X14269803Y-10980937D01*
X14269803Y-10980937D02*
X14260279Y-10961889D01*
X14260279Y-10961889D02*
X14250755Y-10923794D01*
X14250755Y-10923794D02*
X14250755Y-10876175D01*
X14250755Y-10876175D02*
X14260279Y-10838080D01*
X14260279Y-10838080D02*
X14269803Y-10819032D01*
X14269803Y-10819032D02*
X14279327Y-10809508D01*
X14279327Y-10809508D02*
X14298374Y-10799985D01*
X14450755Y-10980937D02*
X14460279Y-10990461D01*
X14460279Y-10990461D02*
X14450755Y-10999985D01*
X14450755Y-10999985D02*
X14441231Y-10990461D01*
X14441231Y-10990461D02*
X14450755Y-10980937D01*
X14450755Y-10980937D02*
X14450755Y-10999985D01*
X14631708Y-10866651D02*
X14631708Y-10999985D01*
X14584089Y-10790461D02*
X14536470Y-10933318D01*
X14536470Y-10933318D02*
X14660279Y-10933318D01*
X14774565Y-10799985D02*
X14793612Y-10799985D01*
X14793612Y-10799985D02*
X14812660Y-10809508D01*
X14812660Y-10809508D02*
X14822184Y-10819032D01*
X14822184Y-10819032D02*
X14831708Y-10838080D01*
X14831708Y-10838080D02*
X14841231Y-10876175D01*
X14841231Y-10876175D02*
X14841231Y-10923794D01*
X14841231Y-10923794D02*
X14831708Y-10961889D01*
X14831708Y-10961889D02*
X14822184Y-10980937D01*
X14822184Y-10980937D02*
X14812660Y-10990461D01*
X14812660Y-10990461D02*
X14793612Y-10999985D01*
X14793612Y-10999985D02*
X14774565Y-10999985D01*
X14774565Y-10999985D02*
X14755517Y-10990461D01*
X14755517Y-10990461D02*
X14745993Y-10980937D01*
X14745993Y-10980937D02*
X14736470Y-10961889D01*
X14736470Y-10961889D02*
X14726946Y-10923794D01*
X14726946Y-10923794D02*
X14726946Y-10876175D01*
X14726946Y-10876175D02*
X14736470Y-10838080D01*
X14736470Y-10838080D02*
X14745993Y-10819032D01*
X14745993Y-10819032D02*
X14755517Y-10809508D01*
X14755517Y-10809508D02*
X14774565Y-10799985D01*
X14965041Y-10799985D02*
X14984089Y-10799985D01*
X14984089Y-10799985D02*
X15003136Y-10809508D01*
X15003136Y-10809508D02*
X15012660Y-10819032D01*
X15012660Y-10819032D02*
X15022184Y-10838080D01*
X15022184Y-10838080D02*
X15031708Y-10876175D01*
X15031708Y-10876175D02*
X15031708Y-10923794D01*
X15031708Y-10923794D02*
X15022184Y-10961889D01*
X15022184Y-10961889D02*
X15012660Y-10980937D01*
X15012660Y-10980937D02*
X15003136Y-10990461D01*
X15003136Y-10990461D02*
X14984089Y-10999985D01*
X14984089Y-10999985D02*
X14965041Y-10999985D01*
X14965041Y-10999985D02*
X14945993Y-10990461D01*
X14945993Y-10990461D02*
X14936470Y-10980937D01*
X14936470Y-10980937D02*
X14926946Y-10961889D01*
X14926946Y-10961889D02*
X14917422Y-10923794D01*
X14917422Y-10923794D02*
X14917422Y-10876175D01*
X14917422Y-10876175D02*
X14926946Y-10838080D01*
X14926946Y-10838080D02*
X14936470Y-10819032D01*
X14936470Y-10819032D02*
X14945993Y-10809508D01*
X14945993Y-10809508D02*
X14965041Y-10799985D01*
X15117422Y-10999985D02*
X15117422Y-10866651D01*
X15117422Y-10885699D02*
X15126946Y-10876175D01*
X15126946Y-10876175D02*
X15145993Y-10866651D01*
X15145993Y-10866651D02*
X15174565Y-10866651D01*
X15174565Y-10866651D02*
X15193612Y-10876175D01*
X15193612Y-10876175D02*
X15203136Y-10895223D01*
X15203136Y-10895223D02*
X15203136Y-10999985D01*
X15203136Y-10895223D02*
X15212660Y-10876175D01*
X15212660Y-10876175D02*
X15231708Y-10866651D01*
X15231708Y-10866651D02*
X15260279Y-10866651D01*
X15260279Y-10866651D02*
X15279327Y-10876175D01*
X15279327Y-10876175D02*
X15288851Y-10895223D01*
X15288851Y-10895223D02*
X15288851Y-10999985D01*
X15384089Y-10999985D02*
X15384089Y-10866651D01*
X15384089Y-10885699D02*
X15393612Y-10876175D01*
X15393612Y-10876175D02*
X15412660Y-10866651D01*
X15412660Y-10866651D02*
X15441232Y-10866651D01*
X15441232Y-10866651D02*
X15460279Y-10876175D01*
X15460279Y-10876175D02*
X15469803Y-10895223D01*
X15469803Y-10895223D02*
X15469803Y-10999985D01*
X15469803Y-10895223D02*
X15479327Y-10876175D01*
X15479327Y-10876175D02*
X15498374Y-10866651D01*
X15498374Y-10866651D02*
X15526946Y-10866651D01*
X15526946Y-10866651D02*
X15545993Y-10876175D01*
X15545993Y-10876175D02*
X15555517Y-10895223D01*
X15555517Y-10895223D02*
X15555517Y-10999985D01*
X15945993Y-10790461D02*
X15774565Y-11047604D01*
X16203136Y-10799985D02*
X16222184Y-10799985D01*
X16222184Y-10799985D02*
X16241232Y-10809508D01*
X16241232Y-10809508D02*
X16250755Y-10819032D01*
X16250755Y-10819032D02*
X16260279Y-10838080D01*
X16260279Y-10838080D02*
X16269803Y-10876175D01*
X16269803Y-10876175D02*
X16269803Y-10923794D01*
X16269803Y-10923794D02*
X16260279Y-10961889D01*
X16260279Y-10961889D02*
X16250755Y-10980937D01*
X16250755Y-10980937D02*
X16241232Y-10990461D01*
X16241232Y-10990461D02*
X16222184Y-10999985D01*
X16222184Y-10999985D02*
X16203136Y-10999985D01*
X16203136Y-10999985D02*
X16184089Y-10990461D01*
X16184089Y-10990461D02*
X16174565Y-10980937D01*
X16174565Y-10980937D02*
X16165041Y-10961889D01*
X16165041Y-10961889D02*
X16155517Y-10923794D01*
X16155517Y-10923794D02*
X16155517Y-10876175D01*
X16155517Y-10876175D02*
X16165041Y-10838080D01*
X16165041Y-10838080D02*
X16174565Y-10819032D01*
X16174565Y-10819032D02*
X16184089Y-10809508D01*
X16184089Y-10809508D02*
X16203136Y-10799985D01*
X16355517Y-10980937D02*
X16365041Y-10990461D01*
X16365041Y-10990461D02*
X16355517Y-10999985D01*
X16355517Y-10999985D02*
X16345994Y-10990461D01*
X16345994Y-10990461D02*
X16355517Y-10980937D01*
X16355517Y-10980937D02*
X16355517Y-10999985D01*
X16488851Y-10799985D02*
X16507898Y-10799985D01*
X16507898Y-10799985D02*
X16526946Y-10809508D01*
X16526946Y-10809508D02*
X16536470Y-10819032D01*
X16536470Y-10819032D02*
X16545994Y-10838080D01*
X16545994Y-10838080D02*
X16555517Y-10876175D01*
X16555517Y-10876175D02*
X16555517Y-10923794D01*
X16555517Y-10923794D02*
X16545994Y-10961889D01*
X16545994Y-10961889D02*
X16536470Y-10980937D01*
X16536470Y-10980937D02*
X16526946Y-10990461D01*
X16526946Y-10990461D02*
X16507898Y-10999985D01*
X16507898Y-10999985D02*
X16488851Y-10999985D01*
X16488851Y-10999985D02*
X16469803Y-10990461D01*
X16469803Y-10990461D02*
X16460279Y-10980937D01*
X16460279Y-10980937D02*
X16450755Y-10961889D01*
X16450755Y-10961889D02*
X16441232Y-10923794D01*
X16441232Y-10923794D02*
X16441232Y-10876175D01*
X16441232Y-10876175D02*
X16450755Y-10838080D01*
X16450755Y-10838080D02*
X16460279Y-10819032D01*
X16460279Y-10819032D02*
X16469803Y-10809508D01*
X16469803Y-10809508D02*
X16488851Y-10799985D01*
X16745994Y-10999985D02*
X16631708Y-10999985D01*
X16688851Y-10999985D02*
X16688851Y-10799985D01*
X16688851Y-10799985D02*
X16669803Y-10828556D01*
X16669803Y-10828556D02*
X16650755Y-10847604D01*
X16650755Y-10847604D02*
X16631708Y-10857127D01*
X16926946Y-10799985D02*
X16831708Y-10799985D01*
X16831708Y-10799985D02*
X16822184Y-10895223D01*
X16822184Y-10895223D02*
X16831708Y-10885699D01*
X16831708Y-10885699D02*
X16850756Y-10876175D01*
X16850756Y-10876175D02*
X16898375Y-10876175D01*
X16898375Y-10876175D02*
X16917422Y-10885699D01*
X16917422Y-10885699D02*
X16926946Y-10895223D01*
X16926946Y-10895223D02*
X16936470Y-10914270D01*
X16936470Y-10914270D02*
X16936470Y-10961889D01*
X16936470Y-10961889D02*
X16926946Y-10980937D01*
X16926946Y-10980937D02*
X16917422Y-10990461D01*
X16917422Y-10990461D02*
X16898375Y-10999985D01*
X16898375Y-10999985D02*
X16850756Y-10999985D01*
X16850756Y-10999985D02*
X16831708Y-10990461D01*
X16831708Y-10990461D02*
X16822184Y-10980937D01*
X17003137Y-10799985D02*
X17136470Y-10799985D01*
X17136470Y-10799985D02*
X17050756Y-10999985D01*
X17203137Y-10799985D02*
X17203137Y-10838080D01*
X17279327Y-10799985D02*
X17279327Y-10838080D01*
X17574565Y-11076175D02*
X17565041Y-11066651D01*
X17565041Y-11066651D02*
X17545994Y-11038080D01*
X17545994Y-11038080D02*
X17536470Y-11019032D01*
X17536470Y-11019032D02*
X17526946Y-10990461D01*
X17526946Y-10990461D02*
X17517422Y-10942842D01*
X17517422Y-10942842D02*
X17517422Y-10904746D01*
X17517422Y-10904746D02*
X17526946Y-10857127D01*
X17526946Y-10857127D02*
X17536470Y-10828556D01*
X17536470Y-10828556D02*
X17545994Y-10809508D01*
X17545994Y-10809508D02*
X17565041Y-10780937D01*
X17565041Y-10780937D02*
X17574565Y-10771413D01*
X17631708Y-10799985D02*
X17755518Y-10799985D01*
X17755518Y-10799985D02*
X17688851Y-10876175D01*
X17688851Y-10876175D02*
X17717422Y-10876175D01*
X17717422Y-10876175D02*
X17736470Y-10885699D01*
X17736470Y-10885699D02*
X17745994Y-10895223D01*
X17745994Y-10895223D02*
X17755518Y-10914270D01*
X17755518Y-10914270D02*
X17755518Y-10961889D01*
X17755518Y-10961889D02*
X17745994Y-10980937D01*
X17745994Y-10980937D02*
X17736470Y-10990461D01*
X17736470Y-10990461D02*
X17717422Y-10999985D01*
X17717422Y-10999985D02*
X17660279Y-10999985D01*
X17660279Y-10999985D02*
X17641232Y-10990461D01*
X17641232Y-10990461D02*
X17631708Y-10980937D01*
X17869803Y-10885699D02*
X17850756Y-10876175D01*
X17850756Y-10876175D02*
X17841232Y-10866651D01*
X17841232Y-10866651D02*
X17831708Y-10847604D01*
X17831708Y-10847604D02*
X17831708Y-10838080D01*
X17831708Y-10838080D02*
X17841232Y-10819032D01*
X17841232Y-10819032D02*
X17850756Y-10809508D01*
X17850756Y-10809508D02*
X17869803Y-10799985D01*
X17869803Y-10799985D02*
X17907899Y-10799985D01*
X17907899Y-10799985D02*
X17926946Y-10809508D01*
X17926946Y-10809508D02*
X17936470Y-10819032D01*
X17936470Y-10819032D02*
X17945994Y-10838080D01*
X17945994Y-10838080D02*
X17945994Y-10847604D01*
X17945994Y-10847604D02*
X17936470Y-10866651D01*
X17936470Y-10866651D02*
X17926946Y-10876175D01*
X17926946Y-10876175D02*
X17907899Y-10885699D01*
X17907899Y-10885699D02*
X17869803Y-10885699D01*
X17869803Y-10885699D02*
X17850756Y-10895223D01*
X17850756Y-10895223D02*
X17841232Y-10904746D01*
X17841232Y-10904746D02*
X17831708Y-10923794D01*
X17831708Y-10923794D02*
X17831708Y-10961889D01*
X17831708Y-10961889D02*
X17841232Y-10980937D01*
X17841232Y-10980937D02*
X17850756Y-10990461D01*
X17850756Y-10990461D02*
X17869803Y-10999985D01*
X17869803Y-10999985D02*
X17907899Y-10999985D01*
X17907899Y-10999985D02*
X17926946Y-10990461D01*
X17926946Y-10990461D02*
X17936470Y-10980937D01*
X17936470Y-10980937D02*
X17945994Y-10961889D01*
X17945994Y-10961889D02*
X17945994Y-10923794D01*
X17945994Y-10923794D02*
X17936470Y-10904746D01*
X17936470Y-10904746D02*
X17926946Y-10895223D01*
X17926946Y-10895223D02*
X17907899Y-10885699D01*
X18184089Y-10999985D02*
X18184089Y-10799985D01*
X18269803Y-10999985D02*
X18269803Y-10895223D01*
X18269803Y-10895223D02*
X18260280Y-10876175D01*
X18260280Y-10876175D02*
X18241232Y-10866651D01*
X18241232Y-10866651D02*
X18212660Y-10866651D01*
X18212660Y-10866651D02*
X18193613Y-10876175D01*
X18193613Y-10876175D02*
X18184089Y-10885699D01*
X18393613Y-10999985D02*
X18374565Y-10990461D01*
X18374565Y-10990461D02*
X18365041Y-10980937D01*
X18365041Y-10980937D02*
X18355518Y-10961889D01*
X18355518Y-10961889D02*
X18355518Y-10904746D01*
X18355518Y-10904746D02*
X18365041Y-10885699D01*
X18365041Y-10885699D02*
X18374565Y-10876175D01*
X18374565Y-10876175D02*
X18393613Y-10866651D01*
X18393613Y-10866651D02*
X18422184Y-10866651D01*
X18422184Y-10866651D02*
X18441232Y-10876175D01*
X18441232Y-10876175D02*
X18450756Y-10885699D01*
X18450756Y-10885699D02*
X18460280Y-10904746D01*
X18460280Y-10904746D02*
X18460280Y-10961889D01*
X18460280Y-10961889D02*
X18450756Y-10980937D01*
X18450756Y-10980937D02*
X18441232Y-10990461D01*
X18441232Y-10990461D02*
X18422184Y-10999985D01*
X18422184Y-10999985D02*
X18393613Y-10999985D01*
X18574565Y-10999985D02*
X18555518Y-10990461D01*
X18555518Y-10990461D02*
X18545994Y-10971413D01*
X18545994Y-10971413D02*
X18545994Y-10799985D01*
X18726946Y-10990461D02*
X18707899Y-10999985D01*
X18707899Y-10999985D02*
X18669803Y-10999985D01*
X18669803Y-10999985D02*
X18650756Y-10990461D01*
X18650756Y-10990461D02*
X18641232Y-10971413D01*
X18641232Y-10971413D02*
X18641232Y-10895223D01*
X18641232Y-10895223D02*
X18650756Y-10876175D01*
X18650756Y-10876175D02*
X18669803Y-10866651D01*
X18669803Y-10866651D02*
X18707899Y-10866651D01*
X18707899Y-10866651D02*
X18726946Y-10876175D01*
X18726946Y-10876175D02*
X18736470Y-10895223D01*
X18736470Y-10895223D02*
X18736470Y-10914270D01*
X18736470Y-10914270D02*
X18641232Y-10933318D01*
X18812661Y-10990461D02*
X18831708Y-10999985D01*
X18831708Y-10999985D02*
X18869803Y-10999985D01*
X18869803Y-10999985D02*
X18888851Y-10990461D01*
X18888851Y-10990461D02*
X18898375Y-10971413D01*
X18898375Y-10971413D02*
X18898375Y-10961889D01*
X18898375Y-10961889D02*
X18888851Y-10942842D01*
X18888851Y-10942842D02*
X18869803Y-10933318D01*
X18869803Y-10933318D02*
X18841232Y-10933318D01*
X18841232Y-10933318D02*
X18822184Y-10923794D01*
X18822184Y-10923794D02*
X18812661Y-10904746D01*
X18812661Y-10904746D02*
X18812661Y-10895223D01*
X18812661Y-10895223D02*
X18822184Y-10876175D01*
X18822184Y-10876175D02*
X18841232Y-10866651D01*
X18841232Y-10866651D02*
X18869803Y-10866651D01*
X18869803Y-10866651D02*
X18888851Y-10876175D01*
X18965042Y-11076175D02*
X18974565Y-11066651D01*
X18974565Y-11066651D02*
X18993613Y-11038080D01*
X18993613Y-11038080D02*
X19003137Y-11019032D01*
X19003137Y-11019032D02*
X19012661Y-10990461D01*
X19012661Y-10990461D02*
X19022184Y-10942842D01*
X19022184Y-10942842D02*
X19022184Y-10904746D01*
X19022184Y-10904746D02*
X19012661Y-10857127D01*
X19012661Y-10857127D02*
X19003137Y-10828556D01*
X19003137Y-10828556D02*
X18993613Y-10809508D01*
X18993613Y-10809508D02*
X18974565Y-10780937D01*
X18974565Y-10780937D02*
X18965042Y-10771413D01*
M02*
