%TF.GenerationSoftware,KiCad,Pcbnew,9.0.7*%
%TF.CreationDate,2026-03-04T02:39:05+00:00*%
%TF.ProjectId,main-PCB,6d61696e-2d50-4434-922e-6b696361645f,rev?*%
%TF.SameCoordinates,Original*%
%TF.FileFunction,Copper,L3,Inr*%
%TF.FilePolarity,Positive*%
%FSLAX46Y46*%
G04 Gerber Fmt 4.6, Leading zero omitted, Abs format (unit mm)*
G04 Created by KiCad (PCBNEW 9.0.7) date 2026-03-04 02:39:05*
%MOMM*%
%LPD*%
G01*
G04 APERTURE LIST*
%TA.AperFunction,ViaPad*%
%ADD10C,0.600000*%
%TD*%
%TA.AperFunction,ViaPad*%
%ADD11C,0.450000*%
%TD*%
G04 APERTURE END LIST*
D10*
%TO.N,VCC*%
X150250000Y-98200000D03*
X158200000Y-89100000D03*
X141800000Y-89000000D03*
%TO.N,GND*%
X142500000Y-91300000D03*
X157300000Y-91300000D03*
X147100000Y-92500000D03*
%TO.N,Net-(Q4-D-Pad1)*%
X155700000Y-86300000D03*
%TO.N,GND*%
X155600000Y-83500000D03*
%TO.N,/LED_K*%
X147000000Y-86100000D03*
X155100000Y-87100000D03*
%TO.N,GND*%
X145000000Y-83000000D03*
X159000000Y-87000000D03*
X141000000Y-87000000D03*
X147300000Y-87000000D03*
X154200000Y-83100000D03*
X153000000Y-93300000D03*
X150000000Y-94200000D03*
X148200000Y-95800000D03*
X146300000Y-84400000D03*
X151400000Y-98000000D03*
D11*
%TO.N,/INT1*%
X151900000Y-93400000D03*
%TO.N,/INT2*%
X152400000Y-93900000D03*
%TO.N,GND*%
X151500000Y-86500000D03*
%TO.N,/INT1*%
X150500000Y-86100000D03*
%TO.N,/INT2*%
X150173573Y-86726427D03*
D10*
%TO.N,/LED_K*%
X143800000Y-87100000D03*
%TO.N,GND*%
X154800000Y-89800000D03*
X154000000Y-94000000D03*
X145200000Y-90200000D03*
X148800000Y-97500000D03*
X153600000Y-91100000D03*
X146400000Y-88900000D03*
X147300000Y-84381802D03*
X149200000Y-85700000D03*
X151600000Y-85700000D03*
X152500000Y-94900000D03*
X155600000Y-89400000D03*
X148200000Y-96650000D03*
%TO.N,VCC*%
X153400000Y-87200000D03*
X145800000Y-91700000D03*
X153900000Y-87700000D03*
X153400000Y-96200000D03*
X155300000Y-92300000D03*
D11*
%TO.N,/SWDIO*%
X148600000Y-93200000D03*
X144800000Y-93200000D03*
%TO.N,/SWCLK*%
X146700000Y-94300000D03*
X150000000Y-93400000D03*
%TD*%
%TA.AperFunction,Conductor*%
%TO.N,VCC*%
G36*
X145367935Y-81974094D02*
G01*
X145371544Y-81974226D01*
X145551051Y-81984064D01*
X145554566Y-81984321D01*
X145731982Y-82000565D01*
X145735505Y-82000954D01*
X145910761Y-82023480D01*
X145914261Y-82023995D01*
X146087310Y-82052680D01*
X146090839Y-82053330D01*
X146261714Y-82088068D01*
X146265115Y-82088824D01*
X146433717Y-82129490D01*
X146437152Y-82130384D01*
X146474495Y-82140821D01*
X146603470Y-82176869D01*
X146606766Y-82177853D01*
X146770796Y-82230060D01*
X146774058Y-82231162D01*
X146892059Y-82273359D01*
X146935658Y-82288950D01*
X146938892Y-82290171D01*
X146984223Y-82308190D01*
X147098074Y-82353446D01*
X147101158Y-82354734D01*
X147246488Y-82418405D01*
X147257921Y-82423414D01*
X147260994Y-82424824D01*
X147415175Y-82498748D01*
X147418139Y-82500230D01*
X147569839Y-82579369D01*
X147572652Y-82580897D01*
X147721726Y-82665097D01*
X147724463Y-82666704D01*
X147852824Y-82744878D01*
X147868771Y-82754590D01*
X147872782Y-82757167D01*
X148159201Y-82951210D01*
X148164231Y-82954855D01*
X148437144Y-83166014D01*
X148441790Y-83169842D01*
X148702726Y-83398610D01*
X148707011Y-83402599D01*
X148826976Y-83521136D01*
X148955390Y-83648022D01*
X148959357Y-83652176D01*
X149194664Y-83913343D01*
X149198295Y-83917610D01*
X149394466Y-84161814D01*
X149394467Y-84161814D01*
X149403630Y-84173221D01*
X149405453Y-84178419D01*
X149428493Y-84204171D01*
X149430144Y-84206226D01*
X149450152Y-84231133D01*
X149454561Y-84234829D01*
X149464705Y-84244646D01*
X149485664Y-84268054D01*
X149485667Y-84268056D01*
X149485668Y-84268057D01*
X149487969Y-84269737D01*
X149615532Y-84362881D01*
X149651068Y-84378770D01*
X149762326Y-84428517D01*
X149762327Y-84428517D01*
X149762329Y-84428518D01*
X149919593Y-84462077D01*
X150080396Y-84462078D01*
X150237660Y-84428522D01*
X150384458Y-84362886D01*
X150514328Y-84268061D01*
X150545001Y-84233804D01*
X150549877Y-84231133D01*
X150571546Y-84204158D01*
X150594555Y-84178441D01*
X150594556Y-84178436D01*
X150597466Y-84173510D01*
X150605533Y-84161847D01*
X150612571Y-84153086D01*
X150801738Y-83917600D01*
X150805326Y-83913383D01*
X151040690Y-83652153D01*
X151044636Y-83648023D01*
X151066970Y-83625955D01*
X151293016Y-83402599D01*
X151297284Y-83398625D01*
X151558253Y-83169827D01*
X151562874Y-83166021D01*
X151750106Y-83021155D01*
X153399500Y-83021155D01*
X153399500Y-83178844D01*
X153416937Y-83266501D01*
X153427928Y-83321760D01*
X153430263Y-83333496D01*
X153430263Y-83333498D01*
X153490603Y-83479174D01*
X153490609Y-83479185D01*
X153543312Y-83558059D01*
X153578211Y-83610289D01*
X153689711Y-83721789D01*
X153746922Y-83760016D01*
X153820814Y-83809390D01*
X153820825Y-83809396D01*
X153874638Y-83831685D01*
X153966503Y-83869737D01*
X154121158Y-83900500D01*
X154121159Y-83900500D01*
X154278841Y-83900500D01*
X154278842Y-83900500D01*
X154433497Y-83869737D01*
X154579179Y-83809394D01*
X154700159Y-83728557D01*
X154759042Y-83711950D01*
X154816446Y-83733127D01*
X154846621Y-83772989D01*
X154890603Y-83879174D01*
X154890609Y-83879185D01*
X154932395Y-83941721D01*
X154978211Y-84010289D01*
X155089711Y-84121789D01*
X155149613Y-84161814D01*
X155220814Y-84209390D01*
X155220825Y-84209396D01*
X155273304Y-84231133D01*
X155366503Y-84269737D01*
X155521158Y-84300500D01*
X155521159Y-84300500D01*
X155678841Y-84300500D01*
X155678842Y-84300500D01*
X155833497Y-84269737D01*
X155979179Y-84209394D01*
X156110289Y-84121789D01*
X156221789Y-84010289D01*
X156309394Y-83879179D01*
X156369737Y-83733497D01*
X156400500Y-83578842D01*
X156400500Y-83421158D01*
X156369737Y-83266503D01*
X156333427Y-83178842D01*
X156309396Y-83120825D01*
X156309390Y-83120814D01*
X156242799Y-83021155D01*
X156221789Y-82989711D01*
X156110289Y-82878211D01*
X156058059Y-82843312D01*
X155979185Y-82790609D01*
X155979174Y-82790603D01*
X155833497Y-82730263D01*
X155678844Y-82699500D01*
X155678842Y-82699500D01*
X155521158Y-82699500D01*
X155521155Y-82699500D01*
X155366503Y-82730263D01*
X155366501Y-82730263D01*
X155220825Y-82790603D01*
X155220813Y-82790609D01*
X155099844Y-82871440D01*
X155040956Y-82888049D01*
X154983552Y-82866872D01*
X154953379Y-82827011D01*
X154923606Y-82755132D01*
X154909396Y-82720825D01*
X154909390Y-82720814D01*
X154847414Y-82628062D01*
X154821789Y-82589711D01*
X154710289Y-82478211D01*
X154630390Y-82424824D01*
X154579185Y-82390609D01*
X154579174Y-82390603D01*
X154433497Y-82330263D01*
X154278844Y-82299500D01*
X154278842Y-82299500D01*
X154121158Y-82299500D01*
X154121155Y-82299500D01*
X153966503Y-82330263D01*
X153966501Y-82330263D01*
X153820825Y-82390603D01*
X153820814Y-82390609D01*
X153689711Y-82478211D01*
X153689707Y-82478214D01*
X153578214Y-82589707D01*
X153578211Y-82589711D01*
X153490609Y-82720814D01*
X153490603Y-82720825D01*
X153430263Y-82866501D01*
X153430263Y-82866503D01*
X153399500Y-83021155D01*
X151750106Y-83021155D01*
X151835793Y-82954857D01*
X151840830Y-82951208D01*
X151948578Y-82878211D01*
X152125191Y-82758559D01*
X152130607Y-82755140D01*
X152425928Y-82581871D01*
X152431707Y-82578734D01*
X152737528Y-82425703D01*
X152743657Y-82422893D01*
X153059559Y-82290957D01*
X153065982Y-82288535D01*
X153391570Y-82178555D01*
X153398278Y-82176553D01*
X153733160Y-82089411D01*
X153740099Y-82087871D01*
X154083939Y-82024464D01*
X154091067Y-82023416D01*
X154443631Y-81984655D01*
X154450842Y-81984129D01*
X154813684Y-81970917D01*
X154819648Y-81970880D01*
X155075493Y-81976995D01*
X155080233Y-81977223D01*
X155333520Y-81995501D01*
X155338236Y-81995957D01*
X155586966Y-82026068D01*
X155591699Y-82026758D01*
X155835558Y-82068404D01*
X155840291Y-82069332D01*
X156079059Y-82122230D01*
X156083752Y-82123391D01*
X156205117Y-82156598D01*
X156317203Y-82187266D01*
X156321864Y-82188665D01*
X156549758Y-82263235D01*
X156554353Y-82264865D01*
X156776441Y-82349855D01*
X156780956Y-82351712D01*
X156996986Y-82446843D01*
X157001410Y-82448923D01*
X157211206Y-82553962D01*
X157215523Y-82556258D01*
X157418749Y-82670892D01*
X157422948Y-82673400D01*
X157552449Y-82755132D01*
X157615946Y-82795207D01*
X157619426Y-82797403D01*
X157623480Y-82800103D01*
X157718522Y-82866872D01*
X157812921Y-82933190D01*
X157816853Y-82936100D01*
X157999028Y-83078024D01*
X158002812Y-83081126D01*
X158177431Y-83231600D01*
X158181044Y-83234871D01*
X158272337Y-83321760D01*
X158347895Y-83393674D01*
X158351354Y-83397133D01*
X158510147Y-83563973D01*
X158513431Y-83567600D01*
X158663910Y-83742226D01*
X158667011Y-83746010D01*
X158808907Y-83928148D01*
X158811818Y-83932080D01*
X158942779Y-84118494D01*
X158944911Y-84121528D01*
X158947623Y-84125600D01*
X159071618Y-84322065D01*
X159074126Y-84326264D01*
X159188778Y-84529523D01*
X159191075Y-84533841D01*
X159296097Y-84743605D01*
X159298176Y-84748027D01*
X159393316Y-84964073D01*
X159395173Y-84968589D01*
X159480164Y-85190681D01*
X159481794Y-85195276D01*
X159556363Y-85423164D01*
X159557762Y-85427826D01*
X159621627Y-85661249D01*
X159622793Y-85665960D01*
X159675692Y-85904722D01*
X159676623Y-85909471D01*
X159718265Y-86153308D01*
X159718960Y-86158076D01*
X159743562Y-86361296D01*
X159731786Y-86421337D01*
X159686967Y-86462989D01*
X159626225Y-86470343D01*
X159575276Y-86443198D01*
X159510292Y-86378214D01*
X159510289Y-86378211D01*
X159446582Y-86335643D01*
X159379185Y-86290609D01*
X159379174Y-86290603D01*
X159233497Y-86230263D01*
X159078844Y-86199500D01*
X159078842Y-86199500D01*
X158921158Y-86199500D01*
X158921155Y-86199500D01*
X158766503Y-86230263D01*
X158766501Y-86230263D01*
X158620825Y-86290603D01*
X158620814Y-86290609D01*
X158489711Y-86378211D01*
X158489707Y-86378214D01*
X158378214Y-86489707D01*
X158378211Y-86489711D01*
X158290609Y-86620814D01*
X158290603Y-86620825D01*
X158230263Y-86766501D01*
X158230263Y-86766503D01*
X158199500Y-86921155D01*
X158199500Y-87078844D01*
X158230263Y-87233496D01*
X158230263Y-87233498D01*
X158290603Y-87379174D01*
X158290609Y-87379185D01*
X158320585Y-87424046D01*
X158378211Y-87510289D01*
X158489711Y-87621789D01*
X158567876Y-87674017D01*
X158620814Y-87709390D01*
X158620825Y-87709396D01*
X158650743Y-87721788D01*
X158766503Y-87769737D01*
X158921158Y-87800500D01*
X158921159Y-87800500D01*
X159078841Y-87800500D01*
X159078842Y-87800500D01*
X159233497Y-87769737D01*
X159379179Y-87709394D01*
X159510289Y-87621789D01*
X159580129Y-87551949D01*
X159634645Y-87524171D01*
X159695077Y-87533742D01*
X159738342Y-87577006D01*
X159749069Y-87625521D01*
X159738323Y-87923416D01*
X159737917Y-87929486D01*
X159693736Y-88381098D01*
X159693190Y-88385604D01*
X159630969Y-88816629D01*
X159630150Y-88821455D01*
X159550175Y-89231076D01*
X159549045Y-89236154D01*
X159451283Y-89626548D01*
X159449817Y-89631786D01*
X159334185Y-90005172D01*
X159332383Y-90010457D01*
X159198720Y-90369116D01*
X159196608Y-90374327D01*
X159044673Y-90720544D01*
X159042301Y-90725561D01*
X158871767Y-91061617D01*
X158869213Y-91066329D01*
X158869213Y-91066332D01*
X158869212Y-91066333D01*
X158679708Y-91394426D01*
X158677056Y-91398756D01*
X158469974Y-91718252D01*
X158466035Y-91723890D01*
X157986307Y-92362122D01*
X157981486Y-92368046D01*
X157422315Y-93003368D01*
X157418397Y-93007566D01*
X156775580Y-93657697D01*
X156772744Y-93660454D01*
X156045650Y-94339311D01*
X156043432Y-94341320D01*
X154328619Y-95847981D01*
X154328388Y-95848183D01*
X152308720Y-97611600D01*
X152300623Y-97618668D01*
X152299079Y-97619217D01*
X152270690Y-97644803D01*
X152270138Y-97645286D01*
X152270108Y-97645312D01*
X152266246Y-97648685D01*
X152263205Y-97651340D01*
X152206934Y-97675365D01*
X152147288Y-97661727D01*
X152112135Y-97624839D01*
X152112097Y-97624865D01*
X152111951Y-97624646D01*
X152110785Y-97623423D01*
X152109392Y-97620817D01*
X152074160Y-97568090D01*
X152021789Y-97489711D01*
X151910289Y-97378211D01*
X151858059Y-97343312D01*
X151779185Y-97290609D01*
X151779174Y-97290603D01*
X151633497Y-97230263D01*
X151478844Y-97199500D01*
X151478842Y-97199500D01*
X151321158Y-97199500D01*
X151321155Y-97199500D01*
X151166503Y-97230263D01*
X151166501Y-97230263D01*
X151020825Y-97290603D01*
X151020814Y-97290609D01*
X150889711Y-97378211D01*
X150889707Y-97378214D01*
X150778214Y-97489707D01*
X150778211Y-97489711D01*
X150690609Y-97620814D01*
X150690603Y-97620825D01*
X150630263Y-97766501D01*
X150630263Y-97766503D01*
X150599500Y-97921155D01*
X150599500Y-98078844D01*
X150630263Y-98233496D01*
X150630263Y-98233498D01*
X150690603Y-98379174D01*
X150690609Y-98379185D01*
X150743312Y-98458059D01*
X150778211Y-98510289D01*
X150889711Y-98621789D01*
X150942260Y-98656901D01*
X150957311Y-98666958D01*
X150995190Y-98715008D01*
X150997592Y-98776146D01*
X150969821Y-98821683D01*
X150067525Y-99662941D01*
X150012070Y-99688794D01*
X149952009Y-99677114D01*
X149932501Y-99662941D01*
X149206862Y-98986389D01*
X148918956Y-98717959D01*
X148918203Y-98716378D01*
X148889852Y-98690824D01*
X148861899Y-98664762D01*
X148861898Y-98664761D01*
X148858635Y-98661719D01*
X148852216Y-98656901D01*
X148648007Y-98472839D01*
X148617442Y-98419835D01*
X148623869Y-98358988D01*
X148664833Y-98313540D01*
X148716294Y-98302446D01*
X148716294Y-98300500D01*
X148878841Y-98300500D01*
X148878842Y-98300500D01*
X149033497Y-98269737D01*
X149179179Y-98209394D01*
X149310289Y-98121789D01*
X149421789Y-98010289D01*
X149509394Y-97879179D01*
X149569737Y-97733497D01*
X149600500Y-97578842D01*
X149600500Y-97421158D01*
X149569737Y-97266503D01*
X149541984Y-97199500D01*
X149509396Y-97120825D01*
X149509390Y-97120814D01*
X149474017Y-97067876D01*
X149421789Y-96989711D01*
X149310289Y-96878211D01*
X149258059Y-96843312D01*
X149179185Y-96790609D01*
X149179177Y-96790605D01*
X149061614Y-96741909D01*
X149015089Y-96702172D01*
X149000500Y-96650445D01*
X149000500Y-96571159D01*
X149000499Y-96571155D01*
X148969737Y-96416503D01*
X148909394Y-96270821D01*
X148907533Y-96266327D01*
X148908800Y-96265802D01*
X148899090Y-96211440D01*
X148908043Y-96183884D01*
X148907533Y-96183673D01*
X148934945Y-96117492D01*
X148969737Y-96033497D01*
X149000500Y-95878842D01*
X149000500Y-95721158D01*
X148969737Y-95566503D01*
X148909394Y-95420821D01*
X148909393Y-95420819D01*
X148909390Y-95420814D01*
X148874017Y-95367876D01*
X148821789Y-95289711D01*
X148710289Y-95178211D01*
X148658059Y-95143312D01*
X148579185Y-95090609D01*
X148579174Y-95090603D01*
X148433497Y-95030263D01*
X148278844Y-94999500D01*
X148278842Y-94999500D01*
X148121158Y-94999500D01*
X148121155Y-94999500D01*
X147966503Y-95030263D01*
X147966501Y-95030263D01*
X147820825Y-95090603D01*
X147820814Y-95090609D01*
X147689711Y-95178211D01*
X147689707Y-95178214D01*
X147578214Y-95289707D01*
X147578211Y-95289711D01*
X147490609Y-95420814D01*
X147490603Y-95420825D01*
X147430263Y-95566501D01*
X147430263Y-95566503D01*
X147399500Y-95721155D01*
X147399500Y-95878844D01*
X147430263Y-96033496D01*
X147430263Y-96033498D01*
X147492467Y-96183673D01*
X147491204Y-96184195D01*
X147500906Y-96238582D01*
X147491959Y-96266116D01*
X147492467Y-96266327D01*
X147430263Y-96416501D01*
X147430263Y-96416503D01*
X147399500Y-96571155D01*
X147399500Y-96728844D01*
X147430263Y-96883496D01*
X147430263Y-96883498D01*
X147490603Y-97029174D01*
X147490609Y-97029185D01*
X147543312Y-97108059D01*
X147578211Y-97160289D01*
X147689711Y-97271789D01*
X147767876Y-97324017D01*
X147820814Y-97359390D01*
X147820825Y-97359396D01*
X147866257Y-97378214D01*
X147938385Y-97408090D01*
X147956631Y-97423674D01*
X147976875Y-97436563D01*
X147979489Y-97443195D01*
X147984911Y-97447826D01*
X147990512Y-97471159D01*
X147999314Y-97493485D01*
X147999500Y-97499554D01*
X147999500Y-97578844D01*
X148016310Y-97663352D01*
X148009118Y-97724113D01*
X147967586Y-97769043D01*
X147907576Y-97780980D01*
X147852930Y-97756203D01*
X147766964Y-97678718D01*
X147761843Y-97673186D01*
X147729991Y-97645376D01*
X147728820Y-97644337D01*
X147697419Y-97616034D01*
X147691308Y-97611600D01*
X145671463Y-95848029D01*
X145671232Y-95847827D01*
X145300151Y-95521789D01*
X143956583Y-94341309D01*
X143954377Y-94339310D01*
X143908045Y-94296051D01*
X143908036Y-94296044D01*
X143835738Y-94228542D01*
X145974500Y-94228542D01*
X145974500Y-94371457D01*
X146002381Y-94511619D01*
X146002381Y-94511621D01*
X146057068Y-94643648D01*
X146057074Y-94643659D01*
X146100995Y-94709390D01*
X146136468Y-94762479D01*
X146237521Y-94863532D01*
X146306152Y-94909390D01*
X146356340Y-94942925D01*
X146356351Y-94942931D01*
X146405121Y-94963132D01*
X146488380Y-94997619D01*
X146628545Y-95025500D01*
X146628546Y-95025500D01*
X146771454Y-95025500D01*
X146771455Y-95025500D01*
X146911620Y-94997619D01*
X147043653Y-94942929D01*
X147162479Y-94863532D01*
X147263532Y-94762479D01*
X147342929Y-94643653D01*
X147397619Y-94511620D01*
X147425500Y-94371455D01*
X147425500Y-94228545D01*
X147397619Y-94088380D01*
X147345905Y-93963531D01*
X147342931Y-93956351D01*
X147342925Y-93956340D01*
X147303688Y-93897619D01*
X147263532Y-93837521D01*
X147162479Y-93736468D01*
X147102649Y-93696491D01*
X147043659Y-93657074D01*
X147043648Y-93657068D01*
X146911620Y-93602381D01*
X146771457Y-93574500D01*
X146771455Y-93574500D01*
X146628545Y-93574500D01*
X146628542Y-93574500D01*
X146488380Y-93602381D01*
X146488378Y-93602381D01*
X146356351Y-93657068D01*
X146356340Y-93657074D01*
X146237521Y-93736468D01*
X146237517Y-93736471D01*
X146136471Y-93837517D01*
X146136468Y-93837521D01*
X146057074Y-93956340D01*
X146057068Y-93956351D01*
X146002381Y-94088378D01*
X146002381Y-94088380D01*
X145974500Y-94228542D01*
X143835738Y-94228542D01*
X143227283Y-93660454D01*
X143224471Y-93657722D01*
X142701245Y-93128542D01*
X144074500Y-93128542D01*
X144074500Y-93271457D01*
X144102381Y-93411619D01*
X144102381Y-93411621D01*
X144157068Y-93543648D01*
X144157074Y-93543659D01*
X144177682Y-93574500D01*
X144236468Y-93662479D01*
X144337521Y-93763532D01*
X144408362Y-93810866D01*
X144456340Y-93842925D01*
X144456351Y-93842931D01*
X144503542Y-93862478D01*
X144588380Y-93897619D01*
X144728545Y-93925500D01*
X144728546Y-93925500D01*
X144871454Y-93925500D01*
X144871455Y-93925500D01*
X145011620Y-93897619D01*
X145143653Y-93842929D01*
X145262479Y-93763532D01*
X145363532Y-93662479D01*
X145442929Y-93543653D01*
X145497619Y-93411620D01*
X145525500Y-93271455D01*
X145525500Y-93128545D01*
X145497619Y-92988380D01*
X145452389Y-92879185D01*
X145442931Y-92856351D01*
X145442925Y-92856340D01*
X145398404Y-92789711D01*
X145363532Y-92737521D01*
X145262479Y-92636468D01*
X145194906Y-92591317D01*
X145143659Y-92557074D01*
X145143648Y-92557068D01*
X145024601Y-92507758D01*
X145011620Y-92502381D01*
X145011618Y-92502380D01*
X144871457Y-92474500D01*
X144871455Y-92474500D01*
X144728545Y-92474500D01*
X144728542Y-92474500D01*
X144588380Y-92502381D01*
X144588378Y-92502381D01*
X144456351Y-92557068D01*
X144456340Y-92557074D01*
X144337521Y-92636468D01*
X144337517Y-92636471D01*
X144236471Y-92737517D01*
X144236468Y-92737521D01*
X144157074Y-92856340D01*
X144157068Y-92856351D01*
X144102381Y-92988378D01*
X144102381Y-92988380D01*
X144074500Y-93128542D01*
X142701245Y-93128542D01*
X142579838Y-93005754D01*
X142577051Y-93002816D01*
X142288328Y-92685568D01*
X142286119Y-92683057D01*
X142179014Y-92557071D01*
X142063468Y-92421155D01*
X146299500Y-92421155D01*
X146299500Y-92578844D01*
X146330263Y-92733496D01*
X146330263Y-92733498D01*
X146390603Y-92879174D01*
X146390609Y-92879185D01*
X146430805Y-92939341D01*
X146478211Y-93010289D01*
X146589711Y-93121789D01*
X146667876Y-93174017D01*
X146720814Y-93209390D01*
X146720825Y-93209396D01*
X146749222Y-93221158D01*
X146866503Y-93269737D01*
X147021158Y-93300500D01*
X147021159Y-93300500D01*
X147178841Y-93300500D01*
X147178842Y-93300500D01*
X147333497Y-93269737D01*
X147479179Y-93209394D01*
X147610289Y-93121789D01*
X147711009Y-93021069D01*
X147765526Y-92993291D01*
X147825958Y-93002862D01*
X147869222Y-93046127D01*
X147878794Y-93106559D01*
X147878111Y-93110382D01*
X147874501Y-93128532D01*
X147874500Y-93128546D01*
X147874500Y-93271457D01*
X147902381Y-93411619D01*
X147902381Y-93411621D01*
X147957068Y-93543648D01*
X147957074Y-93543659D01*
X147977682Y-93574500D01*
X148036468Y-93662479D01*
X148137521Y-93763532D01*
X148208362Y-93810866D01*
X148256340Y-93842925D01*
X148256351Y-93842931D01*
X148303542Y-93862478D01*
X148388380Y-93897619D01*
X148528545Y-93925500D01*
X148528546Y-93925500D01*
X148671454Y-93925500D01*
X148671455Y-93925500D01*
X148811620Y-93897619D01*
X148943653Y-93842929D01*
X149062479Y-93763532D01*
X149154577Y-93671434D01*
X149209093Y-93643656D01*
X149269526Y-93653227D01*
X149312790Y-93696491D01*
X149322362Y-93756924D01*
X149306898Y-93796436D01*
X149290605Y-93820821D01*
X149230263Y-93966501D01*
X149230263Y-93966503D01*
X149199500Y-94121155D01*
X149199500Y-94278844D01*
X149230263Y-94433496D01*
X149230263Y-94433498D01*
X149290603Y-94579174D01*
X149290609Y-94579185D01*
X149319074Y-94621785D01*
X149378211Y-94710289D01*
X149489711Y-94821789D01*
X149552184Y-94863532D01*
X149620814Y-94909390D01*
X149620825Y-94909396D01*
X149674638Y-94931685D01*
X149766503Y-94969737D01*
X149921158Y-95000500D01*
X149921159Y-95000500D01*
X150078841Y-95000500D01*
X150078842Y-95000500D01*
X150233497Y-94969737D01*
X150379179Y-94909394D01*
X150510289Y-94821789D01*
X150621789Y-94710289D01*
X150709394Y-94579179D01*
X150769737Y-94433497D01*
X150800500Y-94278842D01*
X150800500Y-94121158D01*
X150769737Y-93966503D01*
X150709394Y-93820821D01*
X150678030Y-93773882D01*
X150661422Y-93714995D01*
X150668880Y-93680999D01*
X150697619Y-93611620D01*
X150725500Y-93471455D01*
X150725500Y-93328545D01*
X150725499Y-93328542D01*
X151174500Y-93328542D01*
X151174500Y-93471457D01*
X151178131Y-93489711D01*
X151202380Y-93611617D01*
X151202381Y-93611619D01*
X151202381Y-93611621D01*
X151257068Y-93743648D01*
X151257074Y-93743659D01*
X151292339Y-93796436D01*
X151336468Y-93862479D01*
X151437521Y-93963532D01*
X151508362Y-94010866D01*
X151556340Y-94042925D01*
X151556344Y-94042927D01*
X151556347Y-94042929D01*
X151660395Y-94086027D01*
X151706920Y-94125764D01*
X151713973Y-94139605D01*
X151757070Y-94243651D01*
X151757074Y-94243659D01*
X151792082Y-94296051D01*
X151829686Y-94352329D01*
X151846295Y-94411216D01*
X151829687Y-94462331D01*
X151790604Y-94520822D01*
X151730263Y-94666501D01*
X151730263Y-94666503D01*
X151699500Y-94821155D01*
X151699500Y-94978844D01*
X151730263Y-95133496D01*
X151730263Y-95133498D01*
X151790603Y-95279174D01*
X151790609Y-95279185D01*
X151843312Y-95358059D01*
X151878211Y-95410289D01*
X151989711Y-95521789D01*
X152056627Y-95566501D01*
X152120814Y-95609390D01*
X152120825Y-95609396D01*
X152174638Y-95631685D01*
X152266503Y-95669737D01*
X152421158Y-95700500D01*
X152421159Y-95700500D01*
X152578841Y-95700500D01*
X152578842Y-95700500D01*
X152733497Y-95669737D01*
X152879179Y-95609394D01*
X153010289Y-95521789D01*
X153121789Y-95410289D01*
X153209394Y-95279179D01*
X153269737Y-95133497D01*
X153300500Y-94978842D01*
X153300500Y-94821158D01*
X153269737Y-94666503D01*
X153269736Y-94666500D01*
X153269214Y-94664779D01*
X153269230Y-94663955D01*
X153268788Y-94661733D01*
X153269275Y-94661636D01*
X153270411Y-94603605D01*
X153307337Y-94554819D01*
X153365887Y-94537054D01*
X153423696Y-94557097D01*
X153433953Y-94566031D01*
X153489711Y-94621789D01*
X153552624Y-94663826D01*
X153620814Y-94709390D01*
X153620825Y-94709396D01*
X153674638Y-94731685D01*
X153766503Y-94769737D01*
X153921158Y-94800500D01*
X153921159Y-94800500D01*
X154078841Y-94800500D01*
X154078842Y-94800500D01*
X154233497Y-94769737D01*
X154379179Y-94709394D01*
X154510289Y-94621789D01*
X154621789Y-94510289D01*
X154709394Y-94379179D01*
X154769737Y-94233497D01*
X154800500Y-94078842D01*
X154800500Y-93921158D01*
X154769737Y-93766503D01*
X154734318Y-93680994D01*
X154709396Y-93620825D01*
X154709390Y-93620814D01*
X154657832Y-93543653D01*
X154621789Y-93489711D01*
X154510289Y-93378211D01*
X154458059Y-93343312D01*
X154379185Y-93290609D01*
X154379174Y-93290603D01*
X154233497Y-93230263D01*
X154078844Y-93199500D01*
X154078842Y-93199500D01*
X153921158Y-93199500D01*
X153921153Y-93199500D01*
X153898044Y-93204097D01*
X153837283Y-93196905D01*
X153792353Y-93155372D01*
X153781634Y-93126316D01*
X153769737Y-93066503D01*
X153716314Y-92937528D01*
X153709396Y-92920825D01*
X153709390Y-92920814D01*
X153653031Y-92836468D01*
X153621789Y-92789711D01*
X153510289Y-92678211D01*
X153438714Y-92630386D01*
X153379185Y-92590609D01*
X153379174Y-92590603D01*
X153233497Y-92530263D01*
X153078844Y-92499500D01*
X153078842Y-92499500D01*
X152921158Y-92499500D01*
X152921155Y-92499500D01*
X152766503Y-92530263D01*
X152766501Y-92530263D01*
X152620825Y-92590603D01*
X152620814Y-92590609D01*
X152489711Y-92678211D01*
X152489707Y-92678214D01*
X152401332Y-92766590D01*
X152346815Y-92794367D01*
X152286383Y-92784796D01*
X152276327Y-92778902D01*
X152243658Y-92757073D01*
X152243648Y-92757068D01*
X152111620Y-92702381D01*
X151971457Y-92674500D01*
X151971455Y-92674500D01*
X151828545Y-92674500D01*
X151828542Y-92674500D01*
X151688380Y-92702381D01*
X151688378Y-92702381D01*
X151556351Y-92757068D01*
X151556340Y-92757074D01*
X151437521Y-92836468D01*
X151437517Y-92836471D01*
X151336471Y-92937517D01*
X151336468Y-92937521D01*
X151257074Y-93056340D01*
X151257068Y-93056351D01*
X151202381Y-93188378D01*
X151202381Y-93188380D01*
X151174500Y-93328542D01*
X150725499Y-93328542D01*
X150697619Y-93188380D01*
X150672835Y-93128546D01*
X150642931Y-93056351D01*
X150642925Y-93056340D01*
X150608160Y-93004312D01*
X150563532Y-92937521D01*
X150462479Y-92836468D01*
X150415143Y-92804839D01*
X150343659Y-92757074D01*
X150343648Y-92757068D01*
X150211620Y-92702381D01*
X150071457Y-92674500D01*
X150071455Y-92674500D01*
X149928545Y-92674500D01*
X149928542Y-92674500D01*
X149788380Y-92702381D01*
X149788378Y-92702381D01*
X149656351Y-92757068D01*
X149656340Y-92757074D01*
X149537521Y-92836468D01*
X149537517Y-92836471D01*
X149436460Y-92937528D01*
X149434973Y-92939341D01*
X149434069Y-92939919D01*
X149433029Y-92940960D01*
X149432800Y-92940731D01*
X149383441Y-92972327D01*
X149322362Y-92968723D01*
X149275066Y-92929906D01*
X149266983Y-92914419D01*
X149242931Y-92856351D01*
X149242925Y-92856340D01*
X149198404Y-92789711D01*
X149163532Y-92737521D01*
X149062479Y-92636468D01*
X148994906Y-92591317D01*
X148943659Y-92557074D01*
X148943648Y-92557068D01*
X148811620Y-92502381D01*
X148671457Y-92474500D01*
X148671455Y-92474500D01*
X148528545Y-92474500D01*
X148528542Y-92474500D01*
X148388380Y-92502381D01*
X148388378Y-92502381D01*
X148256351Y-92557068D01*
X148256340Y-92557074D01*
X148137521Y-92636468D01*
X148137511Y-92636476D01*
X148058109Y-92715878D01*
X148003592Y-92743655D01*
X147943160Y-92734083D01*
X147899896Y-92690819D01*
X147890325Y-92630386D01*
X147891008Y-92626559D01*
X147900500Y-92578842D01*
X147900500Y-92421158D01*
X147869737Y-92266503D01*
X147809394Y-92120821D01*
X147809393Y-92120819D01*
X147809390Y-92120814D01*
X147774017Y-92067876D01*
X147721789Y-91989711D01*
X147610289Y-91878211D01*
X147558059Y-91843312D01*
X147479185Y-91790609D01*
X147479174Y-91790603D01*
X147333497Y-91730263D01*
X147178844Y-91699500D01*
X147178842Y-91699500D01*
X147021158Y-91699500D01*
X147021155Y-91699500D01*
X146866503Y-91730263D01*
X146866501Y-91730263D01*
X146720825Y-91790603D01*
X146720814Y-91790609D01*
X146589711Y-91878211D01*
X146589707Y-91878214D01*
X146478214Y-91989707D01*
X146478211Y-91989711D01*
X146390609Y-92120814D01*
X146390603Y-92120825D01*
X146330263Y-92266501D01*
X146330263Y-92266503D01*
X146299500Y-92421155D01*
X142063468Y-92421155D01*
X142016881Y-92366355D01*
X142014491Y-92363433D01*
X141807908Y-92100500D01*
X141765703Y-92046782D01*
X141763130Y-92043356D01*
X141638480Y-91869736D01*
X141534500Y-91724906D01*
X141531853Y-91721028D01*
X141504732Y-91679185D01*
X141368189Y-91468520D01*
X141322969Y-91398752D01*
X141320317Y-91394421D01*
X141246033Y-91265811D01*
X141220240Y-91221155D01*
X141699500Y-91221155D01*
X141699500Y-91378844D01*
X141730263Y-91533496D01*
X141730263Y-91533498D01*
X141790603Y-91679174D01*
X141790609Y-91679185D01*
X141824739Y-91730263D01*
X141878211Y-91810289D01*
X141989711Y-91921789D01*
X142033339Y-91950940D01*
X142120814Y-92009390D01*
X142120825Y-92009396D01*
X142174638Y-92031685D01*
X142266503Y-92069737D01*
X142421158Y-92100500D01*
X142421159Y-92100500D01*
X142578841Y-92100500D01*
X142578842Y-92100500D01*
X142733497Y-92069737D01*
X142879179Y-92009394D01*
X143010289Y-91921789D01*
X143121789Y-91810289D01*
X143209394Y-91679179D01*
X143269737Y-91533497D01*
X143300500Y-91378842D01*
X143300500Y-91221158D01*
X143269737Y-91066503D01*
X143250953Y-91021155D01*
X152799500Y-91021155D01*
X152799500Y-91178844D01*
X152830263Y-91333496D01*
X152830263Y-91333498D01*
X152890603Y-91479174D01*
X152890609Y-91479185D01*
X152926899Y-91533496D01*
X152978211Y-91610289D01*
X153089711Y-91721789D01*
X153167876Y-91774017D01*
X153220814Y-91809390D01*
X153220825Y-91809396D01*
X153274638Y-91831685D01*
X153366503Y-91869737D01*
X153521158Y-91900500D01*
X153521159Y-91900500D01*
X153678841Y-91900500D01*
X153678842Y-91900500D01*
X153833497Y-91869737D01*
X153979179Y-91809394D01*
X154110289Y-91721789D01*
X154221789Y-91610289D01*
X154309394Y-91479179D01*
X154369737Y-91333497D01*
X154392083Y-91221155D01*
X156499500Y-91221155D01*
X156499500Y-91378844D01*
X156530263Y-91533496D01*
X156530263Y-91533498D01*
X156590603Y-91679174D01*
X156590609Y-91679185D01*
X156624739Y-91730263D01*
X156678211Y-91810289D01*
X156789711Y-91921789D01*
X156833339Y-91950940D01*
X156920814Y-92009390D01*
X156920825Y-92009396D01*
X156974638Y-92031685D01*
X157066503Y-92069737D01*
X157221158Y-92100500D01*
X157221159Y-92100500D01*
X157378841Y-92100500D01*
X157378842Y-92100500D01*
X157533497Y-92069737D01*
X157679179Y-92009394D01*
X157810289Y-91921789D01*
X157921789Y-91810289D01*
X158009394Y-91679179D01*
X158069737Y-91533497D01*
X158100500Y-91378842D01*
X158100500Y-91221158D01*
X158069737Y-91066503D01*
X158042398Y-91000500D01*
X158009396Y-90920825D01*
X158009390Y-90920814D01*
X157971413Y-90863978D01*
X157921789Y-90789711D01*
X157810289Y-90678211D01*
X157758059Y-90643312D01*
X157679185Y-90590609D01*
X157679174Y-90590603D01*
X157533497Y-90530263D01*
X157378844Y-90499500D01*
X157378842Y-90499500D01*
X157221158Y-90499500D01*
X157221155Y-90499500D01*
X157066503Y-90530263D01*
X157066501Y-90530263D01*
X156920825Y-90590603D01*
X156920814Y-90590609D01*
X156789711Y-90678211D01*
X156789707Y-90678214D01*
X156678214Y-90789707D01*
X156678211Y-90789711D01*
X156590609Y-90920814D01*
X156590603Y-90920825D01*
X156530263Y-91066501D01*
X156530263Y-91066503D01*
X156499500Y-91221155D01*
X154392083Y-91221155D01*
X154400500Y-91178842D01*
X154400500Y-91021158D01*
X154369737Y-90866503D01*
X154311367Y-90725584D01*
X154309396Y-90720825D01*
X154309390Y-90720813D01*
X154240817Y-90618188D01*
X154224208Y-90559300D01*
X154245385Y-90501896D01*
X154296259Y-90467903D01*
X154357397Y-90470305D01*
X154378135Y-90480872D01*
X154420812Y-90509389D01*
X154420825Y-90509396D01*
X154452351Y-90522454D01*
X154566503Y-90569737D01*
X154721158Y-90600500D01*
X154721159Y-90600500D01*
X154878841Y-90600500D01*
X154878842Y-90600500D01*
X155033497Y-90569737D01*
X155179179Y-90509394D01*
X155310289Y-90421789D01*
X155421789Y-90310289D01*
X155465748Y-90244498D01*
X155513798Y-90206619D01*
X155548064Y-90200500D01*
X155678841Y-90200500D01*
X155678842Y-90200500D01*
X155833497Y-90169737D01*
X155979179Y-90109394D01*
X156110289Y-90021789D01*
X156221789Y-89910289D01*
X156309394Y-89779179D01*
X156369737Y-89633497D01*
X156400500Y-89478842D01*
X156400500Y-89321158D01*
X156369737Y-89166503D01*
X156338300Y-89090606D01*
X156309396Y-89020825D01*
X156309390Y-89020814D01*
X156265749Y-88955502D01*
X156221789Y-88889711D01*
X156110289Y-88778211D01*
X156058059Y-88743312D01*
X155979185Y-88690609D01*
X155979174Y-88690603D01*
X155833497Y-88630263D01*
X155678844Y-88599500D01*
X155678842Y-88599500D01*
X155521158Y-88599500D01*
X155521155Y-88599500D01*
X155366503Y-88630263D01*
X155366501Y-88630263D01*
X155220825Y-88690603D01*
X155220814Y-88690609D01*
X155089711Y-88778211D01*
X155089702Y-88778218D01*
X154978210Y-88889711D01*
X154934250Y-88955502D01*
X154886200Y-88993381D01*
X154851935Y-88999500D01*
X154721155Y-88999500D01*
X154566503Y-89030263D01*
X154566501Y-89030263D01*
X154420825Y-89090603D01*
X154420814Y-89090609D01*
X154289711Y-89178211D01*
X154289707Y-89178214D01*
X154178214Y-89289707D01*
X154178211Y-89289711D01*
X154090609Y-89420814D01*
X154090603Y-89420825D01*
X154030263Y-89566501D01*
X154030263Y-89566503D01*
X153999500Y-89721155D01*
X153999500Y-89878844D01*
X154030263Y-90033496D01*
X154030263Y-90033498D01*
X154090603Y-90179174D01*
X154090609Y-90179186D01*
X154159182Y-90281811D01*
X154175791Y-90340699D01*
X154154614Y-90398103D01*
X154103740Y-90432096D01*
X154042602Y-90429694D01*
X154021868Y-90419130D01*
X153990399Y-90398103D01*
X153979180Y-90390606D01*
X153979174Y-90390603D01*
X153833497Y-90330263D01*
X153678844Y-90299500D01*
X153678842Y-90299500D01*
X153521158Y-90299500D01*
X153521155Y-90299500D01*
X153366503Y-90330263D01*
X153366501Y-90330263D01*
X153220825Y-90390603D01*
X153220814Y-90390609D01*
X153089711Y-90478211D01*
X153089707Y-90478214D01*
X152978214Y-90589707D01*
X152978211Y-90589711D01*
X152890609Y-90720814D01*
X152890603Y-90720825D01*
X152830263Y-90866501D01*
X152830263Y-90866503D01*
X152799500Y-91021155D01*
X143250953Y-91021155D01*
X143242398Y-91000500D01*
X143209396Y-90920825D01*
X143209390Y-90920814D01*
X143171413Y-90863978D01*
X143121789Y-90789711D01*
X143010289Y-90678211D01*
X142958059Y-90643312D01*
X142879185Y-90590609D01*
X142879174Y-90590603D01*
X142733497Y-90530263D01*
X142578844Y-90499500D01*
X142578842Y-90499500D01*
X142421158Y-90499500D01*
X142421155Y-90499500D01*
X142266503Y-90530263D01*
X142266501Y-90530263D01*
X142120825Y-90590603D01*
X142120814Y-90590609D01*
X141989711Y-90678211D01*
X141989707Y-90678214D01*
X141878214Y-90789707D01*
X141878211Y-90789711D01*
X141790609Y-90920814D01*
X141790603Y-90920825D01*
X141730263Y-91066501D01*
X141730263Y-91066503D01*
X141699500Y-91221155D01*
X141220240Y-91221155D01*
X141130798Y-91066300D01*
X141128261Y-91061617D01*
X140957726Y-90725561D01*
X140955373Y-90720585D01*
X140803404Y-90374295D01*
X140801311Y-90369129D01*
X140708898Y-90121158D01*
X140708897Y-90121155D01*
X144399500Y-90121155D01*
X144399500Y-90278844D01*
X144403609Y-90299500D01*
X144429984Y-90432096D01*
X144430263Y-90433496D01*
X144430263Y-90433498D01*
X144490603Y-90579174D01*
X144490609Y-90579185D01*
X144543312Y-90658059D01*
X144578211Y-90710289D01*
X144689711Y-90821789D01*
X144756627Y-90866501D01*
X144820814Y-90909390D01*
X144820825Y-90909396D01*
X144870388Y-90929925D01*
X144966503Y-90969737D01*
X145121158Y-91000500D01*
X145121159Y-91000500D01*
X145278841Y-91000500D01*
X145278842Y-91000500D01*
X145433497Y-90969737D01*
X145494853Y-90944322D01*
X145541914Y-90924830D01*
X145579174Y-90909396D01*
X145579173Y-90909396D01*
X145579179Y-90909394D01*
X145710289Y-90821789D01*
X145821789Y-90710289D01*
X145909394Y-90579179D01*
X145969737Y-90433497D01*
X146000500Y-90278842D01*
X146000500Y-90121158D01*
X145969737Y-89966503D01*
X145909394Y-89820821D01*
X145909390Y-89820813D01*
X145840817Y-89718188D01*
X145824208Y-89659300D01*
X145845385Y-89601896D01*
X145896259Y-89567903D01*
X145957397Y-89570305D01*
X145978135Y-89580872D01*
X146020812Y-89609389D01*
X146020825Y-89609396D01*
X146062232Y-89626547D01*
X146166503Y-89669737D01*
X146321158Y-89700500D01*
X146321159Y-89700500D01*
X146478841Y-89700500D01*
X146478842Y-89700500D01*
X146633497Y-89669737D01*
X146779179Y-89609394D01*
X146910289Y-89521789D01*
X147021789Y-89410289D01*
X147109394Y-89279179D01*
X147169737Y-89133497D01*
X147200500Y-88978842D01*
X147200500Y-88821158D01*
X147169737Y-88666503D01*
X147109394Y-88520821D01*
X147109393Y-88520819D01*
X147109390Y-88520814D01*
X147073209Y-88466667D01*
X147021789Y-88389711D01*
X146910289Y-88278211D01*
X146858059Y-88243312D01*
X146779185Y-88190609D01*
X146779174Y-88190603D01*
X146633497Y-88130263D01*
X146478844Y-88099500D01*
X146478842Y-88099500D01*
X146321158Y-88099500D01*
X146321155Y-88099500D01*
X146166503Y-88130263D01*
X146166501Y-88130263D01*
X146020825Y-88190603D01*
X146020814Y-88190609D01*
X145889711Y-88278211D01*
X145889707Y-88278214D01*
X145778214Y-88389707D01*
X145778211Y-88389711D01*
X145690609Y-88520814D01*
X145690603Y-88520825D01*
X145630263Y-88666501D01*
X145630263Y-88666503D01*
X145599500Y-88821155D01*
X145599500Y-88978844D01*
X145630263Y-89133496D01*
X145630263Y-89133498D01*
X145690603Y-89279174D01*
X145690609Y-89279186D01*
X145759182Y-89381811D01*
X145775791Y-89440699D01*
X145754614Y-89498103D01*
X145703740Y-89532096D01*
X145642602Y-89529694D01*
X145621868Y-89519130D01*
X145590399Y-89498103D01*
X145579180Y-89490606D01*
X145579174Y-89490603D01*
X145433497Y-89430263D01*
X145278844Y-89399500D01*
X145278842Y-89399500D01*
X145121158Y-89399500D01*
X145121155Y-89399500D01*
X144966503Y-89430263D01*
X144966501Y-89430263D01*
X144820825Y-89490603D01*
X144820814Y-89490609D01*
X144689711Y-89578211D01*
X144689707Y-89578214D01*
X144578214Y-89689707D01*
X144578211Y-89689711D01*
X144490609Y-89820814D01*
X144490603Y-89820825D01*
X144430263Y-89966501D01*
X144430263Y-89966503D01*
X144399500Y-90121155D01*
X140708897Y-90121155D01*
X140667645Y-90010463D01*
X140665843Y-90005178D01*
X140550209Y-89631785D01*
X140548743Y-89626547D01*
X140544447Y-89609390D01*
X140450974Y-89236119D01*
X140449855Y-89231091D01*
X140369873Y-88821437D01*
X140369057Y-88816625D01*
X140307429Y-88389707D01*
X140306836Y-88385598D01*
X140306291Y-88381098D01*
X140296226Y-88278211D01*
X140261822Y-87926545D01*
X140261510Y-87922465D01*
X140244758Y-87621184D01*
X140260405Y-87562036D01*
X140307832Y-87523380D01*
X140368923Y-87519983D01*
X140413609Y-87545687D01*
X140489711Y-87621789D01*
X140567876Y-87674017D01*
X140620814Y-87709390D01*
X140620825Y-87709396D01*
X140650743Y-87721788D01*
X140766503Y-87769737D01*
X140921158Y-87800500D01*
X140921159Y-87800500D01*
X141078841Y-87800500D01*
X141078842Y-87800500D01*
X141233497Y-87769737D01*
X141379179Y-87709394D01*
X141510289Y-87621789D01*
X141621789Y-87510289D01*
X141709394Y-87379179D01*
X141769737Y-87233497D01*
X141800500Y-87078842D01*
X141800500Y-87021155D01*
X142999500Y-87021155D01*
X142999500Y-87178844D01*
X143010372Y-87233498D01*
X143021602Y-87289958D01*
X143030263Y-87333496D01*
X143030263Y-87333498D01*
X143090603Y-87479174D01*
X143090609Y-87479185D01*
X143127064Y-87533742D01*
X143178211Y-87610289D01*
X143289711Y-87721789D01*
X143361469Y-87769736D01*
X143420814Y-87809390D01*
X143420825Y-87809396D01*
X143474638Y-87831685D01*
X143566503Y-87869737D01*
X143721158Y-87900500D01*
X143721159Y-87900500D01*
X143878841Y-87900500D01*
X143878842Y-87900500D01*
X144033497Y-87869737D01*
X144179179Y-87809394D01*
X144310289Y-87721789D01*
X144421789Y-87610289D01*
X144509394Y-87479179D01*
X144569737Y-87333497D01*
X144600500Y-87178842D01*
X144600500Y-87021158D01*
X144569737Y-86866503D01*
X144541314Y-86797884D01*
X144509396Y-86720825D01*
X144509390Y-86720814D01*
X144460703Y-86647950D01*
X144421789Y-86589711D01*
X144310289Y-86478211D01*
X144251866Y-86439174D01*
X144179185Y-86390609D01*
X144179174Y-86390603D01*
X144033497Y-86330263D01*
X143878844Y-86299500D01*
X143878842Y-86299500D01*
X143721158Y-86299500D01*
X143721155Y-86299500D01*
X143566503Y-86330263D01*
X143566501Y-86330263D01*
X143420825Y-86390603D01*
X143420814Y-86390609D01*
X143289711Y-86478211D01*
X143289707Y-86478214D01*
X143178214Y-86589707D01*
X143178211Y-86589711D01*
X143090609Y-86720814D01*
X143090603Y-86720825D01*
X143030263Y-86866501D01*
X143030263Y-86866503D01*
X142999500Y-87021155D01*
X141800500Y-87021155D01*
X141800500Y-86921158D01*
X141769737Y-86766503D01*
X141733569Y-86679185D01*
X141709396Y-86620825D01*
X141709390Y-86620814D01*
X141653196Y-86536715D01*
X141621789Y-86489711D01*
X141510289Y-86378211D01*
X141446582Y-86335643D01*
X141379185Y-86290609D01*
X141379174Y-86290603D01*
X141233497Y-86230263D01*
X141078844Y-86199500D01*
X141078842Y-86199500D01*
X140921158Y-86199500D01*
X140921155Y-86199500D01*
X140766503Y-86230263D01*
X140766501Y-86230263D01*
X140620825Y-86290603D01*
X140620814Y-86290609D01*
X140489711Y-86378211D01*
X140489701Y-86378219D01*
X140424754Y-86443166D01*
X140370237Y-86470943D01*
X140309805Y-86461371D01*
X140266541Y-86418106D01*
X140256469Y-86361264D01*
X140259571Y-86335643D01*
X140281071Y-86158047D01*
X140281757Y-86153337D01*
X140323405Y-85909460D01*
X140324334Y-85904728D01*
X140377233Y-85665958D01*
X140378390Y-85661283D01*
X140442269Y-85427815D01*
X140443663Y-85423169D01*
X140518240Y-85195257D01*
X140519864Y-85190681D01*
X140604862Y-84968567D01*
X140606698Y-84964103D01*
X140701858Y-84748006D01*
X140703932Y-84743598D01*
X140808961Y-84533821D01*
X140811248Y-84529523D01*
X140925918Y-84326233D01*
X140928388Y-84322096D01*
X140928982Y-84321155D01*
X145499500Y-84321155D01*
X145499500Y-84478844D01*
X145530263Y-84633496D01*
X145530263Y-84633498D01*
X145590603Y-84779174D01*
X145590609Y-84779185D01*
X145613710Y-84813757D01*
X145678211Y-84910289D01*
X145789711Y-85021789D01*
X145845195Y-85058862D01*
X145920814Y-85109390D01*
X145920825Y-85109396D01*
X145974638Y-85131685D01*
X146066503Y-85169737D01*
X146221158Y-85200500D01*
X146221159Y-85200500D01*
X146378841Y-85200500D01*
X146378842Y-85200500D01*
X146533497Y-85169737D01*
X146679179Y-85109394D01*
X146758616Y-85056315D01*
X146780597Y-85050115D01*
X146801265Y-85040405D01*
X146808754Y-85042174D01*
X146817503Y-85039707D01*
X146861360Y-85051904D01*
X146865087Y-85053956D01*
X146920821Y-85091196D01*
X146968948Y-85111130D01*
X146973748Y-85113773D01*
X146991113Y-85132286D01*
X147010416Y-85148772D01*
X147011736Y-85154272D01*
X147015607Y-85158399D01*
X147018774Y-85183585D01*
X147024700Y-85208267D01*
X147022535Y-85213493D01*
X147023241Y-85219106D01*
X147010998Y-85241344D01*
X147001285Y-85264795D01*
X146996461Y-85267750D01*
X146993734Y-85272706D01*
X146970765Y-85283498D01*
X146949117Y-85296765D01*
X146940313Y-85297806D01*
X146938357Y-85298726D01*
X146936136Y-85298301D01*
X146926005Y-85299500D01*
X146921155Y-85299500D01*
X146766503Y-85330263D01*
X146766501Y-85330263D01*
X146620825Y-85390603D01*
X146620814Y-85390609D01*
X146489711Y-85478211D01*
X146489707Y-85478214D01*
X146378214Y-85589707D01*
X146378211Y-85589711D01*
X146290609Y-85720814D01*
X146290603Y-85720825D01*
X146230263Y-85866501D01*
X146230263Y-85866503D01*
X146199500Y-86021155D01*
X146199500Y-86178844D01*
X146230263Y-86333496D01*
X146230263Y-86333498D01*
X146290603Y-86479174D01*
X146290609Y-86479185D01*
X146326899Y-86533496D01*
X146378211Y-86610289D01*
X146378214Y-86610292D01*
X146493150Y-86725228D01*
X146491426Y-86726951D01*
X146519342Y-86770589D01*
X146520641Y-86814872D01*
X146499500Y-86921154D01*
X146499500Y-87078844D01*
X146530263Y-87233496D01*
X146530263Y-87233498D01*
X146590603Y-87379174D01*
X146590609Y-87379185D01*
X146620585Y-87424046D01*
X146678211Y-87510289D01*
X146789711Y-87621789D01*
X146867876Y-87674017D01*
X146920814Y-87709390D01*
X146920825Y-87709396D01*
X146950743Y-87721788D01*
X147066503Y-87769737D01*
X147221158Y-87800500D01*
X147221159Y-87800500D01*
X147378841Y-87800500D01*
X147378842Y-87800500D01*
X147533497Y-87769737D01*
X147679179Y-87709394D01*
X147810289Y-87621789D01*
X147921789Y-87510289D01*
X148009394Y-87379179D01*
X148069737Y-87233497D01*
X148100500Y-87078842D01*
X148100500Y-86921158D01*
X148069737Y-86766503D01*
X148033569Y-86679185D01*
X148009396Y-86620825D01*
X148009390Y-86620814D01*
X147953196Y-86536715D01*
X147921789Y-86489711D01*
X147921784Y-86489706D01*
X147921781Y-86489702D01*
X147806851Y-86374773D01*
X147808570Y-86373053D01*
X147780650Y-86329385D01*
X147779358Y-86285128D01*
X147786257Y-86250445D01*
X147800500Y-86178842D01*
X147800500Y-86021158D01*
X147769737Y-85866503D01*
X147709394Y-85720821D01*
X147709390Y-85720813D01*
X147676303Y-85671296D01*
X147642799Y-85621155D01*
X148399500Y-85621155D01*
X148399500Y-85621158D01*
X148399500Y-85778842D01*
X148427742Y-85920825D01*
X148430263Y-85933496D01*
X148430263Y-85933498D01*
X148490603Y-86079174D01*
X148490609Y-86079185D01*
X148526097Y-86132295D01*
X148578211Y-86210289D01*
X148689711Y-86321789D01*
X148762708Y-86370564D01*
X148820814Y-86409390D01*
X148820825Y-86409396D01*
X148849654Y-86421337D01*
X148966503Y-86469737D01*
X149121158Y-86500500D01*
X149121159Y-86500500D01*
X149278841Y-86500500D01*
X149278842Y-86500500D01*
X149278843Y-86500499D01*
X149278850Y-86500499D01*
X149320537Y-86492206D01*
X149341717Y-86487993D01*
X149402479Y-86495183D01*
X149447409Y-86536715D01*
X149459347Y-86596725D01*
X149458131Y-86604403D01*
X149448073Y-86654966D01*
X149448073Y-86797884D01*
X149457179Y-86843660D01*
X149474513Y-86930805D01*
X149475954Y-86938046D01*
X149475954Y-86938048D01*
X149530641Y-87070075D01*
X149530647Y-87070086D01*
X149578412Y-87141570D01*
X149610041Y-87188906D01*
X149711094Y-87289959D01*
X149776252Y-87333496D01*
X149829913Y-87369352D01*
X149829924Y-87369358D01*
X149853649Y-87379185D01*
X149961953Y-87424046D01*
X150102118Y-87451927D01*
X150102119Y-87451927D01*
X150245027Y-87451927D01*
X150245028Y-87451927D01*
X150385193Y-87424046D01*
X150517226Y-87369356D01*
X150636052Y-87289959D01*
X150737105Y-87188906D01*
X150816502Y-87070080D01*
X150826453Y-87046053D01*
X150866188Y-86999527D01*
X150925682Y-86985242D01*
X150982211Y-87008655D01*
X150987922Y-87013933D01*
X151037521Y-87063532D01*
X151108362Y-87110866D01*
X151156340Y-87142925D01*
X151156351Y-87142931D01*
X151172341Y-87149554D01*
X151288380Y-87197619D01*
X151428545Y-87225500D01*
X151428546Y-87225500D01*
X151571454Y-87225500D01*
X151571455Y-87225500D01*
X151711620Y-87197619D01*
X151843653Y-87142929D01*
X151962479Y-87063532D01*
X152004856Y-87021155D01*
X154299500Y-87021155D01*
X154299500Y-87178844D01*
X154310372Y-87233498D01*
X154321602Y-87289958D01*
X154330263Y-87333496D01*
X154330263Y-87333498D01*
X154390603Y-87479174D01*
X154390609Y-87479185D01*
X154427064Y-87533742D01*
X154478211Y-87610289D01*
X154589711Y-87721789D01*
X154661469Y-87769736D01*
X154720814Y-87809390D01*
X154720825Y-87809396D01*
X154774638Y-87831685D01*
X154866503Y-87869737D01*
X155021158Y-87900500D01*
X155021159Y-87900500D01*
X155178841Y-87900500D01*
X155178842Y-87900500D01*
X155333497Y-87869737D01*
X155479179Y-87809394D01*
X155610289Y-87721789D01*
X155721789Y-87610289D01*
X155809394Y-87479179D01*
X155869737Y-87333497D01*
X155900500Y-87178842D01*
X155900500Y-87149554D01*
X155919407Y-87091363D01*
X155961614Y-87058090D01*
X156079179Y-87009394D01*
X156210289Y-86921789D01*
X156321789Y-86810289D01*
X156409394Y-86679179D01*
X156469737Y-86533497D01*
X156500500Y-86378842D01*
X156500500Y-86221158D01*
X156469737Y-86066503D01*
X156409394Y-85920821D01*
X156409393Y-85920819D01*
X156409390Y-85920814D01*
X156348656Y-85829921D01*
X156321789Y-85789711D01*
X156210289Y-85678211D01*
X156124905Y-85621159D01*
X156079185Y-85590609D01*
X156079174Y-85590603D01*
X155933497Y-85530263D01*
X155778844Y-85499500D01*
X155778842Y-85499500D01*
X155621158Y-85499500D01*
X155621155Y-85499500D01*
X155466503Y-85530263D01*
X155466501Y-85530263D01*
X155320825Y-85590603D01*
X155320814Y-85590609D01*
X155189711Y-85678211D01*
X155189707Y-85678214D01*
X155078214Y-85789707D01*
X155078211Y-85789711D01*
X154990609Y-85920814D01*
X154990603Y-85920825D01*
X154930263Y-86066501D01*
X154930263Y-86066503D01*
X154899500Y-86221155D01*
X154899500Y-86250445D01*
X154880593Y-86308636D01*
X154838386Y-86341909D01*
X154720822Y-86390605D01*
X154720814Y-86390609D01*
X154589711Y-86478211D01*
X154589707Y-86478214D01*
X154478214Y-86589707D01*
X154478211Y-86589711D01*
X154390609Y-86720814D01*
X154390603Y-86720825D01*
X154330263Y-86866501D01*
X154330263Y-86866503D01*
X154299500Y-87021155D01*
X152004856Y-87021155D01*
X152063532Y-86962479D01*
X152064328Y-86961288D01*
X152142925Y-86843660D01*
X152142931Y-86843648D01*
X152197619Y-86711620D01*
X152225500Y-86571455D01*
X152225500Y-86428545D01*
X152198966Y-86295151D01*
X152206158Y-86234391D01*
X152219542Y-86213025D01*
X152221775Y-86210302D01*
X152221789Y-86210289D01*
X152296948Y-86097806D01*
X152309390Y-86079186D01*
X152309396Y-86079174D01*
X152369737Y-85933497D01*
X152400500Y-85778842D01*
X152400500Y-85621158D01*
X152369737Y-85466503D01*
X152338300Y-85390606D01*
X152309396Y-85320825D01*
X152309390Y-85320814D01*
X152241430Y-85219106D01*
X152221789Y-85189711D01*
X152110289Y-85078211D01*
X152052664Y-85039707D01*
X151979185Y-84990609D01*
X151979174Y-84990603D01*
X151833497Y-84930263D01*
X151678844Y-84899500D01*
X151678842Y-84899500D01*
X151521158Y-84899500D01*
X151521155Y-84899500D01*
X151366503Y-84930263D01*
X151366501Y-84930263D01*
X151220825Y-84990603D01*
X151220814Y-84990609D01*
X151089711Y-85078211D01*
X151089707Y-85078214D01*
X150978214Y-85189707D01*
X150978211Y-85189711D01*
X150890604Y-85320822D01*
X150890603Y-85320825D01*
X150873442Y-85362255D01*
X150833705Y-85408780D01*
X150774210Y-85423063D01*
X150744094Y-85415832D01*
X150711620Y-85402381D01*
X150571457Y-85374500D01*
X150571455Y-85374500D01*
X150428545Y-85374500D01*
X150428542Y-85374500D01*
X150288380Y-85402381D01*
X150288378Y-85402381D01*
X150156351Y-85457068D01*
X150156341Y-85457073D01*
X150107429Y-85489756D01*
X150048541Y-85506364D01*
X149991137Y-85485186D01*
X149960967Y-85445330D01*
X149909394Y-85320821D01*
X149909391Y-85320816D01*
X149909390Y-85320814D01*
X149841430Y-85219106D01*
X149821789Y-85189711D01*
X149710289Y-85078211D01*
X149652664Y-85039707D01*
X149579185Y-84990609D01*
X149579174Y-84990603D01*
X149433497Y-84930263D01*
X149278844Y-84899500D01*
X149278842Y-84899500D01*
X149121158Y-84899500D01*
X149121155Y-84899500D01*
X148966503Y-84930263D01*
X148966501Y-84930263D01*
X148820825Y-84990603D01*
X148820814Y-84990609D01*
X148689711Y-85078211D01*
X148689707Y-85078214D01*
X148578214Y-85189707D01*
X148578211Y-85189711D01*
X148490609Y-85320814D01*
X148490603Y-85320825D01*
X148430263Y-85466501D01*
X148430263Y-85466503D01*
X148399500Y-85621155D01*
X147642799Y-85621155D01*
X147621789Y-85589711D01*
X147510292Y-85478214D01*
X147510289Y-85478211D01*
X147434883Y-85427826D01*
X147379185Y-85390609D01*
X147379174Y-85390603D01*
X147336110Y-85372766D01*
X147289584Y-85333030D01*
X147275300Y-85273535D01*
X147298715Y-85217007D01*
X147350883Y-85185037D01*
X147373995Y-85182302D01*
X147378841Y-85182302D01*
X147378842Y-85182302D01*
X147533497Y-85151539D01*
X147679179Y-85091196D01*
X147810289Y-85003591D01*
X147921789Y-84892091D01*
X148009394Y-84760981D01*
X148069737Y-84615299D01*
X148100500Y-84460644D01*
X148100500Y-84302960D01*
X148069737Y-84148305D01*
X148027781Y-84047014D01*
X148009396Y-84002627D01*
X148009390Y-84002616D01*
X147968748Y-83941792D01*
X147921789Y-83871513D01*
X147810289Y-83760013D01*
X147738358Y-83711950D01*
X147679185Y-83672411D01*
X147679174Y-83672405D01*
X147533497Y-83612065D01*
X147378844Y-83581302D01*
X147378842Y-83581302D01*
X147221158Y-83581302D01*
X147221155Y-83581302D01*
X147066503Y-83612065D01*
X147066501Y-83612065D01*
X146920825Y-83672405D01*
X146920816Y-83672410D01*
X146841383Y-83725486D01*
X146782495Y-83742094D01*
X146731381Y-83725486D01*
X146679176Y-83690604D01*
X146533497Y-83630263D01*
X146378844Y-83599500D01*
X146378842Y-83599500D01*
X146221158Y-83599500D01*
X146221155Y-83599500D01*
X146066503Y-83630263D01*
X146066501Y-83630263D01*
X145920825Y-83690603D01*
X145920814Y-83690609D01*
X145789711Y-83778211D01*
X145789707Y-83778214D01*
X145678214Y-83889707D01*
X145678211Y-83889711D01*
X145590609Y-84020814D01*
X145590603Y-84020825D01*
X145530263Y-84166501D01*
X145530263Y-84166503D01*
X145499500Y-84321155D01*
X140928982Y-84321155D01*
X141052415Y-84125580D01*
X141055090Y-84121565D01*
X141188221Y-83932061D01*
X141191119Y-83928148D01*
X141333036Y-83745984D01*
X141336090Y-83742256D01*
X141486627Y-83567562D01*
X141489850Y-83564004D01*
X141648684Y-83397120D01*
X141652134Y-83393671D01*
X141818996Y-83234857D01*
X141822577Y-83231615D01*
X141997248Y-83081097D01*
X142000999Y-83078024D01*
X142183173Y-82936100D01*
X142187063Y-82933220D01*
X142204237Y-82921155D01*
X144199500Y-82921155D01*
X144199500Y-83078844D01*
X144217605Y-83169860D01*
X144229884Y-83231594D01*
X144230263Y-83233496D01*
X144230263Y-83233498D01*
X144290603Y-83379174D01*
X144290609Y-83379185D01*
X144318656Y-83421159D01*
X144378211Y-83510289D01*
X144489711Y-83621789D01*
X144540069Y-83655437D01*
X144620814Y-83709390D01*
X144620825Y-83709396D01*
X144655989Y-83723961D01*
X144766503Y-83769737D01*
X144921158Y-83800500D01*
X144921159Y-83800500D01*
X145078841Y-83800500D01*
X145078842Y-83800500D01*
X145233497Y-83769737D01*
X145379179Y-83709394D01*
X145510289Y-83621789D01*
X145621789Y-83510289D01*
X145709394Y-83379179D01*
X145769737Y-83233497D01*
X145800500Y-83078842D01*
X145800500Y-82921158D01*
X145769737Y-82766503D01*
X145731173Y-82673400D01*
X145709396Y-82620825D01*
X145709390Y-82620814D01*
X145666249Y-82556250D01*
X145621789Y-82489711D01*
X145510289Y-82378211D01*
X145423106Y-82319957D01*
X145379185Y-82290609D01*
X145379174Y-82290603D01*
X145233497Y-82230263D01*
X145078844Y-82199500D01*
X145078842Y-82199500D01*
X144921158Y-82199500D01*
X144921155Y-82199500D01*
X144766503Y-82230263D01*
X144766501Y-82230263D01*
X144620825Y-82290603D01*
X144620814Y-82290609D01*
X144489711Y-82378211D01*
X144489707Y-82378214D01*
X144378214Y-82489707D01*
X144378211Y-82489711D01*
X144290609Y-82620814D01*
X144290603Y-82620825D01*
X144230263Y-82766501D01*
X144230263Y-82766503D01*
X144199500Y-82921155D01*
X142204237Y-82921155D01*
X142356007Y-82814532D01*
X142376531Y-82800114D01*
X142380579Y-82797415D01*
X142577084Y-82673396D01*
X142581276Y-82670894D01*
X142590171Y-82665877D01*
X142784520Y-82556249D01*
X142788836Y-82553954D01*
X142899100Y-82498748D01*
X142998615Y-82448923D01*
X143002992Y-82446865D01*
X143219105Y-82351697D01*
X143223569Y-82349861D01*
X143445700Y-82264855D01*
X143450269Y-82263235D01*
X143678165Y-82188663D01*
X143682811Y-82187269D01*
X143916279Y-82123390D01*
X143920954Y-82122233D01*
X144159744Y-82069329D01*
X144164461Y-82068404D01*
X144408338Y-82026756D01*
X144413048Y-82026070D01*
X144661775Y-81995958D01*
X144666479Y-81995504D01*
X144919799Y-81977223D01*
X144924533Y-81976995D01*
X145183139Y-81970813D01*
X145187222Y-81970802D01*
X145367935Y-81974094D01*
G37*
%TD.AperFunction*%
%TD*%
M02*
