%TF.GenerationSoftware,KiCad,Pcbnew,10.0.0*%
%TF.CreationDate,2026-04-10T22:26:25+01:00*%
%TF.ProjectId,aux-PCB,6175782d-5043-4422-9e6b-696361645f70,rev?*%
%TF.SameCoordinates,Original*%
%TF.FileFunction,Profile,NP*%
%FSLAX46Y46*%
G04 Gerber Fmt 4.6, Leading zero omitted, Abs format (unit mm)*
G04 Created by KiCad (PCBNEW 10.0.0) date 2026-04-10 22:26:25*
%MOMM*%
%LPD*%
G01*
G04 APERTURE LIST*
%TA.AperFunction,Profile*%
%ADD10C,0.100000*%
%TD*%
G04 APERTURE END LIST*
D10*
X141367453Y-91836028D02*
X141150526Y-91501344D01*
X147824575Y-82492912D02*
X147979245Y-82587110D01*
X140775120Y-90808798D02*
X140616387Y-90447095D01*
X158660464Y-83431087D02*
X158820608Y-83616928D01*
X149349284Y-83785422D02*
X149581473Y-84074461D01*
X143145018Y-82165224D02*
X143380897Y-82074957D01*
X145755661Y-81801384D02*
X145941695Y-81825296D01*
X148279453Y-82790495D02*
X148567064Y-83013027D01*
X145567422Y-81784149D02*
X145755661Y-81801384D01*
X140329957Y-85125897D02*
X140420224Y-84890018D01*
X140126986Y-85868486D02*
X140183054Y-85615414D01*
X143380897Y-82074957D02*
X143622790Y-81995806D01*
X141028380Y-83810766D02*
X141179392Y-83616928D01*
X142432917Y-93142331D02*
X142136635Y-92816778D01*
X159245114Y-84221306D02*
X159367028Y-84437439D01*
X156179158Y-94488941D02*
X154460710Y-95998797D01*
X158313913Y-83084536D02*
X158491471Y-83253529D01*
X158632548Y-91836028D02*
X158139619Y-92491824D01*
X146125462Y-81855758D02*
X146306899Y-81892643D01*
X156129587Y-81928054D02*
X156377211Y-81995806D01*
X145184584Y-81770209D02*
X145377042Y-81773715D01*
X141871928Y-82924392D02*
X142065766Y-82773380D01*
X143870414Y-81928054D02*
X144123486Y-81871986D01*
X154460710Y-95998797D02*
X152403678Y-97794837D01*
X140250806Y-85367790D02*
X140329957Y-85125897D01*
X140171660Y-88852593D02*
X140107399Y-88407440D01*
X159478677Y-84660438D02*
X159579777Y-84890018D01*
X159948970Y-86389840D02*
X159968289Y-86657555D01*
X155876515Y-81871986D02*
X156129587Y-81928054D01*
X140061654Y-87939835D02*
X140034299Y-87447857D01*
X140034299Y-87447857D02*
X140025209Y-86929584D01*
X150418526Y-84074460D02*
G75*
G02*
X149581456Y-84074440I-418526J374460D01*
G01*
X140031712Y-86657555D02*
X140051031Y-86389840D01*
X142136635Y-92816778D02*
X141860381Y-92491824D01*
X141339536Y-83431087D02*
X141508529Y-83253529D01*
X148754327Y-98838594D02*
X147596323Y-97794837D01*
X159828341Y-88852593D02*
X159745437Y-89277214D01*
X151432936Y-83013027D02*
X151720548Y-82790495D01*
X157732681Y-82631784D02*
X157934234Y-82773380D01*
X150418528Y-84074461D02*
X150650716Y-83785422D01*
X143622790Y-81995806D02*
X143870414Y-81928054D01*
X142692439Y-82377972D02*
X142915438Y-82266323D01*
X156619104Y-82074957D02*
X156854982Y-82165224D01*
X158139619Y-92491824D02*
X157567083Y-93142331D01*
X140025209Y-86929584D02*
X140031712Y-86657555D01*
X140632972Y-84437439D02*
X140754887Y-84221306D01*
X159383613Y-90447095D02*
X159224881Y-90808798D01*
X140420224Y-84890018D02*
X140521323Y-84660438D01*
X140754887Y-84221306D02*
X140886784Y-84012320D01*
X159938347Y-87939835D02*
X159892602Y-88407440D01*
X156377211Y-81995806D02*
X156619104Y-82074957D01*
X150650716Y-83785422D02*
X150897517Y-83511498D01*
X140107399Y-88407440D02*
X140061654Y-87939835D01*
X143820843Y-94488941D02*
X143086069Y-93802914D01*
X151720548Y-82790495D02*
X152020755Y-82587110D01*
X159113216Y-84012320D02*
X159245114Y-84221306D01*
X141150526Y-91501344D02*
X140953124Y-91159574D01*
X151245674Y-98838594D02*
X150136387Y-99872840D01*
X158128073Y-82924392D02*
X158313913Y-83084536D01*
X159224881Y-90808798D02*
X159046877Y-91159574D01*
X144123486Y-81871986D02*
X144381722Y-81827884D01*
X157934234Y-82773380D02*
X158128073Y-82924392D01*
X146662530Y-81985183D02*
X146836598Y-82040585D01*
X159968289Y-86657555D02*
X159974792Y-86929584D01*
X159745437Y-89277214D02*
X159643765Y-89683224D01*
X140051031Y-86389840D02*
X140082884Y-86126722D01*
X140082884Y-86126722D02*
X140126986Y-85868486D01*
X140183054Y-85615414D02*
X140250806Y-85367790D01*
X152403678Y-97794837D02*
X151245674Y-98838594D01*
X140254564Y-89277214D02*
X140171660Y-88852593D01*
X145539291Y-95998797D02*
X143820843Y-94488941D01*
X142915438Y-82266323D02*
X143145018Y-82165224D01*
X144912555Y-81776712D02*
X145184584Y-81770209D01*
X140476801Y-90072544D02*
X140356235Y-89683224D01*
X149102484Y-83511498D02*
X149349284Y-83785422D01*
X142065766Y-82773380D02*
X142267320Y-82631784D01*
X140616387Y-90447095D02*
X140476801Y-90072544D01*
X157307561Y-82377972D02*
X157523695Y-82499887D01*
X159974792Y-86929584D02*
X159938347Y-87939835D01*
X147979245Y-82587110D02*
X148279453Y-82790495D01*
X153693102Y-81892643D02*
X154058305Y-81825296D01*
X141860381Y-92491824D02*
X141604029Y-92165548D01*
X156854982Y-82165224D02*
X157084562Y-82266323D01*
X155087446Y-81776712D02*
X155355161Y-81796031D01*
X159367028Y-84437439D02*
X159478677Y-84660438D01*
X144381722Y-81827884D02*
X144644840Y-81796031D01*
X152020755Y-82587110D02*
X152333056Y-82403878D01*
X158971620Y-83810766D02*
X159113216Y-84012320D01*
X146836598Y-82040585D02*
X147008083Y-82101907D01*
X140886784Y-84012320D02*
X141028380Y-83810766D01*
X151158424Y-83253697D02*
X151432936Y-83013027D01*
X157567083Y-93142331D02*
X156913932Y-93802914D01*
X146485942Y-81935827D02*
X146662530Y-81985183D01*
X159523199Y-90072544D02*
X159383613Y-90447095D01*
X156913932Y-93802914D02*
X156179158Y-94488941D01*
X152991917Y-82101907D02*
X153337471Y-81985183D01*
X141604029Y-92165548D02*
X141367453Y-91836028D01*
X159579777Y-84890018D02*
X159670044Y-85125897D01*
X150136387Y-99872840D02*
G75*
G02*
X149863613Y-99872840I-136387J146240D01*
G01*
X152333056Y-82403878D02*
X152656944Y-82241808D01*
X152656944Y-82241808D02*
X152991917Y-82101907D01*
X148567064Y-83013027D02*
X148841576Y-83253697D01*
X159643765Y-89683224D02*
X159523199Y-90072544D01*
X154432578Y-81784149D02*
X154815417Y-81770209D01*
X159816946Y-85615414D02*
X159873015Y-85868486D01*
X154815417Y-81770209D02*
X155087446Y-81776712D01*
X158491471Y-83253529D02*
X158660464Y-83431087D01*
X147008083Y-82101907D02*
X147176924Y-82169023D01*
X145377042Y-81773715D02*
X145567422Y-81784149D01*
X146306899Y-81892643D02*
X146485942Y-81935827D01*
X157084562Y-82266323D02*
X157307561Y-82377972D01*
X140521323Y-84660438D02*
X140632972Y-84437439D01*
X147596323Y-97794837D02*
X145539291Y-95998797D01*
X143086069Y-93802914D02*
X142432917Y-93142331D01*
X144644840Y-81796031D02*
X144912555Y-81776712D01*
X158820608Y-83616928D02*
X158971620Y-83810766D01*
X145941695Y-81825296D02*
X146125462Y-81855758D01*
X141686087Y-83084536D02*
X141871928Y-82924392D01*
X158849474Y-91501344D02*
X158632548Y-91836028D01*
X153337471Y-81985183D02*
X153693102Y-81892643D01*
X157523695Y-82499887D02*
X157732681Y-82631784D01*
X147343056Y-82241808D02*
X147506418Y-82320135D01*
X159749195Y-85367790D02*
X159816946Y-85615414D01*
X159046877Y-91159574D02*
X158849474Y-91501344D01*
X141179392Y-83616928D02*
X141339536Y-83431087D01*
X140356235Y-89683224D02*
X140254564Y-89277214D01*
X159873015Y-85868486D02*
X159917117Y-86126722D01*
X147666945Y-82403878D02*
X147824575Y-82492912D01*
X154058305Y-81825296D02*
X154432578Y-81784149D01*
X155618278Y-81827884D02*
X155876515Y-81871986D01*
X159917117Y-86126722D02*
X159948970Y-86389840D01*
X141508529Y-83253529D02*
X141686087Y-83084536D01*
X155355161Y-81796031D02*
X155618278Y-81827884D01*
X147506418Y-82320135D02*
X147666945Y-82403878D01*
X159670044Y-85125897D02*
X159749195Y-85367790D01*
X159892602Y-88407440D02*
X159828341Y-88852593D01*
X142476306Y-82499887D02*
X142692439Y-82377972D01*
X149863613Y-99872839D02*
X148754327Y-98838594D01*
X148841576Y-83253697D02*
X149102484Y-83511498D01*
X140953124Y-91159574D02*
X140775120Y-90808798D01*
X150897517Y-83511498D02*
X151158424Y-83253697D01*
X147176924Y-82169023D02*
X147343056Y-82241808D01*
X142267320Y-82631784D02*
X142476306Y-82499887D01*
M02*
