<?xml version="1.0" standalone="no"?>
 <!DOCTYPE svg PUBLIC "-//W3C//DTD SVG 1.1//EN" 
 "http://www.w3.org/Graphics/SVG/1.1/DTD/svg11.dtd"> 
<svg
  xmlns:svg="http://www.w3.org/2000/svg"
  xmlns="http://www.w3.org/2000/svg"
  xmlns:xlink="http://www.w3.org/1999/xlink"
  version="1.1"
  width="297.0022mm" height="210.0072mm" viewBox="0.0000 0.0000 297.0022 210.0072">
<title>SVG Image created as aux-PCB-Edge_Cuts.svg date 2026/03/03 23:12:25 </title>
  <desc>Image generated by PCBNEW </desc>
<g style="fill:#000000; fill-opacity:1.0000;stroke:#000000; stroke-opacity:1.0000;
stroke-linecap:round; stroke-linejoin:round;"
 transform="translate(0 0) scale(1 1)">
</g>
<g style="fill:none; 
stroke:#000000; stroke-width:0.1000; stroke-opacity:1; 
stroke-linecap:round; stroke-linejoin:round;">
<path d="M149.8636 99.8728 A0.2000 0.2000 0.0 0 0 150.1364 99.8728" />
<path d="M149.8636 99.8728
L148.7543 98.8386
" />
<path d="M151.2457 98.8386
L150.1364 99.8728
" />
<path d="M149.5815 84.0744 A0.5616 0.5616 0.0 0 0 150.4185 84.0745" />
<path d="M154.8154 81.7702
L155.0874 81.7767
" />
<path d="M154.4326 81.7841
L154.8154 81.7702
" />
<path d="M154.0583 81.8253
L154.4326 81.7841
" />
<path d="M153.6931 81.8926
L154.0583 81.8253
" />
<path d="M153.3375 81.9852
L153.6931 81.8926
" />
<path d="M152.9919 82.1019
L153.3375 81.9852
" />
<path d="M152.6569 82.2418
L152.9919 82.1019
" />
<path d="M152.3331 82.4039
L152.6569 82.2418
" />
<path d="M152.0208 82.5871
L152.3331 82.4039
" />
<path d="M151.7205 82.7905
L152.0208 82.5871
" />
<path d="M151.4329 83.0130
L151.7205 82.7905
" />
<path d="M151.1584 83.2537
L151.4329 83.0130
" />
<path d="M150.8975 83.5115
L151.1584 83.2537
" />
<path d="M150.6507 83.7854
L150.8975 83.5115
" />
<path d="M150.4185 84.0745
L150.6507 83.7854
" />
<path d="M149.3493 83.7854
L149.5815 84.0745
" />
<path d="M149.1025 83.5115
L149.3493 83.7854
" />
<path d="M148.8416 83.2537
L149.1025 83.5115
" />
<path d="M148.5671 83.0130
L148.8416 83.2537
" />
<path d="M148.2795 82.7905
L148.5671 83.0130
" />
<path d="M147.9792 82.5871
L148.2795 82.7905
" />
<path d="M147.8246 82.4929
L147.9792 82.5871
" />
<path d="M147.6669 82.4039
L147.8246 82.4929
" />
<path d="M147.5064 82.3201
L147.6669 82.4039
" />
<path d="M147.3431 82.2418
L147.5064 82.3201
" />
<path d="M147.1769 82.1690
L147.3431 82.2418
" />
<path d="M147.0081 82.1019
L147.1769 82.1690
" />
<path d="M146.8366 82.0406
L147.0081 82.1019
" />
<path d="M146.6625 81.9852
L146.8366 82.0406
" />
<path d="M146.4859 81.9358
L146.6625 81.9852
" />
<path d="M146.3069 81.8926
L146.4859 81.9358
" />
<path d="M146.1255 81.8558
L146.3069 81.8926
" />
<path d="M145.9417 81.8253
L146.1255 81.8558
" />
<path d="M145.7557 81.8014
L145.9417 81.8253
" />
<path d="M145.5674 81.7841
L145.7557 81.8014
" />
<path d="M145.3770 81.7737
L145.5674 81.7841
" />
<path d="M145.1846 81.7702
L145.3770 81.7737
" />
<path d="M144.9126 81.7767
L145.1846 81.7702
" />
<path d="M144.6448 81.7960
L144.9126 81.7767
" />
<path d="M144.3817 81.8279
L144.6448 81.7960
" />
<path d="M144.1235 81.8720
L144.3817 81.8279
" />
<path d="M143.8704 81.9281
L144.1235 81.8720
" />
<path d="M143.6228 81.9958
L143.8704 81.9281
" />
<path d="M143.3809 82.0750
L143.6228 81.9958
" />
<path d="M143.1450 82.1652
L143.3809 82.0750
" />
<path d="M142.9154 82.2663
L143.1450 82.1652
" />
<path d="M142.6924 82.3780
L142.9154 82.2663
" />
<path d="M142.4763 82.4999
L142.6924 82.3780
" />
<path d="M142.2673 82.6318
L142.4763 82.4999
" />
<path d="M142.0658 82.7734
L142.2673 82.6318
" />
<path d="M141.8719 82.9244
L142.0658 82.7734
" />
<path d="M141.6861 83.0845
L141.8719 82.9244
" />
<path d="M141.5085 83.2535
L141.6861 83.0845
" />
<path d="M141.3395 83.4311
L141.5085 83.2535
" />
<path d="M141.1794 83.6169
L141.3395 83.4311
" />
<path d="M141.0284 83.8108
L141.1794 83.6169
" />
<path d="M140.8868 84.0123
L141.0284 83.8108
" />
<path d="M140.7549 84.2213
L140.8868 84.0123
" />
<path d="M140.6330 84.4374
L140.7549 84.2213
" />
<path d="M140.5213 84.6604
L140.6330 84.4374
" />
<path d="M140.4202 84.8900
L140.5213 84.6604
" />
<path d="M140.3300 85.1259
L140.4202 84.8900
" />
<path d="M140.2508 85.3678
L140.3300 85.1259
" />
<path d="M140.1831 85.6154
L140.2508 85.3678
" />
<path d="M140.1270 85.8685
L140.1831 85.6154
" />
<path d="M140.0829 86.1267
L140.1270 85.8685
" />
<path d="M140.0510 86.3898
L140.0829 86.1267
" />
<path d="M140.0317 86.6576
L140.0510 86.3898
" />
<path d="M140.0252 86.9296
L140.0317 86.6576
" />
<path d="M140.0343 87.4479
L140.0252 86.9296
" />
<path d="M140.0617 87.9398
L140.0343 87.4479
" />
<path d="M140.1074 88.4074
L140.0617 87.9398
" />
<path d="M140.1717 88.8526
L140.1074 88.4074
" />
<path d="M140.2546 89.2772
L140.1717 88.8526
" />
<path d="M140.3562 89.6832
L140.2546 89.2772
" />
<path d="M140.4768 90.0725
L140.3562 89.6832
" />
<path d="M140.6164 90.4471
L140.4768 90.0725
" />
<path d="M140.7751 90.8088
L140.6164 90.4471
" />
<path d="M140.9531 91.1596
L140.7751 90.8088
" />
<path d="M141.1505 91.5013
L140.9531 91.1596
" />
<path d="M141.3675 91.8360
L141.1505 91.5013
" />
<path d="M141.6040 92.1655
L141.3675 91.8360
" />
<path d="M141.8604 92.4918
L141.6040 92.1655
" />
<path d="M142.1366 92.8168
L141.8604 92.4918
" />
<path d="M142.4329 93.1423
L142.1366 92.8168
" />
<path d="M143.0861 93.8029
L142.4329 93.1423
" />
<path d="M143.8208 94.4889
L143.0861 93.8029
" />
<path d="M145.5393 95.9988
L143.8208 94.4889
" />
<path d="M147.5963 97.7948
L145.5393 95.9988
" />
<path d="M148.7543 98.8386
L147.5963 97.7948
" />
<path d="M152.4037 97.7948
L151.2457 98.8386
" />
<path d="M154.4607 95.9988
L152.4037 97.7948
" />
<path d="M156.1792 94.4889
L154.4607 95.9988
" />
<path d="M156.9139 93.8029
L156.1792 94.4889
" />
<path d="M157.5671 93.1423
L156.9139 93.8029
" />
<path d="M158.1396 92.4918
L157.5671 93.1423
" />
<path d="M158.6325 91.8360
L158.1396 92.4918
" />
<path d="M158.8495 91.5013
L158.6325 91.8360
" />
<path d="M159.0469 91.1596
L158.8495 91.5013
" />
<path d="M159.2249 90.8088
L159.0469 91.1596
" />
<path d="M159.3836 90.4471
L159.2249 90.8088
" />
<path d="M159.5232 90.0725
L159.3836 90.4471
" />
<path d="M159.6438 89.6832
L159.5232 90.0725
" />
<path d="M159.7454 89.2772
L159.6438 89.6832
" />
<path d="M159.8283 88.8526
L159.7454 89.2772
" />
<path d="M159.8926 88.4074
L159.8283 88.8526
" />
<path d="M159.9383 87.9398
L159.8926 88.4074
" />
<path d="M159.9748 86.9296
L159.9383 87.9398
" />
<path d="M159.9683 86.6576
L159.9748 86.9296
" />
<path d="M159.9490 86.3898
L159.9683 86.6576
" />
<path d="M159.9171 86.1267
L159.9490 86.3898
" />
<path d="M159.8730 85.8685
L159.9171 86.1267
" />
<path d="M159.8169 85.6154
L159.8730 85.8685
" />
<path d="M159.7492 85.3678
L159.8169 85.6154
" />
<path d="M159.6700 85.1259
L159.7492 85.3678
" />
<path d="M159.5798 84.8900
L159.6700 85.1259
" />
<path d="M159.4787 84.6604
L159.5798 84.8900
" />
<path d="M159.3670 84.4374
L159.4787 84.6604
" />
<path d="M159.2451 84.2213
L159.3670 84.4374
" />
<path d="M159.1132 84.0123
L159.2451 84.2213
" />
<path d="M158.9716 83.8108
L159.1132 84.0123
" />
<path d="M158.8206 83.6169
L158.9716 83.8108
" />
<path d="M158.6605 83.4311
L158.8206 83.6169
" />
<path d="M158.4915 83.2535
L158.6605 83.4311
" />
<path d="M158.3139 83.0845
L158.4915 83.2535
" />
<path d="M158.1281 82.9244
L158.3139 83.0845
" />
<path d="M157.9342 82.7734
L158.1281 82.9244
" />
<path d="M157.7327 82.6318
L157.9342 82.7734
" />
<path d="M157.5237 82.4999
L157.7327 82.6318
" />
<path d="M157.3076 82.3780
L157.5237 82.4999
" />
<path d="M157.0846 82.2663
L157.3076 82.3780
" />
<path d="M156.8550 82.1652
L157.0846 82.2663
" />
<path d="M156.6191 82.0750
L156.8550 82.1652
" />
<path d="M156.3772 81.9958
L156.6191 82.0750
" />
<path d="M156.1296 81.9281
L156.3772 81.9958
" />
<path d="M155.8765 81.8720
L156.1296 81.9281
" />
<path d="M155.6183 81.8279
L155.8765 81.8720
" />
<path d="M155.3552 81.7960
L155.6183 81.8279
" />
<path d="M155.0874 81.7767
L155.3552 81.7960
" />
</g> 
</svg>
