999
"DXF R12 Output" (www.mydxf.blogspot.com)
 0 
SECTION
 2 
HEADER
 9 
$ACADVER
 1 
AC1009
 9 
$EXTMIN
 10 
 0 
 20 
 0 
 9 
$EXTMAX
 10 
 8.5 
 20 
 11 
 0 
ENDSEC
 0 
SECTION
 2 
ENTITIES
0
POLYLINE
8
Layer 1
62
7
70
0
10
0.000000
20
0.000000
66
1
0
VERTEX
8
Layer 1
10
15.345814
20
23.547889
70
0
0
VERTEX
8
Layer 1
10
13.965021
20
25.366897
70
0
0
VERTEX
8
Layer 1
10
12.236964
20
26.789031
70
0
0
VERTEX
8
Layer 1
10
11.258213
20
27.320264
70
0
0
VERTEX
8
Layer 1
10
10.211250
20
27.715071
70
0
0
VERTEX
8
Layer 1
10
9.102275
20
27.961051
70
0
0
VERTEX
8
Layer 1
10
7.937490
20
28.045800
70
0
0
VERTEX
8
Layer 1
10
6.305034
20
27.889221
70
0
0
VERTEX
8
Layer 1
10
4.799701
20
27.438086
70
0
0
VERTEX
8
Layer 1
10
3.449398
20
26.720301
70
0
0
VERTEX
8
Layer 1
10
2.282028
20
25.763772
70
0
0
VERTEX
8
Layer 1
10
1.325499
20
24.596402
70
0
0
VERTEX
8
Layer 1
10
0.607714
20
23.246099
70
0
0
VERTEX
8
Layer 1
10
0.156579
20
21.740766
70
0
0
VERTEX
8
Layer 1
10
0.000000
20
20.108310
70
0
0
VERTEX
8
Layer 1
10
0.225309
20
17.149838
70
0
0
VERTEX
8
Layer 1
10
0.909504
20
14.696761
70
0
0
VERTEX
8
Layer 1
10
2.064988
20
12.559943
70
0
0
VERTEX
8
Layer 1
10
3.704162
20
10.550249
70
0
0
VERTEX
8
Layer 1
10
5.839429
20
8.478544
70
0
0
VERTEX
8
Layer 1
10
8.483192
20
6.155691
70
0
0
VERTEX
8
Layer 1
10
11.647853
20
3.392556
70
0
0
VERTEX
8
Layer 1
10
15.345814
20
0.000002
70
0
0
VERTEX
8
Layer 1
10
19.043775
20
3.392556
70
0
0
VERTEX
8
Layer 1
10
22.208436
20
6.155691
70
0
0
VERTEX
8
Layer 1
10
24.852199
20
8.478544
70
0
0
VERTEX
8
Layer 1
10
26.987466
20
10.550249
70
0
0
VERTEX
8
Layer 1
10
28.626640
20
12.559943
70
0
0
VERTEX
8
Layer 1
10
29.782124
20
14.696761
70
0
0
VERTEX
8
Layer 1
10
30.466319
20
17.149838
70
0
0
VERTEX
8
Layer 1
10
30.691628
20
20.108310
70
0
0
VERTEX
8
Layer 1
10
30.535049
20
21.740766
70
0
0
VERTEX
8
Layer 1
10
30.083914
20
23.246099
70
0
0
VERTEX
8
Layer 1
10
29.366129
20
24.596402
70
0
0
VERTEX
8
Layer 1
10
28.409600
20
25.763772
70
0
0
VERTEX
8
Layer 1
10
27.242230
20
26.720301
70
0
0
VERTEX
8
Layer 1
10
25.891927
20
27.438086
70
0
0
VERTEX
8
Layer 1
10
24.386594
20
27.889221
70
0
0
VERTEX
8
Layer 1
10
22.754138
20
28.045800
70
0
0
VERTEX
8
Layer 1
10
21.589353
20
27.961051
70
0
0
VERTEX
8
Layer 1
10
20.480378
20
27.715071
70
0
0
VERTEX
8
Layer 1
10
19.433415
20
27.320264
70
0
0
VERTEX
8
Layer 1
10
18.454664
20
26.789031
70
0
0
VERTEX
8
Layer 1
10
16.726607
20
25.366897
70
0
0
VERTEX
8
Layer 1
10
15.345814
20
23.547889
70
0
0
VERTEX
8
Layer 1
10
15.345814
20
23.547889
70
0
0
SEQEND
8
Layer 1
 0 
ENDSEC
 0 
EOF