  0
SECTION
  2
HEADER
  9
$ANGBASE
  50
0.0
  9
$ANGDIR
  70
1
  9
$MEASUREMENT
  70
1
  9
$INSUNITS
  70
4
  0
ENDSEC
  0
SECTION
  2
TABLES
  0
TABLE
  2
LTYPE
  70
4
  0
LTYPE
  5
40F
  2
CONTINUOUS
  70
0
  3
Solid line
  72
65
  73
0
  40
0.0
  0
LTYPE
  5
410
  2
DASHDOT
 70
0
  3
Dash Dot ____ _ ____ _
 72
65
 73
4
 40
2.0
 49
1.25
 49
-0.25
 49
0.25
 49
-0.25
  0
LTYPE
  5
411
  2
DASHED
 70
0
  3
Dashed __ __ __ __ __
 72
65
 73
2
 40
0.75
 49
0.5
 49
-0.25
  0
LTYPE
  5
43B
  2
DOTTED
 70
0
  3
Dotted .  .  .  .
 72
65
 73
2
 40
0.2
 49
0.0
 49
-0.2
  0
ENDTAB
  0
TABLE
  2
STYLE
  70
4
  0
STYLE
  2
KICAD
  70
0
  40
0
  41
1
  42
1
  50
0
  71
0
  3
isocp.shx
  0
STYLE
  2
KICADB
  70
0
  40
0
  41
1
  42
1
  50
0
  71
0
  3
isocp.shx
  0
STYLE
  2
KICADI
  70
0
  40
0
  41
1
  42
1
  50
15
  71
0
  3
isocp.shx
  0
STYLE
  2
KICADBI
  70
0
  40
0
  41
1
  42
1
  50
15
  71
0
  3
isocp.shx
  0
ENDTAB
  0
TABLE
  2
LAYER
  70
1
  0
LAYER
  2
Edge.Cuts
  70
0
  62
254
  420
13685453
  6
CONTINUOUS
  0
ENDTAB
  0
ENDSEC
  0
SECTION
  2
ENTITIES
0
LINE
8
Edge.Cuts
6
CONTINUOUS
10
156.1296009999999796
20
-81.9280669999999986
11
156.3772249999999815
21
-81.9958189999999973
0
LINE
8
Edge.Cuts
6
CONTINUOUS
10
156.1791719999999941
20
-94.4889539999999926
11
154.460723999999999
21
-95.9988099999999918
0
LINE
8
Edge.Cuts
6
CONTINUOUS
10
140.0252229999999827
20
-86.9295970000000011
11
140.0317259999999919
21
-86.6575679999999977
0
LINE
8
Edge.Cuts
6
CONTINUOUS
10
140.0317259999999919
20
-86.6575679999999977
11
140.0510449999999878
21
-86.3898530000000022
0
LINE
8
Edge.Cuts
6
CONTINUOUS
10
140.0343129999999974
20
-87.4478699999999947
11
140.0252229999999827
21
-86.9295970000000011
0
LINE
8
Edge.Cuts
6
CONTINUOUS
10
140.0510449999999878
20
-86.3898530000000022
11
140.0828980000000001
21
-86.1267349999999965
0
LINE
8
Edge.Cuts
6
CONTINUOUS
10
140.0616679999999974
20
-87.9398479999999978
11
140.0343129999999974
21
-87.4478699999999947
0
LINE
8
Edge.Cuts
6
CONTINUOUS
10
140.0828980000000001
20
-86.1267349999999965
11
140.1269999999999811
21
-85.8684989999999999
0
LINE
8
Edge.Cuts
6
CONTINUOUS
10
140.1074129999999798
20
-88.4074529999999896
11
140.0616679999999974
21
-87.9398479999999978
0
LINE
8
Edge.Cuts
6
CONTINUOUS
10
140.1269999999999811
20
-85.8684989999999999
11
140.1830679999999916
21
-85.6154269999999968
0
LINE
8
Edge.Cuts
6
CONTINUOUS
10
140.1716739999999959
20
-88.8526059999999944
11
140.1074129999999798
21
-88.4074529999999896
0
LINE
8
Edge.Cuts
6
CONTINUOUS
10
140.1830679999999916
20
-85.6154269999999968
11
140.2508200000000045
21
-85.367802999999995
0
LINE
8
Edge.Cuts
6
CONTINUOUS
10
140.2508200000000045
20
-85.367802999999995
11
140.3299710000000005
21
-85.1259099999999904
0
LINE
8
Edge.Cuts
6
CONTINUOUS
10
140.2545779999999809
20
-89.2772269999999963
11
140.1716739999999959
21
-88.8526059999999944
0
LINE
8
Edge.Cuts
6
CONTINUOUS
10
140.3299710000000005
20
-85.1259099999999904
11
140.4202379999999835
21
-84.8900309999999934
0
LINE
8
Edge.Cuts
6
CONTINUOUS
10
140.3562489999999912
20
-89.6832369999999912
11
140.2545779999999809
21
-89.2772269999999963
0
LINE
8
Edge.Cuts
6
CONTINUOUS
10
140.4202379999999835
20
-84.8900309999999934
11
140.5213369999999884
21
-84.6604509999999948
0
LINE
8
Edge.Cuts
6
CONTINUOUS
10
140.4768149999999878
20
-90.0725569999999891
11
140.3562489999999912
21
-89.6832369999999912
0
LINE
8
Edge.Cuts
6
CONTINUOUS
10
140.5213369999999884
20
-84.6604509999999948
11
140.6329859999999883
21
-84.4374519999999933
0
LINE
8
Edge.Cuts
6
CONTINUOUS
10
140.6164009999999962
20
-90.4471080000000001
11
140.4768149999999878
21
-90.0725569999999891
0
LINE
8
Edge.Cuts
6
CONTINUOUS
10
140.6329859999999883
20
-84.4374519999999933
11
140.7549009999999896
21
-84.221318999999994
0
LINE
8
Edge.Cuts
6
CONTINUOUS
10
140.7549009999999896
20
-84.221318999999994
11
140.8867979999999989
21
-84.0123329999999982
0
LINE
8
Edge.Cuts
6
CONTINUOUS
10
140.77513399999998
20
-90.8088109999999915
11
140.6164009999999962
21
-90.4471080000000001
0
LINE
8
Edge.Cuts
6
CONTINUOUS
10
140.8867979999999989
20
-84.0123329999999982
11
141.0283939999999916
21
-83.8107789999999966
0
LINE
8
Edge.Cuts
6
CONTINUOUS
10
140.9531379999999956
20
-91.1595870000000019
11
140.77513399999998
21
-90.8088109999999915
0
LINE
8
Edge.Cuts
6
CONTINUOUS
10
141.0283939999999916
20
-83.8107789999999966
11
141.1794060000000002
21
-83.6169409999999971
0
LINE
8
Edge.Cuts
6
CONTINUOUS
10
141.1505400000000066
20
-91.5013569999999987
11
140.9531379999999956
21
-91.1595870000000019
0
LINE
8
Edge.Cuts
6
CONTINUOUS
10
141.1794060000000002
20
-83.6169409999999971
11
141.3395500000000027
21
-83.4311000000000007
0
LINE
8
Edge.Cuts
6
CONTINUOUS
10
141.3395500000000027
20
-83.4311000000000007
11
141.5085430000000031
21
-83.2535419999999959
0
LINE
8
Edge.Cuts
6
CONTINUOUS
10
141.3674670000000049
20
-91.8360409999999945
11
141.1505400000000066
21
-91.5013569999999987
0
LINE
8
Edge.Cuts
6
CONTINUOUS
10
141.5085430000000031
20
-83.2535419999999959
11
141.6861009999999794
21
-83.0845489999999955
0
LINE
8
Edge.Cuts
6
CONTINUOUS
10
141.6040429999999901
20
-92.1655609999999967
11
141.3674670000000049
21
-91.8360409999999945
0
LINE
8
Edge.Cuts
6
CONTINUOUS
10
141.6861009999999794
20
-83.0845489999999955
11
141.87194199999999
21
-82.924404999999993
0
LINE
8
Edge.Cuts
6
CONTINUOUS
10
141.8603949999999827
20
-92.4918369999999896
11
141.6040429999999901
21
-92.1655609999999967
0
LINE
8
Edge.Cuts
6
CONTINUOUS
10
141.87194199999999
20
-82.924404999999993
11
142.0657799999999895
21
-82.7733929999999987
0
LINE
8
Edge.Cuts
6
CONTINUOUS
10
142.0657799999999895
20
-82.7733929999999987
11
142.2673340000000053
21
-82.6317969999999917
0
LINE
8
Edge.Cuts
6
CONTINUOUS
10
142.1366490000000056
20
-92.8167909999999949
11
141.8603949999999827
21
-92.4918369999999896
0
LINE
8
Edge.Cuts
6
CONTINUOUS
10
142.2673340000000053
20
-82.6317969999999917
11
142.476319999999987
21
-82.4998999999999967
0
LINE
8
Edge.Cuts
6
CONTINUOUS
10
142.4329309999999964
20
-93.1423439999999943
11
142.1366490000000056
21
-92.8167909999999949
0
LINE
8
Edge.Cuts
6
CONTINUOUS
10
142.476319999999987
20
-82.4998999999999967
11
142.6924530000000004
21
-82.3779849999999954
0
LINE
8
Edge.Cuts
6
CONTINUOUS
10
142.6924530000000004
20
-82.3779849999999954
11
142.9154519999999877
21
-82.2663359999999955
0
LINE
8
Edge.Cuts
6
CONTINUOUS
10
142.9154519999999877
20
-82.2663359999999955
11
143.1450319999999863
21
-82.1652369999999905
0
LINE
8
Edge.Cuts
6
CONTINUOUS
10
143.0860830000000021
20
-93.8029269999999968
11
142.4329309999999964
21
-93.1423439999999943
0
LINE
8
Edge.Cuts
6
CONTINUOUS
10
143.1450319999999863
20
-82.1652369999999905
11
143.3809109999999976
21
-82.0749699999999933
0
LINE
8
Edge.Cuts
6
CONTINUOUS
10
143.3809109999999976
20
-82.0749699999999933
11
143.6228040000000021
21
-81.9958189999999973
0
LINE
8
Edge.Cuts
6
CONTINUOUS
10
143.6228040000000021
20
-81.9958189999999973
11
143.870428000000004
21
-81.9280669999999986
0
LINE
8
Edge.Cuts
6
CONTINUOUS
10
143.8208569999999895
20
-94.4889539999999926
11
143.0860830000000021
21
-93.8029269999999968
0
LINE
8
Edge.Cuts
6
CONTINUOUS
10
143.870428000000004
20
-81.9280669999999986
11
144.123500000000007
21
-81.8719990000000024
0
LINE
8
Edge.Cuts
6
CONTINUOUS
10
144.123500000000007
20
-81.8719990000000024
11
144.3817359999999894
21
-81.827896999999993
0
LINE
8
Edge.Cuts
6
CONTINUOUS
10
144.3817359999999894
20
-81.827896999999993
11
144.6448539999999809
21
-81.7960439999999949
0
LINE
8
Edge.Cuts
6
CONTINUOUS
10
144.6448539999999809
20
-81.7960439999999949
11
144.9125689999999906
21
-81.776724999999999
0
LINE
8
Edge.Cuts
6
CONTINUOUS
10
144.9125689999999906
20
-81.776724999999999
11
145.184597999999994
21
-81.7702219999999897
0
LINE
8
Edge.Cuts
6
CONTINUOUS
10
145.184597999999994
20
-81.7702219999999897
11
145.3770559999999819
21
-81.7737279999999913
0
LINE
8
Edge.Cuts
6
CONTINUOUS
10
145.3770559999999819
20
-81.7737279999999913
11
145.5674359999999865
21
-81.7841619999999949
0
LINE
8
Edge.Cuts
6
CONTINUOUS
10
145.5393049999999846
20
-95.9988099999999918
11
143.8208569999999895
21
-94.4889539999999926
0
LINE
8
Edge.Cuts
6
CONTINUOUS
10
145.5674359999999865
20
-81.7841619999999949
11
145.7556749999999965
21
-81.8013969999999944
0
LINE
8
Edge.Cuts
6
CONTINUOUS
10
145.7556749999999965
20
-81.8013969999999944
11
145.941709000000003
21
-81.8253089999999901
0
LINE
8
Edge.Cuts
6
CONTINUOUS
10
145.941709000000003
20
-81.8253089999999901
11
146.1254759999999919
21
-81.8557709999999901
0
LINE
8
Edge.Cuts
6
CONTINUOUS
10
146.1254759999999919
20
-81.8557709999999901
11
146.3069129999999802
21
-81.8926560000000023
0
LINE
8
Edge.Cuts
6
CONTINUOUS
10
146.3069129999999802
20
-81.8926560000000023
11
146.4859559999999874
21
-81.9358399999999989
0
LINE
8
Edge.Cuts
6
CONTINUOUS
10
146.4859559999999874
20
-81.9358399999999989
11
146.6625439999999969
21
-81.985196000000002
0
LINE
8
Edge.Cuts
6
CONTINUOUS
10
146.6625439999999969
20
-81.985196000000002
11
146.8366120000000024
21
-82.0405980000000028
0
LINE
8
Edge.Cuts
6
CONTINUOUS
10
146.8366120000000024
20
-82.0405980000000028
11
147.0080969999999922
21
-82.1019199999999927
0
LINE
8
Edge.Cuts
6
CONTINUOUS
10
147.0080969999999922
20
-82.1019199999999927
11
147.1769380000000069
21
-82.1690359999999913
0
LINE
8
Edge.Cuts
6
CONTINUOUS
10
147.1769380000000069
20
-82.1690359999999913
11
147.3430699999999831
21
-82.2418210000000016
0
LINE
8
Edge.Cuts
6
CONTINUOUS
10
147.3430699999999831
20
-82.2418210000000016
11
147.5064319999999896
21
-82.3201480000000032
0
LINE
8
Edge.Cuts
6
CONTINUOUS
10
147.5064319999999896
20
-82.3201480000000032
11
147.6669589999999914
21
-82.4038910000000016
0
LINE
8
Edge.Cuts
6
CONTINUOUS
10
147.5963370000000054
20
-97.7948499999999967
11
145.5393049999999846
21
-95.9988099999999918
0
LINE
8
Edge.Cuts
6
CONTINUOUS
10
147.6669589999999914
20
-82.4038910000000016
11
147.8245890000000031
21
-82.4929249999999996
0
LINE
8
Edge.Cuts
6
CONTINUOUS
10
147.8245890000000031
20
-82.4929249999999996
11
147.9792589999999848
21
-82.5871229999999912
0
LINE
8
Edge.Cuts
6
CONTINUOUS
10
147.9792589999999848
20
-82.5871229999999912
11
148.2794669999999826
21
-82.7905080000000027
0
LINE
8
Edge.Cuts
6
CONTINUOUS
10
148.2794669999999826
20
-82.7905080000000027
11
148.5670779999999809
21
-83.0130399999999895
0
LINE
8
Edge.Cuts
6
CONTINUOUS
10
148.5670779999999809
20
-83.0130399999999895
11
148.8415899999999965
21
-83.2537099999999981
0
LINE
8
Edge.Cuts
6
CONTINUOUS
10
148.7543409999999824
20
-98.8386069999999961
11
147.5963370000000054
21
-97.7948499999999967
0
LINE
8
Edge.Cuts
6
CONTINUOUS
10
148.8415899999999965
20
-83.2537099999999981
11
149.1024979999999971
21
-83.5115109999999987
0
LINE
8
Edge.Cuts
6
CONTINUOUS
10
149.1024979999999971
20
-83.5115109999999987
11
149.3492980000000045
21
-83.7854349999999926
0
LINE
8
Edge.Cuts
6
CONTINUOUS
10
149.3492980000000045
20
-83.7854349999999926
11
149.5814869999999814
21
-84.074473999999995
0
LINE
8
Edge.Cuts
6
CONTINUOUS
10
149.8636269999999797
20
-99.8728519999999946
11
148.7543409999999824
21
-98.8386069999999961
0
ARC
8
Edge.Cuts
10
150.
20
-99.7265999999999906
40
0.199987931660888
50
-132.99807289
51
-46.99625547
0
ARC
8
Edge.Cuts
10
150.
20
-83.7000000000000028
40
0.5616099708240586
50
-138.18144281
51
-41.81939758
0
LINE
8
Edge.Cuts
6
CONTINUOUS
10
150.4185420000000022
20
-84.074473999999995
11
150.6507299999999816
21
-83.7854349999999926
0
LINE
8
Edge.Cuts
6
CONTINUOUS
10
150.6507299999999816
20
-83.7854349999999926
11
150.8975309999999865
21
-83.5115109999999987
0
LINE
8
Edge.Cuts
6
CONTINUOUS
10
150.8975309999999865
20
-83.5115109999999987
11
151.1584379999999896
21
-83.2537099999999981
0
LINE
8
Edge.Cuts
6
CONTINUOUS
10
151.1584379999999896
20
-83.2537099999999981
11
151.4329500000000053
21
-83.0130399999999895
0
LINE
8
Edge.Cuts
6
CONTINUOUS
10
151.2456880000000012
20
-98.8386069999999961
11
150.1364010000000064
21
-99.8728529999999921
0
LINE
8
Edge.Cuts
6
CONTINUOUS
10
151.4329500000000053
20
-83.0130399999999895
11
151.720562000000001
21
-82.7905080000000027
0
LINE
8
Edge.Cuts
6
CONTINUOUS
10
151.720562000000001
20
-82.7905080000000027
11
152.0207690000000014
21
-82.5871229999999912
0
LINE
8
Edge.Cuts
6
CONTINUOUS
10
152.0207690000000014
20
-82.5871229999999912
11
152.3330699999999922
21
-82.4038910000000016
0
LINE
8
Edge.Cuts
6
CONTINUOUS
10
152.3330699999999922
20
-82.4038910000000016
11
152.656958000000003
21
-82.2418210000000016
0
LINE
8
Edge.Cuts
6
CONTINUOUS
10
152.4036920000000066
20
-97.7948499999999967
11
151.2456880000000012
21
-98.8386069999999961
0
LINE
8
Edge.Cuts
6
CONTINUOUS
10
152.656958000000003
20
-82.2418210000000016
11
152.9919309999999939
21
-82.1019199999999927
0
LINE
8
Edge.Cuts
6
CONTINUOUS
10
152.9919309999999939
20
-82.1019199999999927
11
153.3374849999999867
21
-81.985196000000002
0
LINE
8
Edge.Cuts
6
CONTINUOUS
10
153.3374849999999867
20
-81.985196000000002
11
153.6931160000000034
21
-81.8926560000000023
0
LINE
8
Edge.Cuts
6
CONTINUOUS
10
153.6931160000000034
20
-81.8926560000000023
11
154.0583189999999831
21
-81.8253089999999901
0
LINE
8
Edge.Cuts
6
CONTINUOUS
10
154.0583189999999831
20
-81.8253089999999901
11
154.4325919999999996
21
-81.7841619999999949
0
LINE
8
Edge.Cuts
6
CONTINUOUS
10
154.4325919999999996
20
-81.7841619999999949
11
154.8154309999999896
21
-81.7702219999999897
0
LINE
8
Edge.Cuts
6
CONTINUOUS
10
154.460723999999999
20
-95.9988099999999918
11
152.4036920000000066
21
-97.7948499999999967
0
LINE
8
Edge.Cuts
6
CONTINUOUS
10
154.8154309999999896
20
-81.7702219999999897
11
155.087459999999993
21
-81.776724999999999
0
LINE
8
Edge.Cuts
6
CONTINUOUS
10
155.087459999999993
20
-81.776724999999999
11
155.3551750000000027
21
-81.7960439999999949
0
LINE
8
Edge.Cuts
6
CONTINUOUS
10
155.3551750000000027
20
-81.7960439999999949
11
155.6182919999999967
21
-81.827896999999993
0
LINE
8
Edge.Cuts
6
CONTINUOUS
10
155.6182919999999967
20
-81.827896999999993
11
155.876529000000005
21
-81.8719990000000024
0
LINE
8
Edge.Cuts
6
CONTINUOUS
10
155.876529000000005
20
-81.8719990000000024
11
156.1296009999999796
21
-81.9280669999999986
0
LINE
8
Edge.Cuts
6
CONTINUOUS
10
156.3772249999999815
20
-81.9958189999999973
11
156.6191179999999861
21
-82.0749699999999933
0
LINE
8
Edge.Cuts
6
CONTINUOUS
10
156.6191179999999861
20
-82.0749699999999933
11
156.8549959999999999
21
-82.1652369999999905
0
LINE
8
Edge.Cuts
6
CONTINUOUS
10
156.8549959999999999
20
-82.1652369999999905
11
157.0845759999999984
21
-82.2663359999999955
0
LINE
8
Edge.Cuts
6
CONTINUOUS
10
156.9139459999999815
20
-93.8029269999999968
11
156.1791719999999941
21
-94.4889539999999926
0
LINE
8
Edge.Cuts
6
CONTINUOUS
10
157.0845759999999984
20
-82.2663359999999955
11
157.3075749999999857
21
-82.3779849999999954
0
LINE
8
Edge.Cuts
6
CONTINUOUS
10
157.3075749999999857
20
-82.3779849999999954
11
157.5237089999999966
21
-82.4998999999999967
0
LINE
8
Edge.Cuts
6
CONTINUOUS
10
157.5237089999999966
20
-82.4998999999999967
11
157.7326950000000068
21
-82.6317969999999917
0
LINE
8
Edge.Cuts
6
CONTINUOUS
10
157.5670969999999897
20
-93.1423439999999943
11
156.9139459999999815
21
-93.8029269999999968
0
LINE
8
Edge.Cuts
6
CONTINUOUS
10
157.7326950000000068
20
-82.6317969999999917
11
157.9342479999999966
21
-82.7733929999999987
0
LINE
8
Edge.Cuts
6
CONTINUOUS
10
157.9342479999999966
20
-82.7733929999999987
11
158.1280869999999936
21
-82.924404999999993
0
LINE
8
Edge.Cuts
6
CONTINUOUS
10
158.1280869999999936
20
-82.924404999999993
11
158.3139270000000067
21
-83.0845489999999955
0
LINE
8
Edge.Cuts
6
CONTINUOUS
10
158.1396330000000034
20
-92.4918369999999896
11
157.5670969999999897
21
-93.1423439999999943
0
LINE
8
Edge.Cuts
6
CONTINUOUS
10
158.3139270000000067
20
-83.0845489999999955
11
158.4914849999999831
21
-83.2535419999999959
0
LINE
8
Edge.Cuts
6
CONTINUOUS
10
158.4914849999999831
20
-83.2535419999999959
11
158.6604779999999835
21
-83.4311000000000007
0
LINE
8
Edge.Cuts
6
CONTINUOUS
10
158.6325619999999788
20
-91.8360409999999945
11
158.1396330000000034
21
-92.4918369999999896
0
LINE
8
Edge.Cuts
6
CONTINUOUS
10
158.6604779999999835
20
-83.4311000000000007
11
158.820621999999986
21
-83.6169409999999971
0
LINE
8
Edge.Cuts
6
CONTINUOUS
10
158.820621999999986
20
-83.6169409999999971
11
158.9716339999999946
21
-83.8107789999999966
0
LINE
8
Edge.Cuts
6
CONTINUOUS
10
158.8494879999999796
20
-91.5013569999999987
11
158.6325619999999788
21
-91.8360409999999945
0
LINE
8
Edge.Cuts
6
CONTINUOUS
10
158.9716339999999946
20
-83.8107789999999966
11
159.1132299999999873
21
-84.0123329999999982
0
LINE
8
Edge.Cuts
6
CONTINUOUS
10
159.046890999999988
20
-91.1595870000000019
11
158.8494879999999796
21
-91.5013569999999987
0
LINE
8
Edge.Cuts
6
CONTINUOUS
10
159.1132299999999873
20
-84.0123329999999982
11
159.245127999999994
21
-84.221318999999994
0
LINE
8
Edge.Cuts
6
CONTINUOUS
10
159.2248950000000036
20
-90.8088109999999915
11
159.046890999999988
21
-91.1595870000000019
0
LINE
8
Edge.Cuts
6
CONTINUOUS
10
159.245127999999994
20
-84.221318999999994
11
159.3670419999999979
21
-84.4374519999999933
0
LINE
8
Edge.Cuts
6
CONTINUOUS
10
159.3670419999999979
20
-84.4374519999999933
11
159.4786909999999978
21
-84.6604509999999948
0
LINE
8
Edge.Cuts
6
CONTINUOUS
10
159.3836269999999899
20
-90.4471080000000001
11
159.2248950000000036
21
-90.8088109999999915
0
LINE
8
Edge.Cuts
6
CONTINUOUS
10
159.4786909999999978
20
-84.6604509999999948
11
159.5797910000000002
21
-84.8900309999999934
0
LINE
8
Edge.Cuts
6
CONTINUOUS
10
159.5232129999999984
20
-90.0725569999999891
11
159.3836269999999899
21
-90.4471080000000001
0
LINE
8
Edge.Cuts
6
CONTINUOUS
10
159.5797910000000002
20
-84.8900309999999934
11
159.6700579999999832
21
-85.1259099999999904
0
LINE
8
Edge.Cuts
6
CONTINUOUS
10
159.643778999999995
20
-89.6832369999999912
11
159.5232129999999984
21
-90.0725569999999891
0
LINE
8
Edge.Cuts
6
CONTINUOUS
10
159.6700579999999832
20
-85.1259099999999904
11
159.7492089999999791
21
-85.367802999999995
0
LINE
8
Edge.Cuts
6
CONTINUOUS
10
159.7454510000000028
20
-89.2772269999999963
11
159.643778999999995
21
-89.6832369999999912
0
LINE
8
Edge.Cuts
6
CONTINUOUS
10
159.7492089999999791
20
-85.367802999999995
11
159.8169599999999946
21
-85.6154269999999968
0
LINE
8
Edge.Cuts
6
CONTINUOUS
10
159.8169599999999946
20
-85.6154269999999968
11
159.8730290000000025
21
-85.8684989999999999
0
LINE
8
Edge.Cuts
6
CONTINUOUS
10
159.8283549999999877
20
-88.8526059999999944
11
159.7454510000000028
21
-89.2772269999999963
0
LINE
8
Edge.Cuts
6
CONTINUOUS
10
159.8730290000000025
20
-85.8684989999999999
11
159.9171309999999835
21
-86.1267349999999965
0
LINE
8
Edge.Cuts
6
CONTINUOUS
10
159.8926160000000039
20
-88.4074529999999896
11
159.8283549999999877
21
-88.8526059999999944
0
LINE
8
Edge.Cuts
6
CONTINUOUS
10
159.9171309999999835
20
-86.1267349999999965
11
159.9489839999999958
21
-86.3898530000000022
0
LINE
8
Edge.Cuts
6
CONTINUOUS
10
159.9383609999999862
20
-87.9398479999999978
11
159.8926160000000039
21
-88.4074529999999896
0
LINE
8
Edge.Cuts
6
CONTINUOUS
10
159.9489839999999958
20
-86.3898530000000022
11
159.9683029999999917
21
-86.6575679999999977
0
LINE
8
Edge.Cuts
6
CONTINUOUS
10
159.9683029999999917
20
-86.6575679999999977
11
159.9748060000000009
21
-86.9295970000000011
0
LINE
8
Edge.Cuts
6
CONTINUOUS
10
159.9748060000000009
20
-86.9295970000000011
11
159.9383609999999862
21
-87.9398479999999978
0
LINE
8
Edge.Cuts
6
CONTINUOUS
10
140.2999999999999829
20
-70.3999999999999915
11
140.2999999999999829
21
-75.3999999999999915
0
LINE
8
Edge.Cuts
6
CONTINUOUS
10
140.2999999999999829
20
-75.3999999999999915
11
144.0499999999999829
21
-75.3999999999999915
0
LINE
8
Edge.Cuts
6
CONTINUOUS
10
155.2999999999999829
20
-75.3999999999999915
11
160.2999999999999829
21
-75.3999999999999915
0
LINE
8
Edge.Cuts
6
CONTINUOUS
10
150.0499999999999829
20
-75.3999999999999915
11
152.0499999999999829
21
-75.3999999999999915
0
LINE
8
Edge.Cuts
6
CONTINUOUS
10
140.2999999999999829
20
-70.3999999999999915
11
160.2999999999999829
21
-70.3999999999999915
0
LINE
8
Edge.Cuts
6
CONTINUOUS
10
160.2999999999999829
20
-75.3999999999999915
11
160.2999999999999829
21
-70.3999999999999915
  0
ENDSEC
  0
EOF
