<?xml version="1.0" encoding="UTF-8" standalone="no"?>
<!-- Created with Inkscape (http://www.inkscape.org/) -->

<svg
   width="18.928713mm"
   height="16.173222mm"
   viewBox="0 0 18.928713 16.173222"
   version="1.1"
   id="svg1"
   xml:space="preserve"
   xmlns="http://www.w3.org/2000/svg"
   xmlns:svg="http://www.w3.org/2000/svg"><defs
     id="defs1" /><g
     id="g4964"
     transform="translate(-117.09775,-140.12265)"><path
       d="m 126.80639,142.54138 c -0.87993,-1.08948 -2.09159,-1.86702 -3.50559,-2.0805 -0.433,-0.0654 -1.14817,-0.0652 -1.58191,-0.004 -2.2438,0.31613 -3.94317,1.96635 -4.27587,4.14948 -0.066,0.43296 -0.0629,1.14657 -0.036,1.58405 0.29225,4.75626 3.34079,5.83249 9.71591,11.7025 0.095,0.0875 0.24882,0.0873 0.34406,-4e-4 6.37508,-5.8699 9.4235,-6.94604 9.71552,-11.70268 0.0268,-0.43716 0.0299,-1.15051 -0.036,-1.58347 -0.33271,-2.18313 -2.03207,-3.83335 -4.27587,-4.14948 -0.43374,-0.0611 -1.14895,-0.0613 -1.58201,0.004 -1.414,0.2135 -2.62564,0.99106 -3.50555,2.08056 -0.29361,0.36354 -0.68297,0.3635 -0.97662,-8e-5 z"
       fill="#ff0707"
       id="use4866"
       style="display:inline;fill:#000000;fill-opacity:1;stroke:none;stroke-width:0.127505;stroke-dasharray:none;stroke-opacity:1"
       transform="matrix(-0.01490556,-0.07403839,0.07403839,-0.01490556,109.45474,154.52718)" /><path
       d="m 126.80639,142.54138 c -0.87993,-1.08948 -2.09159,-1.86702 -3.50559,-2.0805 -0.433,-0.0654 -1.14817,-0.0652 -1.58191,-0.004 -2.2438,0.31613 -3.94317,1.96635 -4.27587,4.14948 -0.066,0.43296 -0.0629,1.14657 -0.036,1.58405 0.29225,4.75626 3.34079,5.83249 9.71591,11.7025 0.095,0.0875 0.24882,0.0873 0.34406,-4e-4 6.37508,-5.8699 9.4235,-6.94604 9.71552,-11.70268 0.0268,-0.43716 0.0299,-1.15051 -0.036,-1.58347 -0.33271,-2.18313 -2.03207,-3.83335 -4.27587,-4.14948 -0.43374,-0.0611 -1.14895,-0.0613 -1.58201,0.004 -1.414,0.2135 -2.62564,0.99106 -3.50555,2.08056 -0.29361,0.36354 -0.68297,0.3635 -0.97662,-8e-5 z"
       fill="#ff0707"
       id="use4867"
       style="display:inline;fill:#000000;fill-opacity:1;stroke:none;stroke-width:0.127505;stroke-dasharray:none;stroke-opacity:1"
       transform="matrix(0.06751232,0.0162505,-0.0162505,0.06751232,111.7317,132.35605)" /><path
       d="m 126.80639,142.54138 c -0.87993,-1.08948 -2.09159,-1.86702 -3.50559,-2.0805 -0.433,-0.0654 -1.14817,-0.0652 -1.58191,-0.004 -2.2438,0.31613 -3.94317,1.96635 -4.27587,4.14948 -0.066,0.43296 -0.0629,1.14657 -0.036,1.58405 0.29225,4.75626 3.34079,5.83249 9.71591,11.7025 0.095,0.0875 0.24882,0.0873 0.34406,-4e-4 6.37508,-5.8699 9.4235,-6.94604 9.71552,-11.70268 0.0268,-0.43716 0.0299,-1.15051 -0.036,-1.58347 -0.33271,-2.18313 -2.03207,-3.83335 -4.27587,-4.14948 -0.43374,-0.0611 -1.14895,-0.0613 -1.58201,0.004 -1.414,0.2135 -2.62564,0.99106 -3.50555,2.08056 -0.29361,0.36354 -0.68297,0.3635 -0.97662,-8e-5 z"
       fill="#ff0707"
       id="use4868"
       style="display:inline;fill:#000000;fill-opacity:1;stroke:none;stroke-width:0.127505;stroke-dasharray:none;stroke-opacity:1"
       transform="matrix(0.09819405,-0.04123141,0.04123141,0.09819405,99.619328,137.32064)" /><path
       d="m 126.80639,142.54138 c -0.87993,-1.08948 -2.09159,-1.86702 -3.50559,-2.0805 -0.433,-0.0654 -1.14817,-0.0652 -1.58191,-0.004 -2.2438,0.31613 -3.94317,1.96635 -4.27587,4.14948 -0.066,0.43296 -0.0629,1.14657 -0.036,1.58405 0.29225,4.75626 3.34079,5.83249 9.71591,11.7025 0.095,0.0875 0.24882,0.0873 0.34406,-4e-4 6.37508,-5.8699 9.4235,-6.94604 9.71552,-11.70268 0.0268,-0.43716 0.0299,-1.15051 -0.036,-1.58347 -0.33271,-2.18313 -2.03207,-3.83335 -4.27587,-4.14948 -0.43374,-0.0611 -1.14895,-0.0613 -1.58201,0.004 -1.414,0.2135 -2.62564,0.99106 -3.50555,2.08056 -0.29361,0.36354 -0.68297,0.3635 -0.97662,-8e-5 z"
       fill="#ff0707"
       id="use4869"
       style="display:inline;fill:#000000;fill-opacity:1;stroke:none;stroke-width:0.127505;stroke-dasharray:none;stroke-opacity:1"
       transform="matrix(0.03218034,0.05673687,-0.05673687,0.03218034,122.85923,136.78262)" /><path
       d="m 126.80639,142.54138 c -0.87993,-1.08948 -2.09159,-1.86702 -3.50559,-2.0805 -0.433,-0.0654 -1.14817,-0.0652 -1.58191,-0.004 -2.2438,0.31613 -3.94317,1.96635 -4.27587,4.14948 -0.066,0.43296 -0.0629,1.14657 -0.036,1.58405 0.29225,4.75626 3.34079,5.83249 9.71591,11.7025 0.095,0.0875 0.24882,0.0873 0.34406,-4e-4 6.37508,-5.8699 9.4235,-6.94604 9.71552,-11.70268 0.0268,-0.43716 0.0299,-1.15051 -0.036,-1.58347 -0.33271,-2.18313 -2.03207,-3.83335 -4.27587,-4.14948 -0.43374,-0.0611 -1.14895,-0.0613 -1.58201,0.004 -1.414,0.2135 -2.62564,0.99106 -3.50555,2.08056 -0.29361,0.36354 -0.68297,0.3635 -0.97662,-8e-5 z"
       fill="#ff0707"
       id="use4875"
       style="display:inline;fill:#000000;fill-opacity:1;stroke:none;stroke-width:0.127505;stroke-dasharray:none;stroke-opacity:1"
       transform="matrix(-0.09393329,0.03046179,-0.03046179,-0.09393329,136.83123,151.4349)" /><path
       d="m 126.80639,142.54138 c -0.87993,-1.08948 -2.09159,-1.86702 -3.50559,-2.0805 -0.433,-0.0654 -1.14817,-0.0652 -1.58191,-0.004 -2.2438,0.31613 -3.94317,1.96635 -4.27587,4.14948 -0.066,0.43296 -0.0629,1.14657 -0.036,1.58405 0.29225,4.75626 3.34079,5.83249 9.71591,11.7025 0.095,0.0875 0.24882,0.0873 0.34406,-4e-4 6.37508,-5.8699 9.4235,-6.94604 9.71552,-11.70268 0.0268,-0.43716 0.0299,-1.15051 -0.036,-1.58347 -0.33271,-2.18313 -2.03207,-3.83335 -4.27587,-4.14948 -0.43374,-0.0611 -1.14895,-0.0613 -1.58201,0.004 -1.414,0.2135 -2.62564,0.99106 -3.50555,2.08056 -0.29361,0.36354 -0.68297,0.3635 -0.97662,-8e-5 z"
       fill="#ff0707"
       id="use4876"
       style="display:inline;fill:#000000;fill-opacity:1;stroke:none;stroke-width:0.127505;stroke-dasharray:none;stroke-opacity:1"
       transform="matrix(-0.02301908,-0.05744754,0.05744754,-0.02301908,114.51401,153.78362)" /><path
       d="m 126.80639,142.54138 c -0.87993,-1.08948 -2.09159,-1.86702 -3.50559,-2.0805 -0.433,-0.0654 -1.14817,-0.0652 -1.58191,-0.004 -2.2438,0.31613 -3.94317,1.96635 -4.27587,4.14948 -0.066,0.43296 -0.0629,1.14657 -0.036,1.58405 0.29225,4.75626 3.34079,5.83249 9.71591,11.7025 0.095,0.0875 0.24882,0.0873 0.34406,-4e-4 6.37508,-5.8699 9.4235,-6.94604 9.71552,-11.70268 0.0268,-0.43716 0.0299,-1.15051 -0.036,-1.58347 -0.33271,-2.18313 -2.03207,-3.83335 -4.27587,-4.14948 -0.43374,-0.0611 -1.14895,-0.0613 -1.58201,0.004 -1.414,0.2135 -2.62564,0.99106 -3.50555,2.08056 -0.29361,0.36354 -0.68297,0.3635 -0.97662,-8e-5 z"
       fill="#ff0707"
       id="use4877"
       style="display:inline;fill:#000000;fill-opacity:1;stroke:none;stroke-width:0.127505;stroke-dasharray:none;stroke-opacity:1"
       transform="matrix(0.01043044,-0.08058536,0.08058536,0.01043044,106.83655,153.81852)" /><path
       d="m 126.80639,142.54138 c -0.87993,-1.08948 -2.09159,-1.86702 -3.50559,-2.0805 -0.433,-0.0654 -1.14817,-0.0652 -1.58191,-0.004 -2.2438,0.31613 -3.94317,1.96635 -4.27587,4.14948 -0.066,0.43296 -0.0629,1.14657 -0.036,1.58405 0.29225,4.75626 3.34079,5.83249 9.71591,11.7025 0.095,0.0875 0.24882,0.0873 0.34406,-4e-4 6.37508,-5.8699 9.4235,-6.94604 9.71552,-11.70268 0.0268,-0.43716 0.0299,-1.15051 -0.036,-1.58347 -0.33271,-2.18313 -2.03207,-3.83335 -4.27587,-4.14948 -0.43374,-0.0611 -1.14895,-0.0613 -1.58201,0.004 -1.414,0.2135 -2.62564,0.99106 -3.50555,2.08056 -0.29361,0.36354 -0.68297,0.3635 -0.97662,-8e-5 z"
       fill="#ff0707"
       id="use4878"
       style="display:inline;fill:#000000;fill-opacity:1;stroke:none;stroke-width:0.127505;stroke-dasharray:none;stroke-opacity:1"
       transform="matrix(-0.0058611,-0.0546999,0.0546999,-0.0058611,112.42631,155.07177)" /><path
       d="m 126.80639,142.54138 c -0.87993,-1.08948 -2.09159,-1.86702 -3.50559,-2.0805 -0.433,-0.0654 -1.14817,-0.0652 -1.58191,-0.004 -2.2438,0.31613 -3.94317,1.96635 -4.27587,4.14948 -0.066,0.43296 -0.0629,1.14657 -0.036,1.58405 0.29225,4.75626 3.34079,5.83249 9.71591,11.7025 0.095,0.0875 0.24882,0.0873 0.34406,-4e-4 6.37508,-5.8699 9.4235,-6.94604 9.71552,-11.70268 0.0268,-0.43716 0.0299,-1.15051 -0.036,-1.58347 -0.33271,-2.18313 -2.03207,-3.83335 -4.27587,-4.14948 -0.43374,-0.0611 -1.14895,-0.0613 -1.58201,0.004 -1.414,0.2135 -2.62564,0.99106 -3.50555,2.08056 -0.29361,0.36354 -0.68297,0.3635 -0.97662,-8e-5 z"
       fill="#ff0707"
       id="use4879"
       style="display:inline;fill:#000000;fill-opacity:1;stroke:none;stroke-width:0.127505;stroke-dasharray:none;stroke-opacity:1"
       transform="matrix(5.6688956e-4,-0.08880196,0.08880196,5.6688956e-4,107.07028,160.28288)" /><path
       d="m 126.80639,142.54138 c -0.87993,-1.08948 -2.09159,-1.86702 -3.50559,-2.0805 -0.433,-0.0654 -1.14817,-0.0652 -1.58191,-0.004 -2.2438,0.31613 -3.94317,1.96635 -4.27587,4.14948 -0.066,0.43296 -0.0629,1.14657 -0.036,1.58405 0.29225,4.75626 3.34079,5.83249 9.71591,11.7025 0.095,0.0875 0.24882,0.0873 0.34406,-4e-4 6.37508,-5.8699 9.4235,-6.94604 9.71552,-11.70268 0.0268,-0.43716 0.0299,-1.15051 -0.036,-1.58347 -0.33271,-2.18313 -2.03207,-3.83335 -4.27587,-4.14948 -0.43374,-0.0611 -1.14895,-0.0613 -1.58201,0.004 -1.414,0.2135 -2.62564,0.99106 -3.50555,2.08056 -0.29361,0.36354 -0.68297,0.3635 -0.97662,-8e-5 z"
       fill="#ff0707"
       id="use4880"
       style="display:inline;fill:#000000;fill-opacity:1;stroke:none;stroke-width:0.127505;stroke-dasharray:none;stroke-opacity:1"
       transform="matrix(0.01107821,0.05031203,-0.05031203,0.01107821,125.85244,142.66737)" /><path
       d="m 126.80639,142.54138 c -0.87993,-1.08948 -2.09159,-1.86702 -3.50559,-2.0805 -0.433,-0.0654 -1.14817,-0.0652 -1.58191,-0.004 -2.2438,0.31613 -3.94317,1.96635 -4.27587,4.14948 -0.066,0.43296 -0.0629,1.14657 -0.036,1.58405 0.29225,4.75626 3.34079,5.83249 9.71591,11.7025 0.095,0.0875 0.24882,0.0873 0.34406,-4e-4 6.37508,-5.8699 9.4235,-6.94604 9.71552,-11.70268 0.0268,-0.43716 0.0299,-1.15051 -0.036,-1.58347 -0.33271,-2.18313 -2.03207,-3.83335 -4.27587,-4.14948 -0.43374,-0.0611 -1.14895,-0.0613 -1.58201,0.004 -1.414,0.2135 -2.62564,0.99106 -3.50555,2.08056 -0.29361,0.36354 -0.68297,0.3635 -0.97662,-8e-5 z"
       fill="#ff0707"
       id="use4885"
       style="display:inline;fill:#000000;fill-opacity:1;stroke:none;stroke-width:0.127505;stroke-dasharray:none;stroke-opacity:1"
       transform="matrix(0.07224278,-0.02463386,0.02463386,0.07224278,109.44836,133.60311)" /><path
       d="m 126.80639,142.54138 c -0.87993,-1.08948 -2.09159,-1.86702 -3.50559,-2.0805 -0.433,-0.0654 -1.14817,-0.0652 -1.58191,-0.004 -2.2438,0.31613 -3.94317,1.96635 -4.27587,4.14948 -0.066,0.43296 -0.0629,1.14657 -0.036,1.58405 0.29225,4.75626 3.34079,5.83249 9.71591,11.7025 0.095,0.0875 0.24882,0.0873 0.34406,-4e-4 6.37508,-5.8699 9.4235,-6.94604 9.71552,-11.70268 0.0268,-0.43716 0.0299,-1.15051 -0.036,-1.58347 -0.33271,-2.18313 -2.03207,-3.83335 -4.27587,-4.14948 -0.43374,-0.0611 -1.14895,-0.0613 -1.58201,0.004 -1.414,0.2135 -2.62564,0.99106 -3.50555,2.08056 -0.29361,0.36354 -0.68297,0.3635 -0.97662,-8e-5 z"
       fill="#ff0707"
       id="use4886"
       style="display:inline;fill:#000000;fill-opacity:1;stroke:none;stroke-width:0.127505;stroke-dasharray:none;stroke-opacity:1"
       transform="matrix(-0.04342766,-0.01284455,0.01284455,-0.04342766,125.6572,150.50384)" /><path
       d="m 126.80639,142.54138 c -0.87993,-1.08948 -2.09159,-1.86702 -3.50559,-2.0805 -0.433,-0.0654 -1.14817,-0.0652 -1.58191,-0.004 -2.2438,0.31613 -3.94317,1.96635 -4.27587,4.14948 -0.066,0.43296 -0.0629,1.14657 -0.036,1.58405 0.29225,4.75626 3.34079,5.83249 9.71591,11.7025 0.095,0.0875 0.24882,0.0873 0.34406,-4e-4 6.37508,-5.8699 9.4235,-6.94604 9.71552,-11.70268 0.0268,-0.43716 0.0299,-1.15051 -0.036,-1.58347 -0.33271,-2.18313 -2.03207,-3.83335 -4.27587,-4.14948 -0.43374,-0.0611 -1.14895,-0.0613 -1.58201,0.004 -1.414,0.2135 -2.62564,0.99106 -3.50555,2.08056 -0.29361,0.36354 -0.68297,0.3635 -0.97662,-8e-5 z"
       fill="#ff0707"
       id="use4887"
       style="display:inline;fill:#000000;fill-opacity:1;stroke:none;stroke-width:0.127505;stroke-dasharray:none;stroke-opacity:1"
       transform="matrix(0.0361788,-0.10100168,0.10100168,0.0361788,102.55334,152.30898)" /><path
       d="m 126.80639,142.54138 c -0.87993,-1.08948 -2.09159,-1.86702 -3.50559,-2.0805 -0.433,-0.0654 -1.14817,-0.0652 -1.58191,-0.004 -2.2438,0.31613 -3.94317,1.96635 -4.27587,4.14948 -0.066,0.43296 -0.0629,1.14657 -0.036,1.58405 0.29225,4.75626 3.34079,5.83249 9.71591,11.7025 0.095,0.0875 0.24882,0.0873 0.34406,-4e-4 6.37508,-5.8699 9.4235,-6.94604 9.71552,-11.70268 0.0268,-0.43716 0.0299,-1.15051 -0.036,-1.58347 -0.33271,-2.18313 -2.03207,-3.83335 -4.27587,-4.14948 -0.43374,-0.0611 -1.14895,-0.0613 -1.58201,0.004 -1.414,0.2135 -2.62564,0.99106 -3.50555,2.08056 -0.29361,0.36354 -0.68297,0.3635 -0.97662,-8e-5 z"
       fill="#ff0707"
       id="use4888"
       style="display:inline;fill:#000000;fill-opacity:1;stroke:none;stroke-width:0.127505;stroke-dasharray:none;stroke-opacity:1"
       transform="matrix(0.08176066,-0.05773083,0.05773083,0.08176066,102.82901,142.35218)" /><path
       d="m 126.80639,142.54138 c -0.87993,-1.08948 -2.09159,-1.86702 -3.50559,-2.0805 -0.433,-0.0654 -1.14817,-0.0652 -1.58191,-0.004 -2.2438,0.31613 -3.94317,1.96635 -4.27587,4.14948 -0.066,0.43296 -0.0629,1.14657 -0.036,1.58405 0.29225,4.75626 3.34079,5.83249 9.71591,11.7025 0.095,0.0875 0.24882,0.0873 0.34406,-4e-4 6.37508,-5.8699 9.4235,-6.94604 9.71552,-11.70268 0.0268,-0.43716 0.0299,-1.15051 -0.036,-1.58347 -0.33271,-2.18313 -2.03207,-3.83335 -4.27587,-4.14948 -0.43374,-0.0611 -1.14895,-0.0613 -1.58201,0.004 -1.414,0.2135 -2.62564,0.99106 -3.50555,2.08056 -0.29361,0.36354 -0.68297,0.3635 -0.97662,-8e-5 z"
       fill="#ff0707"
       id="use4889"
       style="display:inline;fill:#000000;fill-opacity:1;stroke:none;stroke-width:0.127505;stroke-dasharray:none;stroke-opacity:1"
       transform="matrix(-0.00191243,0.0642594,-0.0642594,-0.00191243,132.37527,140.82559)" /><path
       d="m 126.80639,142.54138 c -0.87993,-1.08948 -2.09159,-1.86702 -3.50559,-2.0805 -0.433,-0.0654 -1.14817,-0.0652 -1.58191,-0.004 -2.2438,0.31613 -3.94317,1.96635 -4.27587,4.14948 -0.066,0.43296 -0.0629,1.14657 -0.036,1.58405 0.29225,4.75626 3.34079,5.83249 9.71591,11.7025 0.095,0.0875 0.24882,0.0873 0.34406,-4e-4 6.37508,-5.8699 9.4235,-6.94604 9.71552,-11.70268 0.0268,-0.43716 0.0299,-1.15051 -0.036,-1.58347 -0.33271,-2.18313 -2.03207,-3.83335 -4.27587,-4.14948 -0.43374,-0.0611 -1.14895,-0.0613 -1.58201,0.004 -1.414,0.2135 -2.62564,0.99106 -3.50555,2.08056 -0.29361,0.36354 -0.68297,0.3635 -0.97662,-8e-5 z"
       fill="#ff0707"
       id="use4890"
       style="display:inline;fill:#000000;fill-opacity:1;stroke:none;stroke-width:0.127505;stroke-dasharray:none;stroke-opacity:1"
       transform="matrix(0.06981406,-0.0975855,0.0975855,0.06981406,98.484722,153.28065)" /><path
       d="m 126.80639,142.54138 c -0.87993,-1.08948 -2.09159,-1.86702 -3.50559,-2.0805 -0.433,-0.0654 -1.14817,-0.0652 -1.58191,-0.004 -2.2438,0.31613 -3.94317,1.96635 -4.27587,4.14948 -0.066,0.43296 -0.0629,1.14657 -0.036,1.58405 0.29225,4.75626 3.34079,5.83249 9.71591,11.7025 0.095,0.0875 0.24882,0.0873 0.34406,-4e-4 6.37508,-5.8699 9.4235,-6.94604 9.71552,-11.70268 0.0268,-0.43716 0.0299,-1.15051 -0.036,-1.58347 -0.33271,-2.18313 -2.03207,-3.83335 -4.27587,-4.14948 -0.43374,-0.0611 -1.14895,-0.0613 -1.58201,0.004 -1.414,0.2135 -2.62564,0.99106 -3.50555,2.08056 -0.29361,0.36354 -0.68297,0.3635 -0.97662,-8e-5 z"
       fill="#ff0707"
       id="use4891"
       style="display:inline;fill:#000000;fill-opacity:1;stroke:none;stroke-width:0.127505;stroke-dasharray:none;stroke-opacity:1"
       transform="matrix(0.02117149,-0.05143064,0.05143064,0.02117149,112.24956,156.33128)" /><path
       d="m 126.80639,142.54138 c -0.87993,-1.08948 -2.09159,-1.86702 -3.50559,-2.0805 -0.433,-0.0654 -1.14817,-0.0652 -1.58191,-0.004 -2.2438,0.31613 -3.94317,1.96635 -4.27587,4.14948 -0.066,0.43296 -0.0629,1.14657 -0.036,1.58405 0.29225,4.75626 3.34079,5.83249 9.71591,11.7025 0.095,0.0875 0.24882,0.0873 0.34406,-4e-4 6.37508,-5.8699 9.4235,-6.94604 9.71552,-11.70268 0.0268,-0.43716 0.0299,-1.15051 -0.036,-1.58347 -0.33271,-2.18313 -2.03207,-3.83335 -4.27587,-4.14948 -0.43374,-0.0611 -1.14895,-0.0613 -1.58201,0.004 -1.414,0.2135 -2.62564,0.99106 -3.50555,2.08056 -0.29361,0.36354 -0.68297,0.3635 -0.97662,-8e-5 z"
       fill="#ff0707"
       id="use4895"
       style="display:inline;fill:#000000;fill-opacity:1;stroke:none;stroke-width:0.127505;stroke-dasharray:none;stroke-opacity:1"
       transform="matrix(0.04770525,-0.05279154,0.05279154,0.04770525,110.05128,141.0371)" /><path
       d="m 126.80639,142.54138 c -0.87993,-1.08948 -2.09159,-1.86702 -3.50559,-2.0805 -0.433,-0.0654 -1.14817,-0.0652 -1.58191,-0.004 -2.2438,0.31613 -3.94317,1.96635 -4.27587,4.14948 -0.066,0.43296 -0.0629,1.14657 -0.036,1.58405 0.29225,4.75626 3.34079,5.83249 9.71591,11.7025 0.095,0.0875 0.24882,0.0873 0.34406,-4e-4 6.37508,-5.8699 9.4235,-6.94604 9.71552,-11.70268 0.0268,-0.43716 0.0299,-1.15051 -0.036,-1.58347 -0.33271,-2.18313 -2.03207,-3.83335 -4.27587,-4.14948 -0.43374,-0.0611 -1.14895,-0.0613 -1.58201,0.004 -1.414,0.2135 -2.62564,0.99106 -3.50555,2.08056 -0.29361,0.36354 -0.68297,0.3635 -0.97662,-8e-5 z"
       fill="#ff0707"
       id="use4896"
       style="display:inline;fill:#000000;fill-opacity:1;stroke:none;stroke-width:0.127505;stroke-dasharray:none;stroke-opacity:1"
       transform="matrix(0.11492649,-0.06469112,0.06469112,0.11492649,100.00553,134.48923)" /><path
       d="m 126.80639,142.54138 c -0.87993,-1.08948 -2.09159,-1.86702 -3.50559,-2.0805 -0.433,-0.0654 -1.14817,-0.0652 -1.58191,-0.004 -2.2438,0.31613 -3.94317,1.96635 -4.27587,4.14948 -0.066,0.43296 -0.0629,1.14657 -0.036,1.58405 0.29225,4.75626 3.34079,5.83249 9.71591,11.7025 0.095,0.0875 0.24882,0.0873 0.34406,-4e-4 6.37508,-5.8699 9.4235,-6.94604 9.71552,-11.70268 0.0268,-0.43716 0.0299,-1.15051 -0.036,-1.58347 -0.33271,-2.18313 -2.03207,-3.83335 -4.27587,-4.14948 -0.43374,-0.0611 -1.14895,-0.0613 -1.58201,0.004 -1.414,0.2135 -2.62564,0.99106 -3.50555,2.08056 -0.29361,0.36354 -0.68297,0.3635 -0.97662,-8e-5 z"
       fill="#ff0707"
       id="use4897"
       style="display:inline;fill:#000000;fill-opacity:1;stroke:none;stroke-width:0.127505;stroke-dasharray:none;stroke-opacity:1"
       transform="matrix(-0.07591506,0.04924503,-0.04924503,-0.07591506,141.08874,150.43756)" /><path
       d="m 126.80639,142.54138 c -0.87993,-1.08948 -2.09159,-1.86702 -3.50559,-2.0805 -0.433,-0.0654 -1.14817,-0.0652 -1.58191,-0.004 -2.2438,0.31613 -3.94317,1.96635 -4.27587,4.14948 -0.066,0.43296 -0.0629,1.14657 -0.036,1.58405 0.29225,4.75626 3.34079,5.83249 9.71591,11.7025 0.095,0.0875 0.24882,0.0873 0.34406,-4e-4 6.37508,-5.8699 9.4235,-6.94604 9.71552,-11.70268 0.0268,-0.43716 0.0299,-1.15051 -0.036,-1.58347 -0.33271,-2.18313 -2.03207,-3.83335 -4.27587,-4.14948 -0.43374,-0.0611 -1.14895,-0.0613 -1.58201,0.004 -1.414,0.2135 -2.62564,0.99106 -3.50555,2.08056 -0.29361,0.36354 -0.68297,0.3635 -0.97662,-8e-5 z"
       fill="#ff0707"
       id="use4898"
       style="display:inline;fill:#000000;fill-opacity:1;stroke:none;stroke-width:0.127505;stroke-dasharray:none;stroke-opacity:1"
       transform="matrix(-0.05309892,-0.03895314,0.03895314,-0.05309892,125.5968,160.26268)" /><path
       d="m 126.80639,142.54138 c -0.87993,-1.08948 -2.09159,-1.86702 -3.50559,-2.0805 -0.433,-0.0654 -1.14817,-0.0652 -1.58191,-0.004 -2.2438,0.31613 -3.94317,1.96635 -4.27587,4.14948 -0.066,0.43296 -0.0629,1.14657 -0.036,1.58405 0.29225,4.75626 3.34079,5.83249 9.71591,11.7025 0.095,0.0875 0.24882,0.0873 0.34406,-4e-4 6.37508,-5.8699 9.4235,-6.94604 9.71552,-11.70268 0.0268,-0.43716 0.0299,-1.15051 -0.036,-1.58347 -0.33271,-2.18313 -2.03207,-3.83335 -4.27587,-4.14948 -0.43374,-0.0611 -1.14895,-0.0613 -1.58201,0.004 -1.414,0.2135 -2.62564,0.99106 -3.50555,2.08056 -0.29361,0.36354 -0.68297,0.3635 -0.97662,-8e-5 z"
       fill="#ff0707"
       id="use4899"
       style="display:inline;fill:#000000;fill-opacity:1;stroke:none;stroke-width:0.127505;stroke-dasharray:none;stroke-opacity:1"
       transform="matrix(-0.03794632,-0.06878851,0.06878851,-0.03794632,119.35863,163.43926)" /><path
       d="m 126.80639,142.54138 c -0.87993,-1.08948 -2.09159,-1.86702 -3.50559,-2.0805 -0.433,-0.0654 -1.14817,-0.0652 -1.58191,-0.004 -2.2438,0.31613 -3.94317,1.96635 -4.27587,4.14948 -0.066,0.43296 -0.0629,1.14657 -0.036,1.58405 0.29225,4.75626 3.34079,5.83249 9.71591,11.7025 0.095,0.0875 0.24882,0.0873 0.34406,-4e-4 6.37508,-5.8699 9.4235,-6.94604 9.71552,-11.70268 0.0268,-0.43716 0.0299,-1.15051 -0.036,-1.58347 -0.33271,-2.18313 -2.03207,-3.83335 -4.27587,-4.14948 -0.43374,-0.0611 -1.14895,-0.0613 -1.58201,0.004 -1.414,0.2135 -2.62564,0.99106 -3.50555,2.08056 -0.29361,0.36354 -0.68297,0.3635 -0.97662,-8e-5 z"
       fill="#ff0707"
       id="use4900"
       style="display:inline;fill:#000000;fill-opacity:1;stroke:none;stroke-width:0.127505;stroke-dasharray:none;stroke-opacity:1"
       transform="matrix(0.05555332,0.08615585,-0.08615585,0.05555332,129.69997,131.73292)" /><path
       d="m 126.80639,142.54138 c -0.87993,-1.08948 -2.09159,-1.86702 -3.50559,-2.0805 -0.433,-0.0654 -1.14817,-0.0652 -1.58191,-0.004 -2.2438,0.31613 -3.94317,1.96635 -4.27587,4.14948 -0.066,0.43296 -0.0629,1.14657 -0.036,1.58405 0.29225,4.75626 3.34079,5.83249 9.71591,11.7025 0.095,0.0875 0.24882,0.0873 0.34406,-4e-4 6.37508,-5.8699 9.4235,-6.94604 9.71552,-11.70268 0.0268,-0.43716 0.0299,-1.15051 -0.036,-1.58347 -0.33271,-2.18313 -2.03207,-3.83335 -4.27587,-4.14948 -0.43374,-0.0611 -1.14895,-0.0613 -1.58201,0.004 -1.414,0.2135 -2.62564,0.99106 -3.50555,2.08056 -0.29361,0.36354 -0.68297,0.3635 -0.97662,-8e-5 z"
       fill="#ff0707"
       id="use4901"
       style="display:inline;fill:#000000;fill-opacity:1;stroke:none;stroke-width:0.127505;stroke-dasharray:none;stroke-opacity:1"
       transform="matrix(-0.07712787,0.06649117,-0.06649117,-0.07712787,144.29427,155.81167)" /><path
       d="m 126.80639,142.54138 c -0.87993,-1.08948 -2.09159,-1.86702 -3.50559,-2.0805 -0.433,-0.0654 -1.14817,-0.0652 -1.58191,-0.004 -2.2438,0.31613 -3.94317,1.96635 -4.27587,4.14948 -0.066,0.43296 -0.0629,1.14657 -0.036,1.58405 0.29225,4.75626 3.34079,5.83249 9.71591,11.7025 0.095,0.0875 0.24882,0.0873 0.34406,-4e-4 6.37508,-5.8699 9.4235,-6.94604 9.71552,-11.70268 0.0268,-0.43716 0.0299,-1.15051 -0.036,-1.58347 -0.33271,-2.18313 -2.03207,-3.83335 -4.27587,-4.14948 -0.43374,-0.0611 -1.14895,-0.0613 -1.58201,0.004 -1.414,0.2135 -2.62564,0.99106 -3.50555,2.08056 -0.29361,0.36354 -0.68297,0.3635 -0.97662,-8e-5 z"
       fill="#ff0707"
       id="use4902"
       style="display:inline;fill:#000000;fill-opacity:1;stroke:none;stroke-width:0.127505;stroke-dasharray:none;stroke-opacity:1"
       transform="matrix(-0.04127582,0.04015751,-0.04015751,-0.04127582,136.19194,155.71715)" /><path
       d="m 126.80639,142.54138 c -0.87993,-1.08948 -2.09159,-1.86702 -3.50559,-2.0805 -0.433,-0.0654 -1.14817,-0.0652 -1.58191,-0.004 -2.2438,0.31613 -3.94317,1.96635 -4.27587,4.14948 -0.066,0.43296 -0.0629,1.14657 -0.036,1.58405 0.29225,4.75626 3.34079,5.83249 9.71591,11.7025 0.095,0.0875 0.24882,0.0873 0.34406,-4e-4 6.37508,-5.8699 9.4235,-6.94604 9.71552,-11.70268 0.0268,-0.43716 0.0299,-1.15051 -0.036,-1.58347 -0.33271,-2.18313 -2.03207,-3.83335 -4.27587,-4.14948 -0.43374,-0.0611 -1.14895,-0.0613 -1.58201,0.004 -1.414,0.2135 -2.62564,0.99106 -3.50555,2.08056 -0.29361,0.36354 -0.68297,0.3635 -0.97662,-8e-5 z"
       fill="#ff0707"
       id="use4906"
       style="display:inline;fill:#000000;fill-opacity:1;stroke:none;stroke-width:0.127505;stroke-dasharray:none;stroke-opacity:1"
       transform="matrix(-0.06462828,-0.01562112,0.01562112,-0.06462828,133.33153,154.75132)" /><path
       d="m 126.80639,142.54138 c -0.87993,-1.08948 -2.09159,-1.86702 -3.50559,-2.0805 -0.433,-0.0654 -1.14817,-0.0652 -1.58191,-0.004 -2.2438,0.31613 -3.94317,1.96635 -4.27587,4.14948 -0.066,0.43296 -0.0629,1.14657 -0.036,1.58405 0.29225,4.75626 3.34079,5.83249 9.71591,11.7025 0.095,0.0875 0.24882,0.0873 0.34406,-4e-4 6.37508,-5.8699 9.4235,-6.94604 9.71552,-11.70268 0.0268,-0.43716 0.0299,-1.15051 -0.036,-1.58347 -0.33271,-2.18313 -2.03207,-3.83335 -4.27587,-4.14948 -0.43374,-0.0611 -1.14895,-0.0613 -1.58201,0.004 -1.414,0.2135 -2.62564,0.99106 -3.50555,2.08056 -0.29361,0.36354 -0.68297,0.3635 -0.97662,-8e-5 z"
       fill="#ff0707"
       id="use4907"
       style="display:inline;fill:#000000;fill-opacity:1;stroke:none;stroke-width:0.127505;stroke-dasharray:none;stroke-opacity:1"
       transform="matrix(0.04829936,0.08547841,-0.08547841,0.04829936,132.90229,126.8288)" /><path
       d="m 126.80639,142.54138 c -0.87993,-1.08948 -2.09159,-1.86702 -3.50559,-2.0805 -0.433,-0.0654 -1.14817,-0.0652 -1.58191,-0.004 -2.2438,0.31613 -3.94317,1.96635 -4.27587,4.14948 -0.066,0.43296 -0.0629,1.14657 -0.036,1.58405 0.29225,4.75626 3.34079,5.83249 9.71591,11.7025 0.095,0.0875 0.24882,0.0873 0.34406,-4e-4 6.37508,-5.8699 9.4235,-6.94604 9.71552,-11.70268 0.0268,-0.43716 0.0299,-1.15051 -0.036,-1.58347 -0.33271,-2.18313 -2.03207,-3.83335 -4.27587,-4.14948 -0.43374,-0.0611 -1.14895,-0.0613 -1.58201,0.004 -1.414,0.2135 -2.62564,0.99106 -3.50555,2.08056 -0.29361,0.36354 -0.68297,0.3635 -0.97662,-8e-5 z"
       fill="#ff0707"
       id="use4908"
       style="display:inline;fill:#000000;fill-opacity:1;stroke:none;stroke-width:0.127505;stroke-dasharray:none;stroke-opacity:1"
       transform="matrix(-0.01551693,0.05367926,-0.05367926,-0.01551693,136.35532,142.10042)" /><path
       d="m 126.80639,142.54138 c -0.87993,-1.08948 -2.09159,-1.86702 -3.50559,-2.0805 -0.433,-0.0654 -1.14817,-0.0652 -1.58191,-0.004 -2.2438,0.31613 -3.94317,1.96635 -4.27587,4.14948 -0.066,0.43296 -0.0629,1.14657 -0.036,1.58405 0.29225,4.75626 3.34079,5.83249 9.71591,11.7025 0.095,0.0875 0.24882,0.0873 0.34406,-4e-4 6.37508,-5.8699 9.4235,-6.94604 9.71552,-11.70268 0.0268,-0.43716 0.0299,-1.15051 -0.036,-1.58347 -0.33271,-2.18313 -2.03207,-3.83335 -4.27587,-4.14948 -0.43374,-0.0611 -1.14895,-0.0613 -1.58201,0.004 -1.414,0.2135 -2.62564,0.99106 -3.50555,2.08056 -0.29361,0.36354 -0.68297,0.3635 -0.97662,-8e-5 z"
       fill="#ff0707"
       id="use4909"
       style="display:inline;fill:#000000;fill-opacity:1;stroke:none;stroke-width:0.127505;stroke-dasharray:none;stroke-opacity:1"
       transform="matrix(0.0179688,-0.06636744,0.06636744,0.0179688,114.48072,154.72132)" /><path
       d="m 126.80639,142.54138 c -0.87993,-1.08948 -2.09159,-1.86702 -3.50559,-2.0805 -0.433,-0.0654 -1.14817,-0.0652 -1.58191,-0.004 -2.2438,0.31613 -3.94317,1.96635 -4.27587,4.14948 -0.066,0.43296 -0.0629,1.14657 -0.036,1.58405 0.29225,4.75626 3.34079,5.83249 9.71591,11.7025 0.095,0.0875 0.24882,0.0873 0.34406,-4e-4 6.37508,-5.8699 9.4235,-6.94604 9.71552,-11.70268 0.0268,-0.43716 0.0299,-1.15051 -0.036,-1.58347 -0.33271,-2.18313 -2.03207,-3.83335 -4.27587,-4.14948 -0.43374,-0.0611 -1.14895,-0.0613 -1.58201,0.004 -1.414,0.2135 -2.62564,0.99106 -3.50555,2.08056 -0.29361,0.36354 -0.68297,0.3635 -0.97662,-8e-5 z"
       fill="#ff0707"
       id="use4910"
       style="display:inline;fill:#000000;fill-opacity:1;stroke:none;stroke-width:0.127505;stroke-dasharray:none;stroke-opacity:1"
       transform="matrix(-0.02974874,-0.09058131,0.09058131,-0.02974874,116.95008,167.09082)" /><path
       d="m 126.80639,142.54138 c -0.87993,-1.08948 -2.09159,-1.86702 -3.50559,-2.0805 -0.433,-0.0654 -1.14817,-0.0652 -1.58191,-0.004 -2.2438,0.31613 -3.94317,1.96635 -4.27587,4.14948 -0.066,0.43296 -0.0629,1.14657 -0.036,1.58405 0.29225,4.75626 3.34079,5.83249 9.71591,11.7025 0.095,0.0875 0.24882,0.0873 0.34406,-4e-4 6.37508,-5.8699 9.4235,-6.94604 9.71552,-11.70268 0.0268,-0.43716 0.0299,-1.15051 -0.036,-1.58347 -0.33271,-2.18313 -2.03207,-3.83335 -4.27587,-4.14948 -0.43374,-0.0611 -1.14895,-0.0613 -1.58201,0.004 -1.414,0.2135 -2.62564,0.99106 -3.50555,2.08056 -0.29361,0.36354 -0.68297,0.3635 -0.97662,-8e-5 z"
       fill="#ff0707"
       id="use4911"
       style="display:inline;fill:#000000;fill-opacity:1;stroke:none;stroke-width:0.127505;stroke-dasharray:none;stroke-opacity:1"
       transform="matrix(0.07602841,0.00400585,-0.00400585,0.07602841,117.9302,141.39376)" /><path
       d="m 126.80639,142.54138 c -0.87993,-1.08948 -2.09159,-1.86702 -3.50559,-2.0805 -0.433,-0.0654 -1.14817,-0.0652 -1.58191,-0.004 -2.2438,0.31613 -3.94317,1.96635 -4.27587,4.14948 -0.066,0.43296 -0.0629,1.14657 -0.036,1.58405 0.29225,4.75626 3.34079,5.83249 9.71591,11.7025 0.095,0.0875 0.24882,0.0873 0.34406,-4e-4 6.37508,-5.8699 9.4235,-6.94604 9.71552,-11.70268 0.0268,-0.43716 0.0299,-1.15051 -0.036,-1.58347 -0.33271,-2.18313 -2.03207,-3.83335 -4.27587,-4.14948 -0.43374,-0.0611 -1.14895,-0.0613 -1.58201,0.004 -1.414,0.2135 -2.62564,0.99106 -3.50555,2.08056 -0.29361,0.36354 -0.68297,0.3635 -0.97662,-8e-5 z"
       fill="#ff0707"
       id="use4912"
       style="display:inline;fill:#000000;fill-opacity:1;stroke:none;stroke-width:0.127505;stroke-dasharray:none;stroke-opacity:1"
       transform="matrix(-0.00286377,0.10430049,-0.10430049,-0.00286377,142.81357,142.40221)" /><path
       d="m 126.80639,142.54138 c -0.87993,-1.08948 -2.09159,-1.86702 -3.50559,-2.0805 -0.433,-0.0654 -1.14817,-0.0652 -1.58191,-0.004 -2.2438,0.31613 -3.94317,1.96635 -4.27587,4.14948 -0.066,0.43296 -0.0629,1.14657 -0.036,1.58405 0.29225,4.75626 3.34079,5.83249 9.71591,11.7025 0.095,0.0875 0.24882,0.0873 0.34406,-4e-4 6.37508,-5.8699 9.4235,-6.94604 9.71552,-11.70268 0.0268,-0.43716 0.0299,-1.15051 -0.036,-1.58347 -0.33271,-2.18313 -2.03207,-3.83335 -4.27587,-4.14948 -0.43374,-0.0611 -1.14895,-0.0613 -1.58201,0.004 -1.414,0.2135 -2.62564,0.99106 -3.50555,2.08056 -0.29361,0.36354 -0.68297,0.3635 -0.97662,-8e-5 z"
       fill="#ff0707"
       id="use4915"
       style="display:inline;fill:#000000;fill-opacity:1;stroke:none;stroke-width:0.127505;stroke-dasharray:none;stroke-opacity:1"
       transform="matrix(-0.07335967,-0.03912219,0.03912219,-0.07335967,133.04811,157.37258)" /><path
       d="m 126.80639,142.54138 c -0.87993,-1.08948 -2.09159,-1.86702 -3.50559,-2.0805 -0.433,-0.0654 -1.14817,-0.0652 -1.58191,-0.004 -2.2438,0.31613 -3.94317,1.96635 -4.27587,4.14948 -0.066,0.43296 -0.0629,1.14657 -0.036,1.58405 0.29225,4.75626 3.34079,5.83249 9.71591,11.7025 0.095,0.0875 0.24882,0.0873 0.34406,-4e-4 6.37508,-5.8699 9.4235,-6.94604 9.71552,-11.70268 0.0268,-0.43716 0.0299,-1.15051 -0.036,-1.58347 -0.33271,-2.18313 -2.03207,-3.83335 -4.27587,-4.14948 -0.43374,-0.0611 -1.14895,-0.0613 -1.58201,0.004 -1.414,0.2135 -2.62564,0.99106 -3.50555,2.08056 -0.29361,0.36354 -0.68297,0.3635 -0.97662,-8e-5 z"
       fill="#ff0707"
       id="use4916"
       style="display:inline;fill:#000000;fill-opacity:1;stroke:none;stroke-width:0.127505;stroke-dasharray:none;stroke-opacity:1"
       transform="matrix(-0.09036263,-0.05326182,0.05326182,-0.09036263,133.21592,163.66244)" /><path
       d="m 126.80639,142.54138 c -0.87993,-1.08948 -2.09159,-1.86702 -3.50559,-2.0805 -0.433,-0.0654 -1.14817,-0.0652 -1.58191,-0.004 -2.2438,0.31613 -3.94317,1.96635 -4.27587,4.14948 -0.066,0.43296 -0.0629,1.14657 -0.036,1.58405 0.29225,4.75626 3.34079,5.83249 9.71591,11.7025 0.095,0.0875 0.24882,0.0873 0.34406,-4e-4 6.37508,-5.8699 9.4235,-6.94604 9.71552,-11.70268 0.0268,-0.43716 0.0299,-1.15051 -0.036,-1.58347 -0.33271,-2.18313 -2.03207,-3.83335 -4.27587,-4.14948 -0.43374,-0.0611 -1.14895,-0.0613 -1.58201,0.004 -1.414,0.2135 -2.62564,0.99106 -3.50555,2.08056 -0.29361,0.36354 -0.68297,0.3635 -0.97662,-8e-5 z"
       fill="#ff0707"
       id="use4917"
       style="display:inline;fill:#000000;fill-opacity:1;stroke:none;stroke-width:0.127505;stroke-dasharray:none;stroke-opacity:1"
       transform="matrix(-0.07686284,0.0452175,-0.0452175,-0.07686284,145.01426,150.60832)" /><path
       d="m 126.80639,142.54138 c -0.87993,-1.08948 -2.09159,-1.86702 -3.50559,-2.0805 -0.433,-0.0654 -1.14817,-0.0652 -1.58191,-0.004 -2.2438,0.31613 -3.94317,1.96635 -4.27587,4.14948 -0.066,0.43296 -0.0629,1.14657 -0.036,1.58405 0.29225,4.75626 3.34079,5.83249 9.71591,11.7025 0.095,0.0875 0.24882,0.0873 0.34406,-4e-4 6.37508,-5.8699 9.4235,-6.94604 9.71552,-11.70268 0.0268,-0.43716 0.0299,-1.15051 -0.036,-1.58347 -0.33271,-2.18313 -2.03207,-3.83335 -4.27587,-4.14948 -0.43374,-0.0611 -1.14895,-0.0613 -1.58201,0.004 -1.414,0.2135 -2.62564,0.99106 -3.50555,2.08056 -0.29361,0.36354 -0.68297,0.3635 -0.97662,-8e-5 z"
       fill="#ff0707"
       id="use4918"
       style="display:inline;fill:#000000;fill-opacity:1;stroke:none;stroke-width:0.127505;stroke-dasharray:none;stroke-opacity:1"
       transform="matrix(-0.06103202,0.09162161,-0.09162161,-0.06103202,149.62252,144.6514)" /><path
       d="m 126.80639,142.54138 c -0.87993,-1.08948 -2.09159,-1.86702 -3.50559,-2.0805 -0.433,-0.0654 -1.14817,-0.0652 -1.58191,-0.004 -2.2438,0.31613 -3.94317,1.96635 -4.27587,4.14948 -0.066,0.43296 -0.0629,1.14657 -0.036,1.58405 0.29225,4.75626 3.34079,5.83249 9.71591,11.7025 0.095,0.0875 0.24882,0.0873 0.34406,-4e-4 6.37508,-5.8699 9.4235,-6.94604 9.71552,-11.70268 0.0268,-0.43716 0.0299,-1.15051 -0.036,-1.58347 -0.33271,-2.18313 -2.03207,-3.83335 -4.27587,-4.14948 -0.43374,-0.0611 -1.14895,-0.0613 -1.58201,0.004 -1.414,0.2135 -2.62564,0.99106 -3.50555,2.08056 -0.29361,0.36354 -0.68297,0.3635 -0.97662,-8e-5 z"
       fill="#ff0707"
       id="use4919"
       style="display:inline;fill:#000000;fill-opacity:1;stroke:none;stroke-width:0.127505;stroke-dasharray:none;stroke-opacity:1"
       transform="matrix(-0.03338041,-0.09534672,0.09534672,-0.03338041,119.65645,166.17966)" /><path
       d="m 126.80639,142.54138 c -0.87993,-1.08948 -2.09159,-1.86702 -3.50559,-2.0805 -0.433,-0.0654 -1.14817,-0.0652 -1.58191,-0.004 -2.2438,0.31613 -3.94317,1.96635 -4.27587,4.14948 -0.066,0.43296 -0.0629,1.14657 -0.036,1.58405 0.29225,4.75626 3.34079,5.83249 9.71591,11.7025 0.095,0.0875 0.24882,0.0873 0.34406,-4e-4 6.37508,-5.8699 9.4235,-6.94604 9.71552,-11.70268 0.0268,-0.43716 0.0299,-1.15051 -0.036,-1.58347 -0.33271,-2.18313 -2.03207,-3.83335 -4.27587,-4.14948 -0.43374,-0.0611 -1.14895,-0.0613 -1.58201,0.004 -1.414,0.2135 -2.62564,0.99106 -3.50555,2.08056 -0.29361,0.36354 -0.68297,0.3635 -0.97662,-8e-5 z"
       fill="#ff0707"
       id="use4920"
       style="display:inline;fill:#000000;fill-opacity:1;stroke:none;stroke-width:0.127505;stroke-dasharray:none;stroke-opacity:1"
       transform="matrix(-0.11143928,-0.01147321,0.01147321,-0.11143928,141.20284,169.22168)" /><path
       d="m 126.80639,142.54138 c -0.87993,-1.08948 -2.09159,-1.86702 -3.50559,-2.0805 -0.433,-0.0654 -1.14817,-0.0652 -1.58191,-0.004 -2.2438,0.31613 -3.94317,1.96635 -4.27587,4.14948 -0.066,0.43296 -0.0629,1.14657 -0.036,1.58405 0.29225,4.75626 3.34079,5.83249 9.71591,11.7025 0.095,0.0875 0.24882,0.0873 0.34406,-4e-4 6.37508,-5.8699 9.4235,-6.94604 9.71552,-11.70268 0.0268,-0.43716 0.0299,-1.15051 -0.036,-1.58347 -0.33271,-2.18313 -2.03207,-3.83335 -4.27587,-4.14948 -0.43374,-0.0611 -1.14895,-0.0613 -1.58201,0.004 -1.414,0.2135 -2.62564,0.99106 -3.50555,2.08056 -0.29361,0.36354 -0.68297,0.3635 -0.97662,-8e-5 z"
       fill="#ff0707"
       id="use4921"
       style="display:inline;fill:#000000;fill-opacity:1;stroke:none;stroke-width:0.127505;stroke-dasharray:none;stroke-opacity:1"
       transform="matrix(0.0362795,-0.03132763,0.03132763,0.0362795,119.9396,151.45257)" /><path
       d="m 126.80639,142.54138 c -0.87993,-1.08948 -2.09159,-1.86702 -3.50559,-2.0805 -0.433,-0.0654 -1.14817,-0.0652 -1.58191,-0.004 -2.2438,0.31613 -3.94317,1.96635 -4.27587,4.14948 -0.066,0.43296 -0.0629,1.14657 -0.036,1.58405 0.29225,4.75626 3.34079,5.83249 9.71591,11.7025 0.095,0.0875 0.24882,0.0873 0.34406,-4e-4 6.37508,-5.8699 9.4235,-6.94604 9.71552,-11.70268 0.0268,-0.43716 0.0299,-1.15051 -0.036,-1.58347 -0.33271,-2.18313 -2.03207,-3.83335 -4.27587,-4.14948 -0.43374,-0.0611 -1.14895,-0.0613 -1.58201,0.004 -1.414,0.2135 -2.62564,0.99106 -3.50555,2.08056 -0.29361,0.36354 -0.68297,0.3635 -0.97662,-8e-5 z"
       fill="#ff0707"
       id="use4922"
       style="display:inline;fill:#000000;fill-opacity:1;stroke:none;stroke-width:0.127505;stroke-dasharray:none;stroke-opacity:1"
       transform="matrix(-0.07710514,0.03668099,-0.03668099,-0.07710514,144.3374,160.88401)" /><path
       d="m 126.80639,142.54138 c -0.87993,-1.08948 -2.09159,-1.86702 -3.50559,-2.0805 -0.433,-0.0654 -1.14817,-0.0652 -1.58191,-0.004 -2.2438,0.31613 -3.94317,1.96635 -4.27587,4.14948 -0.066,0.43296 -0.0629,1.14657 -0.036,1.58405 0.29225,4.75626 3.34079,5.83249 9.71591,11.7025 0.095,0.0875 0.24882,0.0873 0.34406,-4e-4 6.37508,-5.8699 9.4235,-6.94604 9.71552,-11.70268 0.0268,-0.43716 0.0299,-1.15051 -0.036,-1.58347 -0.33271,-2.18313 -2.03207,-3.83335 -4.27587,-4.14948 -0.43374,-0.0611 -1.14895,-0.0613 -1.58201,0.004 -1.414,0.2135 -2.62564,0.99106 -3.50555,2.08056 -0.29361,0.36354 -0.68297,0.3635 -0.97662,-8e-5 z"
       fill="#ff0707"
       id="use4925"
       style="display:inline;fill:#000000;fill-opacity:1;stroke:none;stroke-width:0.127505;stroke-dasharray:none;stroke-opacity:1"
       transform="matrix(0.01542739,-0.05030876,0.05030876,0.01542739,121.6103,145.33756)" /><path
       d="m 126.80639,142.54138 c -0.87993,-1.08948 -2.09159,-1.86702 -3.50559,-2.0805 -0.433,-0.0654 -1.14817,-0.0652 -1.58191,-0.004 -2.2438,0.31613 -3.94317,1.96635 -4.27587,4.14948 -0.066,0.43296 -0.0629,1.14657 -0.036,1.58405 0.29225,4.75626 3.34079,5.83249 9.71591,11.7025 0.095,0.0875 0.24882,0.0873 0.34406,-4e-4 6.37508,-5.8699 9.4235,-6.94604 9.71552,-11.70268 0.0268,-0.43716 0.0299,-1.15051 -0.036,-1.58347 -0.33271,-2.18313 -2.03207,-3.83335 -4.27587,-4.14948 -0.43374,-0.0611 -1.14895,-0.0613 -1.58201,0.004 -1.414,0.2135 -2.62564,0.99106 -3.50555,2.08056 -0.29361,0.36354 -0.68297,0.3635 -0.97662,-8e-5 z"
       fill="#ff0707"
       id="use4926"
       style="display:inline;fill:#000000;fill-opacity:1;stroke:none;stroke-width:0.127505;stroke-dasharray:none;stroke-opacity:1"
       transform="matrix(-0.00272072,-0.06024259,0.06024259,-0.00272072,122.7435,151.03031)" /><path
       d="m 126.80639,142.54138 c -0.87993,-1.08948 -2.09159,-1.86702 -3.50559,-2.0805 -0.433,-0.0654 -1.14817,-0.0652 -1.58191,-0.004 -2.2438,0.31613 -3.94317,1.96635 -4.27587,4.14948 -0.066,0.43296 -0.0629,1.14657 -0.036,1.58405 0.29225,4.75626 3.34079,5.83249 9.71591,11.7025 0.095,0.0875 0.24882,0.0873 0.34406,-4e-4 6.37508,-5.8699 9.4235,-6.94604 9.71552,-11.70268 0.0268,-0.43716 0.0299,-1.15051 -0.036,-1.58347 -0.33271,-2.18313 -2.03207,-3.83335 -4.27587,-4.14948 -0.43374,-0.0611 -1.14895,-0.0613 -1.58201,0.004 -1.414,0.2135 -2.62564,0.99106 -3.50555,2.08056 -0.29361,0.36354 -0.68297,0.3635 -0.97662,-8e-5 z"
       fill="#ff0707"
       id="use4927"
       style="display:inline;fill:#000000;fill-opacity:1;stroke:none;stroke-width:0.127505;stroke-dasharray:none;stroke-opacity:1"
       transform="matrix(-0.06117374,-0.04844721,0.04844721,-0.06117374,131.56265,160.38341)" /><path
       d="m 126.80639,142.54138 c -0.87993,-1.08948 -2.09159,-1.86702 -3.50559,-2.0805 -0.433,-0.0654 -1.14817,-0.0652 -1.58191,-0.004 -2.2438,0.31613 -3.94317,1.96635 -4.27587,4.14948 -0.066,0.43296 -0.0629,1.14657 -0.036,1.58405 0.29225,4.75626 3.34079,5.83249 9.71591,11.7025 0.095,0.0875 0.24882,0.0873 0.34406,-4e-4 6.37508,-5.8699 9.4235,-6.94604 9.71552,-11.70268 0.0268,-0.43716 0.0299,-1.15051 -0.036,-1.58347 -0.33271,-2.18313 -2.03207,-3.83335 -4.27587,-4.14948 -0.43374,-0.0611 -1.14895,-0.0613 -1.58201,0.004 -1.414,0.2135 -2.62564,0.99106 -3.50555,2.08056 -0.29361,0.36354 -0.68297,0.3635 -0.97662,-8e-5 z"
       fill="#ff0707"
       id="use4928"
       style="display:inline;fill:#000000;fill-opacity:1;stroke:none;stroke-width:0.127505;stroke-dasharray:none;stroke-opacity:1"
       transform="matrix(0.08700403,0.05196342,-0.05196342,0.08700403,127.59595,127.71056)" /><path
       d="m 126.80639,142.54138 c -0.87993,-1.08948 -2.09159,-1.86702 -3.50559,-2.0805 -0.433,-0.0654 -1.14817,-0.0652 -1.58191,-0.004 -2.2438,0.31613 -3.94317,1.96635 -4.27587,4.14948 -0.066,0.43296 -0.0629,1.14657 -0.036,1.58405 0.29225,4.75626 3.34079,5.83249 9.71591,11.7025 0.095,0.0875 0.24882,0.0873 0.34406,-4e-4 6.37508,-5.8699 9.4235,-6.94604 9.71552,-11.70268 0.0268,-0.43716 0.0299,-1.15051 -0.036,-1.58347 -0.33271,-2.18313 -2.03207,-3.83335 -4.27587,-4.14948 -0.43374,-0.0611 -1.14895,-0.0613 -1.58201,0.004 -1.414,0.2135 -2.62564,0.99106 -3.50555,2.08056 -0.29361,0.36354 -0.68297,0.3635 -0.97662,-8e-5 z"
       fill="#ff0707"
       id="use4929"
       style="display:inline;fill:#000000;fill-opacity:1;stroke:none;stroke-width:0.127505;stroke-dasharray:none;stroke-opacity:1"
       transform="matrix(-0.04557114,0.02312976,-0.02312976,-0.04557114,140.58053,152.69355)" /><path
       d="m 126.80639,142.54138 c -0.87993,-1.08948 -2.09159,-1.86702 -3.50559,-2.0805 -0.433,-0.0654 -1.14817,-0.0652 -1.58191,-0.004 -2.2438,0.31613 -3.94317,1.96635 -4.27587,4.14948 -0.066,0.43296 -0.0629,1.14657 -0.036,1.58405 0.29225,4.75626 3.34079,5.83249 9.71591,11.7025 0.095,0.0875 0.24882,0.0873 0.34406,-4e-4 6.37508,-5.8699 9.4235,-6.94604 9.71552,-11.70268 0.0268,-0.43716 0.0299,-1.15051 -0.036,-1.58347 -0.33271,-2.18313 -2.03207,-3.83335 -4.27587,-4.14948 -0.43374,-0.0611 -1.14895,-0.0613 -1.58201,0.004 -1.414,0.2135 -2.62564,0.99106 -3.50555,2.08056 -0.29361,0.36354 -0.68297,0.3635 -0.97662,-8e-5 z"
       fill="#ff0707"
       id="use4930"
       style="display:inline;fill:#000000;fill-opacity:1;stroke:none;stroke-width:0.127505;stroke-dasharray:none;stroke-opacity:1"
       transform="matrix(-0.04733605,-0.04268615,0.04268615,-0.04733605,130.68554,162.83303)" /><path
       d="m 126.80639,142.54138 c -0.87993,-1.08948 -2.09159,-1.86702 -3.50559,-2.0805 -0.433,-0.0654 -1.14817,-0.0652 -1.58191,-0.004 -2.2438,0.31613 -3.94317,1.96635 -4.27587,4.14948 -0.066,0.43296 -0.0629,1.14657 -0.036,1.58405 0.29225,4.75626 3.34079,5.83249 9.71591,11.7025 0.095,0.0875 0.24882,0.0873 0.34406,-4e-4 6.37508,-5.8699 9.4235,-6.94604 9.71552,-11.70268 0.0268,-0.43716 0.0299,-1.15051 -0.036,-1.58347 -0.33271,-2.18313 -2.03207,-3.83335 -4.27587,-4.14948 -0.43374,-0.0611 -1.14895,-0.0613 -1.58201,0.004 -1.414,0.2135 -2.62564,0.99106 -3.50555,2.08056 -0.29361,0.36354 -0.68297,0.3635 -0.97662,-8e-5 z"
       fill="#ff0707"
       id="use4931"
       style="display:inline;fill:#000000;fill-opacity:1;stroke:none;stroke-width:0.127505;stroke-dasharray:none;stroke-opacity:1"
       transform="matrix(-0.10290138,0.02122222,-0.02122222,-0.10290138,147.27377,164.89888)" /><path
       d="m 126.80639,142.54138 c -0.87993,-1.08948 -2.09159,-1.86702 -3.50559,-2.0805 -0.433,-0.0654 -1.14817,-0.0652 -1.58191,-0.004 -2.2438,0.31613 -3.94317,1.96635 -4.27587,4.14948 -0.066,0.43296 -0.0629,1.14657 -0.036,1.58405 0.29225,4.75626 3.34079,5.83249 9.71591,11.7025 0.095,0.0875 0.24882,0.0873 0.34406,-4e-4 6.37508,-5.8699 9.4235,-6.94604 9.71552,-11.70268 0.0268,-0.43716 0.0299,-1.15051 -0.036,-1.58347 -0.33271,-2.18313 -2.03207,-3.83335 -4.27587,-4.14948 -0.43374,-0.0611 -1.14895,-0.0613 -1.58201,0.004 -1.414,0.2135 -2.62564,0.99106 -3.50555,2.08056 -0.29361,0.36354 -0.68297,0.3635 -0.97662,-8e-5 z"
       fill="#ff0707"
       id="use4935"
       style="display:inline;fill:#000000;fill-opacity:1;stroke:none;stroke-width:0.127505;stroke-dasharray:none;stroke-opacity:1"
       transform="matrix(0.09656084,0.03458518,-0.03458518,0.09656084,125.36172,122.36181)" /><path
       d="m 126.80639,142.54138 c -0.87993,-1.08948 -2.09159,-1.86702 -3.50559,-2.0805 -0.433,-0.0654 -1.14817,-0.0652 -1.58191,-0.004 -2.2438,0.31613 -3.94317,1.96635 -4.27587,4.14948 -0.066,0.43296 -0.0629,1.14657 -0.036,1.58405 0.29225,4.75626 3.34079,5.83249 9.71591,11.7025 0.095,0.0875 0.24882,0.0873 0.34406,-4e-4 6.37508,-5.8699 9.4235,-6.94604 9.71552,-11.70268 0.0268,-0.43716 0.0299,-1.15051 -0.036,-1.58347 -0.33271,-2.18313 -2.03207,-3.83335 -4.27587,-4.14948 -0.43374,-0.0611 -1.14895,-0.0613 -1.58201,0.004 -1.414,0.2135 -2.62564,0.99106 -3.50555,2.08056 -0.29361,0.36354 -0.68297,0.3635 -0.97662,-8e-5 z"
       fill="#ff0707"
       id="use4936"
       style="display:inline;fill:#000000;fill-opacity:1;stroke:none;stroke-width:0.127505;stroke-dasharray:none;stroke-opacity:1"
       transform="matrix(-0.06352003,0.06205207,-0.06205207,-0.06352003,150.83685,144.2708)" /><path
       d="m 126.80639,142.54138 c -0.87993,-1.08948 -2.09159,-1.86702 -3.50559,-2.0805 -0.433,-0.0654 -1.14817,-0.0652 -1.58191,-0.004 -2.2438,0.31613 -3.94317,1.96635 -4.27587,4.14948 -0.066,0.43296 -0.0629,1.14657 -0.036,1.58405 0.29225,4.75626 3.34079,5.83249 9.71591,11.7025 0.095,0.0875 0.24882,0.0873 0.34406,-4e-4 6.37508,-5.8699 9.4235,-6.94604 9.71552,-11.70268 0.0268,-0.43716 0.0299,-1.15051 -0.036,-1.58347 -0.33271,-2.18313 -2.03207,-3.83335 -4.27587,-4.14948 -0.43374,-0.0611 -1.14895,-0.0613 -1.58201,0.004 -1.414,0.2135 -2.62564,0.99106 -3.50555,2.08056 -0.29361,0.36354 -0.68297,0.3635 -0.97662,-8e-5 z"
       fill="#ff0707"
       id="use4937"
       style="display:inline;fill:#000000;fill-opacity:1;stroke:none;stroke-width:0.127505;stroke-dasharray:none;stroke-opacity:1"
       transform="matrix(0.03876429,0.07569767,-0.07569767,0.03876429,139.05709,129.50486)" /><path
       d="m 126.80639,142.54138 c -0.87993,-1.08948 -2.09159,-1.86702 -3.50559,-2.0805 -0.433,-0.0654 -1.14817,-0.0652 -1.58191,-0.004 -2.2438,0.31613 -3.94317,1.96635 -4.27587,4.14948 -0.066,0.43296 -0.0629,1.14657 -0.036,1.58405 0.29225,4.75626 3.34079,5.83249 9.71591,11.7025 0.095,0.0875 0.24882,0.0873 0.34406,-4e-4 6.37508,-5.8699 9.4235,-6.94604 9.71552,-11.70268 0.0268,-0.43716 0.0299,-1.15051 -0.036,-1.58347 -0.33271,-2.18313 -2.03207,-3.83335 -4.27587,-4.14948 -0.43374,-0.0611 -1.14895,-0.0613 -1.58201,0.004 -1.414,0.2135 -2.62564,0.99106 -3.50555,2.08056 -0.29361,0.36354 -0.68297,0.3635 -0.97662,-8e-5 z"
       fill="#ff0707"
       id="use4938"
       style="display:inline;fill:#000000;fill-opacity:1;stroke:none;stroke-width:0.127505;stroke-dasharray:none;stroke-opacity:1"
       transform="matrix(0.03654476,-0.02685126,0.02685126,0.03654476,124.5407,144.65486)" /><path
       d="m 126.80639,142.54138 c -0.87993,-1.08948 -2.09159,-1.86702 -3.50559,-2.0805 -0.433,-0.0654 -1.14817,-0.0652 -1.58191,-0.004 -2.2438,0.31613 -3.94317,1.96635 -4.27587,4.14948 -0.066,0.43296 -0.0629,1.14657 -0.036,1.58405 0.29225,4.75626 3.34079,5.83249 9.71591,11.7025 0.095,0.0875 0.24882,0.0873 0.34406,-4e-4 6.37508,-5.8699 9.4235,-6.94604 9.71552,-11.70268 0.0268,-0.43716 0.0299,-1.15051 -0.036,-1.58347 -0.33271,-2.18313 -2.03207,-3.83335 -4.27587,-4.14948 -0.43374,-0.0611 -1.14895,-0.0613 -1.58201,0.004 -1.414,0.2135 -2.62564,0.99106 -3.50555,2.08056 -0.29361,0.36354 -0.68297,0.3635 -0.97662,-8e-5 z"
       fill="#ff0707"
       id="use4939"
       style="display:inline;fill:#000000;fill-opacity:1;stroke:none;stroke-width:0.127505;stroke-dasharray:none;stroke-opacity:1"
       transform="matrix(0.07039542,-0.02722068,0.02722068,0.07039542,120.17736,141.58087)" /><path
       d="m 126.80639,142.54138 c -0.87993,-1.08948 -2.09159,-1.86702 -3.50559,-2.0805 -0.433,-0.0654 -1.14817,-0.0652 -1.58191,-0.004 -2.2438,0.31613 -3.94317,1.96635 -4.27587,4.14948 -0.066,0.43296 -0.0629,1.14657 -0.036,1.58405 0.29225,4.75626 3.34079,5.83249 9.71591,11.7025 0.095,0.0875 0.24882,0.0873 0.34406,-4e-4 6.37508,-5.8699 9.4235,-6.94604 9.71552,-11.70268 0.0268,-0.43716 0.0299,-1.15051 -0.036,-1.58347 -0.33271,-2.18313 -2.03207,-3.83335 -4.27587,-4.14948 -0.43374,-0.0611 -1.14895,-0.0613 -1.58201,0.004 -1.414,0.2135 -2.62564,0.99106 -3.50555,2.08056 -0.29361,0.36354 -0.68297,0.3635 -0.97662,-8e-5 z"
       fill="#ff0707"
       id="use4940"
       style="display:inline;fill:#000000;fill-opacity:1;stroke:none;stroke-width:0.127505;stroke-dasharray:none;stroke-opacity:1"
       transform="matrix(-0.09107727,0.0535968,-0.0535968,-0.09107727,152.50667,157.16616)" /><path
       d="m 126.80639,142.54138 c -0.87993,-1.08948 -2.09159,-1.86702 -3.50559,-2.0805 -0.433,-0.0654 -1.14817,-0.0652 -1.58191,-0.004 -2.2438,0.31613 -3.94317,1.96635 -4.27587,4.14948 -0.066,0.43296 -0.0629,1.14657 -0.036,1.58405 0.29225,4.75626 3.34079,5.83249 9.71591,11.7025 0.095,0.0875 0.24882,0.0873 0.34406,-4e-4 6.37508,-5.8699 9.4235,-6.94604 9.71552,-11.70268 0.0268,-0.43716 0.0299,-1.15051 -0.036,-1.58347 -0.33271,-2.18313 -2.03207,-3.83335 -4.27587,-4.14948 -0.43374,-0.0611 -1.14895,-0.0613 -1.58201,0.004 -1.414,0.2135 -2.62564,0.99106 -3.50555,2.08056 -0.29361,0.36354 -0.68297,0.3635 -0.97662,-8e-5 z"
       fill="#ff0707"
       id="use4946"
       style="display:inline;fill:#000000;fill-opacity:1;stroke:none;stroke-width:0.127505;stroke-dasharray:none;stroke-opacity:1"
       transform="matrix(-0.03418533,0.06772411,-0.06772411,-0.03418533,149.67829,139.93601)" /><path
       d="m 126.80639,142.54138 c -0.87993,-1.08948 -2.09159,-1.86702 -3.50559,-2.0805 -0.433,-0.0654 -1.14817,-0.0652 -1.58191,-0.004 -2.2438,0.31613 -3.94317,1.96635 -4.27587,4.14948 -0.066,0.43296 -0.0629,1.14657 -0.036,1.58405 0.29225,4.75626 3.34079,5.83249 9.71591,11.7025 0.095,0.0875 0.24882,0.0873 0.34406,-4e-4 6.37508,-5.8699 9.4235,-6.94604 9.71552,-11.70268 0.0268,-0.43716 0.0299,-1.15051 -0.036,-1.58347 -0.33271,-2.18313 -2.03207,-3.83335 -4.27587,-4.14948 -0.43374,-0.0611 -1.14895,-0.0613 -1.58201,0.004 -1.414,0.2135 -2.62564,0.99106 -3.50555,2.08056 -0.29361,0.36354 -0.68297,0.3635 -0.97662,-8e-5 z"
       fill="#ff0707"
       id="use4947"
       style="display:inline;fill:#000000;fill-opacity:1;stroke:none;stroke-width:0.127505;stroke-dasharray:none;stroke-opacity:1"
       transform="matrix(0.05049824,-0.02329959,0.02329959,0.05049824,125.56245,140.79256)" /><path
       d="m 126.80639,142.54138 c -0.87993,-1.08948 -2.09159,-1.86702 -3.50559,-2.0805 -0.433,-0.0654 -1.14817,-0.0652 -1.58191,-0.004 -2.2438,0.31613 -3.94317,1.96635 -4.27587,4.14948 -0.066,0.43296 -0.0629,1.14657 -0.036,1.58405 0.29225,4.75626 3.34079,5.83249 9.71591,11.7025 0.095,0.0875 0.24882,0.0873 0.34406,-4e-4 6.37508,-5.8699 9.4235,-6.94604 9.71552,-11.70268 0.0268,-0.43716 0.0299,-1.15051 -0.036,-1.58347 -0.33271,-2.18313 -2.03207,-3.83335 -4.27587,-4.14948 -0.43374,-0.0611 -1.14895,-0.0613 -1.58201,0.004 -1.414,0.2135 -2.62564,0.99106 -3.50555,2.08056 -0.29361,0.36354 -0.68297,0.3635 -0.97662,-8e-5 z"
       fill="#ff0707"
       id="use4948"
       style="display:inline;fill:#000000;fill-opacity:1;stroke:none;stroke-width:0.127505;stroke-dasharray:none;stroke-opacity:1"
       transform="matrix(-0.06285676,-0.04191733,0.04191733,-0.06285676,136.84516,161.26669)" /><path
       d="m 126.80639,142.54138 c -0.87993,-1.08948 -2.09159,-1.86702 -3.50559,-2.0805 -0.433,-0.0654 -1.14817,-0.0652 -1.58191,-0.004 -2.2438,0.31613 -3.94317,1.96635 -4.27587,4.14948 -0.066,0.43296 -0.0629,1.14657 -0.036,1.58405 0.29225,4.75626 3.34079,5.83249 9.71591,11.7025 0.095,0.0875 0.24882,0.0873 0.34406,-4e-4 6.37508,-5.8699 9.4235,-6.94604 9.71552,-11.70268 0.0268,-0.43716 0.0299,-1.15051 -0.036,-1.58347 -0.33271,-2.18313 -2.03207,-3.83335 -4.27587,-4.14948 -0.43374,-0.0611 -1.14895,-0.0613 -1.58201,0.004 -1.414,0.2135 -2.62564,0.99106 -3.50555,2.08056 -0.29361,0.36354 -0.68297,0.3635 -0.97662,-8e-5 z"
       fill="#ff0707"
       id="use4949"
       style="display:inline;fill:#000000;fill-opacity:1;stroke:none;stroke-width:0.127505;stroke-dasharray:none;stroke-opacity:1"
       transform="matrix(0.05219612,-0.05988385,0.05988385,0.05219612,119.43248,148.36341)" /></g></svg>
